<?xml version="1.0" encoding="utf-8"?>
<!-- Generator: Adobe Illustrator 16.0.0, SVG Export Plug-In . SVG Version: 6.00 Build 0)  -->
<!DOCTYPE svg PUBLIC "-//W3C//DTD SVG 1.1 Tiny//EN" "http://www.w3.org/Graphics/SVG/1.1/DTD/svg11-tiny.dtd">
<svg version="1.1" baseProfile="tiny" id="Capa_1" xmlns="http://www.w3.org/2000/svg" xmlns:xlink="http://www.w3.org/1999/xlink"
	 x="0px" y="0px" width="800px" height="450px" viewBox="0 0 800 450" xml:space="preserve">
<g>
	<g>
		<path fill="#3FC0F0" d="M355.86,177.48c-7.73-74.11-70.38-131.87-146.53-131.88c-78.77,0-143.1,61.81-147.14,139.58l3.72,0.19
			c3.93-75.8,66.64-136.06,143.42-136.05c74.33,0,135.48,56.48,142.86,128.86l-11.9-10.49l-2.46,2.8l16.78,14.78l13.52-17.8
			l-2.97-2.26L355.86,177.48z"/>
		<path fill="#3FC0F0" d="M432.23,170.5l-2.46-2.8l-11.9,10.49c7.38-72.38,68.52-128.87,142.86-128.86
			c76.78,0,139.49,60.26,143.42,136.05l3.72-0.19C703.83,107.42,639.5,45.61,560.73,45.6c-76.15,0-138.8,57.77-146.53,131.88
			l-9.31-12.26l-2.97,2.26l13.52,17.8L432.23,170.5z"/>
		<path fill="#3FC0F0" d="M352.75,264.62c-3.93,75.8-66.64,136.06-143.42,136.05c-74.34,0-135.48-56.49-142.86-128.87l11.9,10.49
			l2.46-2.8l-16.77-14.78l-13.53,17.8l2.97,2.26l9.3-12.25c7.73,74.11,70.38,131.86,146.53,131.87
			c78.77,0,143.1-61.81,147.13-139.58L352.75,264.62L352.75,264.62z"/>
		<path fill="#3FC0F0" d="M719.53,282.52L706,264.71l-16.77,14.78l2.46,2.8l11.9-10.5c-7.38,72.38-68.52,128.87-142.86,128.87
			c-76.78,0-139.49-60.26-143.42-136.05l-3.72,0.19c4.03,77.77,68.36,139.58,147.13,139.58c76.15,0,138.8-57.76,146.53-131.87
			l9.3,12.25L719.53,282.52z"/>
	</g>
	<g>
		<path fill="#3FC0F0" stroke="#1D71B8" stroke-width="2" stroke-miterlimit="10" d="M385.03,225.24c0,0-17.05,24.2-36.31,24.2
			c-13.37,0-24.21-10.83-24.21-24.2c0-13.37,10.83-24.2,24.21-24.2C367.98,201.04,385.03,225.24,385.03,225.24z"/>
		<path fill="#3FC0F0" stroke="#1D71B8" stroke-width="2" stroke-miterlimit="10" d="M385.03,225.21c0,0,17.05,24.2,36.31,24.2
			c13.37,0,24.21-10.83,24.21-24.2c0-13.37-10.83-24.2-24.21-24.2C402.08,201.01,385.03,225.21,385.03,225.21z"/>
	</g>
	<path fill="#878787" d="M75.78,229.66c-5.7-2.2-6.68-5.79-6.5-8.45c3.12-2.2,5.87-6.54,5.87-11.54c0-7.22-2.56-13.08-10.06-13.08
		c-7.26,0-10.06,5.86-10.06,13.08c0,4.67,2.07,8.77,4.92,11.08c0.31,2.71-0.47,6.6-6.47,8.92c-8.55,3.3-13.53,5.33-15.56,18.96
		h26.72h26.68C89.3,235,84.34,232.96,75.78,229.66z"/>
	<g>
		<path fill="#878787" d="M746.6,220.05c-5.67-2.19-6.42-5.79-6.42-8.27v0.05c3.31-2.48,5.8-6.52,5.8-11.52
			c0-7.22-2.6-13.07-10.1-13.07c-7.26,0-9.88,5.86-9.88,13.09c0,4.67,1.79,8.77,5.1,11.08v0c0,2.71-0.68,6.6-6.67,8.91
			c-2.91,1.12-5.49,2.07-7.6,3.41c0.41,0.94,1.38,1.82,3.82,2.77c7.19,2.77,12.31,4.83,15.41,12.26h26.02
			C760.05,225.54,755.16,223.35,746.6,220.05z"/>
		<path fill="#878787" d="M693.23,220.29c-5.69-2.19-6.68-5.77-6.5-8.43l0,0c3.12-2.21,5.87-6.54,5.87-11.53
			c0-7.22-2.56-13.08-10.06-13.08c-7.26,0-10.06,5.86-10.06,13.08c0,4.67,2.07,8.76,4.92,11.08l0,0c0.31,2.71-0.47,6.34-6.47,8.65
			c-8.55,3.3-13.53,5.48-15.56,18.7h24.78c3.09-7.44,8.27-9.48,15.47-12.25c2.93-1.13,3.83-2.41,4.07-3.5
			C697.82,221.97,695.68,221.24,693.23,220.29z"/>
		<path fill="#878787" d="M731.95,238.95c-2.7-4.96-6.86-6.65-12.69-8.89c-2.86-1.1-4.53-2.47-5.46-3.98c0,0-0.01,0.03-0.01,0.04
			c-0.92-1.49-1.11-3.03-1.02-4.34c3.12-2.21,5.87-6.54,5.87-11.53c0-7.22-2.56-13.08-10.06-13.08c-7.26,0-10.06,5.86-10.06,13.08
			c0,4.67,2.07,8.76,4.92,11.08c0.14,1.19,0.06,2.6-0.57,4.01c0,0-0.01-0.01-0.01-0.01c-0.81,1.8-2.54,3.54-5.89,4.83
			c-5.82,2.25-9.99,3.84-12.69,8.8c-1.27,2.48-2.22,6.42-2.86,9.72h26.72h26.68C734.16,245.37,733.21,241.43,731.95,238.95z
			 M708.76,239.14c-0.01-0.06-0.02-0.12-0.03-0.18c-0.01,0.06-0.02,0.12-0.03,0.18h-0.02c0.02,0,0.03-0.11,0.05-0.22
			c0,0.01,0,0.02,0.01,0.04c0-0.01,0-0.03,0.01-0.04c0.02,0.11,0.03,0.22,0.05,0.22H708.76z"/>
	</g>
	<g>
		<path d="M142.76,229.78c-1.16,0-2.09-0.39-2.78-1.16c-0.69-0.78-1.03-1.78-1.03-3.02v-0.34c0-1.19,0.35-2.18,1.06-2.97
			c0.71-0.79,1.55-1.19,2.51-1.19c1.12,0,1.97,0.34,2.55,1.02s0.87,1.59,0.87,2.72v0.95h-5.42l-0.02,0.04
			c0.02,0.8,0.22,1.46,0.61,1.98c0.39,0.52,0.94,0.78,1.65,0.78c0.52,0,0.97-0.07,1.36-0.22c0.39-0.15,0.73-0.35,1.01-0.61
			l0.59,0.99c-0.3,0.29-0.69,0.53-1.19,0.73C144.04,229.68,143.45,229.78,142.76,229.78z M142.53,222.3c-0.51,0-0.95,0.21-1.31,0.65
			c-0.36,0.43-0.58,0.97-0.66,1.62l0.02,0.04h3.86v-0.2c0-0.6-0.16-1.1-0.48-1.5C143.63,222.5,143.16,222.3,142.53,222.3z"/>
		<path d="M153.85,223.88h-1.14l-0.25-1c-0.19-0.17-0.42-0.32-0.7-0.42c-0.28-0.11-0.6-0.16-0.95-0.16c-0.54,0-0.94,0.12-1.21,0.36
			c-0.26,0.24-0.39,0.52-0.39,0.86c0,0.33,0.12,0.59,0.35,0.78c0.23,0.19,0.7,0.36,1.41,0.51c1.06,0.23,1.84,0.53,2.36,0.92
			c0.51,0.39,0.77,0.91,0.77,1.57c0,0.74-0.3,1.34-0.9,1.8c-0.6,0.46-1.38,0.69-2.35,0.69c-0.63,0-1.2-0.07-1.71-0.22
			c-0.51-0.15-0.96-0.36-1.35-0.64l-0.01-1.91h1.14l0.29,1.12c0.17,0.16,0.41,0.28,0.71,0.35c0.3,0.07,0.61,0.11,0.92,0.11
			c0.54,0,0.96-0.11,1.27-0.33c0.31-0.22,0.46-0.5,0.46-0.86c0-0.34-0.13-0.61-0.38-0.83c-0.25-0.22-0.74-0.41-1.45-0.56
			c-1.01-0.22-1.78-0.52-2.29-0.9s-0.77-0.9-0.77-1.54c0-0.68,0.29-1.26,0.87-1.74c0.58-0.48,1.33-0.72,2.26-0.72
			c0.63,0,1.2,0.08,1.71,0.25s0.92,0.39,1.26,0.69L153.85,223.88z"/>
		<path d="M155.33,231.85l1.26-0.22v-9.18l-1.26-0.22v-0.98h2.57l0.14,1.02c0.28-0.38,0.62-0.67,1.02-0.87
			c0.4-0.2,0.86-0.3,1.39-0.3c1.04,0,1.84,0.41,2.41,1.23s0.86,1.91,0.86,3.26v0.16c0,1.21-0.29,2.18-0.87,2.92
			c-0.58,0.74-1.37,1.11-2.39,1.11c-0.52,0-0.97-0.09-1.36-0.26c-0.39-0.17-0.72-0.43-0.99-0.77v2.88l1.26,0.22v0.98h-4.04V231.85z
			 M162.19,225.59c0-0.95-0.19-1.73-0.56-2.34c-0.37-0.61-0.92-0.91-1.65-0.91c-0.43,0-0.8,0.1-1.11,0.29
			c-0.31,0.2-0.56,0.46-0.75,0.8v4.07c0.19,0.34,0.44,0.61,0.75,0.8c0.31,0.19,0.68,0.28,1.13,0.28c0.72,0,1.27-0.26,1.64-0.79
			c0.37-0.52,0.56-1.21,0.56-2.05V225.59z"/>
		<path d="M170.56,229.61c-0.05-0.23-0.08-0.43-0.11-0.61c-0.03-0.18-0.04-0.36-0.05-0.54c-0.29,0.38-0.66,0.69-1.1,0.94
			c-0.44,0.25-0.91,0.38-1.41,0.38c-0.87,0-1.53-0.21-1.99-0.64s-0.68-1.02-0.68-1.8c0-0.79,0.32-1.41,0.96-1.84
			c0.64-0.43,1.52-0.64,2.64-0.64h1.57v-0.97c0-0.49-0.15-0.88-0.46-1.16c-0.31-0.29-0.74-0.43-1.29-0.43
			c-0.38,0-0.72,0.05-1.01,0.15c-0.29,0.1-0.53,0.23-0.71,0.4l-0.16,0.88h-1.17v-1.62c0.38-0.3,0.84-0.55,1.38-0.73
			c0.54-0.18,1.13-0.27,1.76-0.27c0.95,0,1.72,0.24,2.3,0.73c0.59,0.48,0.88,1.18,0.88,2.08v4.03c0,0.11,0,0.21,0,0.32
			c0,0.1,0.01,0.21,0.02,0.31l0.62,0.09v0.97H170.56z M168.11,228.5c0.51,0,0.97-0.12,1.38-0.36c0.42-0.24,0.72-0.53,0.9-0.87v-1.38
			h-1.62c-0.62,0-1.12,0.14-1.48,0.43c-0.36,0.29-0.54,0.64-0.54,1.05c0,0.37,0.11,0.65,0.34,0.84
			C167.31,228.4,167.65,228.5,168.11,228.5z"/>
		<path d="M177.57,228.58c0.51,0,0.95-0.16,1.33-0.47c0.38-0.31,0.58-0.69,0.58-1.15h1.37l0.02,0.04c0.03,0.72-0.3,1.36-0.96,1.92
			c-0.67,0.56-1.44,0.84-2.33,0.84c-1.22,0-2.14-0.4-2.79-1.19c-0.64-0.79-0.96-1.79-0.96-2.99v-0.32c0-1.19,0.32-2.18,0.97-2.98
			c0.64-0.8,1.57-1.19,2.78-1.19c0.67,0,1.27,0.11,1.8,0.33c0.53,0.22,0.98,0.53,1.33,0.91l0.07,1.86h-1.21l-0.33-1.31
			c-0.18-0.17-0.41-0.32-0.7-0.42s-0.6-0.16-0.96-0.16c-0.8,0-1.37,0.29-1.71,0.86c-0.34,0.58-0.51,1.28-0.51,2.11v0.32
			c0,0.86,0.17,1.57,0.51,2.14C176.2,228.3,176.77,228.58,177.57,228.58z"/>
		<path d="M182.35,228.64l1.26-0.22v-5.97l-1.26-0.22v-0.98h2.78v7.17l1.26,0.22v0.97h-4.04V228.64z M185.13,219.11h-1.52v-1.55
			h1.52V219.11z"/>
		<path d="M187.55,225.36c0-1.24,0.33-2.25,1-3.06c0.67-0.8,1.58-1.2,2.73-1.2c1.15,0,2.07,0.4,2.74,1.2
			c0.67,0.8,1.01,1.82,1.01,3.06v0.17c0,1.25-0.33,2.27-1,3.06c-0.67,0.79-1.58,1.19-2.73,1.19c-1.16,0-2.07-0.4-2.74-1.19
			c-0.67-0.8-1-1.81-1-3.06V225.36z M189.08,225.53c0,0.89,0.19,1.62,0.56,2.19c0.37,0.58,0.93,0.87,1.67,0.87
			c0.72,0,1.27-0.29,1.65-0.87c0.38-0.58,0.56-1.31,0.56-2.19v-0.17c0-0.88-0.19-1.6-0.56-2.19c-0.38-0.58-0.93-0.87-1.66-0.87
			s-1.28,0.29-1.65,0.87c-0.37,0.58-0.56,1.31-0.56,2.19V225.53z"/>
		<path d="M200.36,228.64l1.26-0.22v-5.97l-1.26-0.22v-0.98h2.78v7.17l1.26,0.22v0.97h-4.04V228.64z M203.14,219.11h-1.52v-1.55
			h1.52V219.11z"/>
		<path d="M205.33,228.64l1.26-0.22v-5.97l-1.26-0.22v-0.98h2.62l0.11,1.24c0.28-0.44,0.63-0.79,1.05-1.03
			c0.42-0.25,0.9-0.37,1.43-0.37c0.9,0,1.6,0.26,2.09,0.79c0.49,0.53,0.74,1.34,0.74,2.45v4.09l1.26,0.22v0.97h-4.04v-0.97
			l1.26-0.22v-4.06c0-0.74-0.15-1.26-0.44-1.57c-0.29-0.31-0.74-0.46-1.33-0.46c-0.44,0-0.83,0.11-1.16,0.32
			c-0.34,0.21-0.61,0.5-0.81,0.87v4.91l1.26,0.22v0.97h-4.04V228.64z"/>
		<path d="M221.3,228.62c-0.27,0.38-0.61,0.67-1,0.87c-0.39,0.2-0.85,0.29-1.37,0.29c-1.02,0-1.82-0.37-2.39-1.11
			c-0.57-0.74-0.86-1.71-0.86-2.92v-0.16c0-1.34,0.29-2.43,0.86-3.25c0.57-0.82,1.38-1.24,2.41-1.24c0.49,0,0.93,0.09,1.31,0.27
			c0.38,0.18,0.7,0.45,0.97,0.79v-3.41l-1.26-0.22v-0.98h1.26h1.52v10.86l1.26,0.22v0.97h-2.58L221.3,228.62z M217.19,225.75
			c0,0.84,0.17,1.51,0.52,2.02c0.34,0.51,0.88,0.76,1.6,0.76c0.45,0,0.83-0.1,1.14-0.31c0.31-0.21,0.56-0.5,0.77-0.87v-3.88
			c-0.2-0.35-0.45-0.63-0.77-0.83c-0.31-0.21-0.69-0.31-1.13-0.31c-0.73,0-1.26,0.3-1.61,0.9c-0.35,0.6-0.52,1.39-0.52,2.35V225.75z
			"/>
		<path d="M225.16,228.64l1.26-0.22v-5.97l-1.26-0.22v-0.98h2.78v7.17l1.26,0.22v0.97h-4.04V228.64z M227.94,219.11h-1.52v-1.55
			h1.52V219.11z"/>
		<path d="M233.23,222.23l-1,0.15l1.72,4.76l0.14,0.6h0.05l0.15-0.6l1.67-4.76l-1.01-0.15v-0.98h3.23v0.98l-0.69,0.12l-2.8,7.26
			h-1.15l-2.84-7.26l-0.69-0.12v-0.98h3.23V222.23z"/>
		<path d="M239.19,228.64l1.26-0.22v-5.97l-1.26-0.22v-0.98h2.78v7.17l1.26,0.22v0.97h-4.04V228.64z M241.97,219.11h-1.52v-1.55
			h1.52V219.11z"/>
		<path d="M250.02,228.62c-0.27,0.38-0.61,0.67-1,0.87c-0.39,0.2-0.85,0.29-1.37,0.29c-1.02,0-1.82-0.37-2.39-1.11
			c-0.57-0.74-0.86-1.71-0.86-2.92v-0.16c0-1.34,0.29-2.43,0.86-3.25c0.57-0.82,1.38-1.24,2.41-1.24c0.49,0,0.93,0.09,1.31,0.27
			c0.38,0.18,0.7,0.45,0.97,0.79v-3.41l-1.26-0.22v-0.98h1.26h1.52v10.86l1.26,0.22v0.97h-2.58L250.02,228.62z M245.92,225.75
			c0,0.84,0.17,1.51,0.52,2.02c0.34,0.51,0.88,0.76,1.6,0.76c0.45,0,0.83-0.1,1.14-0.31c0.31-0.21,0.56-0.5,0.76-0.87v-3.88
			c-0.2-0.35-0.45-0.63-0.76-0.83s-0.69-0.31-1.13-0.31c-0.73,0-1.26,0.3-1.61,0.9c-0.35,0.6-0.52,1.39-0.52,2.35V225.75z"/>
		<path d="M259.87,228.38c-0.26,0.45-0.6,0.79-1.02,1.04c-0.41,0.24-0.89,0.36-1.43,0.36c-0.91,0-1.61-0.29-2.12-0.87
			c-0.51-0.58-0.77-1.49-0.77-2.72v-3.73l-0.96-0.22v-0.98h0.96h1.52v4.95c0,0.89,0.13,1.5,0.39,1.84c0.26,0.34,0.67,0.5,1.23,0.5
			c0.54,0,0.99-0.11,1.34-0.33c0.35-0.22,0.62-0.53,0.8-0.93v-4.83l-1.12-0.22v-0.98h1.12h1.52v7.17l0.96,0.22v0.97h-2.33
			L259.87,228.38z"/>
		<path d="M268.95,229.61c-0.05-0.23-0.08-0.43-0.11-0.61c-0.03-0.18-0.04-0.36-0.05-0.54c-0.29,0.38-0.66,0.69-1.1,0.94
			c-0.44,0.25-0.91,0.38-1.41,0.38c-0.87,0-1.53-0.21-1.99-0.64s-0.68-1.02-0.68-1.8c0-0.79,0.32-1.41,0.96-1.84
			c0.64-0.43,1.52-0.64,2.64-0.64h1.57v-0.97c0-0.49-0.15-0.88-0.46-1.16c-0.31-0.29-0.74-0.43-1.29-0.43
			c-0.38,0-0.72,0.05-1.01,0.15c-0.29,0.1-0.53,0.23-0.71,0.4l-0.16,0.88h-1.17v-1.62c0.38-0.3,0.84-0.55,1.38-0.73
			c0.54-0.18,1.13-0.27,1.76-0.27c0.95,0,1.72,0.24,2.3,0.73c0.59,0.48,0.88,1.18,0.88,2.08v4.03c0,0.11,0,0.21,0,0.32
			c0,0.1,0.01,0.21,0.02,0.31l0.62,0.09v0.97H268.95z M266.5,228.5c0.51,0,0.97-0.12,1.38-0.36c0.42-0.24,0.72-0.53,0.9-0.87v-1.38
			h-1.62c-0.62,0-1.12,0.14-1.48,0.43c-0.36,0.29-0.54,0.64-0.54,1.05c0,0.37,0.11,0.65,0.34,0.84
			C265.7,228.4,266.04,228.5,266.5,228.5z"/>
		<path d="M272,218.54v-0.98h2.78v10.86l1.26,0.22v0.97H272v-0.97l1.26-0.22v-9.67L272,218.54z"/>
	</g>
	<g>
		<path fill="#3FC0F0" d="M176.74,87.58v-1.6h3.85l0.13,1.15c0.29-0.42,0.64-0.75,1.05-0.98c0.41-0.23,0.88-0.35,1.42-0.35
			c1.22,0,2.16,0.48,2.84,1.43s1.01,2.2,1.01,3.75v0.19c0,1.45-0.34,2.62-1.01,3.51c-0.67,0.88-1.61,1.33-2.82,1.33
			c-0.51,0-0.97-0.1-1.37-0.29c-0.4-0.19-0.74-0.47-1.03-0.84v2.85l1.28,0.27v1.6h-5.21V98l1.28-0.27v-9.87L176.74,87.58z
			 M184.38,90.98c0-0.93-0.15-1.68-0.46-2.25c-0.31-0.58-0.78-0.86-1.42-0.86c-0.4,0-0.74,0.08-1.02,0.25
			c-0.28,0.16-0.5,0.4-0.67,0.7v4.31c0.16,0.28,0.39,0.49,0.67,0.64s0.63,0.22,1.04,0.22c0.64,0,1.11-0.25,1.41-0.75
			s0.45-1.18,0.45-2.04V90.98z"/>
		<path fill="#3FC0F0" d="M193.86,95.82c-0.07-0.16-0.14-0.33-0.19-0.5c-0.05-0.17-0.1-0.35-0.13-0.52
			c-0.31,0.36-0.7,0.66-1.15,0.88c-0.45,0.22-0.97,0.34-1.55,0.34c-0.96,0-1.73-0.26-2.29-0.79c-0.57-0.52-0.85-1.24-0.85-2.14
			c0-0.92,0.37-1.63,1.11-2.14c0.74-0.5,1.82-0.75,3.25-0.75h1.35v-0.96c0-0.47-0.14-0.84-0.41-1.1c-0.27-0.26-0.68-0.39-1.21-0.39
			c-0.3,0-0.57,0.03-0.81,0.1c-0.24,0.07-0.43,0.15-0.57,0.25l-0.17,1.05h-2l0.01-2.18c0.49-0.33,1.04-0.6,1.67-0.83
			c0.63-0.22,1.31-0.34,2.05-0.34c1.22,0,2.21,0.3,2.97,0.9c0.76,0.6,1.14,1.45,1.14,2.55v4.06c0,0.15,0,0.29,0,0.43
			c0,0.13,0.01,0.26,0.03,0.38l0.81,0.11v1.59H193.86z M191.56,94.05c0.4,0,0.76-0.09,1.09-0.26c0.33-0.17,0.58-0.39,0.76-0.65v-1.5
			h-1.35c-0.56,0-0.99,0.13-1.28,0.4s-0.44,0.58-0.44,0.95c0,0.33,0.11,0.59,0.32,0.78S191.18,94.05,191.56,94.05z"/>
		<path fill="#3FC0F0" d="M196.93,83.24v-1.6H201v12.32l1.28,0.27v1.59h-5.22v-1.59l1.28-0.27V83.51L196.93,83.24z"/>
		<path fill="#3FC0F0" d="M208.8,95.82c-0.07-0.16-0.14-0.33-0.19-0.5c-0.06-0.17-0.1-0.35-0.13-0.52c-0.31,0.36-0.7,0.66-1.15,0.88
			s-0.97,0.34-1.55,0.34c-0.96,0-1.73-0.26-2.3-0.79c-0.57-0.52-0.85-1.24-0.85-2.14c0-0.92,0.37-1.63,1.11-2.14
			c0.74-0.5,1.82-0.75,3.25-0.75h1.35v-0.96c0-0.47-0.14-0.84-0.41-1.1c-0.27-0.26-0.68-0.39-1.21-0.39c-0.3,0-0.57,0.03-0.81,0.1
			c-0.24,0.07-0.43,0.15-0.57,0.25l-0.17,1.05h-2l0.01-2.18c0.48-0.33,1.04-0.6,1.67-0.83c0.63-0.22,1.31-0.34,2.05-0.34
			c1.22,0,2.21,0.3,2.97,0.9c0.76,0.6,1.14,1.45,1.14,2.55v4.06c0,0.15,0,0.29,0,0.43c0,0.13,0.01,0.26,0.03,0.38l0.81,0.11v1.59
			H208.8z M206.5,94.05c0.4,0,0.76-0.09,1.09-0.26c0.33-0.17,0.58-0.39,0.76-0.65v-1.5H207c-0.56,0-0.99,0.13-1.28,0.4
			c-0.29,0.26-0.44,0.58-0.44,0.95c0,0.33,0.11,0.59,0.32,0.78S206.12,94.05,206.5,94.05z"/>
		<path fill="#3FC0F0" d="M221.36,91.17c0,1.47-0.33,2.64-0.98,3.52c-0.65,0.88-1.6,1.32-2.84,1.32c-0.58,0-1.08-0.12-1.5-0.36
			c-0.42-0.24-0.78-0.59-1.07-1.04l-0.19,1.21h-2.29V83.51l-1.41-0.27v-1.6h4.05v5.39c0.29-0.39,0.63-0.7,1.02-0.91
			c0.4-0.21,0.85-0.32,1.37-0.32c1.25,0,2.2,0.47,2.85,1.41c0.65,0.94,0.98,2.2,0.98,3.77V91.17z M218.72,90.98
			c0-0.96-0.14-1.72-0.42-2.28c-0.28-0.56-0.76-0.84-1.44-0.84c-0.41,0-0.76,0.09-1.05,0.26c-0.28,0.17-0.51,0.42-0.67,0.74v4.15
			c0.16,0.3,0.39,0.53,0.68,0.69c0.29,0.16,0.64,0.24,1.06,0.24c0.69,0,1.16-0.24,1.44-0.72c0.27-0.48,0.41-1.17,0.41-2.05V90.98z"
			/>
		<path fill="#3FC0F0" d="M222.18,94.23l1.27-0.27v-6.1l-1.41-0.27v-1.6h3.88l0.12,1.44c0.23-0.51,0.53-0.91,0.89-1.19
			c0.36-0.28,0.79-0.43,1.26-0.43c0.14,0,0.29,0.01,0.44,0.03c0.15,0.02,0.28,0.05,0.39,0.08l-0.28,2.42l-1.09-0.03
			c-0.39,0-0.71,0.08-0.96,0.23c-0.25,0.15-0.45,0.37-0.58,0.65v4.78l1.27,0.27v1.59h-5.2V94.23z"/>
		<path fill="#3FC0F0" d="M235.28,95.82c-0.07-0.16-0.14-0.33-0.19-0.5c-0.05-0.17-0.1-0.35-0.13-0.52
			c-0.32,0.36-0.7,0.66-1.15,0.88c-0.45,0.22-0.97,0.34-1.55,0.34c-0.96,0-1.73-0.26-2.3-0.79c-0.57-0.52-0.85-1.24-0.85-2.14
			c0-0.92,0.37-1.63,1.11-2.14c0.74-0.5,1.82-0.75,3.25-0.75h1.35v-0.96c0-0.47-0.14-0.84-0.41-1.1c-0.27-0.26-0.68-0.39-1.21-0.39
			c-0.3,0-0.57,0.03-0.81,0.1c-0.24,0.07-0.43,0.15-0.57,0.25l-0.17,1.05h-2l0.01-2.18c0.48-0.33,1.04-0.6,1.67-0.83
			c0.63-0.22,1.31-0.34,2.05-0.34c1.22,0,2.21,0.3,2.97,0.9c0.76,0.6,1.14,1.45,1.14,2.55v4.06c0,0.15,0,0.29,0,0.43
			c0,0.13,0.01,0.26,0.03,0.38l0.81,0.11v1.59H235.28z M232.98,94.05c0.4,0,0.76-0.09,1.09-0.26c0.33-0.17,0.58-0.39,0.76-0.65v-1.5
			h-1.35c-0.56,0-0.99,0.13-1.28,0.4c-0.29,0.26-0.44,0.58-0.44,0.95c0,0.33,0.11,0.59,0.32,0.78S232.6,94.05,232.98,94.05z"/>
	</g>
	<g>
		<path fill="#3FC0F0" d="M509.58,366.29c-0.31,0.46-0.67,0.8-1.1,1.04c-0.42,0.24-0.9,0.36-1.44,0.36c-1.21,0-2.15-0.44-2.82-1.33
			c-0.67-0.88-1-2.05-1-3.51v-0.19c0-1.55,0.34-2.8,1.01-3.75s1.62-1.43,2.84-1.43c0.49,0,0.93,0.11,1.33,0.32
			c0.39,0.21,0.74,0.52,1.04,0.91v-3.53l-1.42-0.27v-1.6h1.42h2.66v12.32l1.27,0.27v1.59h-3.57L509.58,366.29z M505.87,362.84
			c0,0.86,0.14,1.54,0.43,2.03c0.29,0.49,0.76,0.74,1.41,0.74c0.39,0,0.72-0.08,1.01-0.24c0.29-0.16,0.52-0.38,0.7-0.68v-4.17
			c-0.18-0.31-0.41-0.56-0.7-0.73c-0.28-0.17-0.61-0.26-0.99-0.26c-0.65,0-1.12,0.29-1.42,0.86c-0.3,0.58-0.45,1.33-0.45,2.25
			V362.84z"/>
		<path fill="#3FC0F0" d="M518.3,367.68c-1.42,0-2.55-0.46-3.4-1.36c-0.85-0.91-1.27-2.06-1.27-3.46v-0.36c0-1.46,0.4-2.66,1.2-3.61
			c0.8-0.95,1.88-1.42,3.23-1.41c1.33,0,2.36,0.4,3.09,1.2c0.73,0.8,1.1,1.88,1.1,3.25v1.44h-5.87l-0.02,0.06
			c0.05,0.65,0.26,1.18,0.65,1.6c0.39,0.42,0.91,0.63,1.57,0.63c0.59,0,1.08-0.06,1.46-0.18c0.39-0.12,0.81-0.31,1.27-0.56
			l0.72,1.64c-0.41,0.32-0.93,0.59-1.58,0.81C519.81,367.57,519.09,367.68,518.3,367.68z M518.06,359.52
			c-0.49,0-0.88,0.19-1.16,0.56c-0.29,0.38-0.46,0.87-0.53,1.48l0.03,0.05h3.25v-0.24c0-0.56-0.13-1.01-0.4-1.35
			C518.99,359.69,518.59,359.52,518.06,359.52z"/>
		<path fill="#3FC0F0" d="M532.4,362.84c0,1.47-0.33,2.64-0.98,3.52c-0.65,0.88-1.6,1.32-2.84,1.32c-0.58,0-1.08-0.12-1.5-0.36
			c-0.42-0.24-0.78-0.59-1.07-1.04l-0.19,1.21h-2.29v-12.31l-1.41-0.27v-1.6h4.05v5.39c0.29-0.39,0.62-0.7,1.02-0.91
			s0.85-0.32,1.37-0.32c1.25,0,2.2,0.47,2.85,1.41c0.66,0.94,0.98,2.2,0.98,3.77V362.84z M529.75,362.65c0-0.96-0.14-1.72-0.42-2.28
			c-0.28-0.56-0.76-0.84-1.44-0.84c-0.41,0-0.76,0.09-1.05,0.26c-0.29,0.17-0.51,0.42-0.67,0.74v4.15c0.16,0.3,0.39,0.53,0.68,0.69
			c0.29,0.16,0.64,0.24,1.06,0.24c0.68,0,1.16-0.24,1.44-0.72c0.27-0.48,0.41-1.17,0.41-2.05V362.65z"/>
		<path fill="#3FC0F0" d="M539.27,367.49c-0.07-0.16-0.14-0.33-0.19-0.5c-0.05-0.17-0.1-0.35-0.13-0.52
			c-0.31,0.36-0.7,0.66-1.15,0.88c-0.45,0.22-0.97,0.34-1.55,0.34c-0.96,0-1.73-0.26-2.29-0.79c-0.57-0.52-0.85-1.24-0.85-2.14
			c0-0.92,0.37-1.63,1.11-2.14c0.74-0.5,1.82-0.75,3.25-0.75h1.35v-0.96c0-0.47-0.14-0.84-0.41-1.1c-0.27-0.26-0.68-0.39-1.21-0.39
			c-0.3,0-0.57,0.04-0.81,0.11c-0.24,0.07-0.43,0.15-0.57,0.25l-0.17,1.05h-2l0.01-2.18c0.49-0.33,1.04-0.6,1.67-0.83
			c0.63-0.22,1.31-0.34,2.05-0.34c1.22,0,2.21,0.3,2.97,0.9c0.76,0.6,1.14,1.45,1.14,2.55v4.06c0,0.15,0,0.29,0,0.43
			c0,0.13,0.01,0.26,0.03,0.38l0.81,0.11v1.59H539.27z M536.97,365.72c0.4,0,0.76-0.08,1.09-0.26c0.33-0.17,0.58-0.39,0.76-0.65
			v-1.5h-1.35c-0.56,0-0.99,0.13-1.28,0.4c-0.29,0.26-0.44,0.58-0.44,0.95c0,0.33,0.11,0.59,0.32,0.78
			C536.29,365.62,536.59,365.72,536.97,365.72z"/>
		<path fill="#3FC0F0" d="M545.81,355.24v2.41h1.73v1.86h-1.73v5.01c0,0.38,0.08,0.65,0.24,0.82c0.16,0.16,0.37,0.25,0.64,0.25
			c0.18,0,0.34-0.01,0.48-0.02c0.14-0.02,0.29-0.04,0.46-0.08l0.23,1.92c-0.3,0.09-0.59,0.16-0.88,0.21
			c-0.29,0.04-0.6,0.07-0.95,0.07c-0.91,0-1.62-0.25-2.11-0.76c-0.49-0.5-0.74-1.3-0.74-2.39v-5.02h-1.44v-1.86h1.44v-2.41H545.81z"
			/>
		<path fill="#3FC0F0" d="M552.93,367.68c-1.42,0-2.55-0.46-3.4-1.36s-1.27-2.06-1.27-3.46v-0.36c0-1.46,0.4-2.66,1.21-3.61
			s1.88-1.42,3.23-1.41c1.33,0,2.36,0.4,3.09,1.2c0.73,0.8,1.1,1.88,1.1,3.25v1.44h-5.87l-0.02,0.06c0.05,0.65,0.27,1.18,0.65,1.6
			c0.38,0.42,0.91,0.63,1.57,0.63c0.59,0,1.08-0.06,1.46-0.18c0.39-0.12,0.81-0.31,1.27-0.56l0.72,1.64
			c-0.41,0.32-0.93,0.59-1.58,0.81C554.45,367.57,553.73,367.68,552.93,367.68z M552.7,359.52c-0.49,0-0.88,0.19-1.16,0.56
			c-0.28,0.38-0.46,0.87-0.53,1.48l0.03,0.05h3.25v-0.24c0-0.56-0.13-1.01-0.39-1.35C553.63,359.69,553.23,359.52,552.7,359.52z"/>
		<path fill="#3FC0F0" d="M561.28,359.25v-1.6h3.85l0.13,1.14c0.29-0.42,0.64-0.75,1.05-0.98c0.41-0.23,0.88-0.35,1.42-0.35
			c1.22,0,2.16,0.48,2.84,1.43c0.67,0.95,1.01,2.2,1.01,3.75v0.19c0,1.46-0.34,2.62-1.01,3.51c-0.67,0.88-1.61,1.33-2.82,1.33
			c-0.52,0-0.97-0.09-1.37-0.29c-0.4-0.19-0.74-0.47-1.03-0.84v2.85l1.28,0.27v1.6h-5.21v-1.6l1.28-0.27v-9.87L561.28,359.25z
			 M568.91,362.65c0-0.93-0.15-1.68-0.46-2.25c-0.31-0.58-0.78-0.86-1.42-0.86c-0.4,0-0.74,0.08-1.02,0.25
			c-0.28,0.16-0.51,0.4-0.67,0.7v4.31c0.16,0.28,0.39,0.49,0.67,0.64c0.28,0.14,0.63,0.22,1.04,0.22c0.64,0,1.12-0.25,1.42-0.75
			c0.3-0.5,0.45-1.18,0.45-2.05V362.65z"/>
		<path fill="#3FC0F0" d="M579.02,366.24c-0.32,0.46-0.7,0.82-1.17,1.06c-0.46,0.25-0.99,0.37-1.59,0.37c-1.04,0-1.85-0.33-2.44-1
			c-0.59-0.66-0.88-1.7-0.88-3.1v-4.06l-1.08-0.27v-1.6h1.08h2.65v5.95c0,0.72,0.12,1.23,0.36,1.54c0.24,0.31,0.6,0.47,1.07,0.47
			c0.42,0,0.78-0.07,1.09-0.21c0.3-0.14,0.56-0.33,0.75-0.59v-5.3l-1.16-0.27v-1.6h1.16h2.65v7.97l1.19,0.27v1.59h-3.52
			L579.02,366.24z M577.29,353.82h2.81l0.02,0.05l-2.51,2.36h-2.13L577.29,353.82z"/>
		<path fill="#3FC0F0" d="M592.65,362.84c0,1.47-0.33,2.64-0.98,3.52c-0.65,0.88-1.6,1.32-2.84,1.32c-0.58,0-1.08-0.12-1.5-0.36
			c-0.42-0.24-0.78-0.59-1.07-1.04l-0.19,1.21h-2.29v-12.31l-1.41-0.27v-1.6h4.05v5.39c0.28-0.39,0.63-0.7,1.02-0.91
			s0.85-0.32,1.37-0.32c1.25,0,2.2,0.47,2.85,1.41c0.66,0.94,0.98,2.2,0.98,3.77V362.84z M590,362.65c0-0.96-0.14-1.72-0.42-2.28
			c-0.28-0.56-0.76-0.84-1.44-0.84c-0.41,0-0.76,0.09-1.05,0.26c-0.28,0.17-0.51,0.42-0.67,0.74v4.15c0.16,0.3,0.39,0.53,0.68,0.69
			c0.29,0.16,0.64,0.24,1.06,0.24c0.68,0,1.16-0.24,1.44-0.72c0.27-0.48,0.41-1.17,0.41-2.05V362.65z"/>
		<path fill="#3FC0F0" d="M592.79,354.91v-1.6h4.07v12.32l1.28,0.27v1.59h-5.22v-1.59l1.28-0.27v-10.45L592.79,354.91z"/>
		<path fill="#3FC0F0" d="M598.32,365.9l1.28-0.27v-6.1l-1.42-0.27v-1.6h4.07v7.97l1.27,0.27v1.59h-5.21V365.9z M602.25,355.3h-2.65
			v-1.99h2.65V355.3z"/>
		<path fill="#3FC0F0" d="M608.4,365.64c0.47,0,0.85-0.14,1.14-0.41c0.29-0.28,0.43-0.64,0.43-1.11h2.4l0.03,0.05
			c0.02,1-0.35,1.83-1.12,2.5c-0.77,0.67-1.73,1-2.87,1c-1.47,0-2.6-0.46-3.39-1.39c-0.79-0.93-1.19-2.12-1.19-3.57v-0.27
			c0-1.45,0.41-2.64,1.22-3.57c0.81-0.93,1.98-1.4,3.49-1.4c0.79,0,1.5,0.12,2.14,0.36c0.63,0.24,1.16,0.57,1.57,1l0.04,2.63h-2.15
			l-0.44-1.54c-0.13-0.11-0.3-0.21-0.49-0.29c-0.2-0.08-0.42-0.12-0.66-0.12c-0.75,0-1.28,0.27-1.59,0.82
			c-0.31,0.55-0.46,1.25-0.46,2.11v0.27c0,0.88,0.14,1.59,0.43,2.12C607.19,365.38,607.69,365.64,608.4,365.64z"/>
		<path fill="#3FC0F0" d="M612.98,362.48c0-1.47,0.41-2.67,1.23-3.6c0.82-0.94,1.96-1.41,3.41-1.41c1.46,0,2.59,0.47,3.41,1.4
			c0.82,0.93,1.23,2.14,1.23,3.61v0.19c0,1.48-0.41,2.68-1.23,3.61s-1.95,1.4-3.39,1.4c-1.46,0-2.6-0.46-3.42-1.4
			c-0.82-0.93-1.23-2.13-1.23-3.61V362.48z M615.63,362.67c0,0.9,0.16,1.62,0.47,2.16c0.31,0.54,0.82,0.81,1.53,0.81
			c0.68,0,1.19-0.27,1.5-0.82c0.32-0.55,0.48-1.26,0.48-2.16v-0.19c0-0.87-0.16-1.58-0.48-2.14c-0.32-0.55-0.83-0.83-1.52-0.83
			c-0.69,0-1.19,0.28-1.51,0.83c-0.32,0.55-0.47,1.26-0.47,2.14V362.67z"/>
	</g>
	<g>
		<path fill="#3FC0F0" d="M499.38,87.58v-1.6h3.85l0.13,1.15c0.29-0.42,0.64-0.75,1.04-0.98s0.88-0.35,1.42-0.35
			c1.22,0,2.16,0.48,2.84,1.43c0.67,0.95,1.01,2.2,1.01,3.75v0.19c0,1.45-0.34,2.62-1.01,3.51c-0.67,0.88-1.61,1.33-2.82,1.33
			c-0.52,0-0.97-0.1-1.37-0.29c-0.4-0.19-0.74-0.47-1.03-0.84v2.85l1.28,0.27v1.6h-5.21V98l1.28-0.27v-9.87L499.38,87.58z
			 M507.02,90.98c0-0.93-0.15-1.68-0.46-2.25c-0.31-0.58-0.78-0.86-1.42-0.86c-0.4,0-0.74,0.08-1.02,0.25
			c-0.28,0.16-0.5,0.4-0.67,0.7v4.31c0.16,0.28,0.39,0.49,0.67,0.64c0.28,0.15,0.63,0.22,1.04,0.22c0.64,0,1.11-0.25,1.41-0.75
			c0.3-0.5,0.45-1.18,0.45-2.04V90.98z"/>
		<path fill="#3FC0F0" d="M510.24,90.81c0-1.47,0.41-2.67,1.23-3.6c0.82-0.94,1.96-1.4,3.41-1.4c1.46,0,2.59,0.47,3.41,1.4
			c0.82,0.93,1.23,2.14,1.23,3.61V91c0,1.48-0.41,2.68-1.23,3.61c-0.82,0.93-1.95,1.4-3.39,1.4c-1.46,0-2.6-0.46-3.42-1.4
			c-0.82-0.93-1.23-2.13-1.23-3.61V90.81z M512.89,91c0,0.9,0.16,1.62,0.47,2.16c0.31,0.54,0.82,0.81,1.53,0.81
			c0.68,0,1.19-0.27,1.5-0.82c0.32-0.54,0.48-1.26,0.48-2.15v-0.19c0-0.87-0.16-1.58-0.48-2.14s-0.83-0.83-1.52-0.83
			c-0.69,0-1.19,0.28-1.51,0.83c-0.32,0.55-0.47,1.26-0.47,2.14V91z"/>
		<path fill="#3FC0F0" d="M519.59,83.24v-1.6h4.07v12.32l1.28,0.27v1.59h-5.22v-1.59l1.28-0.27V83.51L519.59,83.24z"/>
		<path fill="#3FC0F0" d="M525.26,87.58v-1.6h4.07v7.97l1.27,0.27v1.59h-5.21v-1.59l1.28-0.27v-6.1L525.26,87.58z M528.12,82.15
			h2.81l0.02,0.05l-2.51,2.36h-2.13L528.12,82.15z"/>
		<path fill="#3FC0F0" d="M534.74,83.58v2.41h1.73v1.86h-1.73v5.01c0,0.38,0.08,0.65,0.24,0.82c0.16,0.16,0.37,0.24,0.64,0.24
			c0.18,0,0.34-0.01,0.48-0.02s0.29-0.04,0.46-0.08l0.23,1.92c-0.3,0.09-0.59,0.16-0.88,0.2c-0.29,0.05-0.61,0.07-0.95,0.07
			c-0.92,0-1.62-0.25-2.11-0.75c-0.49-0.5-0.74-1.3-0.74-2.39v-5.02h-1.45v-1.86h1.45v-2.41H534.74z"/>
		<path fill="#3FC0F0" d="M537.07,94.23l1.28-0.27v-6.1l-1.42-0.27v-1.6H541v7.97l1.27,0.27v1.59h-5.21V94.23z M541,83.63h-2.65
			v-1.99H541V83.63z"/>
		<path fill="#3FC0F0" d="M547.15,93.97c0.47,0,0.85-0.14,1.14-0.41c0.29-0.28,0.43-0.64,0.43-1.1h2.4l0.03,0.05
			c0.03,0.99-0.35,1.83-1.12,2.5c-0.77,0.67-1.73,1-2.87,1c-1.47,0-2.6-0.46-3.39-1.39c-0.79-0.93-1.19-2.12-1.19-3.57v-0.27
			c0-1.45,0.41-2.64,1.22-3.57c0.82-0.93,1.98-1.4,3.49-1.4c0.79,0,1.51,0.12,2.14,0.35c0.63,0.24,1.15,0.57,1.57,1l0.04,2.63h-2.16
			l-0.44-1.54c-0.13-0.11-0.3-0.21-0.49-0.29s-0.42-0.11-0.66-0.11c-0.75,0-1.28,0.27-1.59,0.82c-0.31,0.55-0.46,1.25-0.46,2.11
			v0.27c0,0.88,0.14,1.59,0.43,2.12C545.94,93.71,546.44,93.97,547.15,93.97z"/>
		<path fill="#3FC0F0" d="M557.99,95.82c-0.07-0.16-0.14-0.33-0.19-0.5c-0.06-0.17-0.1-0.35-0.13-0.52
			c-0.31,0.36-0.7,0.66-1.15,0.88c-0.45,0.22-0.97,0.34-1.55,0.34c-0.96,0-1.73-0.26-2.29-0.79c-0.57-0.52-0.85-1.24-0.85-2.14
			c0-0.92,0.37-1.63,1.11-2.14c0.74-0.5,1.83-0.75,3.25-0.75h1.35v-0.96c0-0.47-0.14-0.84-0.41-1.1c-0.27-0.26-0.67-0.39-1.21-0.39
			c-0.3,0-0.57,0.03-0.81,0.1c-0.24,0.07-0.43,0.15-0.57,0.25l-0.17,1.05h-2l0.01-2.18c0.49-0.33,1.04-0.6,1.67-0.83
			s1.31-0.34,2.05-0.34c1.22,0,2.21,0.3,2.97,0.9c0.76,0.6,1.14,1.45,1.14,2.55v4.06c0,0.15,0,0.29,0.01,0.43
			c0,0.13,0.01,0.26,0.03,0.38l0.81,0.11v1.59H557.99z M555.69,94.05c0.4,0,0.76-0.09,1.09-0.26c0.33-0.17,0.58-0.39,0.76-0.65v-1.5
			h-1.35c-0.56,0-0.99,0.13-1.28,0.4c-0.29,0.26-0.44,0.58-0.44,0.95c0,0.33,0.11,0.59,0.32,0.78S555.31,94.05,555.69,94.05z"/>
		<path fill="#3FC0F0" d="M565.09,87.58v-1.6h3.85l0.13,1.15c0.29-0.42,0.64-0.75,1.05-0.98c0.41-0.23,0.88-0.35,1.42-0.35
			c1.22,0,2.16,0.48,2.84,1.43c0.67,0.95,1.01,2.2,1.01,3.75v0.19c0,1.45-0.34,2.62-1.01,3.51c-0.67,0.88-1.61,1.33-2.82,1.33
			c-0.52,0-0.97-0.1-1.37-0.29c-0.4-0.19-0.74-0.47-1.03-0.84v2.85l1.28,0.27v1.6h-5.21V98l1.28-0.27v-9.87L565.09,87.58z
			 M572.72,90.98c0-0.93-0.15-1.68-0.46-2.25c-0.31-0.58-0.78-0.86-1.42-0.86c-0.4,0-0.74,0.08-1.02,0.25
			c-0.28,0.16-0.5,0.4-0.67,0.7v4.31c0.16,0.28,0.39,0.49,0.67,0.64c0.28,0.15,0.63,0.22,1.04,0.22c0.64,0,1.11-0.25,1.41-0.75
			s0.45-1.18,0.45-2.04V90.98z"/>
		<path fill="#3FC0F0" d="M582.83,94.57c-0.32,0.46-0.71,0.81-1.17,1.06c-0.46,0.25-0.99,0.37-1.59,0.37
			c-1.04,0-1.85-0.33-2.44-0.99c-0.59-0.66-0.88-1.7-0.88-3.1v-4.06l-1.08-0.27v-1.6h1.08h2.65v5.95c0,0.71,0.12,1.23,0.36,1.54
			c0.24,0.31,0.6,0.47,1.07,0.47c0.42,0,0.78-0.07,1.09-0.2c0.31-0.14,0.56-0.33,0.75-0.59v-5.3l-1.16-0.27v-1.6h1.16h2.65v7.97
			l1.19,0.27v1.59H583L582.83,94.57z M581.1,82.15h2.81l0.02,0.05l-2.51,2.36h-2.13L581.1,82.15z"/>
		<path fill="#3FC0F0" d="M596.46,91.17c0,1.47-0.33,2.64-0.98,3.52c-0.65,0.88-1.6,1.32-2.84,1.32c-0.58,0-1.08-0.12-1.5-0.36
			c-0.42-0.24-0.78-0.59-1.07-1.04l-0.19,1.21h-2.29V83.51l-1.41-0.27v-1.6h4.05v5.39c0.29-0.39,0.62-0.7,1.02-0.91
			c0.4-0.21,0.85-0.32,1.37-0.32c1.25,0,2.2,0.47,2.85,1.41c0.66,0.94,0.98,2.2,0.98,3.77V91.17z M593.81,90.98
			c0-0.96-0.14-1.72-0.42-2.28c-0.28-0.56-0.76-0.84-1.44-0.84c-0.41,0-0.76,0.09-1.05,0.26c-0.29,0.17-0.51,0.42-0.67,0.74v4.15
			c0.16,0.3,0.39,0.53,0.68,0.69s0.64,0.24,1.06,0.24c0.68,0,1.16-0.24,1.44-0.72c0.27-0.48,0.41-1.17,0.41-2.05V90.98z"/>
		<path fill="#3FC0F0" d="M596.61,83.24v-1.6h4.07v12.32l1.28,0.27v1.59h-5.22v-1.59l1.28-0.27V83.51L596.61,83.24z"/>
		<path fill="#3FC0F0" d="M602.13,94.23l1.28-0.27v-6.1l-1.42-0.27v-1.6h4.07v7.97l1.27,0.27v1.59h-5.21V94.23z M606.07,83.63h-2.66
			v-1.99h2.66V83.63z"/>
		<path fill="#3FC0F0" d="M612.21,93.97c0.47,0,0.85-0.14,1.14-0.41s0.43-0.64,0.43-1.1h2.4l0.03,0.05c0.02,0.99-0.35,1.83-1.12,2.5
			c-0.77,0.67-1.73,1-2.87,1c-1.47,0-2.6-0.46-3.39-1.39c-0.79-0.93-1.19-2.12-1.19-3.57v-0.27c0-1.45,0.41-2.64,1.22-3.57
			c0.82-0.93,1.98-1.4,3.49-1.4c0.79,0,1.5,0.12,2.14,0.35c0.63,0.24,1.15,0.57,1.57,1l0.04,2.63h-2.15l-0.44-1.54
			c-0.13-0.11-0.3-0.21-0.49-0.29c-0.2-0.08-0.42-0.11-0.66-0.11c-0.75,0-1.28,0.27-1.59,0.82c-0.31,0.55-0.46,1.25-0.46,2.11v0.27
			c0,0.88,0.14,1.59,0.43,2.12C611,93.71,611.5,93.97,612.21,93.97z"/>
		<path fill="#3FC0F0" d="M623.05,95.82c-0.07-0.16-0.14-0.33-0.19-0.5c-0.05-0.17-0.1-0.35-0.13-0.52
			c-0.31,0.36-0.7,0.66-1.15,0.88c-0.45,0.22-0.97,0.34-1.55,0.34c-0.96,0-1.73-0.26-2.29-0.79c-0.57-0.52-0.85-1.24-0.85-2.14
			c0-0.92,0.37-1.63,1.11-2.14c0.74-0.5,1.82-0.75,3.25-0.75h1.35v-0.96c0-0.47-0.14-0.84-0.41-1.1c-0.27-0.26-0.68-0.39-1.21-0.39
			c-0.3,0-0.57,0.03-0.81,0.1c-0.24,0.07-0.43,0.15-0.57,0.25l-0.17,1.05h-2l0.01-2.18c0.49-0.33,1.04-0.6,1.67-0.83
			c0.63-0.22,1.31-0.34,2.05-0.34c1.22,0,2.21,0.3,2.97,0.9c0.76,0.6,1.14,1.45,1.14,2.55v4.06c0,0.15,0,0.29,0,0.43
			c0,0.13,0.01,0.26,0.03,0.38l0.81,0.11v1.59H623.05z M620.75,94.05c0.4,0,0.76-0.09,1.09-0.26c0.33-0.17,0.58-0.39,0.76-0.65v-1.5
			h-1.35c-0.56,0-0.99,0.13-1.28,0.4s-0.44,0.58-0.44,0.95c0,0.33,0.11,0.59,0.32,0.78C620.07,93.95,620.37,94.05,620.75,94.05z"/>
	</g>
	<g>
		<path fill="#3FC0F0" d="M186.84,367.49c-0.07-0.16-0.14-0.33-0.19-0.5c-0.05-0.17-0.1-0.35-0.13-0.52
			c-0.31,0.36-0.7,0.66-1.15,0.88c-0.45,0.22-0.97,0.34-1.55,0.34c-0.96,0-1.73-0.26-2.3-0.79c-0.57-0.53-0.85-1.24-0.85-2.14
			c0-0.92,0.37-1.63,1.11-2.14c0.74-0.5,1.82-0.75,3.25-0.75h1.35v-0.96c0-0.47-0.14-0.84-0.41-1.1c-0.27-0.26-0.68-0.39-1.21-0.39
			c-0.3,0-0.57,0.03-0.81,0.1c-0.24,0.07-0.43,0.15-0.57,0.25l-0.17,1.05h-2l0.01-2.18c0.49-0.33,1.04-0.6,1.67-0.83
			c0.63-0.22,1.31-0.34,2.05-0.34c1.22,0,2.21,0.3,2.97,0.9c0.76,0.6,1.14,1.45,1.14,2.55v4.06c0,0.15,0,0.29,0,0.43
			c0,0.13,0.01,0.26,0.03,0.38l0.81,0.11v1.59H186.84z M184.54,365.72c0.4,0,0.76-0.09,1.09-0.26s0.58-0.39,0.76-0.65v-1.5h-1.35
			c-0.56,0-0.99,0.13-1.28,0.4c-0.29,0.26-0.44,0.58-0.44,0.95c0,0.33,0.11,0.59,0.32,0.78
			C183.86,365.62,184.16,365.72,184.54,365.72z"/>
		<path fill="#3FC0F0" d="M194.81,365.64c0.47,0,0.85-0.14,1.14-0.41c0.29-0.28,0.43-0.64,0.43-1.1h2.4l0.03,0.05
			c0.02,1-0.35,1.83-1.12,2.49c-0.77,0.67-1.73,1.01-2.87,1.01c-1.47,0-2.6-0.46-3.39-1.39c-0.79-0.93-1.19-2.12-1.19-3.57v-0.27
			c0-1.45,0.41-2.64,1.22-3.57c0.81-0.93,1.98-1.4,3.49-1.4c0.79,0,1.51,0.12,2.14,0.36s1.15,0.57,1.57,1l0.04,2.63h-2.15
			l-0.44-1.54c-0.13-0.11-0.3-0.21-0.49-0.29c-0.19-0.08-0.42-0.11-0.66-0.11c-0.75,0-1.28,0.27-1.59,0.82
			c-0.31,0.55-0.46,1.25-0.46,2.11v0.27c0,0.88,0.14,1.59,0.43,2.12S194.1,365.64,194.81,365.64z"/>
		<path fill="#3FC0F0" d="M204,365.64c0.47,0,0.85-0.14,1.14-0.41s0.43-0.64,0.43-1.1h2.4l0.03,0.05c0.02,1-0.35,1.83-1.12,2.49
			c-0.77,0.67-1.73,1.01-2.87,1.01c-1.47,0-2.6-0.46-3.39-1.39c-0.79-0.93-1.19-2.12-1.19-3.57v-0.27c0-1.45,0.41-2.64,1.22-3.57
			c0.81-0.93,1.98-1.4,3.49-1.4c0.79,0,1.51,0.12,2.14,0.36s1.15,0.57,1.57,1l0.04,2.63h-2.15l-0.44-1.54
			c-0.13-0.11-0.3-0.21-0.49-0.29s-0.42-0.11-0.66-0.11c-0.75,0-1.28,0.27-1.59,0.82c-0.31,0.55-0.46,1.25-0.46,2.11v0.27
			c0,0.88,0.14,1.59,0.43,2.12C202.79,365.38,203.29,365.64,204,365.64z"/>
		<path fill="#3FC0F0" d="M208.5,365.9l1.28-0.27v-6.1l-1.42-0.27v-1.6h4.07v7.97l1.27,0.27v1.59h-5.21V365.9z M212.44,355.3h-2.65
			v-1.99h2.65V355.3z"/>
		<path fill="#3FC0F0" d="M213.97,362.48c0-1.47,0.41-2.67,1.23-3.6c0.82-0.94,1.96-1.4,3.4-1.4c1.45,0,2.59,0.47,3.41,1.4
			c0.82,0.93,1.23,2.14,1.23,3.61v0.19c0,1.48-0.41,2.68-1.23,3.61c-0.82,0.93-1.95,1.4-3.4,1.4c-1.46,0-2.6-0.47-3.42-1.4
			c-0.82-0.93-1.23-2.13-1.23-3.61V362.48z M216.62,362.67c0,0.9,0.16,1.62,0.47,2.16c0.31,0.54,0.82,0.81,1.53,0.81
			c0.69,0,1.19-0.27,1.5-0.82c0.32-0.55,0.48-1.26,0.48-2.16v-0.19c0-0.87-0.16-1.58-0.48-2.14s-0.83-0.83-1.52-0.83
			s-1.19,0.28-1.51,0.83s-0.47,1.26-0.47,2.14V362.67z M218.82,353.82h2.81l0.02,0.05l-2.51,2.36h-2.13L218.82,353.82z"/>
		<path fill="#3FC0F0" d="M223.64,365.9l1.27-0.27v-6.1l-1.41-0.27v-1.6h3.88l0.12,1.41c0.33-0.5,0.73-0.89,1.21-1.17
			c0.48-0.28,1.01-0.42,1.61-0.42c0.99,0,1.77,0.31,2.33,0.94c0.56,0.62,0.84,1.6,0.84,2.94v4.28l1.27,0.27v1.59h-5.07v-1.59
			l1.14-0.27v-4.27c0-0.66-0.13-1.13-0.4-1.4c-0.27-0.28-0.67-0.41-1.21-0.41c-0.35,0-0.67,0.07-0.95,0.21
			c-0.28,0.14-0.51,0.34-0.7,0.6v5.27l1.07,0.27v1.59h-5V365.9z"/>
	</g>
	<g>
		<path d="M502.29,229.78c-1.16,0-2.09-0.39-2.78-1.16c-0.69-0.78-1.03-1.78-1.03-3.02v-0.34c0-1.19,0.35-2.18,1.06-2.97
			c0.71-0.79,1.55-1.19,2.51-1.19c1.12,0,1.97,0.34,2.55,1.02s0.87,1.59,0.87,2.72v0.95h-5.42l-0.02,0.04
			c0.01,0.8,0.22,1.46,0.61,1.98c0.39,0.52,0.94,0.78,1.65,0.78c0.51,0,0.97-0.07,1.36-0.22c0.39-0.15,0.72-0.35,1.01-0.61
			l0.59,0.99c-0.3,0.29-0.69,0.53-1.19,0.73C503.57,229.68,502.98,229.78,502.29,229.78z M502.05,222.3c-0.51,0-0.95,0.21-1.31,0.65
			c-0.36,0.43-0.58,0.97-0.66,1.62l0.02,0.04h3.86v-0.2c0-0.6-0.16-1.1-0.48-1.5C503.16,222.5,502.68,222.3,502.05,222.3z"/>
		<path d="M513.37,223.88h-1.14l-0.25-1c-0.19-0.17-0.42-0.32-0.7-0.42c-0.28-0.11-0.6-0.16-0.95-0.16c-0.54,0-0.94,0.12-1.21,0.36
			c-0.26,0.24-0.39,0.52-0.39,0.86c0,0.33,0.12,0.59,0.35,0.78c0.23,0.19,0.7,0.36,1.41,0.51c1.06,0.23,1.84,0.53,2.36,0.92
			c0.51,0.39,0.77,0.91,0.77,1.57c0,0.74-0.3,1.34-0.9,1.8c-0.6,0.46-1.38,0.69-2.35,0.69c-0.63,0-1.2-0.07-1.71-0.22
			c-0.5-0.15-0.96-0.36-1.35-0.64l-0.01-1.91h1.14l0.29,1.12c0.18,0.16,0.41,0.28,0.71,0.35c0.3,0.07,0.61,0.11,0.92,0.11
			c0.54,0,0.96-0.11,1.27-0.33c0.31-0.22,0.46-0.5,0.46-0.86c0-0.34-0.13-0.61-0.38-0.83c-0.25-0.22-0.74-0.41-1.45-0.56
			c-1.01-0.22-1.78-0.52-2.29-0.9s-0.77-0.9-0.77-1.54c0-0.68,0.29-1.26,0.87-1.74c0.58-0.48,1.33-0.72,2.26-0.72
			c0.63,0,1.2,0.08,1.71,0.25c0.5,0.17,0.92,0.39,1.26,0.69L513.37,223.88z"/>
		<path d="M514.86,231.85l1.26-0.22v-9.18l-1.26-0.22v-0.98h2.57l0.14,1.02c0.28-0.38,0.62-0.67,1.02-0.87
			c0.4-0.2,0.86-0.3,1.39-0.3c1.04,0,1.84,0.41,2.41,1.23c0.58,0.82,0.86,1.91,0.86,3.26v0.16c0,1.21-0.29,2.18-0.87,2.92
			c-0.58,0.74-1.37,1.11-2.39,1.11c-0.51,0-0.97-0.09-1.36-0.26s-0.72-0.43-0.99-0.77v2.88l1.26,0.22v0.98h-4.04V231.85z
			 M521.71,225.59c0-0.95-0.19-1.73-0.56-2.34s-0.92-0.91-1.65-0.91c-0.43,0-0.8,0.1-1.11,0.29c-0.31,0.2-0.56,0.46-0.75,0.8v4.07
			c0.19,0.34,0.44,0.61,0.75,0.8c0.31,0.19,0.68,0.28,1.13,0.28c0.72,0,1.27-0.26,1.64-0.79c0.37-0.52,0.56-1.21,0.56-2.05V225.59z"
			/>
		<path d="M530.08,229.61c-0.04-0.23-0.08-0.43-0.11-0.61c-0.03-0.18-0.04-0.36-0.06-0.54c-0.29,0.38-0.66,0.69-1.1,0.94
			c-0.44,0.25-0.91,0.38-1.41,0.38c-0.87,0-1.53-0.21-1.99-0.64c-0.46-0.43-0.68-1.02-0.68-1.8c0-0.79,0.32-1.41,0.96-1.84
			c0.64-0.43,1.52-0.64,2.64-0.64h1.57v-0.97c0-0.49-0.16-0.88-0.46-1.16c-0.31-0.29-0.74-0.43-1.29-0.43
			c-0.38,0-0.72,0.05-1.01,0.15c-0.29,0.1-0.53,0.23-0.71,0.4l-0.16,0.88h-1.17v-1.62c0.38-0.3,0.84-0.55,1.38-0.73
			c0.54-0.18,1.13-0.27,1.76-0.27c0.95,0,1.71,0.24,2.3,0.73c0.59,0.48,0.88,1.18,0.88,2.08v4.03c0,0.11,0,0.21,0,0.32
			c0,0.1,0.01,0.21,0.02,0.31l0.62,0.09v0.97H530.08z M527.63,228.5c0.51,0,0.96-0.12,1.38-0.36c0.42-0.24,0.71-0.53,0.9-0.87v-1.38
			h-1.62c-0.62,0-1.12,0.14-1.48,0.43c-0.36,0.29-0.54,0.64-0.54,1.05c0,0.37,0.11,0.65,0.34,0.84
			C526.83,228.4,527.17,228.5,527.63,228.5z"/>
		<path d="M537.09,228.58c0.51,0,0.95-0.16,1.33-0.47c0.38-0.31,0.57-0.69,0.57-1.15h1.37l0.02,0.04c0.03,0.72-0.3,1.36-0.96,1.92
			c-0.67,0.56-1.44,0.84-2.33,0.84c-1.21,0-2.14-0.4-2.78-1.19c-0.64-0.79-0.96-1.79-0.96-2.99v-0.32c0-1.19,0.32-2.18,0.97-2.98
			c0.64-0.8,1.57-1.19,2.78-1.19c0.67,0,1.27,0.11,1.81,0.33c0.53,0.22,0.97,0.53,1.33,0.91l0.07,1.86h-1.21l-0.33-1.31
			c-0.18-0.17-0.41-0.32-0.7-0.42c-0.28-0.11-0.6-0.16-0.96-0.16c-0.8,0-1.37,0.29-1.71,0.86c-0.34,0.58-0.51,1.28-0.51,2.11v0.32
			c0,0.86,0.17,1.57,0.51,2.14S536.29,228.58,537.09,228.58z"/>
		<path d="M541.87,228.64l1.26-0.22v-5.97l-1.26-0.22v-0.98h2.78v7.17l1.26,0.22v0.97h-4.04V228.64z M544.65,219.11h-1.52v-1.55
			h1.52V219.11z"/>
		<path d="M547.08,225.36c0-1.24,0.34-2.25,1-3.06c0.67-0.8,1.58-1.2,2.73-1.2c1.16,0,2.07,0.4,2.74,1.2
			c0.67,0.8,1.01,1.82,1.01,3.06v0.17c0,1.25-0.33,2.27-1,3.06c-0.67,0.79-1.58,1.19-2.73,1.19c-1.16,0-2.07-0.4-2.74-1.19
			c-0.67-0.8-1-1.81-1-3.06V225.36z M548.6,225.53c0,0.89,0.19,1.62,0.56,2.19c0.37,0.58,0.93,0.87,1.66,0.87
			c0.72,0,1.27-0.29,1.65-0.87c0.38-0.58,0.56-1.31,0.56-2.19v-0.17c0-0.88-0.19-1.6-0.56-2.19s-0.93-0.87-1.66-0.87
			c-0.73,0-1.28,0.29-1.65,0.87c-0.37,0.58-0.56,1.31-0.56,2.19V225.53z"/>
		<path d="M563.63,228.58c0.5,0,0.95-0.16,1.33-0.47c0.38-0.31,0.58-0.69,0.58-1.15h1.37l0.02,0.04c0.03,0.72-0.29,1.36-0.96,1.92
			c-0.67,0.56-1.44,0.84-2.33,0.84c-1.22,0-2.14-0.4-2.79-1.19c-0.64-0.79-0.96-1.79-0.96-2.99v-0.32c0-1.19,0.32-2.18,0.96-2.98
			c0.64-0.8,1.57-1.19,2.78-1.19c0.67,0,1.27,0.11,1.8,0.33c0.53,0.22,0.98,0.53,1.33,0.91l0.07,1.86h-1.21l-0.33-1.31
			c-0.18-0.17-0.41-0.32-0.7-0.42c-0.28-0.11-0.6-0.16-0.96-0.16c-0.8,0-1.37,0.29-1.71,0.86c-0.34,0.58-0.51,1.28-0.51,2.11v0.32
			c0,0.86,0.17,1.57,0.51,2.14C562.26,228.3,562.83,228.58,563.63,228.58z"/>
		<path d="M568.42,225.36c0-1.24,0.33-2.25,1-3.06c0.67-0.8,1.58-1.2,2.73-1.2c1.15,0,2.07,0.4,2.74,1.2
			c0.67,0.8,1.01,1.82,1.01,3.06v0.17c0,1.25-0.34,2.27-1,3.06c-0.67,0.79-1.58,1.19-2.73,1.19c-1.16,0-2.07-0.4-2.74-1.19
			c-0.67-0.8-1-1.81-1-3.06V225.36z M569.94,225.53c0,0.89,0.19,1.62,0.56,2.19c0.37,0.58,0.93,0.87,1.67,0.87
			c0.72,0,1.27-0.29,1.65-0.87c0.38-0.58,0.56-1.31,0.56-2.19v-0.17c0-0.88-0.19-1.6-0.56-2.19c-0.38-0.58-0.93-0.87-1.66-0.87
			c-0.73,0-1.28,0.29-1.65,0.87c-0.37,0.58-0.56,1.31-0.56,2.19V225.53z"/>
		<path d="M576.92,218.54v-0.98h2.78v10.86l1.26,0.22v0.97h-4.04v-0.97l1.26-0.22v-9.67L576.92,218.54z"/>
		<path d="M585.93,229.78c-1.16,0-2.09-0.39-2.78-1.16c-0.69-0.78-1.03-1.78-1.03-3.02v-0.34c0-1.19,0.36-2.18,1.06-2.97
			c0.71-0.79,1.54-1.19,2.51-1.19c1.12,0,1.97,0.34,2.55,1.02s0.87,1.59,0.87,2.72v0.95h-5.42l-0.02,0.04
			c0.01,0.8,0.22,1.46,0.61,1.98c0.39,0.52,0.94,0.78,1.65,0.78c0.51,0,0.97-0.07,1.36-0.22c0.39-0.15,0.72-0.35,1.01-0.61
			l0.59,0.99c-0.3,0.29-0.69,0.53-1.19,0.73C587.21,229.68,586.62,229.78,585.93,229.78z M585.7,222.3c-0.51,0-0.95,0.21-1.31,0.65
			c-0.36,0.43-0.58,0.97-0.67,1.62l0.02,0.04h3.86v-0.2c0-0.6-0.16-1.1-0.48-1.5S586.33,222.3,585.7,222.3z"/>
		<path d="M594.38,228.58c0.5,0,0.95-0.16,1.33-0.47c0.38-0.31,0.58-0.69,0.58-1.15h1.37l0.01,0.04c0.03,0.72-0.29,1.36-0.96,1.92
			c-0.67,0.56-1.44,0.84-2.33,0.84c-1.22,0-2.14-0.4-2.79-1.19c-0.64-0.79-0.96-1.79-0.96-2.99v-0.32c0-1.19,0.32-2.18,0.97-2.98
			c0.64-0.8,1.57-1.19,2.78-1.19c0.67,0,1.27,0.11,1.8,0.33c0.53,0.22,0.97,0.53,1.33,0.91l0.07,1.86h-1.21l-0.33-1.31
			c-0.18-0.17-0.41-0.32-0.69-0.42c-0.28-0.11-0.6-0.16-0.96-0.16c-0.8,0-1.37,0.29-1.71,0.86c-0.34,0.58-0.51,1.28-0.51,2.11v0.32
			c0,0.86,0.17,1.57,0.51,2.14C593,228.3,593.58,228.58,594.38,228.58z"/>
		<path d="M601.81,219.24v2.02h1.58v1.13h-1.58v5.08c0,0.39,0.08,0.67,0.24,0.83c0.16,0.16,0.38,0.24,0.65,0.24
			c0.14,0,0.29-0.01,0.45-0.04c0.17-0.02,0.31-0.05,0.42-0.07l0.21,1.04c-0.14,0.09-0.36,0.17-0.63,0.23
			c-0.28,0.06-0.56,0.09-0.83,0.09c-0.62,0-1.11-0.19-1.48-0.56c-0.37-0.37-0.55-0.96-0.55-1.76v-5.08h-1.32v-1.13h1.32v-2.02
			H601.81z"/>
		<path d="M604.95,228.64l1.26-0.22v-5.97l-1.26-0.22v-0.98h2.78v7.17l1.26,0.22v0.97h-4.04V228.64z M607.73,219.11h-1.52v-1.55
			h1.52V219.11z"/>
		<path d="M613.01,222.23l-1,0.15l1.72,4.76l0.14,0.6h0.05l0.15-0.6l1.67-4.76l-1.01-0.15v-0.98h3.23v0.98l-0.69,0.12l-2.8,7.26
			h-1.15l-2.84-7.26l-0.69-0.12v-0.98h3.23V222.23z"/>
		<path d="M618.87,225.36c0-1.24,0.33-2.25,1-3.06c0.67-0.8,1.58-1.2,2.73-1.2c1.15,0,2.07,0.4,2.74,1.2
			c0.67,0.8,1.01,1.82,1.01,3.06v0.17c0,1.25-0.33,2.27-1,3.06c-0.67,0.79-1.58,1.19-2.73,1.19c-1.16,0-2.07-0.4-2.74-1.19
			c-0.67-0.8-1-1.81-1-3.06V225.36z M620.39,225.53c0,0.89,0.19,1.62,0.56,2.19c0.37,0.58,0.93,0.87,1.66,0.87
			c0.72,0,1.27-0.29,1.65-0.87c0.38-0.58,0.56-1.31,0.56-2.19v-0.17c0-0.88-0.19-1.6-0.56-2.19c-0.38-0.58-0.93-0.87-1.66-0.87
			c-0.73,0-1.28,0.29-1.65,0.87c-0.37,0.58-0.56,1.31-0.56,2.19V225.53z"/>
	</g>
</g>
</svg>
