<?xml version="1.0" encoding="utf-8"?>
<!-- Generator: Adobe Illustrator 16.0.0, SVG Export Plug-In . SVG Version: 6.00 Build 0)  -->
<!DOCTYPE svg PUBLIC "-//W3C//DTD SVG 1.1 Tiny//EN" "http://www.w3.org/Graphics/SVG/1.1/DTD/svg11-tiny.dtd">
<svg version="1.1" baseProfile="tiny" id="Capa_1" xmlns="http://www.w3.org/2000/svg" xmlns:xlink="http://www.w3.org/1999/xlink"
	 x="0px" y="0px" width="800px" height="450px" viewBox="0 0 800 450" xml:space="preserve">
<g>
	<path fill="#3FC0F0" d="M368.66,173.71c-8.3-79.62-75.61-141.67-157.42-141.68c-84.63,0-153.74,66.41-158.07,149.96l4,0.21
		c4.22-81.43,71.59-146.17,154.08-146.17c79.86,0,145.55,60.68,153.48,138.44l-12.78-11.27l-2.64,3.01l18.02,15.88l14.53-19.13
		l-3.19-2.42L368.66,173.71z"/>
	<path fill="#3FC0F0" d="M450.71,166.21l-2.64-3.01l-12.78,11.27c7.93-77.76,73.62-138.44,153.48-138.44
		c82.49,0,149.85,64.74,154.08,146.17l3.99-0.21C742.5,98.44,673.39,32.03,588.76,32.03c-81.81,0-149.12,62.06-157.42,141.68
		l-10-13.17l-3.19,2.42l14.53,19.13L450.71,166.21z"/>
	<path fill="#3FC0F0" d="M365.32,267.32c-4.22,81.43-71.59,146.17-154.07,146.17c-79.86,0-145.55-60.69-153.48-138.45l12.79,11.27
		l2.64-3l-18.02-15.88l-14.53,19.13l3.19,2.42l9.99-13.16c8.31,79.61,75.61,141.67,157.42,141.67
		c84.63,0,153.74-66.41,158.07-149.96L365.32,267.32L365.32,267.32z"/>
	<path fill="#3FC0F0" d="M759.36,286.55l-14.53-19.13l-18.02,15.88l2.64,3.01l12.79-11.27c-7.93,77.76-73.62,138.45-153.48,138.45
		c-82.49,0-149.85-64.74-154.08-146.17l-3.99,0.21c4.33,83.55,73.44,149.96,158.07,149.96c81.81,0,149.11-62.06,157.42-141.67
		l10,13.16L759.36,286.55z"/>
</g>
<g>
	<path fill="#3FC0F0" stroke="#1D71B8" stroke-width="2" stroke-miterlimit="10" d="M400,225.01c0,0-18.32,26-39.01,26
		c-14.36,0-26.01-11.64-26.01-26s11.64-26,26.01-26C381.68,199.01,400,225.01,400,225.01z"/>
	<path fill="#3FC0F0" stroke="#1D71B8" stroke-width="2" stroke-miterlimit="10" d="M400,224.99c0,0,18.32,26,39.01,26
		c14.36,0,26.01-11.64,26.01-26s-11.64-26-26.01-26C418.32,198.98,400,224.99,400,224.99z"/>
</g>
<path fill="#878787" d="M67.77,229.76c-6.13-2.36-7.18-6.22-6.98-9.07c3.35-2.37,6.31-7.03,6.31-12.39
	c0-7.76-2.75-14.05-10.81-14.05c-7.8,0-10.81,6.29-10.81,14.05c0,5.02,2.22,9.42,5.28,11.9c0.34,2.91-0.5,7.09-6.95,9.58
	c-9.19,3.54-14.54,5.72-16.71,20.37H55.8h28.67C82.29,235.5,76.96,233.31,67.77,229.76z"/>
<g>
	<path fill="#878787" d="M788.45,219.44c-6.1-2.35-6.9-6.22-6.9-8.89v0.05c3.55-2.66,6.23-7.01,6.23-12.37
		c0-7.76-2.79-14.04-10.85-14.04c-7.8,0-10.62,6.3-10.62,14.06c0,5.02,1.93,9.42,5.48,11.9v0c0,2.91-0.73,7.09-7.16,9.57
		c-3.12,1.2-5.9,2.23-8.16,3.66c0.44,1.01,1.48,1.96,4.11,2.97c7.73,2.98,13.23,5.19,16.56,13.18h27.95
		C802.89,225.33,797.64,222.99,788.45,219.44z"/>
	<path fill="#878787" d="M731.11,219.7c-6.12-2.36-7.18-6.2-6.98-9.05l0,0c3.35-2.37,6.31-7.03,6.31-12.39
		c0-7.76-2.75-14.05-10.81-14.05c-7.8,0-10.81,6.29-10.81,14.05c0,5.02,2.22,9.42,5.28,11.9l0,0c0.34,2.91-0.5,6.81-6.95,9.29
		c-9.19,3.54-14.54,5.88-16.71,20.09h26.62c3.33-7.99,8.89-10.18,16.62-13.16c3.15-1.22,4.11-2.59,4.37-3.76
		C736.03,221.5,733.73,220.71,731.11,219.7z"/>
	<path fill="#878787" d="M772.7,239.75c-2.9-5.33-7.37-7.14-13.63-9.55c-3.07-1.18-4.87-2.65-5.87-4.28c0,0-0.01,0.04-0.01,0.04
		c-0.98-1.6-1.2-3.25-1.1-4.67c3.35-2.37,6.31-7.02,6.31-12.38c0-7.76-2.75-14.05-10.81-14.05c-7.8,0-10.81,6.3-10.81,14.06
		c0,5.02,2.22,9.42,5.28,11.9c0.15,1.27,0.06,2.79-0.61,4.31c0,0-0.01-0.01-0.01-0.01c-0.87,1.93-2.72,3.8-6.33,5.19
		c-6.26,2.41-10.73,4.13-13.64,9.45c-1.36,2.66-2.38,6.89-3.08,10.44h28.71h28.67C775.08,246.64,774.06,242.41,772.7,239.75z
		 M747.79,239.95c-0.01-0.06-0.02-0.13-0.03-0.19c-0.01,0.07-0.02,0.13-0.03,0.19h-0.02c0.02,0,0.04-0.12,0.05-0.23
		c0,0.01,0,0.03,0.01,0.04c0-0.02,0-0.03,0.01-0.05c0.02,0.11,0.04,0.24,0.05,0.24H747.79z"/>
</g>
<g>
	<path d="M139.73,229.89c-1.25,0-2.25-0.42-2.98-1.25c-0.74-0.83-1.11-1.91-1.11-3.24v-0.37c0-1.28,0.38-2.34,1.14-3.19
		c0.76-0.85,1.66-1.27,2.7-1.27c1.21,0,2.12,0.37,2.74,1.1c0.62,0.73,0.93,1.7,0.93,2.92v1.02h-5.83l-0.02,0.04
		c0.02,0.86,0.24,1.57,0.66,2.13s1.01,0.83,1.77,0.83c0.55,0,1.04-0.08,1.46-0.24c0.42-0.16,0.78-0.38,1.08-0.65l0.64,1.06
		c-0.32,0.31-0.75,0.57-1.27,0.79C141.1,229.78,140.47,229.89,139.73,229.89z M139.48,221.85c-0.55,0-1.02,0.23-1.4,0.69
		c-0.39,0.46-0.63,1.04-0.71,1.74l0.02,0.04h4.14v-0.22c0-0.64-0.17-1.18-0.51-1.61S140.15,221.85,139.48,221.85z"/>
	<path d="M151.64,223.56h-1.23l-0.27-1.08c-0.2-0.19-0.45-0.34-0.75-0.45c-0.3-0.11-0.64-0.17-1.02-0.17
		c-0.58,0-1.01,0.13-1.29,0.38s-0.42,0.56-0.42,0.92c0,0.35,0.12,0.63,0.37,0.84s0.76,0.39,1.52,0.55c1.13,0.24,1.98,0.57,2.53,0.99
		c0.55,0.42,0.83,0.98,0.83,1.68c0,0.8-0.32,1.44-0.97,1.93c-0.64,0.49-1.49,0.74-2.53,0.74c-0.68,0-1.29-0.08-1.83-0.24
		c-0.54-0.16-1.03-0.38-1.45-0.68l-0.01-2.05h1.23l0.31,1.2c0.19,0.17,0.44,0.3,0.77,0.37c0.32,0.08,0.65,0.12,0.99,0.12
		c0.58,0,1.04-0.12,1.37-0.35c0.33-0.23,0.49-0.54,0.49-0.92c0-0.36-0.14-0.66-0.41-0.89c-0.27-0.23-0.79-0.44-1.56-0.61
		c-1.09-0.24-1.91-0.56-2.47-0.97s-0.83-0.96-0.83-1.66c0-0.73,0.31-1.35,0.93-1.87c0.62-0.51,1.43-0.77,2.43-0.77
		c0.68,0,1.29,0.09,1.83,0.27s0.99,0.42,1.35,0.74L151.64,223.56z"/>
	<path d="M153.23,232.11l1.35-0.23v-9.86l-1.35-0.23v-1.05h2.76l0.15,1.1c0.3-0.41,0.66-0.72,1.09-0.94
		c0.43-0.22,0.93-0.32,1.49-0.32c1.11,0,1.98,0.44,2.59,1.32c0.62,0.88,0.93,2.05,0.93,3.5v0.17c0,1.29-0.31,2.34-0.93,3.13
		c-0.62,0.79-1.47,1.19-2.56,1.19c-0.55,0-1.04-0.09-1.46-0.28c-0.42-0.19-0.77-0.46-1.07-0.83v3.1l1.35,0.23v1.05h-4.34V232.11z
		 M160.6,225.39c0-1.02-0.2-1.86-0.6-2.52s-0.99-0.98-1.78-0.98c-0.46,0-0.86,0.1-1.2,0.32s-0.6,0.5-0.81,0.86v4.37
		c0.2,0.37,0.47,0.66,0.8,0.86c0.33,0.2,0.73,0.3,1.22,0.3c0.77,0,1.36-0.28,1.76-0.85s0.6-1.3,0.6-2.2V225.39z"/>
	<path d="M169.58,229.71c-0.05-0.24-0.09-0.46-0.12-0.66s-0.05-0.39-0.06-0.58c-0.32,0.4-0.71,0.74-1.18,1.01
		c-0.47,0.27-0.98,0.4-1.52,0.4c-0.94,0-1.65-0.23-2.13-0.68s-0.73-1.1-0.73-1.93c0-0.85,0.34-1.51,1.03-1.97
		c0.69-0.46,1.63-0.69,2.83-0.69h1.69v-1.05c0-0.53-0.17-0.94-0.5-1.25c-0.33-0.31-0.79-0.46-1.39-0.46c-0.41,0-0.77,0.05-1.08,0.16
		c-0.31,0.1-0.57,0.25-0.76,0.43l-0.17,0.95h-1.26v-1.74c0.41-0.33,0.9-0.59,1.49-0.78c0.58-0.2,1.21-0.29,1.89-0.29
		c1.02,0,1.84,0.26,2.47,0.78s0.95,1.26,0.95,2.23v4.33c0,0.12,0,0.23,0,0.34c0,0.11,0.01,0.22,0.02,0.33l0.66,0.09v1.04H169.58z
		 M166.95,228.52c0.54,0,1.04-0.13,1.49-0.39s0.77-0.57,0.96-0.94v-1.48h-1.74c-0.67,0-1.2,0.15-1.59,0.47
		c-0.39,0.31-0.59,0.69-0.59,1.13c0,0.39,0.12,0.69,0.37,0.9S166.46,228.52,166.95,228.52z"/>
	<path d="M177.12,228.61c0.54,0,1.02-0.17,1.43-0.5c0.41-0.33,0.62-0.75,0.62-1.23h1.47l0.02,0.05c0.03,0.78-0.32,1.46-1.03,2.06
		c-0.72,0.6-1.55,0.9-2.5,0.9c-1.31,0-2.3-0.43-2.99-1.28c-0.69-0.85-1.03-1.92-1.03-3.21v-0.35c0-1.28,0.35-2.34,1.04-3.2
		c0.69-0.85,1.69-1.28,2.99-1.28c0.72,0,1.37,0.12,1.94,0.36c0.57,0.24,1.05,0.56,1.42,0.98l0.07,1.99h-1.3l-0.36-1.41
		c-0.19-0.19-0.44-0.34-0.75-0.46s-0.65-0.17-1.03-0.17c-0.86,0-1.47,0.31-1.84,0.93c-0.37,0.62-0.55,1.37-0.55,2.27v0.35
		c0,0.92,0.18,1.68,0.55,2.29C175.64,228.31,176.26,228.61,177.12,228.61z"/>
	<path d="M182.25,228.67l1.35-0.23v-6.42l-1.35-0.23v-1.05h2.99v7.7l1.35,0.23v1.04h-4.34V228.67z M185.24,218.43h-1.64v-1.67h1.64
		V218.43z"/>
	<path d="M187.85,225.14c0-1.33,0.36-2.42,1.08-3.28c0.72-0.86,1.7-1.29,2.93-1.29c1.24,0,2.22,0.43,2.94,1.29
		c0.72,0.86,1.08,1.95,1.08,3.29v0.18c0,1.34-0.36,2.44-1.08,3.29s-1.7,1.28-2.93,1.28c-1.25,0-2.23-0.43-2.95-1.28
		s-1.08-1.95-1.08-3.28V225.14z M189.48,225.32c0,0.95,0.2,1.74,0.6,2.36c0.4,0.62,1,0.93,1.79,0.93c0.77,0,1.36-0.31,1.77-0.93
		s0.61-1.41,0.61-2.36v-0.18c0-0.94-0.2-1.72-0.61-2.35s-1-0.94-1.78-0.94s-1.38,0.31-1.78,0.94s-0.6,1.41-0.6,2.35V225.32z"/>
	<path d="M201.6,228.67l1.35-0.23v-6.42l-1.35-0.23v-1.05h2.99v7.7l1.35,0.23v1.04h-4.34V228.67z M204.59,218.43h-1.64v-1.67h1.64
		V218.43z"/>
	<path d="M206.95,228.67l1.35-0.23v-6.42l-1.35-0.23v-1.05h2.81l0.12,1.34c0.3-0.48,0.67-0.85,1.12-1.11
		c0.45-0.26,0.96-0.39,1.54-0.39c0.97,0,1.72,0.28,2.25,0.85c0.53,0.57,0.8,1.44,0.8,2.63v4.39l1.35,0.23v1.04h-4.34v-1.04
		l1.35-0.23v-4.36c0-0.79-0.16-1.35-0.47-1.69c-0.31-0.33-0.79-0.5-1.43-0.5c-0.47,0-0.89,0.11-1.25,0.34
		c-0.36,0.23-0.65,0.54-0.87,0.93v5.27l1.35,0.23v1.04h-4.34V228.67z"/>
	<path d="M224.1,228.64c-0.29,0.41-0.65,0.72-1.08,0.93c-0.42,0.21-0.91,0.32-1.47,0.32c-1.1,0-1.95-0.4-2.57-1.19
		c-0.62-0.79-0.93-1.84-0.93-3.13v-0.17c0-1.44,0.31-2.61,0.93-3.49c0.62-0.89,1.48-1.33,2.59-1.33c0.53,0,1,0.1,1.41,0.29
		c0.41,0.2,0.75,0.48,1.04,0.85v-3.66l-1.35-0.23v-1.05h1.35h1.64v11.67l1.35,0.23v1.04h-2.77L224.1,228.64z M219.69,225.56
		c0,0.9,0.19,1.63,0.56,2.18c0.37,0.55,0.94,0.82,1.72,0.82c0.49,0,0.9-0.11,1.23-0.33s0.61-0.53,0.82-0.94v-4.17
		c-0.21-0.38-0.48-0.68-0.82-0.9s-0.74-0.33-1.21-0.33c-0.78,0-1.36,0.32-1.73,0.97c-0.37,0.65-0.56,1.49-0.56,2.52V225.56z"/>
	<path d="M228.25,228.67l1.35-0.23v-6.42l-1.35-0.23v-1.05h2.99v7.7l1.35,0.23v1.04h-4.34V228.67z M231.23,218.43h-1.64v-1.67h1.64
		V218.43z"/>
	<path d="M236.91,221.79l-1.08,0.17l1.85,5.11l0.15,0.65h0.05l0.16-0.65l1.79-5.11l-1.09-0.17v-1.05h3.47v1.05l-0.74,0.12l-3.01,7.8
		h-1.24l-3.05-7.8l-0.74-0.12v-1.05h3.47V221.79z"/>
	<path d="M243.32,228.67l1.35-0.23v-6.42l-1.35-0.23v-1.05h2.99v7.7l1.35,0.23v1.04h-4.34V228.67z M246.31,218.43h-1.64v-1.67h1.64
		V218.43z"/>
	<path d="M254.96,228.64c-0.29,0.41-0.65,0.72-1.08,0.93c-0.42,0.21-0.91,0.32-1.47,0.32c-1.1,0-1.95-0.4-2.57-1.19
		c-0.62-0.79-0.93-1.84-0.93-3.13v-0.17c0-1.44,0.31-2.61,0.93-3.49c0.62-0.89,1.48-1.33,2.59-1.33c0.53,0,1,0.1,1.41,0.29
		c0.41,0.2,0.75,0.48,1.04,0.85v-3.66l-1.35-0.23v-1.05h1.35h1.64v11.67l1.35,0.23v1.04h-2.77L254.96,228.64z M250.55,225.56
		c0,0.9,0.19,1.63,0.56,2.18c0.37,0.55,0.94,0.82,1.72,0.82c0.49,0,0.9-0.11,1.23-0.33s0.61-0.53,0.82-0.94v-4.17
		c-0.21-0.38-0.48-0.68-0.82-0.9s-0.74-0.33-1.21-0.33c-0.78,0-1.36,0.32-1.73,0.97c-0.37,0.65-0.56,1.49-0.56,2.52V225.56z"/>
	<path d="M265.53,228.39c-0.28,0.48-0.65,0.85-1.09,1.11c-0.45,0.26-0.96,0.39-1.54,0.39c-0.97,0-1.73-0.31-2.28-0.94
		c-0.55-0.62-0.82-1.6-0.82-2.92v-4.01l-1.03-0.23v-1.05h1.03h1.64v5.31c0,0.96,0.14,1.62,0.42,1.97c0.28,0.36,0.72,0.54,1.32,0.54
		c0.58,0,1.06-0.12,1.44-0.35c0.38-0.24,0.67-0.57,0.86-1v-5.19l-1.2-0.23v-1.05h1.2h1.64v7.7l1.03,0.23v1.04h-2.5L265.53,228.39z"
		/>
	<path d="M275.3,229.71c-0.05-0.24-0.09-0.46-0.12-0.66s-0.05-0.39-0.06-0.58c-0.32,0.4-0.71,0.74-1.18,1.01
		c-0.47,0.27-0.98,0.4-1.52,0.4c-0.94,0-1.65-0.23-2.13-0.68s-0.73-1.1-0.73-1.93c0-0.85,0.34-1.51,1.03-1.97
		c0.69-0.46,1.63-0.69,2.83-0.69h1.69v-1.05c0-0.53-0.17-0.94-0.5-1.25c-0.33-0.31-0.79-0.46-1.39-0.46c-0.41,0-0.77,0.05-1.08,0.16
		c-0.31,0.1-0.57,0.25-0.76,0.43l-0.17,0.95h-1.26v-1.74c0.41-0.33,0.9-0.59,1.49-0.78c0.58-0.2,1.21-0.29,1.89-0.29
		c1.02,0,1.84,0.26,2.47,0.78s0.95,1.26,0.95,2.23v4.33c0,0.12,0,0.23,0,0.34c0,0.11,0.01,0.22,0.02,0.33l0.66,0.09v1.04H275.3z
		 M272.66,228.52c0.54,0,1.04-0.13,1.49-0.39s0.77-0.57,0.96-0.94v-1.48h-1.74c-0.67,0-1.2,0.15-1.59,0.47
		c-0.39,0.31-0.59,0.69-0.59,1.13c0,0.39,0.12,0.69,0.37,0.9S272.17,228.52,272.66,228.52z"/>
	<path d="M278.57,217.82v-1.05h2.99v11.67l1.35,0.23v1.04h-4.34v-1.04l1.35-0.23v-10.38L278.57,217.82z"/>
</g>
<g>
	<path fill="#3FC0F0" d="M176.23,77.13v-1.72h4.14l0.14,1.23c0.31-0.46,0.69-0.81,1.12-1.05s0.94-0.37,1.52-0.37
		c1.31,0,2.32,0.51,3.05,1.53s1.08,2.37,1.08,4.03v0.21c0,1.56-0.36,2.82-1.08,3.77s-1.73,1.43-3.03,1.43
		c-0.55,0-1.04-0.1-1.47-0.31s-0.8-0.51-1.1-0.9v3.06l1.38,0.29v1.72h-5.6v-1.72l1.38-0.29V77.42L176.23,77.13z M184.44,80.78
		c0-1-0.17-1.8-0.5-2.42s-0.84-0.93-1.52-0.93c-0.43,0-0.8,0.09-1.1,0.26s-0.54,0.43-0.72,0.75v4.63c0.18,0.3,0.42,0.53,0.72,0.68
		s0.68,0.23,1.12,0.23c0.69,0,1.2-0.27,1.52-0.81s0.48-1.27,0.48-2.2V80.78z"/>
	<path fill="#3FC0F0" d="M194.63,85.98c-0.08-0.18-0.15-0.36-0.21-0.54s-0.1-0.37-0.14-0.56c-0.34,0.39-0.75,0.71-1.24,0.95
		s-1.04,0.36-1.67,0.36c-1.04,0-1.86-0.28-2.47-0.84s-0.91-1.33-0.91-2.3c0-0.99,0.4-1.75,1.19-2.29s1.96-0.81,3.5-0.81h1.46V78.9
		c0-0.51-0.15-0.9-0.44-1.18s-0.73-0.42-1.3-0.42c-0.33,0-0.62,0.04-0.87,0.11s-0.46,0.16-0.62,0.27l-0.19,1.13h-2.15l0.01-2.34
		c0.52-0.35,1.12-0.65,1.79-0.89s1.41-0.36,2.2-0.36c1.31,0,2.37,0.32,3.19,0.96s1.23,1.55,1.23,2.74v4.37c0,0.16,0,0.32,0,0.46
		s0.01,0.28,0.03,0.41l0.87,0.12v1.71H194.63z M192.15,84.07c0.43,0,0.82-0.09,1.17-0.28s0.62-0.42,0.82-0.7v-1.61h-1.46
		c-0.61,0-1.06,0.14-1.38,0.42s-0.47,0.62-0.47,1.02c0,0.36,0.12,0.64,0.35,0.84S191.74,84.07,192.15,84.07z"/>
	<path fill="#3FC0F0" d="M197.92,72.46v-1.72h4.38v13.23l1.38,0.29v1.71h-5.61v-1.71l1.38-0.29V72.75L197.92,72.46z"/>
	<path fill="#3FC0F0" d="M210.67,85.98c-0.08-0.18-0.15-0.36-0.21-0.54s-0.1-0.37-0.14-0.56c-0.34,0.39-0.75,0.71-1.24,0.95
		s-1.04,0.36-1.67,0.36c-1.04,0-1.86-0.28-2.47-0.84s-0.91-1.33-0.91-2.3c0-0.99,0.4-1.75,1.19-2.29s1.96-0.81,3.5-0.81h1.46V78.9
		c0-0.51-0.15-0.9-0.44-1.18s-0.73-0.42-1.3-0.42c-0.33,0-0.62,0.04-0.87,0.11s-0.46,0.16-0.62,0.27l-0.19,1.13h-2.15l0.01-2.34
		c0.52-0.35,1.12-0.65,1.79-0.89s1.41-0.36,2.2-0.36c1.31,0,2.37,0.32,3.19,0.96s1.23,1.55,1.23,2.74v4.37c0,0.16,0,0.32,0,0.46
		s0.01,0.28,0.03,0.41l0.87,0.12v1.71H210.67z M208.2,84.07c0.43,0,0.82-0.09,1.17-0.28s0.62-0.42,0.82-0.7v-1.61h-1.46
		c-0.61,0-1.06,0.14-1.38,0.42s-0.47,0.62-0.47,1.02c0,0.36,0.12,0.64,0.35,0.84S207.79,84.07,208.2,84.07z"/>
	<path fill="#3FC0F0" d="M224.17,80.99c0,1.58-0.35,2.84-1.05,3.78s-1.72,1.42-3.05,1.42c-0.62,0-1.16-0.13-1.61-0.39
		s-0.84-0.63-1.15-1.12l-0.21,1.3h-2.46V72.75l-1.51-0.29v-1.72h4.36v5.79c0.31-0.42,0.67-0.75,1.1-0.98s0.92-0.34,1.47-0.34
		c1.34,0,2.36,0.51,3.07,1.52s1.05,2.36,1.05,4.05V80.99z M221.33,80.78c0-1.03-0.15-1.84-0.45-2.45s-0.82-0.9-1.55-0.9
		c-0.44,0-0.82,0.09-1.12,0.28s-0.55,0.45-0.72,0.8v4.46c0.18,0.33,0.42,0.57,0.73,0.74s0.69,0.25,1.14,0.25
		c0.74,0,1.25-0.26,1.54-0.78s0.44-1.25,0.44-2.2V80.78z"/>
	<path fill="#3FC0F0" d="M225.04,84.27l1.37-0.29v-6.55l-1.51-0.29v-1.72h4.17l0.13,1.54c0.25-0.55,0.57-0.97,0.96-1.28
		s0.84-0.46,1.36-0.46c0.15,0,0.31,0.01,0.47,0.03s0.3,0.05,0.42,0.08l-0.3,2.6l-1.17-0.03c-0.42,0-0.76,0.08-1.04,0.24
		s-0.48,0.39-0.62,0.69v5.14l1.37,0.29v1.71h-5.59V84.27z"/>
	<path fill="#3FC0F0" d="M239.12,85.98c-0.08-0.18-0.15-0.36-0.21-0.54s-0.1-0.37-0.14-0.56c-0.34,0.39-0.75,0.71-1.24,0.95
		s-1.04,0.36-1.67,0.36c-1.04,0-1.86-0.28-2.47-0.84s-0.91-1.33-0.91-2.3c0-0.99,0.4-1.75,1.19-2.29s1.96-0.81,3.5-0.81h1.46V78.9
		c0-0.51-0.15-0.9-0.44-1.18s-0.73-0.42-1.3-0.42c-0.33,0-0.62,0.04-0.87,0.11s-0.46,0.16-0.62,0.27l-0.19,1.13h-2.15l0.01-2.34
		c0.52-0.35,1.12-0.65,1.79-0.89s1.41-0.36,2.2-0.36c1.31,0,2.37,0.32,3.19,0.96s1.23,1.55,1.23,2.74v4.37c0,0.16,0,0.32,0,0.46
		s0.01,0.28,0.03,0.41l0.87,0.12v1.71H239.12z M236.65,84.07c0.43,0,0.82-0.09,1.17-0.28s0.62-0.42,0.82-0.7v-1.61h-1.46
		c-0.61,0-1.06,0.14-1.38,0.42s-0.47,0.62-0.47,1.02c0,0.36,0.12,0.64,0.35,0.84S236.24,84.07,236.65,84.07z"/>
</g>
<g>
	<path fill="#3FC0F0" d="M533.81,376.55c-0.33,0.49-0.72,0.86-1.18,1.11c-0.45,0.25-0.97,0.38-1.55,0.38c-1.3,0-2.31-0.47-3.03-1.43
		c-0.72-0.95-1.08-2.21-1.08-3.77v-0.21c0-1.67,0.36-3.01,1.08-4.03c0.72-1.02,1.74-1.53,3.05-1.53c0.53,0,1,0.12,1.43,0.35
		c0.42,0.23,0.79,0.56,1.11,0.98v-3.79l-1.52-0.29v-1.72h1.52h2.85v13.23l1.37,0.29v1.71h-3.84L533.81,376.55z M529.83,372.85
		c0,0.92,0.15,1.65,0.46,2.18c0.31,0.53,0.82,0.79,1.52,0.79c0.42,0,0.78-0.08,1.08-0.25c0.31-0.17,0.56-0.41,0.75-0.73v-4.48
		c-0.2-0.34-0.45-0.6-0.75-0.79s-0.66-0.28-1.07-0.28c-0.7,0-1.21,0.31-1.52,0.93c-0.32,0.62-0.48,1.43-0.48,2.42V372.85z"/>
	<path fill="#3FC0F0" d="M543.17,378.04c-1.52,0-2.74-0.49-3.65-1.46c-0.91-0.98-1.37-2.22-1.37-3.72v-0.39
		c0-1.57,0.43-2.86,1.29-3.88c0.86-1.02,2.02-1.52,3.47-1.51c1.43,0,2.53,0.43,3.32,1.29c0.79,0.86,1.18,2.02,1.18,3.49v1.55h-6.31
		l-0.02,0.06c0.05,0.7,0.28,1.27,0.7,1.72c0.41,0.45,0.98,0.67,1.69,0.67c0.63,0,1.16-0.06,1.57-0.19c0.42-0.13,0.87-0.33,1.37-0.6
		l0.77,1.76c-0.44,0.35-1,0.63-1.7,0.87S544.02,378.04,543.17,378.04z M542.92,369.27c-0.53,0-0.94,0.2-1.25,0.61
		c-0.31,0.4-0.5,0.93-0.57,1.59l0.03,0.05h3.5v-0.25c0-0.61-0.14-1.09-0.43-1.45S543.49,369.27,542.92,369.27z"/>
	<path fill="#3FC0F0" d="M558.32,372.85c0,1.58-0.35,2.84-1.05,3.78c-0.7,0.94-1.72,1.42-3.05,1.42c-0.62,0-1.16-0.13-1.61-0.38
		c-0.46-0.26-0.84-0.63-1.15-1.12l-0.21,1.3h-2.46v-13.22l-1.51-0.29v-1.72h4.36v5.79c0.31-0.42,0.67-0.75,1.1-0.98
		c0.43-0.23,0.92-0.34,1.47-0.34c1.34,0,2.36,0.51,3.07,1.52c0.7,1.01,1.05,2.36,1.05,4.05V372.85z M555.48,372.64
		c0-1.03-0.15-1.84-0.45-2.45c-0.3-0.6-0.82-0.9-1.55-0.9c-0.44,0-0.82,0.09-1.12,0.28s-0.55,0.45-0.72,0.79v4.46
		c0.18,0.33,0.42,0.57,0.73,0.74c0.31,0.17,0.69,0.25,1.14,0.25c0.74,0,1.25-0.26,1.54-0.78s0.44-1.25,0.44-2.2V372.64z"/>
	<path fill="#3FC0F0" d="M565.71,377.84c-0.08-0.18-0.15-0.36-0.21-0.54s-0.1-0.37-0.14-0.56c-0.34,0.39-0.75,0.71-1.24,0.95
		c-0.49,0.24-1.04,0.36-1.67,0.36c-1.04,0-1.86-0.28-2.47-0.84c-0.61-0.56-0.91-1.33-0.91-2.3c0-0.99,0.4-1.75,1.19-2.29
		c0.79-0.54,1.96-0.81,3.5-0.81h1.46v-1.04c0-0.51-0.15-0.9-0.44-1.18c-0.29-0.28-0.73-0.42-1.3-0.42c-0.33,0-0.62,0.04-0.87,0.11
		c-0.25,0.07-0.46,0.16-0.62,0.27l-0.19,1.13h-2.15l0.01-2.34c0.52-0.35,1.12-0.65,1.79-0.89c0.67-0.24,1.41-0.36,2.2-0.36
		c1.31,0,2.37,0.32,3.19,0.96c0.82,0.64,1.23,1.55,1.23,2.74v4.37c0,0.16,0,0.32,0,0.46c0,0.14,0.01,0.28,0.03,0.41l0.87,0.12v1.71
		H565.71z M563.24,375.93c0.43,0,0.82-0.09,1.17-0.28s0.62-0.42,0.82-0.7v-1.61h-1.46c-0.61,0-1.06,0.14-1.38,0.43
		s-0.47,0.62-0.47,1.02c0,0.36,0.12,0.64,0.35,0.84C562.51,375.83,562.83,375.93,563.24,375.93z"/>
	<path fill="#3FC0F0" d="M572.73,364.68v2.59h1.86v2h-1.86v5.38c0,0.41,0.08,0.7,0.25,0.88s0.4,0.26,0.68,0.26
		c0.2,0,0.37-0.01,0.51-0.02c0.15-0.02,0.31-0.04,0.49-0.08l0.24,2.06c-0.32,0.1-0.63,0.17-0.95,0.22s-0.65,0.07-1.02,0.07
		c-0.98,0-1.74-0.27-2.27-0.81c-0.53-0.54-0.8-1.4-0.8-2.57v-5.39h-1.55v-2h1.55v-2.59H572.73z"/>
	<path fill="#3FC0F0" d="M580.38,378.04c-1.52,0-2.74-0.49-3.65-1.46c-0.91-0.98-1.37-2.22-1.37-3.72v-0.39
		c0-1.57,0.43-2.86,1.29-3.88c0.86-1.02,2.02-1.52,3.47-1.51c1.43,0,2.53,0.43,3.32,1.29c0.79,0.86,1.18,2.02,1.18,3.49v1.55h-6.31
		l-0.02,0.06c0.05,0.7,0.29,1.27,0.7,1.72c0.41,0.45,0.97,0.67,1.68,0.67c0.63,0,1.16-0.06,1.57-0.19c0.42-0.13,0.87-0.33,1.37-0.6
		l0.77,1.76c-0.44,0.35-1,0.63-1.69,0.87S581.24,378.04,580.38,378.04z M580.13,369.27c-0.53,0-0.94,0.2-1.25,0.61
		c-0.31,0.4-0.49,0.93-0.57,1.59l0.03,0.05h3.5v-0.25c0-0.61-0.14-1.09-0.42-1.45S580.7,369.27,580.13,369.27z"/>
	<path fill="#3FC0F0" d="M589.35,368.99v-1.72h4.14l0.14,1.23c0.31-0.46,0.69-0.81,1.12-1.05c0.44-0.25,0.94-0.37,1.52-0.37
		c1.31,0,2.32,0.51,3.05,1.53c0.72,1.02,1.08,2.37,1.08,4.03v0.21c0,1.56-0.36,2.82-1.08,3.77c-0.72,0.95-1.73,1.43-3.03,1.43
		c-0.55,0-1.04-0.1-1.47-0.31s-0.8-0.51-1.1-0.9v3.06l1.38,0.29v1.72h-5.6v-1.72l1.38-0.29v-10.61L589.35,368.99z M597.55,372.64
		c0-1-0.17-1.8-0.5-2.42c-0.33-0.62-0.84-0.93-1.52-0.93c-0.43,0-0.79,0.09-1.1,0.26s-0.54,0.43-0.72,0.75v4.63
		c0.18,0.3,0.42,0.53,0.72,0.68s0.67,0.23,1.12,0.23c0.69,0,1.2-0.27,1.52-0.81c0.32-0.54,0.48-1.27,0.48-2.2V372.64z"/>
	<path fill="#3FC0F0" d="M608.4,376.5c-0.34,0.5-0.76,0.88-1.25,1.14c-0.5,0.27-1.07,0.4-1.7,0.4c-1.11,0-1.99-0.36-2.62-1.07
		s-0.95-1.82-0.95-3.33v-4.37l-1.16-0.29v-1.72h1.16h2.85v6.4c0,0.77,0.13,1.32,0.39,1.66c0.26,0.33,0.64,0.5,1.15,0.5
		c0.45,0,0.84-0.07,1.17-0.22s0.6-0.36,0.81-0.63v-5.69l-1.25-0.29v-1.72h1.25h2.85v8.56l1.28,0.29v1.71h-3.78L608.4,376.5z
		 M606.55,363.15h3.02l0.02,0.06l-2.7,2.54h-2.29L606.55,363.15z"/>
	<path fill="#3FC0F0" d="M623.05,372.85c0,1.58-0.35,2.84-1.05,3.78c-0.7,0.94-1.72,1.42-3.05,1.42c-0.62,0-1.16-0.13-1.61-0.38
		c-0.46-0.26-0.84-0.63-1.15-1.12l-0.21,1.3h-2.46v-13.22l-1.51-0.29v-1.72h4.36v5.79c0.31-0.42,0.67-0.75,1.1-0.98
		c0.43-0.23,0.92-0.34,1.47-0.34c1.34,0,2.36,0.51,3.07,1.52c0.7,1.01,1.05,2.36,1.05,4.05V372.85z M620.2,372.64
		c0-1.03-0.15-1.84-0.45-2.45c-0.3-0.6-0.82-0.9-1.55-0.9c-0.44,0-0.82,0.09-1.12,0.28s-0.55,0.45-0.72,0.79v4.46
		c0.18,0.33,0.42,0.57,0.73,0.74c0.31,0.17,0.69,0.25,1.14,0.25c0.74,0,1.25-0.26,1.54-0.78s0.44-1.25,0.44-2.2V372.64z"/>
	<path fill="#3FC0F0" d="M623.21,364.32v-1.72h4.38v13.23l1.38,0.29v1.71h-5.61v-1.71l1.38-0.29v-11.22L623.21,364.32z"/>
	<path fill="#3FC0F0" d="M629.14,376.13l1.38-0.29v-6.55l-1.52-0.29v-1.72h4.38v8.56l1.37,0.29v1.71h-5.6V376.13z M633.37,364.74
		h-2.85v-2.14h2.85V364.74z"/>
	<path fill="#3FC0F0" d="M639.97,375.86c0.51,0,0.91-0.15,1.22-0.44c0.31-0.3,0.46-0.69,0.46-1.19h2.58l0.03,0.06
		c0.03,1.07-0.38,1.96-1.2,2.68c-0.83,0.72-1.86,1.08-3.09,1.08c-1.58,0-2.79-0.5-3.64-1.49c-0.85-1-1.28-2.28-1.28-3.84v-0.29
		c0-1.56,0.44-2.83,1.31-3.84c0.88-1,2.12-1.5,3.75-1.5c0.85,0,1.62,0.13,2.29,0.38c0.68,0.25,1.24,0.61,1.69,1.07l0.04,2.82h-2.31
		l-0.47-1.65c-0.14-0.12-0.32-0.23-0.53-0.31c-0.21-0.08-0.45-0.12-0.71-0.12c-0.81,0-1.38,0.29-1.71,0.88s-0.5,1.34-0.5,2.27v0.29
		c0,0.94,0.15,1.71,0.46,2.28C638.67,375.57,639.2,375.86,639.97,375.86z"/>
	<path fill="#3FC0F0" d="M644.89,372.46c0-1.58,0.44-2.87,1.32-3.87c0.88-1.01,2.1-1.51,3.66-1.51c1.56,0,2.78,0.5,3.67,1.5
		c0.88,1,1.32,2.29,1.32,3.88v0.21c0,1.59-0.44,2.88-1.32,3.88c-0.88,1-2.1,1.5-3.65,1.5c-1.57,0-2.79-0.5-3.68-1.5
		c-0.88-1-1.32-2.29-1.32-3.88V372.46z M647.74,372.66c0,0.96,0.17,1.74,0.51,2.32c0.34,0.58,0.88,0.87,1.64,0.87
		c0.74,0,1.27-0.29,1.62-0.88s0.51-1.36,0.51-2.31v-0.21c0-0.94-0.17-1.7-0.52-2.29c-0.35-0.59-0.89-0.89-1.63-0.89
		s-1.28,0.3-1.62,0.89c-0.34,0.59-0.51,1.36-0.51,2.29V372.66z"/>
</g>
<g>
	<path fill="#3FC0F0" d="M522.85,77.13v-1.72h4.14l0.14,1.23c0.31-0.46,0.69-0.81,1.12-1.05c0.44-0.25,0.94-0.37,1.52-0.37
		c1.31,0,2.32,0.51,3.05,1.53s1.08,2.37,1.08,4.03v0.21c0,1.56-0.36,2.82-1.08,3.77s-1.73,1.43-3.03,1.43
		c-0.55,0-1.04-0.1-1.47-0.31s-0.8-0.51-1.1-0.9v3.06l1.38,0.29v1.72H523v-1.72l1.38-0.29V77.42L522.85,77.13z M531.05,80.78
		c0-1-0.17-1.8-0.5-2.42s-0.84-0.93-1.52-0.93c-0.43,0-0.8,0.09-1.1,0.26s-0.54,0.43-0.72,0.75v4.63c0.18,0.3,0.41,0.53,0.72,0.68
		s0.68,0.23,1.12,0.23c0.69,0,1.2-0.27,1.52-0.81s0.48-1.27,0.48-2.2V80.78z"/>
	<path fill="#3FC0F0" d="M534.51,80.6c0-1.58,0.44-2.87,1.32-3.87c0.88-1.01,2.1-1.51,3.66-1.51c1.56,0,2.78,0.5,3.67,1.5
		c0.88,1,1.32,2.29,1.32,3.88v0.21c0,1.59-0.44,2.88-1.32,3.88c-0.88,1-2.1,1.5-3.65,1.5c-1.57,0-2.79-0.5-3.68-1.5
		c-0.88-1-1.32-2.29-1.32-3.88V80.6z M537.37,80.8c0,0.96,0.17,1.74,0.51,2.32c0.34,0.58,0.88,0.87,1.64,0.87
		c0.74,0,1.27-0.29,1.62-0.88s0.51-1.36,0.51-2.31V80.6c0-0.94-0.17-1.7-0.52-2.29c-0.35-0.59-0.89-0.89-1.63-0.89
		s-1.28,0.3-1.62,0.89c-0.34,0.59-0.51,1.36-0.51,2.29V80.8z"/>
	<path fill="#3FC0F0" d="M544.57,72.46v-1.72h4.38v13.23l1.38,0.29v1.71h-5.61v-1.71l1.38-0.29V72.75L544.57,72.46z"/>
	<path fill="#3FC0F0" d="M550.65,77.13v-1.72h4.38v8.56l1.37,0.29v1.71h-5.6v-1.71l1.38-0.29v-6.55L550.65,77.13z M553.72,71.29
		h3.02l0.02,0.06l-2.7,2.54h-2.29L553.72,71.29z"/>
	<path fill="#3FC0F0" d="M560.83,72.82v2.59h1.86v2h-1.86v5.38c0,0.41,0.08,0.7,0.25,0.88s0.4,0.26,0.68,0.26
		c0.2,0,0.37-0.01,0.51-0.02s0.31-0.04,0.49-0.08l0.24,2.06c-0.32,0.1-0.63,0.17-0.95,0.22s-0.65,0.07-1.02,0.07
		c-0.98,0-1.74-0.27-2.27-0.81s-0.8-1.4-0.8-2.57v-5.39h-1.55v-2h1.55v-2.59H560.83z"/>
	<path fill="#3FC0F0" d="M563.34,84.27l1.38-0.29v-6.55l-1.52-0.29v-1.72h4.38v8.56l1.37,0.29v1.71h-5.6V84.27z M567.57,72.88h-2.85
		v-2.14h2.85V72.88z"/>
	<path fill="#3FC0F0" d="M574.17,84c0.51,0,0.92-0.15,1.22-0.44c0.31-0.3,0.46-0.69,0.46-1.19h2.58l0.03,0.06
		c0.03,1.07-0.37,1.96-1.2,2.68c-0.83,0.72-1.86,1.08-3.09,1.08c-1.58,0-2.79-0.5-3.64-1.49c-0.85-1-1.28-2.28-1.28-3.84v-0.29
		c0-1.56,0.44-2.84,1.31-3.84c0.88-1,2.12-1.5,3.74-1.5c0.85,0,1.62,0.13,2.29,0.38c0.68,0.25,1.24,0.61,1.69,1.07l0.04,2.82h-2.31
		l-0.47-1.65c-0.14-0.12-0.32-0.23-0.53-0.31c-0.21-0.08-0.45-0.12-0.71-0.12c-0.81,0-1.38,0.29-1.71,0.88s-0.5,1.34-0.5,2.27v0.29
		c0,0.94,0.15,1.7,0.46,2.28C572.87,83.71,573.4,84,574.17,84z"/>
	<path fill="#3FC0F0" d="M585.82,85.98c-0.08-0.18-0.15-0.36-0.21-0.54s-0.1-0.37-0.14-0.56c-0.34,0.39-0.75,0.71-1.23,0.95
		c-0.49,0.24-1.04,0.36-1.67,0.36c-1.04,0-1.86-0.28-2.46-0.84c-0.61-0.56-0.91-1.33-0.91-2.3c0-0.99,0.4-1.75,1.19-2.29
		c0.79-0.54,1.96-0.81,3.5-0.81h1.46V78.9c0-0.51-0.15-0.9-0.44-1.18s-0.73-0.42-1.3-0.42c-0.33,0-0.62,0.04-0.87,0.11
		s-0.46,0.16-0.62,0.27l-0.19,1.13h-2.15l0.01-2.34c0.52-0.35,1.12-0.65,1.79-0.89s1.41-0.36,2.2-0.36c1.31,0,2.37,0.32,3.19,0.96
		c0.82,0.64,1.22,1.55,1.22,2.74v4.37c0,0.16,0,0.32,0.01,0.46c0,0.14,0.01,0.28,0.03,0.41l0.87,0.12v1.71H585.82z M583.35,84.07
		c0.43,0,0.82-0.09,1.17-0.28s0.62-0.42,0.82-0.7v-1.61h-1.46c-0.61,0-1.06,0.14-1.38,0.42s-0.47,0.62-0.47,1.02
		c0,0.36,0.12,0.64,0.35,0.84C582.62,83.97,582.94,84.07,583.35,84.07z"/>
	<path fill="#3FC0F0" d="M593.44,77.13v-1.72h4.14l0.14,1.23c0.31-0.46,0.69-0.81,1.12-1.05s0.94-0.37,1.52-0.37
		c1.31,0,2.32,0.51,3.05,1.53s1.08,2.37,1.08,4.03v0.21c0,1.56-0.36,2.82-1.08,3.77s-1.73,1.43-3.03,1.43
		c-0.55,0-1.04-0.1-1.47-0.31s-0.8-0.51-1.1-0.9v3.06l1.38,0.29v1.72h-5.6v-1.72l1.38-0.29V77.42L593.44,77.13z M601.65,80.78
		c0-1-0.17-1.8-0.5-2.42s-0.84-0.93-1.52-0.93c-0.43,0-0.8,0.09-1.1,0.26s-0.54,0.43-0.72,0.75v4.63c0.18,0.3,0.42,0.53,0.72,0.68
		S599.2,84,599.64,84c0.69,0,1.2-0.27,1.52-0.81s0.48-1.27,0.48-2.2V80.78z"/>
	<path fill="#3FC0F0" d="M612.5,84.64c-0.34,0.49-0.76,0.88-1.25,1.14s-1.07,0.4-1.7,0.4c-1.11,0-1.99-0.36-2.62-1.07
		s-0.95-1.82-0.95-3.33v-4.37l-1.16-0.29v-1.72h1.16h2.85v6.4c0,0.77,0.13,1.32,0.39,1.66s0.64,0.5,1.15,0.5
		c0.45,0,0.84-0.07,1.17-0.22s0.6-0.36,0.81-0.63v-5.69l-1.25-0.29v-1.72h1.25h2.85v8.56l1.28,0.29v1.71h-3.78L612.5,84.64z
		 M610.64,71.29h3.02l0.02,0.06l-2.7,2.54h-2.29L610.64,71.29z"/>
	<path fill="#3FC0F0" d="M627.14,80.99c0,1.58-0.35,2.84-1.05,3.78s-1.72,1.42-3.05,1.42c-0.62,0-1.16-0.13-1.61-0.39
		c-0.46-0.26-0.84-0.63-1.15-1.12l-0.21,1.3h-2.46V72.75l-1.51-0.29v-1.72h4.36v5.79c0.31-0.42,0.67-0.75,1.1-0.98
		c0.43-0.23,0.92-0.34,1.47-0.34c1.34,0,2.36,0.51,3.07,1.52s1.05,2.36,1.05,4.05V80.99z M624.3,80.78c0-1.03-0.15-1.84-0.46-2.45
		s-0.82-0.9-1.55-0.9c-0.44,0-0.82,0.09-1.12,0.28c-0.31,0.19-0.55,0.45-0.72,0.8v4.46c0.18,0.33,0.42,0.57,0.73,0.74
		c0.31,0.17,0.69,0.25,1.14,0.25c0.74,0,1.25-0.26,1.54-0.78s0.44-1.25,0.44-2.2V80.78z"/>
	<path fill="#3FC0F0" d="M627.3,72.46v-1.72h4.38v13.23l1.38,0.29v1.71h-5.61v-1.71l1.38-0.29V72.75L627.3,72.46z"/>
	<path fill="#3FC0F0" d="M633.23,84.27l1.38-0.29v-6.55l-1.52-0.29v-1.72h4.38v8.56l1.37,0.29v1.71h-5.6V84.27z M637.46,72.88h-2.85
		v-2.14h2.85V72.88z"/>
	<path fill="#3FC0F0" d="M644.07,84c0.51,0,0.91-0.15,1.22-0.44c0.31-0.3,0.46-0.69,0.46-1.19h2.58l0.03,0.06
		c0.03,1.07-0.38,1.96-1.2,2.68c-0.83,0.72-1.86,1.08-3.09,1.08c-1.58,0-2.79-0.5-3.64-1.49c-0.85-1-1.28-2.28-1.28-3.84v-0.29
		c0-1.56,0.44-2.84,1.31-3.84c0.88-1,2.12-1.5,3.75-1.5c0.85,0,1.62,0.13,2.29,0.38c0.68,0.25,1.24,0.61,1.69,1.07l0.04,2.82h-2.31
		l-0.47-1.65c-0.14-0.12-0.32-0.23-0.53-0.31c-0.21-0.08-0.45-0.12-0.71-0.12c-0.81,0-1.38,0.29-1.71,0.88s-0.5,1.34-0.5,2.27v0.29
		c0,0.94,0.15,1.7,0.46,2.28C642.76,83.71,643.3,84,644.07,84z"/>
	<path fill="#3FC0F0" d="M655.71,85.98c-0.08-0.18-0.15-0.36-0.21-0.54s-0.1-0.37-0.14-0.56c-0.34,0.39-0.75,0.71-1.24,0.95
		s-1.04,0.36-1.67,0.36c-1.04,0-1.86-0.28-2.47-0.84s-0.91-1.33-0.91-2.3c0-0.99,0.4-1.75,1.19-2.29s1.96-0.81,3.5-0.81h1.46V78.9
		c0-0.51-0.15-0.9-0.44-1.18s-0.73-0.42-1.3-0.42c-0.33,0-0.62,0.04-0.87,0.11s-0.46,0.16-0.62,0.27l-0.19,1.13h-2.15l0.01-2.34
		c0.52-0.35,1.12-0.65,1.79-0.89s1.41-0.36,2.2-0.36c1.31,0,2.37,0.32,3.19,0.96s1.23,1.55,1.23,2.74v4.37c0,0.16,0,0.32,0,0.46
		s0.01,0.28,0.03,0.41l0.87,0.12v1.71H655.71z M653.24,84.07c0.43,0,0.82-0.09,1.17-0.28s0.62-0.42,0.82-0.7v-1.61h-1.46
		c-0.61,0-1.06,0.14-1.38,0.42s-0.47,0.62-0.47,1.02c0,0.36,0.12,0.64,0.35,0.84S652.83,84.07,653.24,84.07z"/>
</g>
<g>
	<path fill="#3FC0F0" d="M187.08,377.84c-0.08-0.18-0.15-0.36-0.21-0.54s-0.1-0.37-0.14-0.56c-0.34,0.39-0.75,0.71-1.24,0.95
		s-1.04,0.36-1.67,0.36c-1.04,0-1.86-0.28-2.47-0.84s-0.91-1.33-0.91-2.3c0-0.99,0.4-1.75,1.19-2.29s1.96-0.81,3.5-0.81h1.46v-1.04
		c0-0.51-0.15-0.9-0.44-1.18s-0.73-0.42-1.3-0.42c-0.33,0-0.62,0.04-0.87,0.11s-0.46,0.17-0.62,0.27l-0.19,1.13h-2.15l0.01-2.34
		c0.52-0.35,1.12-0.65,1.79-0.89s1.41-0.36,2.2-0.36c1.31,0,2.37,0.32,3.19,0.96s1.23,1.55,1.23,2.74v4.37c0,0.16,0,0.32,0,0.46
		s0.01,0.28,0.03,0.41l0.87,0.12v1.71H187.08z M184.61,375.93c0.43,0,0.82-0.09,1.17-0.28s0.62-0.42,0.82-0.7v-1.61h-1.46
		c-0.61,0-1.06,0.14-1.38,0.42s-0.47,0.62-0.47,1.02c0,0.36,0.12,0.64,0.35,0.84S184.2,375.93,184.61,375.93z"/>
	<path fill="#3FC0F0" d="M195.64,375.86c0.51,0,0.91-0.15,1.22-0.44s0.46-0.69,0.46-1.19h2.58l0.03,0.06
		c0.03,1.07-0.37,1.96-1.2,2.68s-1.86,1.08-3.09,1.08c-1.58,0-2.79-0.5-3.64-1.49s-1.28-2.28-1.28-3.84v-0.29
		c0-1.56,0.44-2.84,1.31-3.84s2.12-1.5,3.75-1.5c0.85,0,1.62,0.13,2.29,0.38s1.24,0.61,1.69,1.07l0.04,2.82h-2.31l-0.47-1.65
		c-0.14-0.12-0.32-0.23-0.53-0.31s-0.45-0.12-0.71-0.12c-0.81,0-1.38,0.29-1.71,0.88s-0.5,1.34-0.5,2.27v0.29
		c0,0.94,0.15,1.7,0.46,2.28S194.88,375.86,195.64,375.86z"/>
	<path fill="#3FC0F0" d="M205.52,375.86c0.51,0,0.91-0.15,1.22-0.44s0.46-0.69,0.46-1.19h2.58l0.03,0.06
		c0.03,1.07-0.37,1.96-1.2,2.68s-1.86,1.08-3.09,1.08c-1.58,0-2.79-0.5-3.64-1.49s-1.28-2.28-1.28-3.84v-0.29
		c0-1.56,0.44-2.84,1.31-3.84s2.12-1.5,3.75-1.5c0.85,0,1.62,0.13,2.29,0.38s1.24,0.61,1.69,1.07l0.04,2.82h-2.31l-0.47-1.65
		c-0.14-0.12-0.32-0.23-0.53-0.31s-0.45-0.12-0.71-0.12c-0.81,0-1.38,0.29-1.71,0.88s-0.5,1.34-0.5,2.27v0.29
		c0,0.94,0.15,1.7,0.46,2.28S204.75,375.86,205.52,375.86z"/>
	<path fill="#3FC0F0" d="M210.35,376.13l1.38-0.29v-6.55l-1.52-0.29v-1.72h4.38v8.56l1.37,0.29v1.71h-5.6V376.13z M214.58,364.74
		h-2.85v-2.14h2.85V364.74z"/>
	<path fill="#3FC0F0" d="M216.22,372.46c0-1.58,0.44-2.87,1.32-3.87s2.1-1.51,3.66-1.51c1.56,0,2.78,0.5,3.67,1.5
		s1.32,2.29,1.32,3.88v0.21c0,1.59-0.44,2.88-1.32,3.88s-2.1,1.5-3.65,1.5c-1.57,0-2.79-0.5-3.68-1.5s-1.32-2.29-1.32-3.88V372.46z
		 M219.07,372.66c0,0.96,0.17,1.74,0.51,2.32s0.89,0.87,1.64,0.87c0.74,0,1.27-0.29,1.62-0.88s0.51-1.36,0.51-2.31v-0.21
		c0-0.94-0.17-1.7-0.52-2.29s-0.89-0.89-1.63-0.89s-1.28,0.3-1.62,0.89s-0.51,1.36-0.51,2.29V372.66z M221.44,363.15h3.02l0.02,0.06
		l-2.7,2.54h-2.29L221.44,363.15z"/>
	<path fill="#3FC0F0" d="M226.62,376.13l1.37-0.29v-6.55l-1.51-0.29v-1.72h4.17l0.13,1.51c0.35-0.54,0.78-0.96,1.3-1.26
		s1.09-0.45,1.73-0.45c1.07,0,1.9,0.34,2.5,1.01s0.9,1.72,0.9,3.15v4.6l1.37,0.29v1.71h-5.45v-1.71l1.22-0.29v-4.59
		c0-0.71-0.14-1.21-0.43-1.51s-0.72-0.44-1.3-0.44c-0.38,0-0.72,0.08-1.02,0.23s-0.55,0.37-0.75,0.65v5.66l1.15,0.29v1.71h-5.37
		V376.13z"/>
</g>
<g>
	<path d="M525.97,229.89c-1.25,0-2.25-0.42-2.98-1.25c-0.74-0.83-1.11-1.91-1.11-3.24v-0.37c0-1.28,0.38-2.34,1.14-3.19
		c0.76-0.85,1.66-1.27,2.7-1.27c1.21,0,2.12,0.37,2.74,1.1s0.93,1.7,0.93,2.92v1.02h-5.83l-0.03,0.04c0.02,0.86,0.24,1.57,0.66,2.13
		c0.42,0.56,1.01,0.83,1.77,0.83c0.55,0,1.04-0.08,1.46-0.24s0.78-0.38,1.08-0.65l0.64,1.06c-0.32,0.31-0.75,0.57-1.28,0.79
		C527.35,229.78,526.71,229.89,525.97,229.89z M525.72,221.85c-0.55,0-1.02,0.23-1.4,0.69c-0.39,0.46-0.62,1.04-0.71,1.74l0.02,0.04
		h4.14v-0.22c0-0.64-0.17-1.18-0.51-1.61S526.4,221.85,525.72,221.85z"/>
	<path d="M537.88,223.56h-1.23l-0.27-1.08c-0.2-0.19-0.45-0.34-0.75-0.45c-0.3-0.11-0.64-0.17-1.03-0.17
		c-0.58,0-1.01,0.13-1.29,0.38c-0.28,0.25-0.42,0.56-0.42,0.92c0,0.35,0.12,0.63,0.37,0.84c0.25,0.2,0.75,0.39,1.52,0.55
		c1.13,0.24,1.98,0.57,2.53,0.99c0.55,0.42,0.83,0.98,0.83,1.68c0,0.8-0.32,1.44-0.97,1.93c-0.64,0.49-1.49,0.74-2.53,0.74
		c-0.68,0-1.29-0.08-1.83-0.24c-0.54-0.16-1.03-0.38-1.45-0.68l-0.01-2.05h1.23l0.31,1.2c0.19,0.17,0.44,0.3,0.77,0.37
		c0.32,0.08,0.66,0.12,0.99,0.12c0.58,0,1.04-0.12,1.37-0.35c0.33-0.23,0.49-0.54,0.49-0.92c0-0.36-0.14-0.66-0.41-0.89
		c-0.27-0.23-0.79-0.44-1.56-0.61c-1.09-0.24-1.91-0.56-2.46-0.97s-0.83-0.96-0.83-1.66c0-0.73,0.31-1.35,0.93-1.87
		c0.62-0.51,1.43-0.77,2.43-0.77c0.68,0,1.29,0.09,1.83,0.27s0.99,0.42,1.35,0.74L537.88,223.56z"/>
	<path d="M539.48,232.11l1.35-0.23v-9.86l-1.35-0.23v-1.05h2.76l0.15,1.1c0.3-0.41,0.66-0.72,1.09-0.94
		c0.43-0.22,0.93-0.32,1.49-0.32c1.11,0,1.98,0.44,2.59,1.32c0.62,0.88,0.93,2.05,0.93,3.5v0.17c0,1.29-0.31,2.34-0.93,3.13
		c-0.62,0.79-1.47,1.19-2.56,1.19c-0.55,0-1.04-0.09-1.46-0.28s-0.77-0.46-1.07-0.83v3.1l1.35,0.23v1.05h-4.34V232.11z
		 M546.84,225.39c0-1.02-0.2-1.86-0.6-2.52s-0.99-0.98-1.78-0.98c-0.46,0-0.86,0.1-1.2,0.32s-0.6,0.5-0.8,0.86v4.37
		c0.2,0.37,0.47,0.66,0.8,0.86c0.33,0.2,0.73,0.3,1.22,0.3c0.77,0,1.36-0.28,1.76-0.85s0.6-1.3,0.6-2.2V225.39z"/>
	<path d="M555.83,229.71c-0.05-0.24-0.09-0.46-0.12-0.66c-0.03-0.19-0.05-0.39-0.06-0.58c-0.32,0.4-0.71,0.74-1.18,1.01
		c-0.47,0.27-0.98,0.4-1.51,0.4c-0.94,0-1.65-0.23-2.13-0.68s-0.73-1.1-0.73-1.93c0-0.85,0.34-1.51,1.03-1.97
		c0.69-0.46,1.63-0.69,2.83-0.69h1.69v-1.05c0-0.53-0.17-0.94-0.5-1.25c-0.33-0.31-0.79-0.46-1.39-0.46c-0.41,0-0.77,0.05-1.08,0.16
		c-0.31,0.1-0.57,0.25-0.76,0.43l-0.17,0.95h-1.26v-1.74c0.41-0.33,0.91-0.59,1.49-0.78c0.58-0.2,1.21-0.29,1.89-0.29
		c1.02,0,1.84,0.26,2.47,0.78s0.95,1.26,0.95,2.23v4.33c0,0.12,0,0.23,0,0.34c0,0.11,0.01,0.22,0.02,0.33l0.66,0.09v1.04H555.83z
		 M553.2,228.52c0.54,0,1.04-0.13,1.49-0.39c0.45-0.26,0.77-0.57,0.96-0.94v-1.48h-1.74c-0.67,0-1.2,0.15-1.59,0.47
		c-0.39,0.31-0.58,0.69-0.58,1.13c0,0.39,0.12,0.69,0.37,0.9C552.34,228.42,552.71,228.52,553.2,228.52z"/>
	<path d="M563.37,228.61c0.54,0,1.02-0.17,1.43-0.5c0.41-0.33,0.62-0.75,0.62-1.23h1.47l0.02,0.05c0.03,0.78-0.32,1.46-1.03,2.06
		c-0.72,0.6-1.55,0.9-2.5,0.9c-1.31,0-2.3-0.43-2.99-1.28c-0.69-0.85-1.03-1.92-1.03-3.21v-0.35c0-1.28,0.35-2.34,1.04-3.2
		c0.69-0.85,1.69-1.28,2.99-1.28c0.72,0,1.37,0.12,1.94,0.36c0.57,0.24,1.05,0.56,1.42,0.98l0.08,1.99h-1.3l-0.36-1.41
		c-0.19-0.19-0.44-0.34-0.75-0.46c-0.3-0.12-0.65-0.17-1.03-0.17c-0.86,0-1.47,0.31-1.84,0.93c-0.37,0.62-0.55,1.37-0.55,2.27v0.35
		c0,0.92,0.18,1.68,0.55,2.29C561.89,228.31,562.5,228.61,563.37,228.61z"/>
	<path d="M568.5,228.67l1.35-0.23v-6.42l-1.35-0.23v-1.05h2.99v7.7l1.35,0.23v1.04h-4.34V228.67z M571.48,218.43h-1.64v-1.67h1.64
		V218.43z"/>
	<path d="M574.09,225.14c0-1.33,0.36-2.42,1.08-3.28c0.72-0.86,1.7-1.29,2.93-1.29c1.24,0,2.22,0.43,2.94,1.29
		c0.72,0.86,1.08,1.95,1.08,3.29v0.18c0,1.34-0.36,2.44-1.08,3.29c-0.72,0.85-1.7,1.28-2.93,1.28c-1.25,0-2.23-0.43-2.95-1.28
		c-0.72-0.86-1.08-1.95-1.08-3.28V225.14z M575.73,225.32c0,0.95,0.2,1.74,0.6,2.36c0.4,0.62,1,0.93,1.79,0.93
		c0.77,0,1.36-0.31,1.77-0.93c0.4-0.62,0.61-1.41,0.61-2.36v-0.18c0-0.94-0.2-1.72-0.61-2.35c-0.4-0.63-1-0.94-1.79-0.94
		s-1.38,0.31-1.78,0.94s-0.6,1.41-0.6,2.35V225.32z"/>
	<path d="M591.88,228.61c0.54,0,1.02-0.17,1.43-0.5c0.41-0.33,0.62-0.75,0.62-1.23h1.47l0.02,0.05c0.03,0.78-0.32,1.46-1.03,2.06
		c-0.72,0.6-1.55,0.9-2.5,0.9c-1.31,0-2.3-0.43-2.99-1.28s-1.03-1.92-1.03-3.21v-0.35c0-1.28,0.35-2.34,1.04-3.2
		c0.69-0.85,1.69-1.28,2.99-1.28c0.72,0,1.37,0.12,1.94,0.36c0.57,0.24,1.05,0.56,1.42,0.98l0.08,1.99h-1.3l-0.36-1.41
		c-0.19-0.19-0.44-0.34-0.75-0.46s-0.65-0.17-1.03-0.17c-0.86,0-1.47,0.31-1.84,0.93c-0.37,0.62-0.55,1.37-0.55,2.27v0.35
		c0,0.92,0.18,1.68,0.55,2.29C590.4,228.31,591.02,228.61,591.88,228.61z"/>
	<path d="M597.02,225.14c0-1.33,0.36-2.42,1.08-3.28c0.72-0.86,1.7-1.29,2.93-1.29c1.24,0,2.22,0.43,2.94,1.29s1.08,1.95,1.08,3.29
		v0.18c0,1.34-0.36,2.44-1.08,3.29c-0.72,0.85-1.7,1.28-2.93,1.28c-1.25,0-2.23-0.43-2.95-1.28c-0.72-0.86-1.08-1.95-1.08-3.28
		V225.14z M598.65,225.32c0,0.95,0.2,1.74,0.6,2.36c0.4,0.62,1,0.93,1.79,0.93c0.78,0,1.36-0.31,1.77-0.93
		c0.4-0.62,0.61-1.41,0.61-2.36v-0.18c0-0.94-0.2-1.72-0.61-2.35c-0.4-0.63-1-0.94-1.78-0.94s-1.38,0.31-1.78,0.94
		s-0.6,1.41-0.6,2.35V225.32z"/>
	<path d="M606.16,217.82v-1.05h2.99v11.67l1.35,0.23v1.04h-4.34v-1.04l1.35-0.23v-10.38L606.16,217.82z"/>
	<path d="M615.83,229.89c-1.25,0-2.25-0.42-2.98-1.25c-0.74-0.83-1.11-1.91-1.11-3.24v-0.37c0-1.28,0.38-2.34,1.14-3.19
		c0.76-0.85,1.66-1.27,2.7-1.27c1.21,0,2.12,0.37,2.74,1.1c0.62,0.73,0.93,1.7,0.93,2.92v1.02h-5.83l-0.02,0.04
		c0.02,0.86,0.24,1.57,0.66,2.13c0.42,0.56,1.01,0.83,1.77,0.83c0.55,0,1.04-0.08,1.46-0.24c0.42-0.16,0.78-0.38,1.08-0.65
		l0.64,1.06c-0.32,0.31-0.75,0.57-1.27,0.79C617.21,229.78,616.58,229.89,615.83,229.89z M615.59,221.85c-0.55,0-1.02,0.23-1.4,0.69
		c-0.39,0.46-0.63,1.04-0.71,1.74l0.02,0.04h4.14v-0.22c0-0.64-0.17-1.18-0.51-1.61S616.26,221.85,615.59,221.85z"/>
	<path d="M624.91,228.61c0.54,0,1.02-0.17,1.43-0.5c0.41-0.33,0.62-0.75,0.62-1.23h1.47l0.02,0.05c0.03,0.78-0.32,1.46-1.03,2.06
		c-0.72,0.6-1.55,0.9-2.5,0.9c-1.31,0-2.3-0.43-2.99-1.28c-0.69-0.85-1.03-1.92-1.03-3.21v-0.35c0-1.28,0.35-2.34,1.04-3.2
		c0.69-0.85,1.69-1.28,2.99-1.28c0.72,0,1.37,0.12,1.94,0.36c0.57,0.24,1.05,0.56,1.42,0.98l0.07,1.99h-1.3l-0.36-1.41
		c-0.19-0.19-0.44-0.34-0.75-0.46c-0.3-0.12-0.65-0.17-1.03-0.17c-0.86,0-1.47,0.31-1.84,0.93c-0.37,0.62-0.55,1.37-0.55,2.27v0.35
		c0,0.92,0.18,1.68,0.55,2.29C623.43,228.31,624.04,228.61,624.91,228.61z"/>
	<path d="M632.89,218.57v2.17h1.7v1.21h-1.7v5.45c0,0.42,0.09,0.72,0.26,0.89c0.17,0.17,0.41,0.26,0.69,0.26
		c0.14,0,0.31-0.01,0.49-0.04c0.18-0.03,0.33-0.05,0.45-0.08l0.22,1.12c-0.15,0.1-0.38,0.18-0.68,0.25c-0.3,0.06-0.6,0.09-0.9,0.09
		c-0.66,0-1.19-0.2-1.58-0.6c-0.39-0.4-0.59-1.03-0.59-1.89v-5.45h-1.42v-1.21h1.42v-2.17H632.89z"/>
	<path d="M636.26,228.67l1.35-0.23v-6.42l-1.35-0.23v-1.05h2.99v7.7l1.35,0.23v1.04h-4.34V228.67z M639.25,218.43h-1.64v-1.67h1.64
		V218.43z"/>
	<path d="M644.93,221.79l-1.08,0.17l1.85,5.11l0.15,0.65h0.05l0.16-0.65l1.79-5.11l-1.09-0.17v-1.05h3.47v1.05l-0.74,0.12l-3.01,7.8
		h-1.24l-3.05-7.8l-0.74-0.12v-1.05h3.47V221.79z"/>
	<path d="M651.22,225.14c0-1.33,0.36-2.42,1.08-3.28c0.72-0.86,1.7-1.29,2.93-1.29c1.24,0,2.22,0.43,2.94,1.29
		c0.72,0.86,1.08,1.95,1.08,3.29v0.18c0,1.34-0.36,2.44-1.08,3.29c-0.72,0.85-1.7,1.28-2.93,1.28c-1.25,0-2.23-0.43-2.95-1.28
		c-0.72-0.86-1.08-1.95-1.08-3.28V225.14z M652.86,225.32c0,0.95,0.2,1.74,0.6,2.36c0.4,0.62,1,0.93,1.79,0.93
		c0.77,0,1.36-0.31,1.77-0.93c0.4-0.62,0.61-1.41,0.61-2.36v-0.18c0-0.94-0.2-1.72-0.61-2.35c-0.4-0.63-1-0.94-1.79-0.94
		s-1.38,0.31-1.78,0.94s-0.6,1.41-0.6,2.35V225.32z"/>
</g>
</svg>
