<?xml version="1.0" encoding="utf-8"?>
<!-- Generator: Adobe Illustrator 16.0.0, SVG Export Plug-In . SVG Version: 6.00 Build 0)  -->
<!DOCTYPE svg PUBLIC "-//W3C//DTD SVG 1.1 Tiny//EN" "http://www.w3.org/Graphics/SVG/1.1/DTD/svg11-tiny.dtd">
<svg version="1.1" baseProfile="tiny" id="Capa_1" xmlns="http://www.w3.org/2000/svg" xmlns:xlink="http://www.w3.org/1999/xlink"
	 x="0px" y="0px" width="500px" height="500px" viewBox="0 0 500 500" xml:space="preserve">
<g>
	<path fill="#C6C6C6" d="M412.69,413.38c-2.81-18.74-17.64-33.51-32.15-44.7c-15.82-12.19-33.47-20.49-51.8-28.07
		c-16.94-7.01-39.71-16.61-42.47-37.3c-1.65-12.38,4.37-25.26,9.97-35.89c5.71-10.83,12.75-20.88,19.36-31.16
		c7.36-11.45,15.63-22.39,21.77-34.57c6.01-11.94,8.66-25.37,9.48-38.63c0.88-14.31-0.92-28.78-3.87-42.76
		c-2.2-10.45-5.48-20.13-11.6-28.97c-23.14-33.45-71.59-39.84-108.18-29.49c-20.58,5.82-38.84,17.85-51.97,34.74
		c-13.53,17.41-21.94,39.81-24.47,61.63c-3.03,26.05,7.94,50.77,18.99,73.65c11.03,22.83,24.17,46.26,18.58,72.51
		c-4.16,19.5-21.23,30.04-37.48,38.99c-15.6,8.59-31.98,15.67-47.66,24.1c-14.67,7.89-29.2,17.16-39.88,30.15
		c-10.69,12.99-15.36,29.04-14.33,45.75c0.2,3.2,5.2,3.22,5,0c-1.12-18.11,4.88-34.28,17.44-47.34
		c12.27-12.77,28.42-21.4,44.05-29.31c15.96-8.08,32.42-15.27,47.65-24.69c6.72-4.16,13.38-8.87,18.88-14.57
		c7.61-7.88,11.15-18.62,12.37-29.29c2.85-24.82-9.87-47.3-20.29-68.82c-12.02-24.8-22.65-50.73-17.09-78.77
		c4.39-22.16,14.1-43.71,30.08-59.91c15.72-15.93,37.42-25.02,59.45-27.65c20.55-2.45,42.24,0.68,60.65,10.33
		c9.04,4.74,17.09,11.37,23.21,19.55c6.8,9.09,9.84,19.47,12.14,30.42c6.19,29.4,4.87,59.68-11,85.79
		c-13.31,21.89-29.99,42.02-40.34,65.62c-7.09,16.16-9.23,33.62,2.71,47.9c10.42,12.47,27.27,18.62,41.86,24.6
		c16.05,6.58,31.21,14.59,45.17,24.96c14.93,11.09,30.91,27.02,31.25,46.86c0.05,2.75,4.34,3.5,4.91,0.67
		c0.28-1.4,0.6-2.72,0.78-4.14C414.01,414.42,413.47,413.7,412.69,413.38z"/>
	<path fill="#C6C6C6" d="M227.01,141.91c0.75,3.14,5.57,1.81,4.82-1.33c-4.05-17.04,34.09-28.58,36.39-8.83
		c1.59,13.68-11.25,24.79-18.82,34.6c-8.19,10.61-13.08,22.83-5.47,35.19c0.88,1.43,3.54,1.82,4.32,0c0.49-1.15,0.9-2.33,1.39-3.47
		c1.05-2.47-1.83-4.65-3.52-3.52c-4.86-14.28,9.01-27.08,17.44-37.89c6.96-8.94,14.82-23.58,6.19-34.15
		C257.45,107.44,222.27,121.99,227.01,141.91z"/>
	<path fill="#C6C6C6" d="M250.56,225.88l-0.13-0.2l-0.03-0.06c0.01,0.02,0.01,0.04,0.02,0.06c-0.38-0.88-1.17-1.51-2.25-1.51
		c-1.27,0-2.62,1.14-2.5,2.5c0.01,0.15,0.05,0.26,0.08,0.39c-0.84,1.09-1.39,2.38-1.46,3.78c-0.11,2,2.18,2.98,3.76,2.16
		c1.74-0.9,3.62-2.38,3.53-4.56c-0.03-0.75-0.27-1.47-0.68-2.1C250.79,226.17,250.67,226.03,250.56,225.88z M250.44,225.74
		c0.15,0.29,0.23,0.6,0.23,0.93C250.64,226.34,250.56,226.03,250.44,225.74z"/>
</g>
</svg>
