<?xml version="1.0" encoding="utf-8"?>
<!-- Generator: Adobe Illustrator 16.0.0, SVG Export Plug-In . SVG Version: 6.00 Build 0)  -->
<!DOCTYPE svg PUBLIC "-//W3C//DTD SVG 1.1 Tiny//EN" "http://www.w3.org/Graphics/SVG/1.1/DTD/svg11-tiny.dtd">
<svg version="1.1" baseProfile="tiny" id="Capa_1" xmlns="http://www.w3.org/2000/svg" xmlns:xlink="http://www.w3.org/1999/xlink"
	 x="0px" y="0px" width="500px" height="500px" viewBox="0 0 500 500" xml:space="preserve">
<g>
	<path fill="#C6C6C6" d="M250.59,177.66c0.78,3.13,5.6,1.8,4.82-1.33c-1.67-6.71-4.72-12.9-10.87-16.5
		c-5.7-3.34-12.85-2.72-19.02-1.39c-11.78,2.55-29.67,11.49-30.35,25.22c-0.16,3.22,4.84,3.21,5,0
		c0.53-10.83,16.49-17.66,25.41-20.09c4.99-1.36,10.68-1.96,15.56,0.13C246.77,166.13,249.21,172.13,250.59,177.66z"/>
	<path fill="#C6C6C6" d="M231.18,188.48c-0.43-0.78-1.25-1.32-2.18-1.32c-1.36,0-2.5,1.14-2.5,2.5c0,0.89,0,1.78,0,2.67
		c0,1.11,0.76,2.12,1.84,2.41c1.2,0.33,2.5-0.32,2.96-1.45c0.1-0.04,0.2-0.08,0.3-0.13c1.22-0.72,1.52-2.21,0.9-3.42
		C232.21,189.19,231.73,188.76,231.18,188.48z M228.17,192.26c0.01,0.02,0.02,0.03,0.03,0.04
		C227.9,191.93,228.09,192.1,228.17,192.26z M228.34,192.51c0.01,0.02,0.02,0.04,0.04,0.05
		C228.32,192.51,228.32,192.5,228.34,192.51z"/>
	<path fill="#C6C6C6" d="M346.09,153.95c-18.24-1.97-42.08,9.21-48.83,27.05c-1.14,3.02,3.69,4.31,4.82,1.33
		c5.82-15.37,28.69-25.99,44.39-23.29c14.96,2.58,16.9,26.56,20.79,37.96c1.03,3.03,5.86,1.73,4.82-1.33
		C367.32,181.71,364.93,155.99,346.09,153.95z"/>
	<path fill="#C6C6C6" d="M334.41,193.51c-0.2,0.11-0.4,0.22-0.6,0.35c-0.27-0.02-0.54,0-0.8,0.07c-1.07,0.29-1.73,1.23-1.8,2.27
		c-0.39,0.49-0.74,1.01-1.02,1.55c-0.84,1.61,0.18,3.83,2.16,3.76c0.25-0.01,0.49-0.04,0.73-0.09c0.2,0.05,0.4,0.09,0.61,0.09
		c1.28,0,2.19-0.91,2.44-2.07c0,0,0,0,0-0.01c0.01-0.02,0.02-0.03,0.03-0.05c0,0,0,0,0-0.01c0,0,0,0,0,0
		c0.13-0.27,0.28-0.52,0.44-0.78c0.17-0.28,0.36-0.55,0.55-0.82c0.1-0.12,0.2-0.23,0.31-0.34c0.78-0.81,0.97-2.05,0.39-3.03
		C337.11,193.19,335.61,192.88,334.41,193.51z M336.12,199.32c0.02-0.11,0.04-0.21,0.05-0.32c-0.01,0.1-0.01,0.19-0.02,0.26
		C336.14,199.28,336.13,199.3,336.12,199.32z"/>
	<path fill="#C6C6C6" d="M336.14,199.37C336.14,199.37,336.14,199.37,336.14,199.37C336.09,199.55,336.11,199.66,336.14,199.37z"/>
	<path fill="#C6C6C6" d="M418.16,188.86c-2.82-0.38-6.83,0.78-10.39,2.84c0.02-0.04,0.04-0.07,0.06-0.11
		c1.53-3.53,3.95-6.86,4.03-10.84c0.06-2.89-1.83-4.06-4.09-4.4c0.3-0.56,0.62-1.1,1-1.59c0.99-1.28,0.64-3.41-0.65-4.11
		c0.52-1.37,0.91-2.8,1.29-4.33c0.42-1.7-0.78-3-2.41-3.16c-1.29-0.13-2.56-0.44-3.83-0.73c0.94-2.96,0.87-5.91-0.64-8.82
		c1.3-2.72,1.68-5.58,2.21-8.62c0.31-1.81-1.1-3.64-3.08-3.08c-0.47,0.13-0.95,0.21-1.44,0.27c0.44-1.01,0.82-2.07,1.18-3.19
		c0.56-1.74-1.3-3.7-3.08-3.08c-1.02,0.36-2.05,0.6-3.08,0.85c-0.36-2.68-2.32-4.15-5.12-4.48c0.67-1.62,1.38-3.21,2.35-4.7
		c1.09-1.68-0.42-3.72-2.14-3.77c0.83-2.04,1.66-4.08,2.4-6.16c0.65-1.83-1.34-3.56-3.08-3.08c-0.85,0.23-1.73,0.31-2.62,0.36
		c0.28-2.12,0.88-4.09,2.11-6.02c1.38-2.17-1.3-4.62-3.42-3.42c-1.62,0.92-3.26,1.74-4.93,2.5c0.83-2.71,1.58-5.43,1.36-8.34
		c-0.15-1.92-2-3.07-3.76-2.16c-0.89,0.46-1.8,0.8-2.7,1.12c0.32-1.66,0.66-3.32,1.04-4.96c0.42-1.81-1.18-3.62-3.08-3.08
		c-1.38,0.4-2.81,0.66-4.23,0.96c0.39-2.61,0.67-5.24,0.73-7.88c0.05-2.33-2.69-3.11-4.27-1.77c-0.5,0.43-1.03,0.83-1.57,1.21
		c-0.04-1.82,0.11-3.66,0.41-5.45c0.42-2.53-2.19-4.07-4.18-2.43c-1.86,1.53-3.67,3.1-5.57,4.55c0.49-2.24,1.02-4.47,1.17-6.78
		c0.13-2.07-2.18-2.88-3.76-2.16c-2.45,1.11-4.64,2.55-6.78,4.11c-0.73-1.52-1.62-2.96-2.21-4.61c-0.47-1.3-1.68-2.1-3.08-1.75
		c-4.09,1.05-4.46-3.26-4.92-6.25c-0.28-1.84-3.02-2.42-4.18-1.1c-0.9,1.02-2.18,1.58-3.43,2.22c-0.72-1.2-1.42-2.41-1.98-3.71
		c-0.72-1.68-3.57-1.59-4.32,0c-1.43,3.03-2.49,6.23-4.43,8.87c-1.47-4.91-0.3-10.61-1.67-15.61c-0.45-1.64-2.99-2.65-4.18-1.1
		c-1.51,1.95-2.92,3.96-4.36,5.96c-0.5-1.6-1.04-3.2-1.47-4.86c-0.44-1.71-2.24-2.11-3.67-1.49c-2.13,0.92-4.13,1.99-6.08,3.18
		c-0.59-1.37-1.3-2.9-1.5-4.36c-0.27-1.99-1.89-2.96-3.76-2.16c-2.49,1.07-4.9,2.3-7.34,3.46c-0.39-0.85-0.78-1.7-0.98-2.63
		c-0.37-1.67-2.3-2.17-3.67-1.49c-3.54,1.73-6.46,4.29-9.33,6.92c-0.26-2.04-0.6-4.07-1-6.1c-0.3-1.52-2.4-2.37-3.67-1.49
		c-3.62,2.48-6.92,5.37-10.33,8.12c-1.19,0.95-2.51,2.04-3.96,2.63c0.06-0.12-0.08-0.38-0.1-1.24c-0.05-2.02,0.38-4.05,0.73-6.02
		c0.48-2.62-3.23-4.63-4.57-1.93c-1.07,2.17-2.11,4.4-3.2,6.59c-0.04-0.65-0.11-1.31-0.23-1.99c-0.29-1.7-2.35-2.14-3.67-1.49
		c-5.61,2.75-10.23,6.82-14.76,11.02c0.06-1.6,0-3.21-0.23-4.86c-0.22-1.56-2.44-2.32-3.67-1.49c-2.66,1.8-4.92,3.96-7.03,6.27
		c0.05-0.48,0.09-0.96,0.12-1.45c0.08-1.58-1.67-2.9-3.16-2.41c-6.56,2.14-11.36,7.25-15.15,12.9c-0.16-0.6-0.29-1.2-0.36-1.83
		c-0.25-2.28-2.49-3.16-4.27-1.77c-3.22,2.52-5.71,5.81-7.89,9.31c-1.11-0.99-3.05-1.06-3.83,0.53c-1.69,3.42-3.34,6.87-5.03,10.29
		c-0.82-1.64-3.13-2.33-4.3-0.29c-7.41,12.98-6.83,28.8-14.76,41.46c-0.63-0.3-1.25-0.62-1.82-1.02c-1.17-0.81-2.71-0.16-3.42,0.9
		c-4.01,5.94-5.21,12.67-4.7,19.5c-0.79-0.17-1.62,0.03-2.25,0.66c-6.17,6.24-5.43,14.67-3.32,22.55c-1.33-0.89-3.69-0.75-3.99,1.22
		c-1.34,8.83-1.71,25.04,5.84,32.25c1.65,7.94,6.23,14.83,7.49,23.08c0.48,3.18,5.3,1.82,4.82-1.33
		c-1.03-6.74-4.48-12.58-6.47-18.88c1.26-0.34,2.16-1.8,1.81-3.12c-0.81-3.02-1.91-5.4-3.98-7.77c-0.84-0.96-2.05-0.93-2.97-0.37
		c-0.75-2.2-1.15-4.56-1.48-6.44c-0.71-4.03-0.93-8.37-0.62-12.55c0.77,0.47,1.52,0.96,2.21,1.56c1.76,1.51,5.03,0.12,4.18-2.43
		c-2.25-6.78-5.7-15.89-1.48-22.37c0.69,0.66,1.35,1.35,1.97,2.14c1.65,2.11,4.69-0.22,4.18-2.43c-1.66-7.15-1.61-14.26,1.83-20.66
		c0.6,0.27,1.22,0.53,1.83,0.81c1.33,0.61,2.57,0.3,3.42-0.9c7.65-10.71,8.28-23.9,12.59-35.82c1.02,1.28,3.1,1.6,4.08-0.18
		c1.64-3.01,3.17-6.07,4.68-9.15c1.07,0.65,2.53,0.57,3.32-0.85c2.51-4.51,4.98-9.33,8.48-13.19c0.39,1.29,0.77,2.58,0.96,3.93
		c0.3,2.23,3.6,2.31,4.57,0.6c2.84-5,6.37-10.56,11.38-13.72c-0.51,2.18-1.24,4.32-1.95,6.46c-0.77,2.31,2.56,4.35,4.18,2.43
		c3.02-3.59,5.81-7.5,9.23-10.71c-0.14,1.66-0.43,3.3-0.75,4.95c-0.47,2.46,2.26,4.17,4.18,2.43c4.97-4.48,9.63-9.33,15.26-12.91
		c-0.37,3.51-2.08,6.71-3.85,9.88c-1.4,2.51,1.85,4.97,3.93,3.03c3.2-3,5.58-6.59,7.66-10.38c0.72,1.64,2.1,2.65,4.55,2.32
		c4.88-0.66,9.49-5.52,13.61-9.14c0.3,2.02,0.52,4.05,0.58,6.1c0.06,2.28,2.63,3.18,4.27,1.77c3.2-2.76,6.11-5.83,9.62-8.14
		c0.35,0.76,0.68,1.53,0.86,2.37c0.38,1.73,2.28,2.09,3.67,1.49c2.4-1.03,4.73-2.22,7.09-3.34c0.43,1.28,0.96,2.52,1.49,3.78
		c0.03,0.06,0.06,0.11,0.09,0.17c-1.07,2.05,1.08,5.01,3.33,3.39c2.1-1.51,4.26-2.84,6.53-4c0.73,2.13,1.5,4.25,1.71,6.51
		c0.17,1.88,2.78,3.69,4.27,1.77c1.37-1.77,2.67-3.6,3.97-5.42c0.27,4.9-0.08,9.81,2.77,14.25c0.95,1.48,2.63,1.51,3.93,0.51
		c2.79-2.18,4.37-5.08,5.77-8.15c0.33,0.54,0.66,1.09,0.97,1.65c0.77,1.36,2.84,1.69,3.93,0.51c0.73-0.8,1.64-1.3,2.57-1.76
		c1.25,4.07,3.7,7.03,8.17,6.75c0.96,1.93,2.1,3.79,2.42,5.91c0.23,1.5,2.47,2.4,3.67,1.49c1.61-1.21,3.2-2.41,4.86-3.49
		c-0.51,2.43-1.13,4.83-1.29,7.33c-0.13,1.96,2.2,3.02,3.76,2.16c2.32-1.28,4.41-2.83,6.45-4.47c0,1.88,0.17,3.76,0.55,5.65
		c0.4,1.99,2.86,2.23,4.18,1.1c0.22-0.19,0.45-0.36,0.68-0.53c-0.22,1.82-0.51,3.63-0.86,5.43c-0.32,1.67,1.14,3.83,3.08,3.08
		c1.31-0.51,2.69-0.82,4.08-1.11c-0.4,2.01-0.76,4.02-1.16,6.03c-0.36,1.87,1.75,4.31,3.67,2.82c1-0.77,2.13-1.27,3.29-1.71
		c-0.55,2.77-1.7,5.45-2.29,8.22c-0.35,1.66,1.17,3.84,3.08,3.08c1.58-0.64,3.15-1.29,4.69-1.98c-0.32,1.59-0.48,3.22-0.52,4.9
		c-0.05,1.71,1.63,2.73,3.17,2.41c0.53-0.11,1.05-0.17,1.58-0.21c-1.12,2.82-2.31,5.61-3.32,8.47c-0.55,1.55,0.58,2.75,1.92,3.03
		c-0.32,0.79-0.64,1.58-1,2.38c-0.9,2,0.55,4.17,2.82,3.67c2.31-0.5,3.85-0.62,2.92,2.26c-0.71,2.21,1.83,3.77,3.67,2.82
		c0.39-0.2,0.79-0.36,1.2-0.49c-0.26,0.42-0.55,0.83-0.89,1.23c-1.63,1.91-0.09,4.72,2.43,4.18c1-0.21,2.01-0.24,3.01-0.27
		c-0.34,1.82-0.81,3.58-1.84,5.26c-0.44,0.73-0.48,1.8,0,2.52c1.9,2.87,1.57,5.2,0,8.14c-0.94,1.75,0.26,3.62,2.16,3.76
		c1.45,0.11,2.86,0.46,4.27,0.78c-0.43,1.53-0.99,3-2.04,4.29c-1.04,1.28-0.79,3.32,0.59,4.02c-0.31,0.61-0.63,1.22-0.98,1.82
		c-1.15,1.98,0.72,4.12,2.82,3.67c3.19-0.68,2.86-0.61,1.81,2.21c-0.71,1.89-1.83,3.6-2.63,5.45c-0.86,1.97,0.82,3.76,2.4,3.83
		c-3.45,2.44-6.12,5.73-6.26,9.19c-3.13,4.46-2.48,10.21,1.66,13.78c-6.67,5.93-10.15,15.12-13.87,23.19
		c-2.34-1.45-4.99-2.11-7.78-2.38c3.42-10.9,8.37-22.76,15.78-31.25c0.56-0.64,0.96-1.58,0.64-2.43c-1.19-3.19-2.74-6.22-4.25-9.26
		c-0.35-0.7-1.36-1.34-2.16-1.24c-0.83,0.11-1.58,0.02-2.32-0.12c0.27-1.18,0.58-2.35,1.15-3.46c1.02-1.97-0.63-4.19-2.82-3.67
		c-0.1,0.02-0.18,0.05-0.27,0.08c-0.21-1.86,0.01-3.65,0.68-5.67c0.26-0.77,0-1.91-0.64-2.43c-3.52-2.87-2.78-8-0.94-11.64
		c0.66-1.31,0.2-3.01-1.2-3.56c1.32-1.54,0.93-4.51-1.62-4.2c-4.7,0.57-3.52-7.8-3.5-10.83c0.01-1.44-1.15-2.4-2.5-2.5
		c-4.35-0.33-3.73-4.6-1.57-7.07c1.81-2.06-0.5-5.48-3.03-3.93c-4.7,2.89-3.25-3.27-2.58-4.58c1.5-2.91-2.45-5.1-4.32-2.52
		c-2.04,0.64-2.52-0.05-1.43-2.07c0.51-2.16-1.71-3.89-3.67-2.82c-3.8,2.07-11.55-0.4-5.48-4.35c2.56-1.85,0.22-6.1-2.52-4.32
		c-5.3,3.83-14.78,2.31-13.66-5.84c0.3-2.21-2.32-4.53-4.18-2.43c-3.3,3.72-10.78,4.74-7.41-2.3c1.41-2.94-2.42-5.1-4.32-2.52
		c-1.85,2.51-6.35,2.48-3.41-0.97c1.92-2.48-1.41-6.03-3.54-3.54c-2.58,3.34-7.5,2.84-6.49-2.23c0.46-2.3-2.38-4.41-4.18-2.43
		c-1.87,2.05-2.34,0.75-1.97-0.84c0.34-0.66,0.62-1.35,0.82-2.06c0.75-2.73-3.16-4.41-4.57-1.93c-0.44,0.77-0.82,1.56-1.12,2.35
		c-2.06,2.75-6.47,3.44-6.99,1.07c0.81-1.5,1.34-3.14,1.44-4.83c0.15-2.6-3.4-3.25-4.66-1.26c-0.99,1.56-1.65,3.24-1.88,4.86
		c-2.66,3.73-7.85,6.81-8.13,1.06c-0.13-2.66-3.19-3.19-4.66-1.26c-1.08,1.41-2.41,2.59-3.88,3.59c-1.86,1.27-1.98,1.33-1.74,0.02
		c0.07-0.3,0.12-0.6,0.16-0.9c0.01-0.04,0.01-0.07,0.02-0.11c0,0,0,0,0,0c0.03-0.22,0.07-0.44,0.09-0.66
		c0.24-2.8-4.43-3.44-4.91-0.66c-0.08,0.46-0.14,0.91-0.19,1.37c-0.45,2.32-2.13,4.26-4.26,4.43c0.86-2.62-3.18-3.9-4.63-1.73
		c-0.44,0.67-0.89,1.33-1.33,2c-0.17,0.25-0.27,0.54-0.31,0.83c-3.13,3.66-9.25,4.94-13.53,3.36c-1.01-0.38-2.33,0.23-2.82,1.15
		c-0.71,1.33-4.4,8.06-6.74,5.49c-1.06-1.17-3.19-0.88-3.93,0.51c-1.43,2.71-3.05,5.16-5.62,6.72c-0.16-0.26-0.32-0.53-0.48-0.79
		c-0.53-1.89-3.67-2.69-4.57-0.6c-1.12,2.63-7.35,11.8-9.43,5.93c-0.81-2.27-4.1-2.49-4.82,0c-1.04,3.6-3.3,4.62-5.82,1.56
		c-1.07-1.3-3.13-0.75-3.93,0.51c-0.61,0.95-3.13,5.22-4.76,1.26c-0.86-2.09-3.2-2.42-4.57-0.6c-2.42,3.22-6.13,3.38-9.84,3.43
		c-1.41,0.02-2.44,1.12-2.5,2.5c-1.03,22.95,8.67,44.26,12.51,66.53c-1.46,1.6-2.96,3.28-4.32,5.01c0.25-5.68-1.51-11.78-5.12-15.76
		c-3.92-4.33-10.21-8.04-13.04-0.78c-2.92,7.5-1.48,18.08-0.53,25.84c1.03,8.38,3.5,17.06,9.9,22.94c2.37,2.18,5.92-1.35,3.54-3.54
		c-8.95-8.22-9.18-22.46-9.27-33.75c-0.02-2.75,0.25-5.57,0.71-8.28c0.67-3.98,1.83-2.18,4.36,0.23c4.55,4.33,5.52,12.62,3.36,18.23
		c-1.16,3.01,3.68,4.31,4.82,1.33c0.02-0.04,0.03-0.08,0.04-0.12c0.91,0.49,2.09,0.51,2.99-0.32c0.36-0.33,0.67-0.75,0.99-1.12
		c0.27-0.31,0.44-0.63,0.54-0.96c1.38-1.77,3.03-3.51,4.44-5.19c3.53-4.2,0.35-10.96-0.81-15.83c-4.1-17.25-10.37-34.15-10.16-52.05
		c3.48-0.26,6.54-1.07,9.14-3.15c2.87,3.09,6.84,2.34,9.99-0.9c3.48,2.49,7.41,1.56,9.97-1.49c4.07,3.49,10.2-0.42,13.82-5.3
		c0.07,0.07,0.13,0.14,0.19,0.21c0.55,0.59,1.65,0.96,2.43,0.64c3.91-1.57,6.6-4.12,8.76-7.45c4.21,1.73,8.53-2.71,11.07-6.68
		c5.81,1.32,12.32-0.86,16.37-5.21c3.6,1.1,7.02-0.19,9.34-2.78c0.58,0.33,1.28,0.57,2.15,0.69c2.44,0.32,4.99-1.33,7.1-3.29
		c2.68,4.61,8.92,3.36,13.39-0.51c0.79,0.82,1.86,1.49,3.3,1.94c2.46,0.76,4.96,0.39,7.11-0.72c0.27,0.6,0.63,1.18,1.1,1.75
		c1.55,1.88,3.68,1.59,5.6,0.6c1.38,3.67,5,5.86,8.68,5.32c0.29,1.24,1.01,2.39,2.36,3.27c1.83,1.19,3.63,1.41,5.31,0.99
		c0.21,2.15,1.28,4.07,3.74,5.29c2.99,1.48,6.37,0.83,9.21-0.76c1.62,5.77,7.21,9.2,13.14,8.77c-0.08,1.41,0.37,2.86,1.65,4.24
		c2.63,2.85,6.24,3.72,9.75,3.09c0.12,2.06,0.9,3.94,2.93,5.21c0.9,0.56,1.81,0.7,2.69,0.56c0.45,2.97,2.17,5.43,4.76,6.06
		c-0.99,4.26,0.76,8.47,5.31,9.91c0.01,4.82,0.35,11.22,4.38,13.25c-0.09,0.24-0.18,0.48-0.29,0.74c-0.5,1.23,0.51,2.73,1.7,3.06
		c-1.51,4.65-1.46,10.06,1.88,13.7c-0.86,3.35-0.72,6.48,0.42,9.91c0.2,0.61,0.69,1.17,1.28,1.52c-0.2,0.82-0.39,1.64-0.61,2.49
		c-0.31,1.19,0.39,2.88,1.75,3.08c1.59,0.23,2.98,0.7,4.48,0.8c0.94,1.87,1.86,3.74,2.65,5.68c-8.05,9.84-13.34,23.12-16.88,35.12
		c-0.47,1.59,0.81,3.14,2.41,3.16c3.83,0.07,7.46,0.33,10.23,3.27c1.05,1.11,3.22,0.93,3.93-0.51c4.31-8.77,7.79-20.91,16.44-26.44
		c1.42-0.91,1.82-3.51,0-4.32c-3.55-1.57-5.37-4.11-3.74-7.58c0.95-0.32,1.7-1.13,1.66-2.26c0.97-0.88,2.18-1.54,3.35-2
		c0.93-0.37,7.34-1.32,5.04,0.9c-2.33,2.24,1.21,5.77,3.54,3.54c2.12-2.04,4.2-8.55-0.44-9.51c-2.3-0.48-4.56-0.59-6.74-0.29
		c4-2.68,9.12-4,9.94-0.1c1.29,6.14-2.26,14.15-4.22,19.79c-4.44,12.71-10.92,24.63-15.73,37.17c-0.37-0.47-0.73-0.94-1.08-1.42
		c-1.87-2.59-6.21-0.09-4.32,2.52c1.3,1.8,2.83,3.45,4,5.33c1.19,1.91,3.87,1.44,4.57-0.6c6.26-18.22,16.74-34.79,20.96-53.79
		C424.96,199.53,426.1,189.92,418.16,188.86z"/>
	<path fill="#C6C6C6" d="M264.33,341.41c3.18-0.48,1.82-5.3-1.33-4.82c-4.5,0.68-8.95,0.71-13.31-0.71
		c-5.22-1.69-5.91-5.84-5.7-10.58c0.38-8.63,2.61-17.39,3.89-25.92c1.85-12.36,3.65-24.74,5.53-37.1c1.5-9.87,3.83-19.97,1.99-29.95
		c-0.58-3.17-5.4-1.82-4.82,1.33c2.23,12.14-1.72,25.69-3.52,37.72c-1.93,12.85-3.54,25.81-5.86,38.59
		c-0.78,4.28-1.53,8.55-2.01,12.87c-0.36,3.26-1.01,8.47,0.98,11.42C245.63,342.32,255.51,342.74,264.33,341.41z"/>
	<path fill="#C6C6C6" d="M295.74,376.17c-7.94,5.24-16.35,8.59-25.85,9.55c-8.03,0.81-16.18,0.14-24.23,0.1
		c-3.23-0.01-3.22,4.99,0,5c9.04,0.04,18.1,0.69,27.11-0.43c9.28-1.15,17.72-4.79,25.49-9.91
		C300.94,378.73,298.44,374.39,295.74,376.17z"/>
</g>
</svg>
