<?xml version="1.0" encoding="utf-8"?>
<!-- Generator: Adobe Illustrator 16.0.0, SVG Export Plug-In . SVG Version: 6.00 Build 0)  -->
<!DOCTYPE svg PUBLIC "-//W3C//DTD SVG 1.1 Tiny//EN" "http://www.w3.org/Graphics/SVG/1.1/DTD/svg11-tiny.dtd">
<svg version="1.1" baseProfile="tiny" id="Capa_1" xmlns="http://www.w3.org/2000/svg" xmlns:xlink="http://www.w3.org/1999/xlink"
	 x="0px" y="0px" width="500px" height="500px" viewBox="0 0 500 500" xml:space="preserve">
<g>
	<path fill="#C6C6C6" d="M186.21,229.7c-13.84-3.43-37.92-0.77-40.6,16.73c-0.45,2.97,4.09,4.25,4.54,1.25
		c0.94-6.12,5.13-9.96,10.53-12.16c0,0.07,0,0.15,0.01,0.22c0.85,5.93,4.57,9.75,10.63,7.25c2.74-1.13,5.15-2.92,7.54-4.65
		c1.67-1.21,4.52-4.07,6.72-4.01C188.24,234.4,188.79,230.34,186.21,229.7z M168.76,238.94c-2.9,1-3.22-2.32-3.52-4.45
		c-0.02-0.14-0.06-0.26-0.09-0.38c4.13-0.97,8.59-1.21,12.68-0.94c-0.97,0.74-1.89,1.49-2.74,2.1
		C173.12,236.69,171.06,238.15,168.76,238.94z"/>
	<path fill="#C6C6C6" d="M300.56,225.31c-0.43-0.12-0.87-0.2-1.3-0.27c-7.69-1.71-14.52-5.83-22.57-6.1
		c-8.69-0.29-17.34,3.74-25.07,7.23c-2.77,1.25-0.37,5.31,2.38,4.07c3.93-1.78,7.96-3.52,12.1-4.77c0.37,0.48,0.96,0.78,1.79,0.69
		c0.12-0.01,0.24-0.04,0.35-0.07c0.67,3.87,3.03,7.16,7.73,5.72c2.82-0.86,7.39-4.19,6.01-7.62c4.55,0.98,8.9,3.19,13.37,4.64
		c0.22,0.17,0.48,0.31,0.8,0.39c0.66,0.18,1.33,0.27,2,0.39c0.38,0.09,0.76,0.17,1.14,0.24
		C302.26,230.39,303.53,226.13,300.56,225.31z M276.83,225.96c-0.59,0.56-1.34,1.03-2.1,1.31c-0.7,0.25-1.07,0.3-1.38,0
		c-0.69-0.67-0.68-2.15-0.63-3.26c1.75-0.24,3.52-0.35,5.32-0.31c-0.33,0.42-0.54,0.94-0.52,1.52c-0.01,0.02-0.02,0.02-0.03,0.04
		C277.37,225.45,277.15,225.65,276.83,225.96z"/>
	<path fill="#C6C6C6" d="M168.77,341.23c0.05-0.1,0.11-0.24,0.18-0.39c0.9,1.86,3.89,2.22,4.46-0.18c0.12-0.49,0.26-0.97,0.4-1.46
		c0.72-0.03,1.44-0.38,1.88-1.12c0.96-1.61,1.94-3.2,2.94-4.77c0.12,0.35,0.22,0.7,0.29,1.07c0.44,2.26,3.47,2.11,4.39,0.37
		c1.15,1.1,3.35,0.9,3.92-1c1.09-3.57,1.36-7.93,2.67-11.65c0.51,1.79,1.01,3.59,1.58,5.37c0.65,2.03,4.15,2.46,4.54,0
		c0.12-0.72,0.23-1.45,0.35-2.17c0.02,0.51,0.04,1.03,0.05,1.54c0.05,2.76,3.75,3.08,4.63,0.63c0.96-2.69,1.49-5.48,1.96-8.27
		c0.31,1.72,0.64,3.43,1.04,5.13c0.62,2.63,4.61,2,4.63-0.63c0.02-3.27,2.51-20.02-2.98-19.95c-1.04,0.01-1.72,0.58-2.05,1.32
		c-1.09-0.13-2.32,0.49-2.74,1.67c-0.93,2.61-1.46,5.3-1.91,8.01c-0.21-0.56-0.44-1.11-0.69-1.66c-0.89-1.97-3.76-1.21-4.31,0.56
		c-0.3,0.98-0.56,1.96-0.79,2.95c-0.11-0.36-0.21-0.71-0.32-1.07c-0.5-1.58-2.72-2.44-3.94-1.04c-2.11,2.43-3.21,5.28-3.99,8.26
		c-1.15-0.35-2.52,0.1-2.9,1.57c-0.21,0.81-0.47,1.59-0.74,2.37c-0.82-1.39-3.16-1.03-4.05,0.21c-0.74,1.03-1.45,2.09-2.15,3.15
		c-1.19-0.89-3.24-0.6-3.75,1.18c-0.29,1.01-0.62,2-0.95,2.99c-0.55-0.33-1.23-0.46-1.81-0.24c-2.87,1.08-2.68,2.39-3.92,4.85
		C163.33,341.56,167.4,343.95,168.77,341.23z"/>
	<path fill="#C6C6C6" d="M222.46,312.08c-0.31-2.21-3.71-2.79-4.49-0.68c-0.55-2.41-1.12-4.81-1.85-7.17
		c-0.9-2.89-5.45-1.66-4.54,1.25c1.87,6.03,2.62,12.35,5.03,18.22c0.52,1.27,1.81,1.81,2.89,1.59c0.47,0.16,0.97,0.19,1.42,0.05
		c0,0.08,0,0.16,0,0.24c0,2.36,3.19,3.2,4.39,1.19c0.21-0.36,0.42-0.72,0.64-1.08c0,0.8,0,1.6,0,2.4c0,2.31,3.25,3.27,4.39,1.19
		c0.54-0.97,1.01-1.97,1.46-2.98c0.34,1.42,0.78,2.84,1.38,4.24c0.67,1.54,3.41,1.55,4.07,0c0.44-1.02,0.89-2.02,1.35-3.03
		c0.22,1.03,0.42,2.06,0.63,3.09c0.4,2.03,3.36,2.27,4.31,0.56c0.92-1.66,1.67-3.39,2.42-5.13c0.29,1.31,0.55,2.62,0.81,3.94
		c0.38,1.91,3.48,2.4,4.31,0.56c0.31-0.68,0.67-1.33,1.05-1.96c0.63,1.25,1.18,2.53,1.55,3.91c0.5,1.84,3.42,2.48,4.31,0.56
		c0.46-1,1.06-1.91,1.7-2.78c0.11,0.31,0.21,0.63,0.28,0.96c0.42,2.16,3.26,2.1,4.31,0.56c0.42-0.62,0.84-1.24,1.25-1.86
		c1.03,0.55,2.35,0.43,2.97-0.89c0.06-0.13,0.12-0.26,0.19-0.4c0.22-0.46,0.27-0.91,0.22-1.32c0.08-1.24-0.18-2.39-0.61-3.63
		c-0.81-2.34-3.66-2.13-4.54,0c-0.27,0.65-0.6,1.27-0.96,1.88c-0.06-0.2-0.12-0.41-0.16-0.62c-0.43-2.21-3.23-2.04-4.31-0.56
		c-0.59,0.81-1.22,1.59-1.84,2.37c-0.7-1.43-1.49-2.81-2.26-4.26c-0.78-1.46-3.34-1.62-4.07,0c-0.04,0.09-0.09,0.17-0.13,0.25
		c-0.35-1.37-0.73-2.74-1.22-4.09c-0.66-1.82-3.25-2.47-4.31-0.56c-0.82,1.49-1.51,3.04-2.19,4.6c-0.3-1.14-0.63-2.28-1.04-3.41
		c-0.76-2.09-3.92-2.4-4.54,0c-0.27,1.04-0.62,2.05-1.01,3.04c-0.28-1.84-0.46-3.71-0.73-5.55c-0.35-2.36-3.28-1.98-4.31-0.43
		c0-0.07,0-0.13,0-0.2c0-2.18-3.42-3.44-4.39-1.19c-0.2,0.46-0.42,0.92-0.64,1.37c0-0.69,0-1.38,0-2.07
		C225.64,312.53,223.84,311.67,222.46,312.08z"/>
	<path fill="#C6C6C6" d="M381.68,233.38c2.46,1.8,4.8-2.29,2.38-4.07c-9.31-6.81-18.9-13.56-28.92-19.53
		c0.4-0.38,0.63-0.94,0.55-1.69c-0.33-3.19-0.67-6.4-0.92-9.61c4.38,5.02,9.04,9.51,16.04,10.59c0.04,0.01,0.08,0.02,0.12,0.04
		c0-0.01,0-0.01,0-0.02c0.21,0.03,0.41,0.08,0.62,0.1c2.7,0.31,3.13-3.95,0.63-4.63c-11.69-3.15-19.4-15.79-23-28.19
		c1.44,1.16,4.3,0.78,4-1.59c-1.44-11.35-5.08-22.12-8.42-33.02c-1.67-5.47-3.15-10.99-4.24-16.62c-0.34-1.78-4.51-4-5.82-5.18
		c-6.25-5.67-16.05-15.64-24.38-12.5c-0.7-0.67-1.61-1.28-2.76-1.76c-8.52-3.59-18.55-1.42-27.43-0.69
		c-5.39,0.44-10.76-0.04-16.15,0.4c-4.97,0.41-9.86,1.61-14.65,2.95c-1.96,0.55-3.9,1.13-5.84,1.73c-0.21-0.35-0.5-0.65-0.83-0.81
		c-9.06-4.31-23.43,0.14-28.99,8.39c-0.04,0.06-0.06,0.13-0.09,0.2c-0.3-0.05-0.61-0.1-0.92-0.16c1.31-1.88,2.38-3.9,3.17-6.02
		c5.98-1.27,12.12-3.36,15.99-7.5c0.95-1.02,0.82-2.3,0-3.33c-3.58-4.51-10.11-5.25-16.12-4.96c-3.88-8.11-14.58-10.91-22.89-11.6
		c-10.3-0.86-22.61,0.83-31.36,6.71c-1.58,1.07-3.02,2.4-4.09,3.93c-8.77-2.39-17.85-3.9-26.65-3.43
		c-4.16,0.22-9.17,1.11-11.93,4.57c-3.15,3.96-1.62,8.96,0.36,13.08c0.56,1.17,1.21,2.29,1.93,3.36c-2.97-0.25-5.93-0.49-8.89-0.75
		c-11.58-1.01-24.64-1.74-35.26,3.8c-1.44,0.75-1.63,3.38,0,4.07c6.37,2.7,13.04,4.04,19.85,4.67c-3.63,1.95-6.96,4.41-9.39,7.82
		c-0.46,0.64-0.43,1.74,0,2.38c4.13,6.17,11.82,7.8,19.86,7.84c-5.15,4.78-9.01,10.65-6.44,16.47c1.43,3.24,4.59,4.73,8.41,5.23
		c-0.58,1.41-0.88,2.9-0.79,4.45c0.06,0.97,0.67,2.09,1.73,2.27c4.43,0.77,9.06-0.01,13.47-1.23c-0.49,1.21-0.76,2.34-0.75,3.36
		c0.01,0.79,0.43,1.67,1.17,2.03c1.09,0.54,2.18,1.09,3.26,1.63c-2.89,3.2-5.37,6.65-7.25,10.22c-0.88,1.66,0.59,4.25,2.66,3.46
		c8.6-3.29,16.45-10.44,22.58-17.49c-6.29,11.76-18.04,20.85-24.61,32.25c-0.42,0.73-0.44,1.4-0.22,1.96
		c-4.73,1.4-9.43,2.91-14.08,4.5c-0.54,0.18-0.93,0.49-1.19,0.87c-3.13,1.48-2.42,6.83-2.42,9.57c0,1.25,1.07,2.4,2.36,2.36
		c4.1-0.14,8-1.01,11.92-2.07c5.72,12.68,5.18,27.03,16.45,36.94c10.35,9.1,26.19,12.58,39.43,8.99c1.78-0.48,3.46-1.19,5.06-2.04
		c-3.99,6.05-8.1,12.03-12.07,18.09c-0.92,1.4,0.09,2.91,1.41,3.46c13.4,5.57,28.23,8.96,40.91,16.1c2.65,1.49,5.02-2.58,2.38-4.07
		c-12.13-6.83-26.13-10.33-39.11-15.4c8.65-13.06,17.77-25.81,24.87-39.81c0.38-0.75,0.33-1.47,0.05-2.07
		c2.44-6.78,2.93-14.16,5.82-20.8c3.58-8.22,12.51-7.07,20.04-6.32c2.31,26.68,27.97,47.09,54.86,43.36
		c24.81-3.45,39.68-32.76,35.74-56.07c1.76,0.16,3.52,0.34,5.23,0.89c1.41,0.45,3.07-0.77,2.98-2.27c-0.04-0.69-0.08-1.38-0.13-2.05
		C343.25,206.18,363.02,219.73,381.68,233.38z M264.01,110.14c4.27-0.48,8.56-0.04,12.84-0.2c4.46-0.16,8.9-0.73,13.34-1.09
		c3.78-0.31,7.81-0.62,11.58-0.01c1.27,0.21,2.5,0.62,3.71,1.05c0.36,0.13,0.64,0.23,0.87,0.31c-0.52,0.54-1.03,1.14-1.53,1.82
		c-1.55,2.14,1.33,4.06,3.22,3.22c1.92-0.85,3.08-1.98,3.58-3.2c7.24-3.33,18.14,10.1,22.89,13.96c0.67,0.54,1.37,1.05,2.08,1.52
		c-0.1-0.07,0.75,5.08,0.87,5.6c1.07,4.43,2.42,8.8,3.77,13.15c1.55,5.02,3.16,10.04,4.51,15.12c-1.41-0.77-3.65,0.23-3.55,2.07
		c0.47,8.46,3.09,18.55,7.83,27.18c-0.18,0.32-0.29,0.69-0.29,1.1c0.07,5.19,0.63,10.4,1.17,15.56
		c-9.69-5.47-19.79-10.13-30.46-13.31c-1.06-6.49-3.71-11.59-11.74-13.65c-6.35-1.63-13.26-1.11-19.73-0.78
		c-5.73,0.3-11.47,0.32-17.16,1.04c-17.46,2.2-41.9,9.09-49.33,27.07c-4.81-1.13-9.62,0.29-14.58,0.54
		c-10.75-13.54-32.66-11.7-47.87-9.79c-10.72,1.35-21.37,3.57-31.86,6.37c6.06-5.12,11.65-10.92,16.4-17.25
		c5.45-7.26,10.65-15.91,9.35-25.34c-0.02-0.14-0.06-0.27-0.12-0.39c0.04-0.78,0.04-1.56-0.03-2.34c0.71-2.01,1.11-4.04,0.97-5.93
		c1.89-1.66,3.66-3.51,5.12-5.55c2.38-1.97,4.49-4.18,6.16-6.69c1.02-1.54,1.65-3.02,1.96-4.45c2.18-0.87,4.28-1.95,6.27-3.31
		c8.91-0.08,17.8-1.67,25.81-5.31c3.35-1.52,6.5-3.72,9.16-6.4c2.07,0.42,4.11,0.76,6.07,1.01c9.4,1.22,20.75,0.58,26.5-7.38
		C249.09,113.25,256.39,111,264.01,110.14z M130.74,173.12c-0.15-0.13-0.31-0.25-0.52-0.35c-0.82-0.41-1.64-0.82-2.46-1.23
		c0.26-1.31,0.87-2.6,1.73-3.84c6.84-2.37,13.49-5.6,19.48-9.69c0.1,0.31,0.17,0.64,0.21,1c-0.44,0.96-0.97,1.93-1.55,2.89
		C141.62,164.47,135.75,168.4,130.74,173.12z M169.29,103.73c4.84,1.69,9.61,3.61,14.23,5.85c-6.58-0.53-23.18-2.73-23.48-8.81
		C163.15,101.67,166.24,102.66,169.29,103.73z M212.58,104.37c-0.05,1.1-0.18,2.15-0.38,3.16c-0.23,0.05-0.46,0.09-0.68,0.14
		c-5.87,1.2-11.88,1.82-17.89,2.01c-0.36-0.22-0.72-0.44-1.07-0.65c-0.67-0.4-1.36-0.79-2.04-1.17c4.73-3.71,11.7-5.25,17.22-6.32
		c1.31-0.25,2.87-0.53,4.54-0.74C212.53,101.9,212.64,103.08,212.58,104.37z M203.43,120.44c0.08,0.02,0.16,0.04,0.24,0.07
		c-0.16,0.12-0.32,0.24-0.49,0.36C203.28,120.74,203.36,120.59,203.43,120.44z M162.84,133.82c-0.11-0.33-0.24-0.66-0.38-0.98
		c0.3,0.04,0.6,0.08,0.91,0.12c0.05,0.22,0.09,0.44,0.12,0.67C163.28,133.69,163.06,133.75,162.84,133.82z M156.86,126.55
		c-0.34-0.2-0.69-0.38-1.04-0.55c0.2,0.02,0.4,0.05,0.6,0.07c0.99,0.49,1.92,1.03,2.76,1.6c-0.29-0.05-0.59-0.09-0.88-0.15
		C157.85,127.18,157.37,126.85,156.86,126.55z M176.91,128.76c-0.13-0.36-0.28-0.71-0.45-1.05c7.34,0.05,14.49-0.8,20.94-3.52
		c-4.74,2.17-10.01,3.47-14.87,4.08C180.68,128.5,178.8,128.66,176.91,128.76z M171.71,128.84c-1.85-0.03-3.71-0.12-5.56-0.27
		c-0.36-0.53-0.77-1.04-1.21-1.54c1.85,0.18,3.7,0.34,5.55,0.45C170.94,127.91,171.37,128.35,171.71,128.84z M154.5,131.42
		c0.51,0.11,1.02,0.21,1.53,0.32c0.69,0.62,1.31,1.35,1.82,2.23c0.17,0.3,0.33,0.59,0.46,0.89c-9.74,1.74-20.67,0.8-29.53,1.09
		c-1.53,0.05-3.05,0.15-4.57,0.27c3.36-1.76,6.83-3.25,10.25-4.46c3.13-1.11,7.42-2.39,11.56-2.66
		C148.9,130.04,151.76,130.81,154.5,131.42z M144.77,151.21c-7.01,3.22-14.54,5.46-22.11,6.91c-0.57,0.11-1.16,0.22-1.78,0.34
		c2.22-1.42,4.47-2.57,6.08-3.41c4.88-2.53,13.48-6.4,19.52-4.64C145.9,150.68,145.33,150.95,144.77,151.21z M236.33,112.34
		c-4.53,1.38-9.08,2.63-13.74,3.42C226.61,113.33,231.91,111.92,236.33,112.34z M207.76,116.7c-2.54-0.61-5.12-1.36-7.62-2.3
		c-0.14-0.13-0.27-0.25-0.41-0.38c2.76-0.25,5.51-0.57,8.23-0.97c0.8-0.12,1.63-0.24,2.48-0.37
		C209.7,114.13,208.8,115.47,207.76,116.7z M226.65,102.51c-2.67,1.95-6.1,3.11-9.48,3.94c0.25-1.97,0.23-3.99-0.09-6.02
		C220.6,100.37,224.12,100.84,226.65,102.51z M190.76,88.92c6.88,0.21,15.49,2.07,19.53,7.51c-0.56,0.07-1.11,0.15-1.63,0.22
		c-7.27,1.01-17.05,3.35-22.65,8.89c-4.17-2.02-8.48-3.76-12.79-5.38c-3.53-1.32-7.19-2.6-10.93-3.76
		C168.86,89.61,182.15,88.65,190.76,88.92z M127.69,96.61c6.07-1.28,12.86-0.15,18.87,0.94c3.04,0.55,6.06,1.23,9.05,2
		c-0.13,1.23,0.01,2.53,0.51,3.85c2.67,7.17,12.63,9.12,19.19,10.12c4.75,0.72,9.57,1,14.39,0.97c2.44,1.55,5.11,2.86,7.89,3.97
		c0.08,0.09,0.17,0.19,0.25,0.28c-7.46,3.76-16.3,3.97-24.5,3.78c-0.68-0.02-1.37-0.05-2.05-0.08c-2.76-1.68-6-2.8-8.77-3.69
		c-8.58-2.77-17.73-3.9-26.66-4.86c-2.53-0.27-5.07-0.51-7.61-0.74C122.37,107.08,117.59,98.73,127.69,96.61z M110.86,116.39
		c2.89,0.22,5.79,0.47,8.68,0.72c-4.02,0.63-7.97,1.55-11.75,2.74c-7.71,0.04-15.59-0.31-22.99-2.37
		C93.1,115.06,102.49,115.76,110.86,116.39z M110.68,137.25c-5.43,0.15-14.01,0.42-18.23-3.94c3.83-4.39,9.97-6.79,15.46-8.51
		c8.94,0.03,17.98-0.58,26.81-0.51c0.86,0.47,1.73,0.91,2.62,1.34c-6.62,1.88-13.06,5.18-17.84,7.95c-1.53,0.89-3.48,2.08-5.54,3.5
		C112.86,137.16,111.77,137.22,110.68,137.25z M106.38,158.13c-4.16-2.01,0.6-8.17,2.32-10.14c1.91-2.19,4.09-4.19,6.45-6.01
		c4.36-0.38,8.51-0.95,11.89-1.22c10.05-0.81,21.48,0.29,31.94-1.45c-0.21,1.64-0.88,3.25-1.87,4.8c-1.7,1.37-3.56,2.57-5.48,3.66
		c-0.16-0.13-0.32-0.25-0.5-0.38c-7.29-4.96-18.74-0.16-25.69,3.15c-3.86,1.83-9.35,4.86-13.05,8.81
		C110.24,159.32,108.15,158.99,106.38,158.13z M124.89,164.26c-3.52,1.09-7.63,2.29-11.48,2.16c0.22-0.77,0.58-1.52,1.06-2.23
		c5.38-0.3,11.06-1.72,14.79-2.69c-0.59,0.62-1.14,1.24-1.67,1.87C126.69,163.68,125.8,163.98,124.89,164.26z M129.68,181.09
		c3.02-3.59,6.61-6.9,10.49-9.65C137.11,174.75,133.54,178.24,129.68,181.09z M196.28,224.41c-2.1,6.75-2.8,13.89-5.85,20.33
		c-2.69,5.68-6.6,11.53-11.64,15.35c-11.51,8.73-29.29,4.62-40.19-2.93c-13.03-9.02-11.72-26.02-18.21-38.95
		c-0.47-0.93-1.7-1.36-2.66-1.08c-3.42,0.97-6.79,1.88-10.29,2.26c-0.03-1.41-0.03-2.88,0.17-2.98c0.36-0.17,0.63-0.39,0.83-0.64
		c15.52-5.27,31.48-9.5,47.67-12.05c9.15-1.44,18.5-2.19,27.75-1.41c7.31,0.62,15.81,2.67,20.43,8.86c0.23,0.31,0.51,0.54,0.8,0.7
		C200.16,214.48,197.9,219.22,196.28,224.41z M277.06,253.94c-24.83,4.44-49.21-16.24-50.16-40.81c-0.03-0.72-0.32-1.31-0.78-1.72
		c0.02-0.06,0.05-0.11,0.07-0.17c5.41-17.12,28.62-23.23,44.23-25.7c9.47-1.5,19.62-1.66,29.18-1.5c4.79,0.08,11.42,0.47,14.59,4.68
		c1.87,2.49,2.07,6.21,2.16,9.53c-1.88-0.25-3.76-0.31-5.72-0.59c-1.74-0.26-3.38,1-2.9,2.9
		C313.08,221.75,299.82,249.87,277.06,253.94z"/>
	<path fill="#C6C6C6" d="M407.71,238c-1.34-1.68-2.86-2.46-4.42-2.62c-0.89-5.59-2.4-11.06-4.29-16.42
		c1.34,2.39,2.88,4.68,4.69,6.86c0.02,0.17,0.05,0.33,0.07,0.5c0.34,2.98,5.05,3.02,4.71,0c-0.04-0.31-0.08-0.61-0.13-0.92
		c0.1-0.5,0.04-1.04-0.25-1.55c-1.45-8.06-5.31-14.44-10.31-20.05c-0.46-1.49-0.91-2.99-1.34-4.5c-0.58-2.01-2.91-2.04-4.04-0.92
		c-1.22-1.12-2.47-2.23-3.75-3.32c-0.42-0.87-0.83-1.75-1.25-2.61c-0.64-1.34-1.94-1.45-2.95-0.89c-3.36-2.76-6.76-5.5-9.99-8.38
		c-2.26-2.02-5.6,1.3-3.33,3.33c4.22,3.77,8.98,7.35,13.54,11.12c5.92,12.35,12,25.23,14.04,38.84c-3.57,1.92-6.8,5.92-8.26,8.91
		c-1.91,3.94-7.07,24.94,3.71,20.9c2.82-1.05,1.6-5.61-1.25-4.54c-1,0.37-0.8-0.68-0.87-2.2c-0.08-1.87,0.23-3.75,0.59-5.58
		c0.74-3.81,2.02-7.04,4.51-9.99c0.52-0.62,1.27-1.52,2.12-2.31c0.02,0.33,0.06,0.66,0.08,0.99c0.16,3.02,4.88,3.04,4.71,0
		c-0.04-0.68-0.1-1.36-0.16-2.04c1.25,1.18,1.86,3.87,2.2,5.1c1.8,6.42,1.82,13.44,1.67,20.05c-0.06,2.66-0.23,5.32-0.54,7.96
		c-0.63,5.39-3.77,10.58-6.23,15.33c-3.95,7.65-7.08,14.73-6.75,23.42c0.32,8.4,1.89,16.77,2.97,25.1
		c1.06,8.18,2.24,16.86,0.87,25.07c-0.47,2.83-1.41,5.62-3.51,7.65c-3.65,3.5-8.07-1.12-10.36-3.86c-2.54-3.04-4.68-6.94-6-10.68
		c-1-2.84-5.56-1.62-4.54,1.25c2.3,6.52,6.34,13.12,11.96,17.24c5.49,4.04,11.93,1.31,14.96-4.16c3.36-6.07,2.95-14.11,2.55-20.78
		c-0.54-8.91-2.07-17.74-3.2-26.58c-0.92-7.2-1.82-14.28,0.5-21.28c3.21-9.69,10.36-17.89,11.57-28.26
		c0.73-6.25,0.67-12.67,0.18-18.94C411.79,248.92,411.18,242.34,407.71,238z"/>
	<path fill="#C6C6C6" d="M253.54,427.06c-0.88-2.78-1.47-5.64-2.23-8.48c-0.72-2.68-4.43-1.94-4.63,0.63
		c-0.21,2.71-0.28,5.43-0.4,8.14c-0.36-1.68-0.76-3.35-1.26-5c-0.8-2.66-4.39-1.96-4.63,0.62c-0.46,5.05-0.92,10.13-2.36,14.97
		c-1.76-4.57-2.37-9.64-3.69-14.34c-0.75-2.66-4.44-1.97-4.63,0.63c-0.28,3.92-0.08,7.88-0.3,11.79c-1.12-4.07-1.86-8.26-2.61-12.42
		c-0.47-2.61-4.87-2.02-4.63,0.63c0.42,4.62,0.79,9.23,0.65,13.84c-1.23-3.03-1.86-6.38-2.93-9.44c-0.7-2-4.11-2.49-4.54,0
		c-0.07,0.38-0.11,0.76-0.17,1.13c-1.11-1.71-4.34-0.95-4.32,1.38c0.01,0.42,0.02,0.83,0.03,1.25c-1.37-0.97-3.83-0.16-3.8,1.89
		c0.05,3.5,0.36,6.98,1.02,10.39c-1.53-3.69-2.4-7.65-3.1-11.63c-0.25-1.69-0.54-3.37-0.84-5.04c-0.54-3-5.03-1.71-4.54,1.25
		c0.24,1.47,0.48,2.96,0.74,4.44c0.47,3.22,0.74,6.43,0.43,9.63c-2.03-4.06-3.17-8.58-4.79-12.81c-0.58-1.51-2.07-1.95-3.2-1.47
		c-0.17-2.02-0.33-4.05-0.48-6.07c-0.23-2.99-4.73-3.07-4.71,0c0.02,4.67,0.21,9.35-0.01,14.01c-2.18-8.03-2.84-16.51-4.16-24.69
		c-0.36-2.24-4.23-2.28-4.54,0c-0.55,3.98-0.75,7.99-1,11.99c-0.86-5.61-1.24-11.29-1.28-17.02c-0.02-3.07-4.5-3-4.71,0
		c-0.28,3.91-0.29,7.84-0.42,11.76c-1.48-4.43-2.59-8.98-3.04-13.64c-0.26-2.66-3.82-3.03-4.57-0.86
		c-2.89-3.87-5.47-7.95-7.69-12.27c-0.39-0.76-1.06-1.11-1.76-1.15c-4.88-12.23-8.35-24.86-10.56-37.87
		c-0.11-0.66-0.45-1.11-0.9-1.38c-1.87-11.15-4.54-22.13-7.38-33.07c-1.66-6.39-3.35-12.78-4.96-19.19
		c-0.73-2.89-1.41-5.79-2.08-8.7c-0.62-2.71-0.61-5.44-1.65-8.02c-1.12-2.78-5.68-1.57-4.54,1.25c0.82,2.04,0.87,4.14,1.26,6.29
		c0.64,3.5,1.62,6.98,2.47,10.44c1.59,6.41,3.3,12.79,4.96,19.19c3.34,12.83,6.43,25.71,8.27,38.85c0.11,0.78,0.55,1.26,1.11,1.5
		c2.61,12.86,6.49,25.28,11.7,37.39c0.45,1.05,1.44,1.33,2.36,1.11c2.89,4.9,6.23,9.49,9.95,13.81c0.18,0.21,0.38,0.37,0.59,0.48
		c1.34,5.93,3.45,11.66,5.95,17.26c0.56,1.26,2.31,1.44,3.41,0.75c0.56,2.52,1.22,5.01,2.01,7.48c0.67,2.09,4.04,2.4,4.54,0
		c0.42-1.99,0.71-4,0.93-6.01c1.04,5.27,2.47,10.43,4.81,15.37c0.8,1.68,3.35,1.41,4.13-0.09c0.01,0.05,0.02,0.11,0.03,0.16
		c0.52,2.21,4.08,2.3,4.54,0c0.29-1.46,0.45-2.92,0.53-4.38c1.13,2.57,2.49,5.03,4.33,7.3c1.2,1.49,3.41,0.46,3.94-1.04
		c0.17-0.5,0.33-1,0.47-1.5c0.78,1.59,1.68,3.12,2.77,4.57c0.83,1.11,2.47,1.54,3.52,0.66c0.09,0.2,0.16,0.4,0.25,0.6
		c0.82,1.76,4.02,1.42,4.31-0.56c0.17-1.22,0.28-2.43,0.37-3.65c1.42,0.74,3.5-0.01,3.49-2.01c-0.02-2.22-0.09-4.45-0.12-6.67
		c0.9,1.89,2.04,3.65,3.64,5.2c1.16,1.12,3.65,0.79,3.94-1.04c0.1-0.65,0.18-1.29,0.26-1.93c0.34,0.84,0.7,1.67,1.09,2.5
		c0.94,2,3.7,1.18,4.31-0.56c0.65-1.85,1.05-3.74,1.31-5.64c0.67,1.72,1.49,3.38,2.55,4.94c0.9,1.32,3.26,1.73,4.07,0
		c1.37-2.94,2.3-5.97,2.97-9.06c0.42,1.6,0.89,3.18,1.52,4.72c0.8,2,3.94,2.48,4.54,0c0.64-2.62,1-5.27,1.23-7.92
		c0.24,0.53,0.48,1.05,0.75,1.57c1.03,1.99,4.67,1.17,4.39-1.19C255.52,430.73,254.61,428.93,253.54,427.06z"/>
	<path fill="#C6C6C6" d="M163.43,369.58c0.06-5.82,3.46-23.35-5.5-24.35c-3.02-0.34-2.99,4.38,0,4.71
		c2.35,0.26,0.81,17.47,0.79,19.63C158.69,372.62,163.4,372.61,163.43,369.58z"/>
	<path fill="#C6C6C6" d="M283.36,381.52c-3.14-16.1-4.48-32.52-8.8-48.38c-0.74-2.73-4.35-1.89-4.63,0.63
		c-0.04,0.39-0.05,0.77-0.04,1.13c-0.31-0.45-0.77-0.88-1.44-1.28c-2.61-1.58-4.97,2.5-2.38,4.07c-1.78-1.08-0.63-1.13-2.64,0.29
		c-1.16,0.82-2.42,1.48-3.68,2.13c-3.65,1.88-7.99,2.27-12.01,2.6c-7.65,0.62-15.84,1.36-23.42-0.02
		c-12.33-2.25-26.65-8.71-38.05-0.26c-2.41,1.79-0.07,5.88,2.38,4.07c7.56-5.6,16.84-3.39,25.29-1.37
		c8.31,1.99,15.56,3.04,24.1,2.69c8.49-0.34,17.28-0.13,25.02-4.12c1.98-1.02,6.4-3.82,7.18-6.55c0.26,0.95,0.64,1.88,1.04,2.91
		c0.08,0.2,0.17,0.37,0.28,0.52c3.16,13.93,4.53,28.19,7.26,42.21C279.4,385.75,283.94,384.48,283.36,381.52z"/>
	<path fill="#C6C6C6" d="M297.27,402.32c-1.04,1.84-1.89,3.75-2.62,5.69c-0.26-1.73-0.64-3.45-1.24-5.13
		c-0.82-2.33-3.67-2.14-4.54,0c-0.4,0.98-0.77,1.97-1.13,2.97c-0.13-1.62-0.33-3.24-0.61-4.86c-0.34-1.94-3.49-2.38-4.31-0.56
		c-0.82,1.83-1.49,3.69-2.12,5.59c-0.62,1.86,1.04,3.02,2.56,2.86c0.27,7.44-0.94,14.94-1.94,22.27c-0.39,2.91,3.76,4.29,4.54,1.25
		c1.64-6.33,2.79-12.78,4.5-19.08c0.1,4.05-0.29,8.16-0.33,12.17c-0.03,2.65,3.99,3.23,4.63,0.63c1.13-4.64,2.02-9.39,3.48-13.93
		c0.05,1.5,0.05,3,0.06,4.51c0,3.04,4.72,3.04,4.71,0c0-4.66-0.04-9.31-1.34-13.82C301.02,400.95,298.29,400.51,297.27,402.32z"/>
	<path fill="#C6C6C6" d="M423.47,110.08c-3.7-11.58-24.9-2.87-31.91-0.39c-4.16,1.47-8.25,3.1-12.31,4.81
		c-0.54-0.45-1.26-0.66-2.04-0.41c-8.98,2.95-16.97,8.05-25.07,12.8c-2.66,1.56-0.33,5.34,2.38,4.07c1.95-0.91,3.89-1.83,5.84-2.75
		c-0.01,0.43,0,0.87,0.04,1.34c0.28,3,4.99,3.03,4.71,0c-0.17-1.85,0.65-3.29,2-4.5c0.41-0.19,0.81-0.37,1.22-0.56
		c0.66,0.52,1.57,0.71,2.53,0.19c7.16-3.94,17.81-4.14,25.74-4.48c4.74-0.2,9.69-0.18,14.29,1.12c3.72,1.05,4.06,2.97,1.73,5.94
		c-1.85,2.36,1.46,5.72,3.33,3.33c2.63-3.36,4.53-7.59,1.17-11.16c-3.25-3.45-9.51-3.71-13.87-3.94
		c-5.24-0.28-10.51,0.09-15.73,0.72c6.53-2.55,13.21-4.88,20.09-6.29c2.53-0.52,10.16-2.25,11.33,1.41
		C419.85,114.22,424.4,112.99,423.47,110.08z"/>
	<path fill="#C6C6C6" d="M373.4,151.43c12.07,0.27,25.47,0.3,32.87-9.37c0.77-1.01,0.17-2.66-0.84-3.22
		c-10.43-5.8-26.5-1.52-35.68,5.03c-0.99,0.71-1.19,1.79-0.92,2.72c-2.02-0.01-4.04,0-6.06,0.1c-2.11,0.1-3.51,3.4-1.19,4.39
		c3.77,1.6,7.48,3.39,11.11,5.33c-1.51,1.01-1.03,4.16,1.39,4.41c6.38,0.68,11.32,6.91,14.95,11.63c3.61,4.68,6.44,9.89,10,14.59
		c1.04,1.37,2.21,2.84,3.45,4.37c-0.47,0.82-1.05,1.64-1.79,2.45c-2.05,2.23,1.27,5.57,3.33,3.33c0.58-0.63,1.09-1.26,1.56-1.89
		c6.22,7.99,12.38,17.44,9.58,26.61c-0.89,2.91,3.66,4.15,4.54,1.25c3.53-11.58-4.31-22.83-11.71-32.29
		C413.64,175.25,389.7,159.72,373.4,151.43z M400.25,141.7c-4.7,3.92-11.96,4.49-17.75,4.82c-2.8,0.16-5.61,0.15-8.41,0.12
		C381.23,142.29,392.15,139.1,400.25,141.7z M393.04,169.86c4.97,4.17,10.26,9.85,10.75,15.71c-0.46-0.58-0.9-1.16-1.33-1.73
		C399.38,179.76,396.43,174.61,393.04,169.86z"/>
</g>
</svg>
