<?xml version="1.0" encoding="utf-8"?>
<!-- Generator: Adobe Illustrator 16.0.0, SVG Export Plug-In . SVG Version: 6.00 Build 0)  -->
<!DOCTYPE svg PUBLIC "-//W3C//DTD SVG 1.1 Tiny//EN" "http://www.w3.org/Graphics/SVG/1.1/DTD/svg11-tiny.dtd">
<svg version="1.1" baseProfile="tiny" id="Capa_1" xmlns="http://www.w3.org/2000/svg" xmlns:xlink="http://www.w3.org/1999/xlink"
	 x="0px" y="0px" width="500px" height="500px" viewBox="0 0 500 500" xml:space="preserve">
<g>
	<path fill="#C6C6C6" d="M151.71,230.27c-2.75-4.65,0.22-11.81,1.87-16.42c2.02-5.63,4.65-11.1,7.42-16.4
		c6.16-11.8,14.09-22.62,23.16-32.33c18-19.27,41.46-33.05,67.54-37.64c24.61-4.33,48.58,3.48,66.74,20.36
		c8.55,7.95,15.76,17.77,22.42,27.33c6.4,9.19,13.65,21.26,9.75,32.79c-1.04,3.06,3.79,4.37,4.82,1.33
		c3.43-10.16-0.64-20.5-5.64-29.37c-5.37-9.53-12.54-18.34-19.5-26.75c-14.66-17.75-34.98-29.55-58.04-31.6
		c-24.16-2.15-49.07,7.01-68.81,20.42c-20.9,14.19-37.69,34.5-48.85,57.06c-4.32,8.73-12.88,24.14-7.2,33.77
		C149.03,235.56,153.36,233.05,151.71,230.27z"/>
	<path fill="#C6C6C6" d="M159,240.56c-1.48-16.98,6.2-35.96,14.67-50.25c4.46-7.54,10.28-14.87,18.21-18.93
		c3.69-1.89,7.84-2.34,11.89-1.65c6.23,1.07,10.18,6.61,13.48,11.47c4.91,7.23,12.18,18.4,21.91,18.99c4.3,0.26,7.92-3.47,10.4-6.45
		c4.15-4.99,7.63-10.52,11.84-15.49c6.61-7.81,14.92-15.47,25.62-16.23c12.53-0.9,25.18,8.43,33.5,16.82
		c17.76,17.94,18.04,45.72,24.54,68.63c0.77,2.72,4.91,2.18,4.91-0.66c0-1.85,0-3.7,0-5.56c0-3.22-5-3.22-5,0c0,1.85,0,3.7,0,5.56
		c1.64-0.22,3.27-0.44,4.91-0.66c-6.2-21.85-7.1-45.9-20.83-64.89c-11.8-16.33-34.94-30.69-54.81-20.62
		c-9.16,4.64-16.03,13.31-22.15,21.28c-3.17,4.13-7.12,12.83-12.94,13.27c-5.19,0.4-12.13-8.58-14.67-12.18
		c-5.52-7.83-10.77-17.41-21.42-18.43c-7.82-0.74-14.48,2.13-20.48,6.99c-10.38,8.39-16.88,21.52-21.66,33.69
		c-4.26,10.85-7.96,23.51-6.94,35.3C154.28,243.74,159.28,243.77,159,240.56z"/>
	<path fill="#C6C6C6" d="M349.23,203.03c8.72,23.94,0.96,49.72,5.56,74.31c0.48,2.58,4.12,2.19,4.82,0
		c1.5-4.71,10.57-21.87,16.03-12.8c3.95,6.57,2.35,17.04,1.58,24.22c-0.7,6.5-2.18,12.8-3.42,19.2c-0.83,4.29-1.58,8.59-2.49,12.87
		c-0.36,1.68-0.75,3.35-1.24,4.99c-0.82,2.72-2.58-2.29-3.07-3.19c-1.55-2.83-5.87-0.3-4.32,2.52c2.75,5.02,5.22,9.54,10.87,4.67
		c2.99-2.58,3.18-10.52,3.85-14.04c1.78-9.34,3.91-18.57,4.93-28.04c0.9-8.41,2.6-23.18-5.27-29.11
		c-10.09-7.61-19.83,9.71-22.27,17.37c1.61,0,3.21,0,4.82,0c-4.61-24.63,3.21-50.24-5.56-74.31
		C352.96,198.69,348.12,199.99,349.23,203.03z"/>
	<path fill="#C6C6C6" d="M141.5,227.36c0.27,22.29,9.46,43.17,11.11,65.28c0.24,3.18,5,3.26,5,0c0-0.46,0-0.93,0-1.39
		c0-2.18-2.72-3.31-4.27-1.77c-0.23,0.23-0.46,0.46-0.69,0.69c1.31,0.17,2.62,0.34,3.93,0.51c-2.35-4.61-4.92-8.99-9.23-12.01
		c-1.13-0.79-2.75-0.19-3.42,0.9c-3.6,5.87-3.26,14.38-3.1,20.97c0.22,8.94,1.42,18.31,4.68,26.68c2,5.12,6.93,12.5,13.55,10.13
		c6.85-2.45,4.01-14.56,3.41-19.72c-0.36-3.12-5-3.3-5,0c0,0.93,0,1.85,0,2.78c0,3.22,5,3.22,5,0c0-0.93,0-1.85,0-2.78
		c-1.67,0-3.33,0-5,0c0.26,2.21,2.6,15.75-1.19,15c-5.18-1.02-6.91-8.99-8-13.17c-1.77-6.86-2.41-14.02-2.51-21.09
		c-0.07-5.06-0.3-11.79,2.46-16.29c-1.14,0.3-2.28,0.6-3.42,0.9c3.53,2.47,5.53,6.47,7.44,10.21c0.74,1.45,2.83,1.6,3.93,0.51
		c0.23-0.23,0.46-0.46,0.69-0.69c-1.42-0.59-2.85-1.18-4.27-1.77c0,0.46,0,0.93,0,1.39c1.67,0,3.33,0,5,0
		c-1.65-22.11-10.84-43.02-11.11-65.28C146.46,224.14,141.46,224.14,141.5,227.36z"/>
	<path fill="#C6C6C6" d="M171.9,305.91c3.6,2.04,6.27,1.98,10.26,0.86c7.24-2.02,14.76-2.91,22.25-3.42
		c15.97-1.1,32.22,0.21,48.03,2.52c6.04,0.88,12.17,1.67,18.25,0.77c7.65-1.14,15.12-3.03,22.57-5.06
		c14.82-4.03,29.66-8.52,45.19-7.82c-0.83-0.83-1.67-1.67-2.5-2.5c1.31,11.77,1.39,23.59,1.39,35.42c1.05-0.8,2.11-1.61,3.17-2.41
		c-17.8-6-38.63,0.86-55.5,6.94c0.81,0.21,1.62,0.43,2.43,0.64c-6.15-7.4-15.44-15.5-14.55-26.01c0.13-1.5-1.72-3.01-3.17-2.41
		c-1.39,0.58-2.05,0.99-3.19,2.03c-2.38,2.18,1.17,5.71,3.54,3.54c0.33-0.25,0.65-0.5,0.98-0.75c-1.06-0.8-2.11-1.61-3.17-2.41
		c-1.02,12,9,21.11,16.01,29.55c0.52,0.63,1.67,0.92,2.43,0.64c16.04-5.78,35.91-12.65,52.84-6.94c1.56,0.52,3.17-0.86,3.17-2.41
		c0-11.83-0.08-23.65-1.39-35.42c-0.16-1.4-1.02-2.43-2.5-2.5c-14.1-0.64-27.77,2.85-41.26,6.56c-6.94,1.91-13.87,3.83-20.92,5.31
		c-7.69,1.61-14.75,1.51-22.49,0.43c-14.47-2.03-28.94-3.25-43.57-2.95c-7.34,0.15-14.65,0.93-21.88,2.19
		c-4.38,0.76-9.88,3.59-13.89,1.32C171.62,300,169.1,304.32,171.9,305.91z"/>
	<path fill="#C6C6C6" d="M245.42,301.34c-6.38,1.54-8.41,10.21-9.76,15.63c-1.87,7.54-2.47,15.29-3.79,22.92
		c1.39-0.37,2.79-0.74,4.18-1.1c-6.69-7.18-20.14-6.31-28.97-5.77c-10.57,0.66-23.03,2.09-32.39,7.46c1.25,0.72,2.51,1.44,3.76,2.16
		c-0.91-7.99-5.45-15.86-9.32-22.74c-2.51-4.46-6.76-13.73-12.63-14.48c-3.19-0.41-3.15,4.59,0,5c-0.61-0.08,0.91,1.1,1.22,1.43
		c0.98,1.05,1.81,2.24,2.63,3.41c2.05,2.92,3.84,6.03,5.56,9.16c3,5.44,6.81,11.93,7.53,18.22c0.21,1.83,1.98,3.18,3.76,2.16
		c7.97-4.57,18.53-5.75,27.5-6.59c7.8-0.73,21.79-2.33,27.8,4.12c1.2,1.29,3.85,0.76,4.18-1.1c1.07-6.16,1.68-12.38,2.85-18.53
		c0.78-4.11,2.12-15.3,7.21-16.53C249.88,305.4,248.55,300.58,245.42,301.34z"/>
	<path fill="#C6C6C6" d="M155.81,311.11c7.32-0.21,14.31-2.3,21.45-3.69c2.2-0.43,4.35-1.16,6.51-1.75
		c1.01-0.28,2.03-0.52,3.05-0.75c0.65-0.15,1.31-0.26,1.98-0.32c1.14,0.19,1.14-0.32,0.01-1.52c-0.63,3.15,4.19,4.49,4.82,1.33
		c1.15-5.8-5.55-4.89-9.13-4.09c-9.5,2.13-18.88,5.5-28.7,5.79C152.59,306.2,152.58,311.2,155.81,311.11z"/>
	<path fill="#C6C6C6" d="M374.63,139.73c9.69-16.96,14.02-37.06,26.69-52.27c-1.42-0.59-2.84-1.18-4.27-1.77
		c0.53,8.82-1.12,17.58,0,26.39c0.22,1.76,1.99,3.27,3.76,2.16c4.25-2.67,7.64-6.32,11.15-9.86c4-4.04,8.52-7.6,12.96-11.13
		c10-7.96,20.51-15.25,30.57-23.14c-1.18-1.18-2.36-2.36-3.54-3.54c-10.76,12.05-18.54,26.2-26.88,39.93
		c-3.73,6.14-7.96,11.94-11.67,18.09c-3.73,6.18-7.34,13.45-13.72,17.28c1.01,0.13,2.02,0.26,3.03,0.39
		c-4.45-5.56-5.11-13.09-7-19.73c-0.4-1.42-2.35-2.49-3.67-1.49c-8.22,6.17-15,14.86-24.31,19.44c-2.89,1.42-0.36,5.74,2.52,4.32
		c9.37-4.61,16.06-13.26,24.31-19.44c-1.22-0.5-2.45-1-3.67-1.49c2.18,7.68,3.15,15.53,8.28,21.94c0.69,0.86,2.15,0.92,3.03,0.39
		c5.54-3.33,9.18-8.77,12.54-14.15c3.93-6.28,7.99-12.46,11.97-18.71c9.31-14.62,17.16-30.22,28.77-43.23
		c2.2-2.46-1.04-5.49-3.54-3.54c-9.1,7.14-18.57,13.79-27.69,20.9c-4.66,3.63-9.19,7.39-13.64,11.28
		c-4.2,3.67-7.55,8.19-12.33,11.19c1.25,0.72,2.51,1.44,3.76,2.16c-1.12-8.81,0.53-17.57,0-26.39c-0.12-1.97-2.76-3.58-4.27-1.77
		c-13.02,15.62-17.53,35.89-27.47,53.28C368.71,140.01,373.03,142.53,374.63,139.73z"/>
	<path fill="#C6C6C6" d="M63.07,67.32c14.49,17.79,20.6,41.57,25.75,63.48c0.61,2.59,4.02,2.16,4.82,0
		c2.39-6.44,5.52-12.64,9.08-18.51c2.62-4.32,7.77-13.4,13.97-10.49c5.94,2.79,10.11,9.96,13.64,15.15
		c3.58,5.27,6.79,11.03,11.22,15.65c1.8,1.88,4.71-0.07,4.18-2.43c-5.97-26.24-26.08-46.99-33.33-72.92
		c-0.58-2.08-3.48-2.48-4.57-0.6c-7.3,12.62-4.9,29.74-14.19,41.16c1.18,0,2.36,0,3.54,0c-6.42-5.93-13.28-11.36-19.69-17.32
		c-6.55-6.08-13.73-13.12-16.48-21.86c-0.96-3.06-5.79-1.76-4.82,1.33c5.6,17.84,24.39,29.33,37.45,41.38
		c0.92,0.85,2.65,1.09,3.54,0c9.85-12.1,7.37-29.02,14.97-42.17c-1.52-0.2-3.05-0.4-4.57-0.6c3.69,13.18,10.29,25.47,17.02,37.31
		c6.38,11.24,13.42,22.88,16.32,35.6c1.39-0.81,2.79-1.62,4.18-2.43c-5.51-5.74-9.28-13.21-13.93-19.63
		c-3.8-5.24-8.71-11.9-15.5-13.19c-6.77-1.28-11.8,5.56-15.18,10.35c-4.9,6.93-8.7,14.93-11.65,22.88c1.61,0,3.21,0,4.82,0
		c-5.36-22.84-11.94-47.15-27.03-65.69C64.56,61.29,61.05,64.85,63.07,67.32z"/>
</g>
</svg>
