<?xml version="1.0" encoding="utf-8"?>
<!-- Generator: Adobe Illustrator 16.0.0, SVG Export Plug-In . SVG Version: 6.00 Build 0)  -->
<!DOCTYPE svg PUBLIC "-//W3C//DTD SVG 1.1 Tiny//EN" "http://www.w3.org/Graphics/SVG/1.1/DTD/svg11-tiny.dtd">
<svg version="1.1" baseProfile="tiny" id="Capa_1" xmlns="http://www.w3.org/2000/svg" xmlns:xlink="http://www.w3.org/1999/xlink"
	 x="0px" y="0px" width="1034.88px" height="692.97px" viewBox="0 0 1034.88 692.97" xml:space="preserve">
<path fill="#FFFFFF" d="M239.76,99.13l-52.52,22.41v61.5l52.52,22.41l52.52-22.41v-1.32v-60.18L239.76,99.13z M288.28,180.4
	l-46.52,19.85v-54.51l46.52-19.85V180.4z M285.18,122.86l-45.42,19.39l-45.42-19.39l45.42-19.39L285.18,122.86z M191.24,125.89
	l46.52,19.85v54.51l-46.52-19.85V125.89z"/>
<path fill="#FFFFFF" d="M494.34,180.4l-1.21-0.52l-101.82-43.46l-52.52,22.41v58.86l-50.52,21.56v61.5l103.03,43.97l103.03-43.97
	L494.34,180.4z M487.24,181.72l-95.94,40.95l-45.42-19.39l50.52-21.56l-50.52-21.56l45.42-19.39L487.24,181.72z M386.21,181.72
	l-43.42,18.53v-37.07L386.21,181.72z M338.79,222.05v37.06l-43.42-18.53L338.79,222.05z M292.28,243.61l50.52,21.56v-58.86
	l46.52,19.85l0,113.37l-97.03-41.41V243.61z M393.31,339.53l0-113.37l97.03-41.41l0,113.37L393.31,339.53z"/>
<path fill="#FFFFFF" d="M898.46,266.64l-1.21-0.52L694.4,179.55l-103.03,43.97v117.72l-101.03,43.12l0,120.36l204.06,87.09
	l204.06-87.09L898.46,266.64z M891.37,267.96L694.4,352.03l-95.94-40.95l101.03-43.12l-101.03-43.12l95.94-40.95L891.37,267.96z
	 M595.37,308.06l0-80.18l93.94,40.09L595.37,308.06z M591.37,425.77l-93.94-40.09l93.93-40.09L591.37,425.77z M494.34,388.71
	l101.03,43.12l0-87.95l0,0v-29.77l97.03,41.41v231.08l-198.06-84.53L494.34,388.71z M696.4,586.61V355.53l198.06-84.53l0,231.08
	L696.4,586.61z"/>
<polygon fill="#FFFFFF" points="157.35,106.87 166.48,102.03 156.25,100.62 160.14,91.04 151.39,96.54 148.21,86.7 145.04,96.54 
	136.29,91.04 140.18,100.62 129.94,102.03 139.08,106.87 132.14,114.54 142.25,112.36 141.87,122.69 148.21,114.53 154.56,122.69 
	154.18,112.36 164.28,114.54 "/>
</svg>
