<?xml version="1.0" encoding="utf-8"?>
<!-- Generator: Adobe Illustrator 16.0.0, SVG Export Plug-In . SVG Version: 6.00 Build 0)  -->
<!DOCTYPE svg PUBLIC "-//W3C//DTD SVG 1.1//EN" "http://www.w3.org/Graphics/SVG/1.1/DTD/svg11.dtd">
<svg version="1.1" xmlns="http://www.w3.org/2000/svg" xmlns:xlink="http://www.w3.org/1999/xlink" x="0px" y="0px" width="600px"
	 height="600px" viewBox="0 0 600 600" enable-background="new 0 0 600 600" xml:space="preserve">
<g id="fondos">
</g>
<g id="exp-democratica">
</g>
<g id="exp-personal">
</g>
<g id="esp-individual">
	<g>
		<g>
			<path fill="#FFFFFF" d="M264.301,484.34c-64.258-8.562-120.092-48.266-149.354-106.203l7.498-3.788
				c28.013,55.463,81.459,93.468,142.966,101.665c79.824,10.637,157.459-30.664,193.186-102.777l7.527,3.729
				C428.799,452.303,347.691,495.453,264.301,484.34z"/>
			<g>
				<polygon fill="#FFFFFF" points="110.2,396.527 114.261,397.613 119.582,377.6 139.156,384.371 140.527,380.396 116.688,372.155 
									"/>
			</g>
		</g>
		<g>
			<path fill="#FFFFFF" d="M457.354,205.972c-35.625-69.27-108.721-108.912-186.222-100.995
				c-63.855,6.525-119.366,44.63-148.489,101.933l-7.49-3.806c30.425-59.862,88.415-99.666,155.126-106.482
				c40.043-4.091,79.756,4.014,114.845,23.437c34.287,18.978,61.845,47.356,79.699,82.07L457.354,205.972z"/>
			<g>
				<polygon fill="#FFFFFF" points="469.535,183.729 465.47,182.656 460.213,202.688 440.616,195.98 439.261,199.96 
					463.126,208.123 				"/>
			</g>
		</g>
	</g>
	<g>
		<path fill="#FFFFFF" d="M228.912,52.938h-8.666v7.312h8.262l0.229-3.059h3.902v6.996h-20.25v-3.075l2.725-0.527v-18.37
			l-2.725-0.527v-3.094h2.725h17.49v7.015h-3.938l-0.229-3.059h-8.191v6.434h8.666V52.938z"/>
		<path fill="#FFFFFF" d="M234.959,61.113l1.775-0.281l5.168-6.258l-4.992-6.012l-1.775-0.3v-3.094h8.561v2.972l-1.74,0.211
			l2.883,3.656l2.83-3.656l-1.775-0.211v-2.972h8.596v3.094l-1.723,0.3l-4.887,6.012l5.15,6.258l1.793,0.281v3.075h-8.701v-2.953
			l1.74-0.211l-2.953-3.832l-3.006,3.851l1.529,0.192v2.953h-8.473V61.113z"/>
		<path fill="#FFFFFF" d="M256.053,48.263v-3.094h7.453l0.246,2.215c0.562-0.82,1.236-1.453,2.021-1.898s1.699-0.668,2.742-0.668
			c2.355,0,4.184,0.921,5.484,2.761s1.951,4.259,1.951,7.259v0.37c0,2.812-0.65,5.074-1.951,6.785s-3.117,2.566-5.449,2.566
			c-0.996,0-1.881-0.185-2.654-0.554s-1.436-0.911-1.986-1.626v5.501l2.479,0.527v3.094h-10.072v-3.094l2.479-0.527V48.79
			L256.053,48.263z M270.818,54.837c0-1.793-0.299-3.246-0.896-4.359s-1.512-1.669-2.742-1.669c-0.773,0-1.433,0.157-1.978,0.474
			s-0.976,0.769-1.292,1.354v8.332c0.316,0.539,0.747,0.949,1.292,1.23s1.216,0.422,2.013,0.422c1.242,0,2.153-0.487,2.733-1.46
			s0.87-2.29,0.87-3.954V54.837z"/>
		<path fill="#FFFFFF" d="M278.623,61.113l2.461-0.527V48.79l-2.725-0.527v-3.094h7.506l0.229,2.777
			c0.445-0.984,1.02-1.751,1.723-2.302s1.518-0.827,2.443-0.827c0.27,0,0.554,0.021,0.853,0.062s0.548,0.09,0.747,0.148
			l-0.545,4.676l-2.109-0.052c-0.75,0-1.371,0.146-1.863,0.438s-0.867,0.71-1.125,1.249v9.246l2.461,0.527v3.075h-10.055V61.113z"/>
		<path fill="#FFFFFF" d="M302.16,64.559c-2.742,0-4.934-0.879-6.574-2.637s-2.461-3.991-2.461-6.698v-0.703
			c0-2.824,0.776-5.149,2.329-6.978s3.636-2.737,6.249-2.726c2.566,0,4.559,0.773,5.977,2.32s2.127,3.64,2.127,6.276v2.794h-11.355
			l-0.035,0.105c0.094,1.254,0.513,2.285,1.257,3.094s1.755,1.214,3.032,1.214c1.137,0,2.08-0.114,2.83-0.343s1.57-0.59,2.461-1.082
			l1.389,3.164c-0.785,0.621-1.802,1.144-3.05,1.565S303.695,64.559,302.16,64.559z M301.703,48.773c-0.949,0-1.699,0.363-2.25,1.09
			s-0.891,1.681-1.02,2.864l0.053,0.089h6.293v-0.457c0-1.09-0.255-1.96-0.765-2.61S302.734,48.773,301.703,48.773z"/>
		<path fill="#FFFFFF" d="M327.754,51.708h-3.445l-0.545-2.372c-0.352-0.281-0.794-0.516-1.327-0.703s-1.122-0.281-1.767-0.281
			c-0.902,0-1.617,0.202-2.145,0.606s-0.791,0.91-0.791,1.52c0,0.574,0.252,1.053,0.756,1.434s1.512,0.718,3.023,1.011
			c2.355,0.469,4.102,1.157,5.238,2.065s1.705,2.158,1.705,3.752c0,1.711-0.735,3.109-2.206,4.193s-3.407,1.626-5.81,1.626
			c-1.465,0-2.81-0.214-4.034-0.642s-2.312-1.041-3.261-1.838l-0.053-4.271h3.586l0.703,2.478c0.305,0.258,0.721,0.449,1.248,0.572
			s1.078,0.185,1.652,0.185c1.043,0,1.837-0.188,2.382-0.562s0.817-0.886,0.817-1.53c0-0.562-0.275-1.048-0.826-1.458
			s-1.564-0.773-3.041-1.09c-2.238-0.457-3.929-1.134-5.071-2.03s-1.714-2.118-1.714-3.665c0-1.594,0.656-2.968,1.969-4.122
			s3.182-1.732,5.607-1.732c1.477,0,2.874,0.199,4.192,0.598s2.353,0.909,3.103,1.53L327.754,51.708z"/>
		<path fill="#FFFFFF" d="M330.602,61.113l2.479-0.527V48.79l-2.742-0.527v-3.094h7.875v15.417l2.461,0.527v3.075h-10.072V61.113z
			 M338.213,40.617h-5.133v-3.851h5.133V40.617z"/>
		<path fill="#FFFFFF" d="M342.361,54.504c0-2.836,0.794-5.159,2.382-6.97s3.782-2.717,6.583-2.717c2.812,0,5.013,0.902,6.601,2.707
			s2.382,4.132,2.382,6.979v0.368c0,2.859-0.794,5.189-2.382,6.988s-3.776,2.698-6.565,2.698c-2.824,0-5.03-0.899-6.618-2.698
			s-2.382-4.129-2.382-6.988V54.504z M347.494,54.872c0,1.734,0.305,3.127,0.914,4.176s1.594,1.573,2.953,1.573
			c1.324,0,2.294-0.527,2.909-1.582s0.923-2.444,0.923-4.167v-0.368c0-1.688-0.311-3.065-0.932-4.132s-1.6-1.599-2.936-1.599
			s-2.309,0.532-2.918,1.599s-0.914,2.444-0.914,4.132V54.872z M351.748,37.751h5.432l0.035,0.105l-4.852,4.57h-4.113
			L351.748,37.751z"/>
		<path fill="#FFFFFF" d="M362.26,61.113l2.461-0.527V48.79l-2.725-0.527v-3.094h7.506l0.229,2.726
			c0.633-0.973,1.412-1.729,2.338-2.269s1.963-0.809,3.111-0.809c1.922,0,3.422,0.604,4.5,1.812s1.617,3.099,1.617,5.677v8.28
			l2.461,0.527v3.075h-9.809v-3.075l2.197-0.527v-8.262c0-1.277-0.258-2.183-0.773-2.716s-1.295-0.8-2.338-0.8
			c-0.68,0-1.289,0.138-1.828,0.413s-0.99,0.665-1.354,1.169v10.195l2.074,0.527v3.075h-9.668V61.113z"/>
	</g>
	<g>
		<path fill="#FFFFFF" d="M106.357,244.194l-2.092,0.299l3.973,8.402h0.105l3.973-8.402l-2.074-0.299v-3.094h9.686v3.094
			l-2.18,0.352l-6.961,13.148v5.396l2.742,0.527v3.076h-10.6v-3.076l2.742-0.527v-5.66l-6.838-12.885l-2.162-0.352v-3.094h9.686
			V244.194z"/>
		<path fill="#FFFFFF" d="M120.578,257.009c0-2.836,0.794-5.158,2.382-6.97c1.588-1.81,3.782-2.716,6.583-2.716
			c2.812,0,5.013,0.902,6.601,2.707s2.382,4.131,2.382,6.979v0.369c0,2.859-0.794,5.188-2.382,6.988
			c-1.588,1.798-3.776,2.697-6.565,2.697c-2.824,0-5.03-0.899-6.618-2.697c-1.588-1.8-2.382-4.129-2.382-6.988V257.009z
			 M125.711,257.378c0,1.734,0.305,3.126,0.914,4.176c0.609,1.048,1.594,1.572,2.953,1.572c1.324,0,2.294-0.527,2.909-1.582
			s0.923-2.443,0.923-4.166v-0.369c0-1.688-0.311-3.064-0.932-4.131s-1.6-1.6-2.936-1.6s-2.309,0.533-2.918,1.6
			s-0.914,2.443-0.914,4.131V257.378z"/>
	</g>
	<g>
		<path fill="#FFFFFF" d="M398.188,241.101c2.93,0,5.241,0.754,6.935,2.259c1.693,1.507,2.54,3.478,2.54,5.915
			c0,2.449-0.847,4.418-2.54,5.906s-4.005,2.232-6.935,2.232h-4.324v5.678l2.742,0.527v3.076h-10.6v-3.076l2.725-0.527v-18.369
			l-2.725-0.527v-3.094h2.725H398.188z M393.864,253.458h4.324c1.43,0,2.511-0.389,3.243-1.169c0.732-0.778,1.099-1.772,1.099-2.979
			c0-1.23-0.366-2.247-1.099-3.049c-0.732-0.804-1.813-1.205-3.243-1.205h-4.324V253.458z"/>
		<path fill="#FFFFFF" d="M409.808,263.618l2.461-0.527v-11.795l-2.725-0.527v-3.094h7.506l0.229,2.777
			c0.445-0.984,1.02-1.752,1.723-2.303s1.518-0.826,2.443-0.826c0.27,0,0.554,0.021,0.853,0.062c0.299,0.04,0.548,0.09,0.747,0.148
			l-0.545,4.676l-2.109-0.053c-0.75,0-1.371,0.146-1.863,0.439s-0.867,0.709-1.125,1.248v9.246l2.461,0.527v3.076h-10.055V263.618z"
			/>
		<path fill="#FFFFFF" d="M424.222,257.009c0-2.836,0.794-5.158,2.382-6.97c1.588-1.81,3.782-2.716,6.583-2.716
			c2.812,0,5.013,0.902,6.601,2.707s2.382,4.131,2.382,6.979v0.369c0,2.859-0.794,5.188-2.382,6.988
			c-1.588,1.798-3.776,2.697-6.565,2.697c-2.824,0-5.03-0.899-6.618-2.697c-1.588-1.8-2.382-4.129-2.382-6.988V257.009z
			 M429.354,257.378c0,1.734,0.305,3.126,0.914,4.176c0.609,1.048,1.594,1.572,2.953,1.572c1.324,0,2.294-0.527,2.909-1.582
			s0.923-2.443,0.923-4.166v-0.369c0-1.688-0.311-3.064-0.932-4.131s-1.6-1.6-2.936-1.6s-2.309,0.533-2.918,1.6
			s-0.914,2.443-0.914,4.131V257.378z"/>
		<path fill="#FFFFFF" d="M462.788,257.712c0,2.836-0.633,5.104-1.898,6.803s-3.094,2.549-5.484,2.549
			c-1.113,0-2.08-0.231-2.9-0.693c-0.82-0.464-1.512-1.135-2.074-2.014l-0.369,2.338h-4.43v-23.801l-2.725-0.527v-3.094h7.84v10.424
			c0.551-0.762,1.21-1.348,1.978-1.758s1.649-0.615,2.646-0.615c2.414,0,4.254,0.911,5.52,2.734c1.266,1.821,1.898,4.25,1.898,7.285
			V257.712z M457.673,257.343c0-1.852-0.272-3.319-0.817-4.402c-0.545-1.085-1.474-1.627-2.786-1.627
			c-0.797,0-1.471,0.167-2.021,0.502c-0.551,0.333-0.984,0.811-1.301,1.432v8.033c0.316,0.586,0.753,1.031,1.31,1.336
			s1.239,0.457,2.048,0.457c1.324,0,2.25-0.465,2.777-1.397c0.527-0.931,0.791-2.253,0.791-3.964V257.343z"/>
		<path fill="#FFFFFF" d="M464.265,242.366v-3.094h7.875v23.818l2.479,0.527v3.076h-10.09v-3.076l2.479-0.527v-20.197
			L464.265,242.366z"/>
		<path fill="#FFFFFF" d="M485.394,267.063c-2.742,0-4.934-0.879-6.574-2.637s-2.461-3.99-2.461-6.697v-0.703
			c0-2.824,0.776-5.15,2.329-6.979s3.636-2.736,6.249-2.725c2.566,0,4.559,0.773,5.977,2.32s2.127,3.639,2.127,6.275v2.795h-11.355
			l-0.035,0.105c0.094,1.254,0.513,2.285,1.257,3.094s1.755,1.213,3.032,1.213c1.137,0,2.08-0.114,2.83-0.342
			c0.75-0.229,1.57-0.59,2.461-1.082l1.389,3.164c-0.785,0.621-1.802,1.143-3.05,1.564S486.929,267.063,485.394,267.063z
			 M484.937,251.278c-0.949,0-1.699,0.363-2.25,1.09s-0.891,1.682-1.02,2.865l0.053,0.088h6.293v-0.457
			c0-1.09-0.255-1.959-0.765-2.61C486.738,251.604,485.968,251.278,484.937,251.278z"/>
		<path fill="#FFFFFF" d="M494.868,250.769v-3.094h7.506l0.211,2.514c0.609-0.914,1.374-1.619,2.294-2.118
			c0.92-0.497,1.983-0.747,3.19-0.747c1.219,0,2.262,0.27,3.129,0.809s1.523,1.354,1.969,2.443c0.586-1.02,1.348-1.816,2.285-2.391
			s2.039-0.861,3.305-0.861c1.875,0,3.354,0.648,4.438,1.942c1.083,1.296,1.626,3.267,1.626,5.915v7.91l2.479,0.527v3.076h-9.826
			v-3.076l2.215-0.527v-7.928c0-1.441-0.234-2.443-0.703-3.006s-1.166-0.844-2.092-0.844c-0.727,0-1.357,0.162-1.89,0.483
			c-0.534,0.323-0.958,0.771-1.274,1.345c0,0.223,0.006,0.413,0.018,0.572c0.012,0.157,0.018,0.318,0.018,0.482v8.895l2.074,0.527
			v3.076h-9.264v-3.076l2.074-0.527v-7.928c0-1.406-0.234-2.398-0.703-2.979c-0.469-0.579-1.172-0.87-2.109-0.87
			c-0.691,0-1.298,0.132-1.819,0.396c-0.521,0.263-0.952,0.635-1.292,1.115v10.266l2.215,0.527v3.076h-9.809v-3.076l2.479-0.527
			v-11.795L494.868,250.769z"/>
		<path fill="#FFFFFF" d="M541.063,266.694c-0.141-0.316-0.264-0.641-0.369-0.976c-0.105-0.333-0.188-0.671-0.246-1.011
			c-0.609,0.703-1.351,1.271-2.225,1.705c-0.872,0.434-1.871,0.65-2.996,0.65c-1.863,0-3.344-0.506-4.438-1.521
			c-1.097-1.013-1.644-2.394-1.644-4.14c0-1.781,0.715-3.158,2.145-4.131s3.527-1.459,6.293-1.459h2.619v-1.863
			c0-0.914-0.264-1.623-0.791-2.127s-1.307-0.756-2.338-0.756c-0.586,0-1.107,0.068-1.564,0.202
			c-0.457,0.136-0.826,0.296-1.107,0.483l-0.334,2.039H530.2l0.018-4.219c0.938-0.633,2.013-1.166,3.225-1.6
			c1.214-0.434,2.535-0.65,3.965-0.65c2.355,0,4.269,0.578,5.738,1.731c1.472,1.155,2.207,2.798,2.207,4.931v7.857
			c0,0.293,0.003,0.568,0.008,0.826c0.007,0.258,0.027,0.504,0.062,0.738l1.564,0.211v3.076H541.063z M536.616,263.267
			c0.773,0,1.477-0.166,2.109-0.501c0.633-0.333,1.125-0.753,1.477-1.257v-2.9h-2.619c-1.09,0-1.916,0.255-2.479,0.766
			c-0.562,0.509-0.844,1.121-0.844,1.836c0,0.645,0.208,1.148,0.623,1.512C535.301,263.085,535.878,263.267,536.616,263.267z"/>
	</g>
	<g>
		<path fill="#FFFFFF" d="M61.565,299.254h-5.777v4.875h5.508l0.152-2.039h2.602v4.664h-13.5v-2.051l1.816-0.352v-12.246
			l-1.816-0.352v-2.062h1.816h11.66v4.676h-2.625l-0.152-2.039h-5.461v4.289h5.777V299.254z"/>
		<path fill="#FFFFFF" d="M65.597,304.703l1.184-0.188l3.445-4.172l-3.328-4.008l-1.184-0.199v-2.062h5.707v1.98l-1.16,0.141
			l1.922,2.438l1.887-2.438l-1.184-0.141v-1.98h5.73v2.062l-1.148,0.199l-3.258,4.008l3.434,4.172l1.195,0.188v2.051h-5.801v-1.969
			l1.16-0.141l-1.969-2.555l-2.004,2.566l1.02,0.129v1.969h-5.648V304.703z"/>
		<path fill="#FFFFFF" d="M79.659,296.137v-2.062h4.969l0.164,1.477c0.375-0.547,0.825-0.969,1.348-1.266
			c0.523-0.297,1.133-0.445,1.828-0.445c1.57,0,2.789,0.613,3.656,1.84s1.301,2.84,1.301,4.84v0.246
			c0,1.875-0.434,3.383-1.301,4.523S89.546,307,87.991,307c-0.663,0-1.254-0.123-1.77-0.369s-0.956-0.607-1.324-1.084v3.668
			l1.652,0.352v2.062h-6.715v-2.062l1.652-0.352v-12.727L79.659,296.137z M89.503,300.52c0-1.195-0.199-2.164-0.598-2.906
			s-1.008-1.113-1.828-1.113c-0.516,0-0.955,0.105-1.318,0.316s-0.65,0.512-0.861,0.902v5.555c0.211,0.359,0.498,0.633,0.861,0.82
			s0.811,0.281,1.342,0.281c0.828,0,1.436-0.324,1.822-0.973s0.58-1.527,0.58-2.637V300.52z"/>
		<path fill="#FFFFFF" d="M100.519,307c-1.828,0-3.288-0.586-4.383-1.758c-1.094-1.172-1.641-2.66-1.641-4.465v-0.469
			c0-1.883,0.518-3.434,1.553-4.652c1.036-1.219,2.425-1.824,4.166-1.816c1.711,0,3.04,0.516,3.984,1.547
			c0.945,1.031,1.418,2.426,1.418,4.184v1.863h-7.57l-0.023,0.07c0.063,0.836,0.342,1.523,0.838,2.062
			c0.497,0.539,1.171,0.809,2.021,0.809c0.758,0,1.388-0.076,1.887-0.229c0.5-0.152,1.048-0.393,1.641-0.721l0.926,2.109
			c-0.522,0.414-1.201,0.762-2.033,1.043S101.543,307,100.519,307z M100.214,296.477c-0.633,0-1.132,0.242-1.5,0.727
			c-0.367,0.484-0.593,1.121-0.68,1.91l0.035,0.059h4.195v-0.305c0-0.727-0.17-1.307-0.51-1.74S100.901,296.477,100.214,296.477z"/>
		<path fill="#FFFFFF" d="M107.491,304.703l1.641-0.352v-7.863l-1.816-0.352v-2.062h5.004l0.152,1.852
			c0.298-0.656,0.68-1.168,1.148-1.535s1.013-0.551,1.629-0.551c0.181,0,0.369,0.013,0.568,0.041s0.365,0.061,0.498,0.1
			l-0.363,3.117l-1.406-0.035c-0.499,0-0.914,0.098-1.242,0.293s-0.578,0.473-0.75,0.832v6.164l1.641,0.352v2.051h-6.703V304.703z"
			/>
		<path fill="#FFFFFF" d="M117.229,304.703l1.652-0.352v-7.863l-1.828-0.352v-2.062h5.25v10.277l1.641,0.352v2.051h-6.715V304.703z
			 M122.304,291.039h-3.422v-2.566h3.422V291.039z"/>
		<path fill="#FFFFFF" d="M131.14,307c-1.828,0-3.288-0.586-4.383-1.758c-1.094-1.172-1.641-2.66-1.641-4.465v-0.469
			c0-1.883,0.518-3.434,1.553-4.652c1.036-1.219,2.425-1.824,4.166-1.816c1.711,0,3.04,0.516,3.984,1.547
			c0.945,1.031,1.418,2.426,1.418,4.184v1.863h-7.57l-0.023,0.07c0.063,0.836,0.342,1.523,0.838,2.062
			c0.497,0.539,1.171,0.809,2.021,0.809c0.758,0,1.388-0.076,1.887-0.229c0.5-0.152,1.048-0.393,1.641-0.721l0.926,2.109
			c-0.522,0.414-1.201,0.762-2.033,1.043S132.164,307,131.14,307z M130.835,296.477c-0.633,0-1.132,0.242-1.5,0.727
			c-0.367,0.484-0.593,1.121-0.68,1.91l0.035,0.059h4.195v-0.305c0-0.727-0.17-1.307-0.51-1.74S131.522,296.477,130.835,296.477z"/>
		<path fill="#FFFFFF" d="M137.667,304.703l1.641-0.352v-7.863l-1.816-0.352v-2.062h5.004l0.152,1.816
			c0.422-0.648,0.942-1.152,1.559-1.512c0.617-0.359,1.309-0.539,2.074-0.539c1.282,0,2.281,0.402,3,1.207
			c0.72,0.805,1.078,2.066,1.078,3.785v5.52l1.641,0.352v2.051h-6.539v-2.051l1.465-0.352v-5.508c0-0.852-0.171-1.454-0.516-1.811
			c-0.344-0.356-0.862-0.533-1.559-0.533c-0.452,0-0.859,0.093-1.219,0.275c-0.358,0.183-0.66,0.443-0.902,0.779v6.797l1.383,0.352
			v2.051h-6.445V304.703z"/>
		<path fill="#FFFFFF" d="M158.925,304.375c0.609,0,1.098-0.177,1.465-0.533c0.368-0.356,0.551-0.83,0.551-1.424h3.094l0.035,0.07
			c0.031,1.281-0.449,2.354-1.441,3.217c-0.991,0.862-2.227,1.295-3.703,1.295c-1.891,0-3.347-0.598-4.371-1.793
			c-1.023-1.195-1.535-2.73-1.535-4.605v-0.352c0-1.867,0.526-3.402,1.576-4.605c1.051-1.203,2.549-1.805,4.494-1.805
			c1.024,0,1.941,0.152,2.754,0.457c0.813,0.305,1.488,0.734,2.027,1.289l0.047,3.387h-2.777l-0.562-1.98
			c-0.171-0.148-0.382-0.271-0.633-0.369c-0.25-0.099-0.534-0.146-0.855-0.146c-0.968,0-1.652,0.352-2.051,1.055
			s-0.598,1.609-0.598,2.719v0.352c0,1.133,0.184,2.045,0.551,2.736C157.359,304.029,158.004,304.375,158.925,304.375z"/>
		<path fill="#FFFFFF" d="M165.511,304.703l1.652-0.352v-7.863l-1.828-0.352v-2.062h5.25v10.277l1.641,0.352v2.051h-6.715V304.703z
			 M170.585,291.039h-3.422v-2.566h3.422V291.039z"/>
		<path fill="#FFFFFF" d="M181.425,306.754c-0.094-0.211-0.176-0.428-0.246-0.65s-0.124-0.447-0.164-0.674
			c-0.405,0.469-0.9,0.848-1.482,1.137c-0.581,0.289-1.248,0.434-1.998,0.434c-1.242,0-2.228-0.339-2.959-1.014
			c-0.73-0.675-1.096-1.596-1.096-2.76c0-1.188,0.477-2.105,1.43-2.754c0.954-0.648,2.352-0.973,4.195-0.973h1.746v-1.242
			c0-0.609-0.176-1.082-0.527-1.418s-0.871-0.504-1.559-0.504c-0.391,0-0.738,0.046-1.043,0.135s-0.551,0.197-0.738,0.322
			l-0.223,1.359h-2.578l0.012-2.812c0.626-0.422,1.342-0.777,2.15-1.066s1.689-0.434,2.643-0.434c1.57,0,2.847,0.386,3.826,1.154
			c0.98,0.769,1.471,1.865,1.471,3.287v5.238c0,0.195,0.002,0.379,0.006,0.551c0.005,0.172,0.018,0.336,0.041,0.492l1.043,0.141
			v2.051H181.425z M178.46,304.469c0.516,0,0.984-0.111,1.406-0.334s0.75-0.502,0.984-0.838v-1.934h-1.746
			c-0.727,0-1.277,0.17-1.652,0.51s-0.562,0.748-0.562,1.225c0,0.43,0.14,0.766,0.416,1.008
			C177.583,304.348,177.968,304.469,178.46,304.469z"/>
		<path fill="#FFFFFF" d="M56.901,320.554v-2.062h7.066v2.062l-1.828,0.352v12.246l1.828,0.352v2.051h-7.066v-2.051l1.828-0.352
			v-12.246L56.901,320.554z"/>
		<path fill="#FFFFFF" d="M65.163,333.503l1.641-0.352v-7.863l-1.816-0.352v-2.062h5.004l0.152,1.816
			c0.422-0.647,0.942-1.151,1.559-1.512c0.617-0.359,1.309-0.539,2.074-0.539c1.282,0,2.281,0.402,3,1.207
			c0.72,0.806,1.078,2.066,1.078,3.785v5.52l1.641,0.352v2.051h-6.539v-2.051l1.465-0.352v-5.508c0-0.852-0.171-1.454-0.516-1.811
			c-0.344-0.356-0.862-0.533-1.559-0.533c-0.452,0-0.859,0.093-1.219,0.275c-0.358,0.183-0.66,0.443-0.902,0.779v6.797l1.383,0.352
			v2.051h-6.445V333.503z"/>
		<path fill="#FFFFFF" d="M85.636,319.769v3.105h2.227v2.402h-2.227v6.457c0,0.492,0.102,0.844,0.305,1.055
			c0.204,0.211,0.477,0.316,0.82,0.316c0.234,0,0.439-0.011,0.615-0.029s0.374-0.053,0.592-0.1l0.293,2.473
			c-0.382,0.117-0.762,0.205-1.137,0.264s-0.78,0.088-1.219,0.088c-1.179,0-2.087-0.324-2.725-0.973
			c-0.637-0.647-0.955-1.676-0.955-3.082v-6.469h-1.863v-2.402h1.863v-3.105H85.636z"/>
		<path fill="#FFFFFF" d="M95.608,335.8c-1.828,0-3.288-0.586-4.383-1.758c-1.094-1.172-1.641-2.66-1.641-4.465v-0.469
			c0-1.883,0.518-3.434,1.553-4.652c1.036-1.219,2.425-1.824,4.166-1.816c1.711,0,3.04,0.516,3.984,1.547
			c0.945,1.031,1.418,2.426,1.418,4.184v1.863h-7.57l-0.023,0.07c0.063,0.836,0.342,1.523,0.838,2.062
			c0.497,0.539,1.171,0.809,2.021,0.809c0.758,0,1.388-0.076,1.887-0.229c0.5-0.152,1.048-0.393,1.641-0.721l0.926,2.109
			c-0.522,0.414-1.201,0.762-2.033,1.043S96.633,335.8,95.608,335.8z M95.304,325.276c-0.633,0-1.132,0.243-1.5,0.727
			c-0.367,0.484-0.593,1.122-0.68,1.91l0.035,0.059h4.195v-0.305c0-0.727-0.17-1.307-0.51-1.74S95.991,325.276,95.304,325.276z"/>
		<path fill="#FFFFFF" d="M101.96,319.335v-2.062h5.25v15.879l1.652,0.352v2.051h-6.727v-2.051l1.652-0.352v-13.465L101.96,319.335z
			"/>
		<path fill="#FFFFFF" d="M116.046,335.8c-1.828,0-3.288-0.586-4.383-1.758c-1.094-1.172-1.641-2.66-1.641-4.465v-0.469
			c0-1.883,0.518-3.434,1.553-4.652c1.036-1.219,2.425-1.824,4.166-1.816c1.711,0,3.04,0.516,3.984,1.547
			c0.945,1.031,1.418,2.426,1.418,4.184v1.863h-7.57l-0.023,0.07c0.063,0.836,0.342,1.523,0.838,2.062
			c0.497,0.539,1.171,0.809,2.021,0.809c0.758,0,1.388-0.076,1.887-0.229c0.5-0.152,1.048-0.393,1.641-0.721l0.926,2.109
			c-0.522,0.414-1.201,0.762-2.033,1.043S117.07,335.8,116.046,335.8z M115.741,325.276c-0.633,0-1.132,0.243-1.5,0.727
			c-0.367,0.484-0.593,1.122-0.68,1.91l0.035,0.059h4.195v-0.305c0-0.727-0.17-1.307-0.51-1.74S116.429,325.276,115.741,325.276z"/>
		<path fill="#FFFFFF" d="M128.714,333.175c0.609,0,1.098-0.177,1.465-0.533c0.368-0.356,0.551-0.829,0.551-1.424h3.094l0.035,0.07
			c0.031,1.281-0.449,2.354-1.441,3.217c-0.991,0.862-2.227,1.295-3.703,1.295c-1.891,0-3.347-0.598-4.371-1.793
			c-1.023-1.195-1.535-2.73-1.535-4.605v-0.352c0-1.866,0.526-3.401,1.576-4.605c1.051-1.203,2.549-1.805,4.494-1.805
			c1.024,0,1.941,0.152,2.754,0.457c0.813,0.305,1.488,0.735,2.027,1.289l0.047,3.387h-2.777l-0.562-1.98
			c-0.171-0.148-0.382-0.271-0.633-0.369c-0.25-0.099-0.534-0.146-0.855-0.146c-0.968,0-1.652,0.352-2.051,1.055
			s-0.598,1.609-0.598,2.719v0.352c0,1.134,0.184,2.045,0.551,2.736C127.148,332.829,127.793,333.175,128.714,333.175z"/>
		<path fill="#FFFFFF" d="M140.456,319.769v3.105h2.227v2.402h-2.227v6.457c0,0.492,0.102,0.844,0.305,1.055
			c0.204,0.211,0.477,0.316,0.82,0.316c0.234,0,0.439-0.011,0.615-0.029s0.374-0.053,0.592-0.1l0.293,2.473
			c-0.382,0.117-0.762,0.205-1.137,0.264s-0.78,0.088-1.219,0.088c-1.179,0-2.087-0.324-2.725-0.973
			c-0.637-0.647-0.955-1.676-0.955-3.082v-6.469h-1.863v-2.402h1.863v-3.105H140.456z"/>
		<path fill="#FFFFFF" d="M153.229,333.948c-0.405,0.595-0.908,1.052-1.506,1.371c-0.598,0.32-1.278,0.48-2.045,0.48
			c-1.336,0-2.383-0.428-3.141-1.283c-0.757-0.855-1.137-2.186-1.137-3.99v-5.238l-1.395-0.352v-2.062h1.395h3.422v7.676
			c0,0.923,0.154,1.583,0.463,1.986c0.31,0.403,0.768,0.604,1.377,0.604c0.539,0,1.007-0.088,1.4-0.264
			c0.395-0.176,0.717-0.428,0.967-0.756v-6.832l-1.5-0.352v-2.062h1.5h3.422v10.277l1.535,0.352v2.051h-4.535L153.229,333.948z"/>
		<path fill="#FFFFFF" d="M167.409,335.554c-0.094-0.211-0.176-0.428-0.246-0.65s-0.124-0.447-0.164-0.674
			c-0.405,0.469-0.9,0.848-1.482,1.137c-0.581,0.29-1.248,0.434-1.998,0.434c-1.242,0-2.228-0.339-2.959-1.014
			c-0.73-0.675-1.096-1.596-1.096-2.76c0-1.187,0.477-2.105,1.43-2.754c0.954-0.647,2.352-0.973,4.195-0.973h1.746v-1.242
			c0-0.609-0.176-1.081-0.527-1.418c-0.352-0.336-0.871-0.504-1.559-0.504c-0.391,0-0.738,0.046-1.043,0.135
			s-0.551,0.197-0.738,0.322l-0.223,1.359h-2.578l0.012-2.812c0.626-0.422,1.342-0.776,2.15-1.066
			c0.809-0.289,1.689-0.434,2.643-0.434c1.57,0,2.847,0.386,3.826,1.154c0.98,0.769,1.471,1.866,1.471,3.287v5.238
			c0,0.196,0.002,0.379,0.006,0.551c0.005,0.173,0.018,0.337,0.041,0.492l1.043,0.141v2.051H167.409z M164.444,333.269
			c0.516,0,0.984-0.111,1.406-0.334s0.75-0.501,0.984-0.838v-1.934h-1.746c-0.727,0-1.277,0.17-1.652,0.51s-0.562,0.748-0.562,1.225
			c0,0.431,0.14,0.766,0.416,1.008C163.567,333.148,163.952,333.269,164.444,333.269z"/>
		<path fill="#FFFFFF" d="M172.155,319.335v-2.062h5.25v15.879l1.652,0.352v2.051h-6.727v-2.051l1.652-0.352v-13.465
			L172.155,319.335z"/>
	</g>
	<g>
		<path fill="#FFFFFF" d="M410.042,299.254h-5.777v4.875h5.508l0.152-2.039h2.602v4.664h-13.5v-2.051l1.816-0.352v-12.246
			l-1.816-0.352v-2.062h1.816h11.66v4.676h-2.625l-0.152-2.039h-5.461v4.289h5.777V299.254z"/>
		<path fill="#FFFFFF" d="M414.073,304.703l1.184-0.188l3.445-4.172l-3.328-4.008l-1.184-0.199v-2.062h5.707v1.98l-1.16,0.141
			l1.922,2.438l1.887-2.438l-1.184-0.141v-1.98h5.73v2.062l-1.148,0.199l-3.258,4.008l3.434,4.172l1.195,0.188v2.051h-5.801v-1.969
			l1.16-0.141l-1.969-2.555l-2.004,2.566l1.02,0.129v1.969h-5.648V304.703z"/>
		<path fill="#FFFFFF" d="M428.136,296.137v-2.062h4.969l0.164,1.477c0.375-0.547,0.824-0.969,1.348-1.266
			c0.522-0.297,1.132-0.445,1.828-0.445c1.57,0,2.789,0.613,3.656,1.84s1.301,2.84,1.301,4.84v0.246
			c0,1.875-0.434,3.383-1.301,4.523S438.021,307,436.468,307c-0.664,0-1.254-0.123-1.77-0.369s-0.957-0.607-1.324-1.084v3.668
			l1.652,0.352v2.062h-6.715v-2.062l1.652-0.352v-12.727L428.136,296.137z M437.979,300.52c0-1.195-0.199-2.164-0.598-2.906
			s-1.008-1.113-1.828-1.113c-0.516,0-0.955,0.105-1.318,0.316s-0.65,0.512-0.861,0.902v5.555c0.211,0.359,0.498,0.633,0.861,0.82
			s0.81,0.281,1.342,0.281c0.827,0,1.436-0.324,1.822-0.973s0.58-1.527,0.58-2.637V300.52z"/>
		<path fill="#FFFFFF" d="M448.995,307c-1.828,0-3.289-0.586-4.383-1.758c-1.095-1.172-1.641-2.66-1.641-4.465v-0.469
			c0-1.883,0.517-3.434,1.553-4.652c1.035-1.219,2.424-1.824,4.166-1.816c1.711,0,3.039,0.516,3.984,1.547
			c0.944,1.031,1.418,2.426,1.418,4.184v1.863h-7.57l-0.023,0.07c0.062,0.836,0.341,1.523,0.838,2.062
			c0.496,0.539,1.17,0.809,2.021,0.809c0.757,0,1.387-0.076,1.887-0.229c0.499-0.152,1.047-0.393,1.641-0.721l0.926,2.109
			c-0.523,0.414-1.201,0.762-2.033,1.043S450.019,307,448.995,307z M448.69,296.477c-0.633,0-1.133,0.242-1.5,0.727
			c-0.368,0.484-0.594,1.121-0.68,1.91l0.035,0.059h4.195v-0.305c0-0.727-0.17-1.307-0.51-1.74S449.377,296.477,448.69,296.477z"/>
		<path fill="#FFFFFF" d="M455.968,304.703l1.641-0.352v-7.863l-1.816-0.352v-2.062h5.004l0.152,1.852
			c0.297-0.656,0.68-1.168,1.148-1.535s1.012-0.551,1.629-0.551c0.18,0,0.369,0.013,0.568,0.041s0.364,0.061,0.498,0.1l-0.363,3.117
			l-1.406-0.035c-0.5,0-0.914,0.098-1.242,0.293s-0.579,0.473-0.75,0.832v6.164l1.641,0.352v2.051h-6.703V304.703z"/>
		<path fill="#FFFFFF" d="M465.706,304.703l1.652-0.352v-7.863l-1.828-0.352v-2.062h5.25v10.277l1.641,0.352v2.051h-6.715V304.703z
			 M470.78,291.039h-3.422v-2.566h3.422V291.039z"/>
		<path fill="#FFFFFF" d="M479.616,307c-1.828,0-3.289-0.586-4.383-1.758c-1.095-1.172-1.641-2.66-1.641-4.465v-0.469
			c0-1.883,0.517-3.434,1.553-4.652c1.035-1.219,2.424-1.824,4.166-1.816c1.711,0,3.039,0.516,3.984,1.547
			c0.944,1.031,1.418,2.426,1.418,4.184v1.863h-7.57l-0.023,0.07c0.062,0.836,0.341,1.523,0.838,2.062
			c0.496,0.539,1.17,0.809,2.021,0.809c0.757,0,1.387-0.076,1.887-0.229c0.499-0.152,1.047-0.393,1.641-0.721l0.926,2.109
			c-0.523,0.414-1.201,0.762-2.033,1.043S480.64,307,479.616,307z M479.312,296.477c-0.633,0-1.133,0.242-1.5,0.727
			c-0.368,0.484-0.594,1.121-0.68,1.91l0.035,0.059h4.195v-0.305c0-0.727-0.17-1.307-0.51-1.74S479.998,296.477,479.312,296.477z"/>
		<path fill="#FFFFFF" d="M486.144,304.703l1.641-0.352v-7.863l-1.816-0.352v-2.062h5.004l0.152,1.816
			c0.422-0.648,0.941-1.152,1.559-1.512c0.616-0.359,1.308-0.539,2.074-0.539c1.281,0,2.28,0.402,3,1.207
			c0.719,0.805,1.078,2.066,1.078,3.785v5.52l1.641,0.352v2.051h-6.539v-2.051l1.465-0.352v-5.508c0-0.852-0.172-1.454-0.516-1.811
			c-0.345-0.356-0.863-0.533-1.559-0.533c-0.453,0-0.86,0.093-1.219,0.275c-0.359,0.183-0.661,0.443-0.902,0.779v6.797l1.383,0.352
			v2.051h-6.445V304.703z"/>
		<path fill="#FFFFFF" d="M507.401,304.375c0.609,0,1.097-0.177,1.465-0.533c0.367-0.356,0.551-0.83,0.551-1.424h3.094l0.035,0.07
			c0.03,1.281-0.45,2.354-1.441,3.217c-0.992,0.862-2.227,1.295-3.703,1.295c-1.892,0-3.348-0.598-4.371-1.793
			c-1.024-1.195-1.535-2.73-1.535-4.605v-0.352c0-1.867,0.525-3.402,1.576-4.605c1.05-1.203,2.549-1.805,4.494-1.805
			c1.023,0,1.94,0.152,2.754,0.457c0.812,0.305,1.488,0.734,2.027,1.289l0.047,3.387h-2.777l-0.562-1.98
			c-0.172-0.148-0.383-0.271-0.633-0.369c-0.251-0.099-0.535-0.146-0.855-0.146c-0.969,0-1.652,0.352-2.051,1.055
			s-0.598,1.609-0.598,2.719v0.352c0,1.133,0.183,2.045,0.551,2.736C505.835,304.029,506.479,304.375,507.401,304.375z"/>
		<path fill="#FFFFFF" d="M513.987,304.703l1.652-0.352v-7.863l-1.828-0.352v-2.062h5.25v10.277l1.641,0.352v2.051h-6.715V304.703z
			 M519.062,291.039h-3.422v-2.566h3.422V291.039z"/>
		<path fill="#FFFFFF" d="M529.901,306.754c-0.094-0.211-0.176-0.428-0.246-0.65s-0.125-0.447-0.164-0.674
			c-0.406,0.469-0.9,0.848-1.482,1.137c-0.583,0.289-1.248,0.434-1.998,0.434c-1.242,0-2.229-0.339-2.959-1.014
			c-0.73-0.675-1.096-1.596-1.096-2.76c0-1.188,0.476-2.105,1.43-2.754c0.953-0.648,2.351-0.973,4.195-0.973h1.746v-1.242
			c0-0.609-0.176-1.082-0.527-1.418s-0.872-0.504-1.559-0.504c-0.392,0-0.738,0.046-1.043,0.135s-0.551,0.197-0.738,0.322
			l-0.223,1.359h-2.578l0.012-2.812c0.625-0.422,1.342-0.777,2.15-1.066s1.688-0.434,2.643-0.434c1.57,0,2.845,0.386,3.826,1.154
			c0.98,0.769,1.471,1.865,1.471,3.287v5.238c0,0.195,0.002,0.379,0.006,0.551c0.003,0.172,0.018,0.336,0.041,0.492l1.043,0.141
			v2.051H529.901z M526.937,304.469c0.516,0,0.984-0.111,1.406-0.334s0.75-0.502,0.984-0.838v-1.934h-1.746
			c-0.727,0-1.277,0.17-1.652,0.51s-0.562,0.748-0.562,1.225c0,0.43,0.138,0.766,0.416,1.008
			C526.06,304.348,526.444,304.469,526.937,304.469z"/>
		<path fill="#FFFFFF" d="M428.229,318.491c1.952,0,3.493,0.503,4.623,1.506c1.129,1.003,1.693,2.318,1.693,3.943
			c0,1.633-0.564,2.945-1.693,3.938c-1.13,0.993-2.671,1.488-4.623,1.488h-2.883v3.785l1.828,0.352v2.051h-7.066v-2.051l1.816-0.352
			v-12.246l-1.816-0.352v-2.062h1.816H428.229z M425.347,326.729h2.883c0.953,0,1.674-0.259,2.162-0.779
			c0.487-0.521,0.732-1.181,0.732-1.986c0-0.82-0.245-1.499-0.732-2.033c-0.488-0.534-1.209-0.803-2.162-0.803h-2.883V326.729z"/>
		<path fill="#FFFFFF" d="M435.976,333.503l1.641-0.352v-7.863l-1.816-0.352v-2.062h5.004l0.152,1.852
			c0.297-0.656,0.68-1.168,1.148-1.535c0.469-0.366,1.012-0.551,1.629-0.551c0.18,0,0.369,0.013,0.568,0.041s0.364,0.062,0.498,0.1
			l-0.363,3.117l-1.406-0.035c-0.5,0-0.914,0.098-1.242,0.293c-0.328,0.196-0.579,0.473-0.75,0.832v6.164l1.641,0.352v2.051h-6.703
			V333.503z"/>
		<path fill="#FFFFFF" d="M453.659,335.554c-0.094-0.211-0.176-0.428-0.246-0.65s-0.125-0.447-0.164-0.674
			c-0.406,0.469-0.901,0.848-1.482,1.137c-0.582,0.29-1.248,0.434-1.998,0.434c-1.242,0-2.229-0.339-2.959-1.014
			c-0.731-0.675-1.096-1.596-1.096-2.76c0-1.187,0.476-2.105,1.43-2.754c0.953-0.647,2.351-0.973,4.195-0.973h1.746v-1.242
			c0-0.609-0.176-1.081-0.527-1.418c-0.352-0.336-0.872-0.504-1.559-0.504c-0.392,0-0.738,0.046-1.043,0.135
			s-0.551,0.197-0.738,0.322l-0.223,1.359h-2.578l0.012-2.812c0.625-0.422,1.342-0.776,2.15-1.066
			c0.809-0.289,1.688-0.434,2.643-0.434c1.57,0,2.846,0.386,3.826,1.154c0.979,0.769,1.471,1.866,1.471,3.287v5.238
			c0,0.196,0.001,0.379,0.006,0.551c0.004,0.173,0.018,0.337,0.041,0.492l1.043,0.141v2.051H453.659z M450.694,333.269
			c0.516,0,0.984-0.111,1.406-0.334s0.75-0.501,0.984-0.838v-1.934h-1.746c-0.727,0-1.277,0.17-1.652,0.51s-0.562,0.748-0.562,1.225
			c0,0.431,0.139,0.766,0.416,1.008C449.816,333.148,450.202,333.269,450.694,333.269z M451.843,317.952h3.621l0.023,0.07
			l-3.234,3.047h-2.742L451.843,317.952z"/>
		<path fill="#FFFFFF" d="M464.722,333.175c0.609,0,1.097-0.177,1.465-0.533c0.367-0.356,0.551-0.829,0.551-1.424h3.094l0.035,0.07
			c0.03,1.281-0.45,2.354-1.441,3.217c-0.992,0.862-2.227,1.295-3.703,1.295c-1.892,0-3.348-0.598-4.371-1.793
			c-1.024-1.195-1.535-2.73-1.535-4.605v-0.352c0-1.866,0.525-3.401,1.576-4.605c1.05-1.203,2.549-1.805,4.494-1.805
			c1.023,0,1.94,0.152,2.754,0.457c0.812,0.305,1.488,0.735,2.027,1.289l0.047,3.387h-2.777l-0.562-1.98
			c-0.172-0.148-0.383-0.271-0.633-0.369c-0.251-0.099-0.535-0.146-0.855-0.146c-0.969,0-1.652,0.352-2.051,1.055
			s-0.598,1.609-0.598,2.719v0.352c0,1.134,0.183,2.045,0.551,2.736C463.155,332.829,463.8,333.175,464.722,333.175z"/>
		<path fill="#FFFFFF" d="M476.464,319.769v3.105h2.227v2.402h-2.227v6.457c0,0.492,0.101,0.844,0.305,1.055
			c0.203,0.211,0.476,0.316,0.82,0.316c0.234,0,0.439-0.011,0.615-0.029s0.373-0.053,0.592-0.1l0.293,2.473
			c-0.383,0.117-0.762,0.205-1.137,0.264s-0.781,0.088-1.219,0.088c-1.18,0-2.088-0.324-2.725-0.973
			c-0.638-0.647-0.955-1.676-0.955-3.082v-6.469h-1.863v-2.402h1.863v-3.105H476.464z"/>
		<path fill="#FFFFFF" d="M480.261,333.503l1.652-0.352v-7.863l-1.828-0.352v-2.062h5.25v10.277l1.641,0.352v2.051h-6.715V333.503z
			 M485.335,319.839h-3.422v-2.566h3.422V319.839z"/>
		<path fill="#FFFFFF" d="M494.054,333.175c0.609,0,1.097-0.177,1.465-0.533c0.367-0.356,0.551-0.829,0.551-1.424h3.094l0.035,0.07
			c0.03,1.281-0.45,2.354-1.441,3.217c-0.992,0.862-2.227,1.295-3.703,1.295c-1.892,0-3.348-0.598-4.371-1.793
			c-1.024-1.195-1.535-2.73-1.535-4.605v-0.352c0-1.866,0.525-3.401,1.576-4.605c1.05-1.203,2.549-1.805,4.494-1.805
			c1.023,0,1.94,0.152,2.754,0.457c0.812,0.305,1.488,0.735,2.027,1.289l0.047,3.387h-2.777l-0.562-1.98
			c-0.172-0.148-0.383-0.271-0.633-0.369c-0.251-0.099-0.535-0.146-0.855-0.146c-0.969,0-1.652,0.352-2.051,1.055
			s-0.598,1.609-0.598,2.719v0.352c0,1.134,0.183,2.045,0.551,2.736C492.487,332.829,493.132,333.175,494.054,333.175z"/>
		<path fill="#FFFFFF" d="M508.819,335.554c-0.094-0.211-0.176-0.428-0.246-0.65s-0.125-0.447-0.164-0.674
			c-0.406,0.469-0.9,0.848-1.482,1.137c-0.582,0.29-1.248,0.434-1.998,0.434c-1.242,0-2.229-0.339-2.959-1.014
			c-0.731-0.675-1.096-1.596-1.096-2.76c0-1.187,0.476-2.105,1.43-2.754c0.953-0.647,2.351-0.973,4.195-0.973h1.746v-1.242
			c0-0.609-0.176-1.081-0.527-1.418c-0.352-0.336-0.872-0.504-1.559-0.504c-0.392,0-0.738,0.046-1.043,0.135
			s-0.551,0.197-0.738,0.322l-0.223,1.359h-2.578l0.012-2.812c0.625-0.422,1.342-0.776,2.15-1.066
			c0.809-0.289,1.688-0.434,2.643-0.434c1.57,0,2.845,0.386,3.826,1.154c0.98,0.769,1.471,1.866,1.471,3.287v5.238
			c0,0.196,0.002,0.379,0.006,0.551c0.003,0.173,0.018,0.337,0.041,0.492l1.043,0.141v2.051H508.819z M505.854,333.269
			c0.516,0,0.984-0.111,1.406-0.334s0.75-0.501,0.984-0.838v-1.934h-1.746c-0.727,0-1.277,0.17-1.652,0.51s-0.562,0.748-0.562,1.225
			c0,0.431,0.139,0.766,0.416,1.008C504.977,333.148,505.362,333.269,505.854,333.269z"/>
	</g>
	<g>
		<path fill="#FFFFFF" d="M211.325,521.688v-3.094h10.6v3.094l-2.742,0.527v18.37l2.742,0.527v3.075h-10.6v-3.075l2.742-0.527
			v-18.37L211.325,521.688z"/>
		<path fill="#FFFFFF" d="M223.401,528.263v-3.094h7.506l0.211,2.515c0.609-0.914,1.374-1.62,2.294-2.118s1.983-0.748,3.19-0.748
			c1.219,0,2.262,0.27,3.129,0.809s1.523,1.354,1.969,2.444c0.586-1.02,1.348-1.816,2.285-2.391s2.039-0.862,3.305-0.862
			c1.875,0,3.354,0.648,4.438,1.943s1.626,3.267,1.626,5.915v7.91l2.479,0.527v3.075h-9.826v-3.075l2.215-0.527v-7.929
			c0-1.441-0.234-2.442-0.703-3.005s-1.166-0.844-2.092-0.844c-0.727,0-1.356,0.161-1.89,0.483s-0.958,0.771-1.274,1.345
			c0,0.223,0.006,0.413,0.018,0.571s0.018,0.319,0.018,0.483v8.895l2.074,0.527v3.075h-9.264v-3.075l2.074-0.527v-7.929
			c0-1.406-0.234-2.398-0.703-2.979s-1.172-0.87-2.109-0.87c-0.691,0-1.298,0.132-1.819,0.396s-0.952,0.636-1.292,1.116v10.266
			l2.215,0.527v3.075h-9.809v-3.075l2.479-0.527V528.79L223.401,528.263z"/>
		<path fill="#FFFFFF" d="M257.099,528.263v-3.094h7.453l0.246,2.215c0.562-0.82,1.236-1.453,2.021-1.898s1.699-0.668,2.742-0.668
			c2.355,0,4.184,0.921,5.484,2.761s1.951,4.259,1.951,7.259v0.37c0,2.812-0.65,5.074-1.951,6.785s-3.117,2.566-5.449,2.566
			c-0.996,0-1.881-0.185-2.654-0.554s-1.436-0.911-1.986-1.626v5.501l2.479,0.527v3.094h-10.072v-3.094l2.479-0.527v-19.09
			L257.099,528.263z M271.864,534.837c0-1.793-0.299-3.246-0.896-4.359s-1.512-1.669-2.742-1.669c-0.773,0-1.433,0.157-1.978,0.474
			s-0.976,0.769-1.292,1.354v8.332c0.316,0.539,0.747,0.949,1.292,1.23s1.216,0.422,2.013,0.422c1.242,0,2.153-0.487,2.733-1.46
			s0.87-2.29,0.87-3.954V534.837z"/>
		<path fill="#FFFFFF" d="M279.669,541.113l2.461-0.527V528.79l-2.725-0.527v-3.094h7.506l0.229,2.777
			c0.445-0.984,1.02-1.751,1.723-2.302s1.518-0.827,2.443-0.827c0.27,0,0.554,0.021,0.853,0.062s0.548,0.09,0.747,0.148
			l-0.545,4.676l-2.109-0.052c-0.75,0-1.371,0.146-1.863,0.438s-0.867,0.71-1.125,1.249v9.246l2.461,0.527v3.075h-10.055V541.113z"
			/>
		<path fill="#FFFFFF" d="M303.206,544.559c-2.742,0-4.934-0.879-6.574-2.637s-2.461-3.991-2.461-6.698v-0.703
			c0-2.824,0.776-5.149,2.329-6.978s3.636-2.737,6.249-2.726c2.566,0,4.559,0.773,5.977,2.32s2.127,3.64,2.127,6.276v2.794h-11.355
			l-0.035,0.105c0.094,1.254,0.513,2.285,1.257,3.094s1.755,1.214,3.032,1.214c1.137,0,2.08-0.114,2.83-0.343s1.57-0.59,2.461-1.082
			l1.389,3.164c-0.785,0.621-1.802,1.144-3.05,1.565S304.741,544.559,303.206,544.559z M302.749,528.773
			c-0.949,0-1.699,0.363-2.25,1.09s-0.891,1.681-1.02,2.864l0.053,0.089h6.293v-0.457c0-1.09-0.255-1.96-0.765-2.61
			S303.78,528.773,302.749,528.773z"/>
		<path fill="#FFFFFF" d="M328.8,531.708h-3.445l-0.545-2.372c-0.352-0.281-0.794-0.516-1.327-0.703s-1.122-0.281-1.767-0.281
			c-0.902,0-1.617,0.202-2.145,0.606s-0.791,0.91-0.791,1.52c0,0.574,0.252,1.053,0.756,1.434s1.512,0.718,3.023,1.011
			c2.355,0.469,4.102,1.157,5.238,2.065s1.705,2.158,1.705,3.752c0,1.711-0.735,3.109-2.206,4.193s-3.407,1.626-5.81,1.626
			c-1.465,0-2.81-0.214-4.034-0.642s-2.312-1.041-3.261-1.838l-0.053-4.271h3.586l0.703,2.478c0.305,0.258,0.721,0.449,1.248,0.572
			s1.078,0.185,1.652,0.185c1.043,0,1.837-0.188,2.382-0.562s0.817-0.886,0.817-1.53c0-0.562-0.275-1.048-0.826-1.458
			s-1.564-0.773-3.041-1.09c-2.238-0.457-3.929-1.134-5.071-2.03s-1.714-2.118-1.714-3.665c0-1.594,0.656-2.968,1.969-4.122
			s3.182-1.732,5.607-1.732c1.477,0,2.874,0.199,4.192,0.598s2.353,0.909,3.103,1.53L328.8,531.708z"/>
		<path fill="#FFFFFF" d="M331.647,541.113l2.479-0.527V528.79l-2.742-0.527v-3.094h7.875v15.417l2.461,0.527v3.075h-10.072V541.113
			z M339.259,520.617h-5.133v-3.851h5.133V520.617z"/>
		<path fill="#FFFFFF" d="M343.407,534.504c0-2.836,0.794-5.159,2.382-6.97s3.782-2.717,6.583-2.717
			c2.812,0,5.013,0.902,6.601,2.707s2.382,4.132,2.382,6.979v0.368c0,2.859-0.794,5.189-2.382,6.988s-3.776,2.698-6.565,2.698
			c-2.824,0-5.03-0.899-6.618-2.698s-2.382-4.129-2.382-6.988V534.504z M348.54,534.872c0,1.734,0.305,3.127,0.914,4.176
			s1.594,1.573,2.953,1.573c1.324,0,2.294-0.527,2.909-1.582s0.923-2.444,0.923-4.167v-0.368c0-1.688-0.311-3.065-0.932-4.132
			s-1.6-1.599-2.936-1.599s-2.309,0.532-2.918,1.599s-0.914,2.444-0.914,4.132V534.872z M352.794,517.751h5.432l0.035,0.105
			l-4.852,4.57h-4.113L352.794,517.751z"/>
		<path fill="#FFFFFF" d="M363.306,541.113l2.461-0.527V528.79l-2.725-0.527v-3.094h7.506l0.229,2.726
			c0.633-0.973,1.412-1.729,2.338-2.269s1.963-0.809,3.111-0.809c1.922,0,3.422,0.604,4.5,1.812s1.617,3.099,1.617,5.677v8.28
			l2.461,0.527v3.075h-9.809v-3.075l2.197-0.527v-8.262c0-1.277-0.258-2.183-0.773-2.716s-1.295-0.8-2.338-0.8
			c-0.68,0-1.289,0.138-1.828,0.413s-0.99,0.665-1.354,1.169v10.195l2.074,0.527v3.075h-9.668V541.113z"/>
	</g>
	<g>
		<path fill="#FFFFFF" d="M299.163,279.888c0,6.293-5.016,11.398-8.77,11.398c-4.47,0-8.768-5.105-8.768-11.398
			c0-6.296,2.442-11.4,8.768-11.4C296.932,268.487,299.163,273.592,299.163,279.888z"/>
		<path fill="#FFFFFF" d="M299.709,297.297c-8.615-3.321-4.873-10.311-4.873-10.311l-4.831-6.176l-4.847,6.104
			c0,0,3.733,7.073-4.883,10.395c-7.453,2.876-11.79,4.645-13.556,16.523h23.285h23.252
			C311.491,301.953,307.162,300.173,299.709,297.297z"/>
	</g>
</g>
<g id="esp-colectivo">
</g>
</svg>
