<?xml version="1.0" encoding="utf-8"?>
<!-- Generator: Adobe Illustrator 16.0.0, SVG Export Plug-In . SVG Version: 6.00 Build 0)  -->
<!DOCTYPE svg PUBLIC "-//W3C//DTD SVG 1.1 Tiny//EN" "http://www.w3.org/Graphics/SVG/1.1/DTD/svg11-tiny.dtd">
<svg version="1.1" baseProfile="tiny" id="Capa_1" xmlns="http://www.w3.org/2000/svg" xmlns:xlink="http://www.w3.org/1999/xlink"
	 x="0px" y="0px" width="760px" height="500px" viewBox="0 0 760 500" xml:space="preserve">
<g id="modelo_completo">
</g>
<g id="publicacion">
</g>
<g id="publicacion_y_conversacion">
</g>
<g id="conversacion">
</g>
<path fill="#33CCFF" d="M368.02,295.32c-21.57,63.5-81.16,106.16-148.26,106.16c-50.08,0-97-23.93-126.47-64.26l12.09,2.46
	l0.69-3.43l-20.6-4.18l-0.65,5.04l-0.13,0.09c0.03,0.05,0.07,0.1,0.1,0.14l-2,15.57l3.47,0.45l1.51-11.81
	c30.8,42.01,79.73,66.93,131.97,66.93c70.11,0,132.35-44.57,154.89-110.91L368.02,295.32z"/>
<path fill="#33CCFF" d="M677.2,352.91l-2-15.56c0.03-0.05,0.07-0.1,0.11-0.15l-0.14-0.09l-0.65-5.04l-20.6,4.19l0.7,3.43l12.1-2.46
	c-29.47,40.33-76.39,64.26-126.47,64.26c-67.11,0-126.7-42.66-148.27-106.16l-6.63,2.25c22.54,66.34,84.79,110.91,154.9,110.91
	c52.24,0,101.17-24.92,131.97-66.93l1.51,11.8L677.2,352.91z"/>
<path fill="#33CCFF" d="M372.04,192.18l5.52-14.72l-3.28-1.23l-4.2,11.21c-12.09-28.19-31.74-52.28-57.11-69.91
	c-27.45-19.07-59.68-29.16-93.23-29.16c-55.88,0-107.33,28.09-137.62,75.14l5.89,3.79c29-45.04,78.24-71.93,131.73-71.93
	c63.27,0,119.24,37.1,143.95,94.94l-11.16-5.14l-1.46,3.18l19.09,8.79l1.79-4.78l0.12-0.05
	C372.08,192.27,372.06,192.23,372.04,192.18z"/>
<path fill="#33CCFF" d="M540.25,88.37c-33.54,0-65.78,10.08-93.23,29.16c-25.36,17.63-45.01,41.72-57.1,69.91l-4.2-11.2l-3.28,1.23
	l5.52,14.71c-0.02,0.05-0.04,0.09-0.06,0.14l0.13,0.05l1.79,4.78l19.09-8.79l-1.46-3.18l-11.16,5.14
	c24.71-57.84,80.69-94.94,143.96-94.94c53.49,0,102.74,26.89,131.73,71.93l5.89-3.79C647.58,116.46,596.13,88.37,540.25,88.37z"/>
<path fill="#999999" d="M80.38,249.14c-5.79-2.23-6.78-5.88-6.59-8.57c3.17-2.24,5.96-6.64,5.96-11.71c0-7.33-2.6-13.28-10.21-13.28
	c-7.36,0-10.21,5.95-10.21,13.28c0,4.75,2.1,8.9,4.99,11.25c0.32,2.75-0.48,6.7-6.57,9.05c-8.68,3.35-13.74,5.41-15.79,19.25h27.12
	h27.08C94.1,254.57,89.06,252.5,80.38,249.14z"/>
<g>
	<path fill="#999999" d="M719.86,244.12c-5.76-2.22-6.52-5.88-6.52-8.39v0.05c3.35-2.52,5.89-6.62,5.89-11.69
		c0-7.33-2.63-13.27-10.25-13.27c-7.37,0-10.03,5.95-10.03,13.28c0,4.75,1.82,8.9,5.17,11.25l0,0c0,2.75-0.69,6.7-6.77,9.05
		c-2.95,1.14-5.58,2.1-7.72,3.46c0.42,0.96,1.4,1.85,3.88,2.81c7.29,2.82,12.49,4.9,15.64,12.44h26.41
		C733.51,249.69,728.54,247.48,719.86,244.12z"/>
	<path fill="#999999" d="M665.7,244.37c-5.78-2.23-6.78-5.86-6.59-8.55l0,0c3.17-2.24,5.96-6.64,5.96-11.71
		c0-7.33-2.6-13.28-10.21-13.28c-7.37,0-10.21,5.95-10.21,13.28c0,4.74,2.1,8.9,4.99,11.25l0,0c0.32,2.75-0.48,6.43-6.57,8.78
		c-8.68,3.35-13.74,5.56-15.79,18.98h25.15c3.14-7.55,8.39-9.62,15.7-12.44c2.98-1.15,3.88-2.44,4.13-3.56
		C670.35,246.07,668.18,245.33,665.7,244.37z"/>
	<path fill="#999999" d="M704.99,263.31c-2.74-5.03-6.96-6.74-12.88-9.02c-2.9-1.12-4.59-2.51-5.54-4.04l-0.01,0.03
		c-0.93-1.52-1.13-3.08-1.04-4.41c3.17-2.24,5.95-6.63,5.95-11.7c0-7.33-2.6-13.28-10.21-13.28c-7.37,0-10.21,5.95-10.21,13.28
		c0,4.74,2.1,8.9,4.99,11.25c0.14,1.2,0.06,2.64-0.58,4.07l-0.01-0.01c-0.82,1.83-2.57,3.59-5.98,4.9
		c-5.91,2.28-10.14,3.9-12.88,8.93c-1.28,2.52-2.25,6.52-2.91,9.87h27.12h27.08C707.24,269.82,706.28,265.82,704.99,263.31z
		 M681.45,263.5c-0.01-0.06-0.03-0.12-0.03-0.18c-0.01,0.07-0.02,0.13-0.03,0.18h-0.02c0.02,0,0.03-0.12,0.05-0.22
		c0,0.01,0,0.03,0.01,0.03c0-0.02,0.01-0.02,0.01-0.04c0.02,0.11,0.03,0.23,0.05,0.23H681.45z"/>
</g>
<g>
	<path fill="#CCCCCC" d="M166.59,34.26c2.44,0,4.37,0.63,5.78,1.88c1.41,1.25,2.12,2.9,2.12,4.93c0,2.04-0.71,3.68-2.12,4.92
		c-1.41,1.24-3.34,1.86-5.78,1.86h-3.6v4.73l2.29,0.44v2.56h-8.83v-2.56l2.27-0.44v-15.3l-2.27-0.44v-2.58h2.27H166.59z
		 M162.99,44.56h3.6c1.19,0,2.09-0.33,2.7-0.98s0.92-1.48,0.92-2.48c0-1.02-0.31-1.87-0.92-2.54s-1.51-1-2.7-1h-3.6V44.56z"/>
	<path fill="#CCCCCC" d="M187.04,53.58c-0.51,0.74-1.14,1.31-1.88,1.71c-0.75,0.4-1.6,0.6-2.56,0.6c-1.67,0-2.98-0.53-3.93-1.6
		c-0.95-1.07-1.42-2.73-1.42-4.99v-6.55l-1.74-0.44v-2.58h1.74h4.28v9.6c0,1.15,0.19,1.98,0.58,2.48c0.38,0.5,0.96,0.75,1.72,0.75
		c0.67,0,1.26-0.11,1.75-0.33c0.49-0.22,0.9-0.53,1.21-0.94v-8.54l-1.88-0.44v-2.58h1.88h4.28v12.85l1.92,0.44v2.56h-5.67
		L187.04,53.58z"/>
	<path fill="#CCCCCC" d="M209.99,48.1c0,2.36-0.53,4.25-1.58,5.67c-1.05,1.42-2.58,2.12-4.57,2.12c-0.93,0-1.73-0.19-2.42-0.58
		c-0.68-0.39-1.26-0.94-1.73-1.68l-0.31,1.95h-3.69V35.76l-2.27-0.44v-2.58h6.53v8.69c0.46-0.63,1.01-1.12,1.65-1.46
		c0.64-0.34,1.38-0.51,2.2-0.51c2.01,0,3.55,0.76,4.6,2.28c1.06,1.52,1.58,3.54,1.58,6.07L209.99,48.1L209.99,48.1z M205.73,47.8
		c0-1.54-0.23-2.77-0.68-3.67c-0.46-0.9-1.23-1.35-2.32-1.35c-0.66,0-1.23,0.14-1.69,0.42c-0.46,0.28-0.82,0.68-1.08,1.19v6.69
		c0.26,0.49,0.63,0.86,1.09,1.11s1.03,0.38,1.71,0.38c1.1,0,1.88-0.39,2.31-1.16c0.44-0.78,0.66-1.88,0.66-3.3V47.8L205.73,47.8z"/>
	<path fill="#CCCCCC" d="M211.23,35.32v-2.58h6.56v19.85l2.06,0.44v2.56h-8.41v-2.56l2.06-0.44V35.76L211.23,35.32z"/>
	<path fill="#CCCCCC" d="M221.11,53.03l2.06-0.44v-9.83l-2.29-0.44v-2.58h6.56v12.85l2.05,0.44v2.56h-8.39L221.11,53.03
		L221.11,53.03z M227.46,35.95h-4.28v-3.21h4.28V35.95z"/>
	<path fill="#CCCCCC" d="M238.35,52.62c0.76,0,1.37-0.22,1.83-0.67c0.46-0.44,0.69-1.04,0.69-1.78h3.87l0.04,0.09
		c0.04,1.6-0.56,2.94-1.8,4.02c-1.24,1.08-2.78,1.62-4.63,1.62c-2.36,0-4.18-0.75-5.46-2.24c-1.28-1.49-1.92-3.41-1.92-5.76v-0.44
		c0-2.33,0.66-4.25,1.97-5.76c1.31-1.5,3.19-2.26,5.62-2.26c1.28,0,2.43,0.19,3.44,0.57c1.01,0.38,1.86,0.92,2.53,1.61l0.06,4.23
		h-3.47l-0.7-2.47c-0.22-0.19-0.48-0.34-0.79-0.46s-0.67-0.18-1.07-0.18c-1.21,0-2.06,0.44-2.56,1.32s-0.75,2.01-0.75,3.4v0.44
		c0,1.42,0.23,2.56,0.69,3.42C236.4,52.18,237.2,52.62,238.35,52.62z"/>
	<path fill="#CCCCCC" d="M256.81,55.59c-0.12-0.26-0.22-0.53-0.31-0.81c-0.09-0.28-0.16-0.56-0.21-0.84
		c-0.51,0.59-1.13,1.06-1.85,1.42c-0.73,0.36-1.56,0.54-2.5,0.54c-1.55,0-2.79-0.42-3.7-1.27c-0.91-0.84-1.37-1.99-1.37-3.45
		c0-1.48,0.6-2.63,1.79-3.44c1.19-0.81,2.94-1.21,5.24-1.21h2.18v-1.55c0-0.76-0.22-1.35-0.66-1.77s-1.09-0.63-1.95-0.63
		c-0.49,0-0.92,0.06-1.3,0.17s-0.69,0.25-0.92,0.4l-0.28,1.7h-3.22l0.02-3.52c0.78-0.53,1.68-0.97,2.69-1.33
		c1.01-0.36,2.11-0.54,3.3-0.54c1.96,0,3.56,0.48,4.78,1.44c1.23,0.96,1.84,2.33,1.84,4.11v6.55c0,0.24,0,0.48,0.01,0.69
		c0,0.22,0.02,0.42,0.05,0.62l1.3,0.18v2.56L256.81,55.59L256.81,55.59z M253.11,52.73c0.65,0,1.23-0.14,1.76-0.42
		c0.53-0.28,0.94-0.63,1.23-1.05v-2.42h-2.18c-0.91,0-1.6,0.21-2.06,0.64c-0.47,0.42-0.7,0.93-0.7,1.53c0,0.54,0.17,0.96,0.52,1.26
		C252.01,52.58,252.49,52.73,253.11,52.73z"/>
	<path fill="#CCCCCC" d="M263.52,53.03l2.05-0.44v-9.83l-2.27-0.44v-2.58h6.25l0.19,2.31c0.37-0.82,0.85-1.46,1.44-1.92
		c0.59-0.46,1.27-0.69,2.04-0.69c0.23,0,0.46,0.02,0.71,0.05c0.25,0.03,0.46,0.08,0.62,0.12l-0.45,3.9l-1.76-0.04
		c-0.62,0-1.14,0.12-1.55,0.36c-0.41,0.24-0.72,0.59-0.94,1.04v7.71l2.05,0.44v2.56h-8.38V53.03L263.52,53.03z"/>
</g>
<g>
	<path fill="#CCCCCC" d="M165.29,453.22c-0.69,0.68-1.7,1.3-3.03,1.85c-1.33,0.55-3.01,0.83-5.04,0.83c-2.88,0-5.23-0.97-7.03-2.89
		c-1.81-1.93-2.71-4.44-2.71-7.52v-0.73c0-3.19,0.89-5.79,2.67-7.79c1.78-2,4.11-3,6.98-3c1.67,0,3.2,0.27,4.58,0.8
		c1.38,0.53,2.53,1.25,3.45,2.16v4.29H162l-0.6-2.86c-0.39-0.33-0.91-0.6-1.54-0.8c-0.64-0.2-1.38-0.3-2.21-0.3
		c-1.86,0-3.31,0.69-4.35,2.07s-1.55,3.18-1.55,5.4v0.76c0,2.17,0.51,3.9,1.52,5.19c1.01,1.29,2.48,1.94,4.4,1.94
		c0.86,0,1.56-0.07,2.09-0.22c0.53-0.15,0.95-0.32,1.25-0.51v-3.62l-3.05-0.23v-3h7.34L165.29,453.22L165.29,453.22z"/>
	<path fill="#CCCCCC" d="M175.12,455.9c-2.28,0-4.11-0.73-5.48-2.2c-1.37-1.46-2.05-3.33-2.05-5.58v-0.59
		c0-2.35,0.65-4.29,1.94-5.81c1.29-1.52,3.03-2.28,5.21-2.27c2.14,0,3.8,0.64,4.98,1.93c1.18,1.29,1.77,3.03,1.77,5.23v2.33h-9.46
		l-0.03,0.09c0.08,1.04,0.43,1.9,1.05,2.58c0.62,0.67,1.46,1.01,2.53,1.01c0.95,0,1.73-0.1,2.36-0.29c0.63-0.19,1.31-0.49,2.05-0.9
		l1.16,2.64c-0.65,0.52-1.5,0.95-2.54,1.3C177.56,455.72,176.4,455.9,175.12,455.9z M174.74,442.74c-0.79,0-1.42,0.3-1.88,0.91
		c-0.46,0.6-0.74,1.4-0.85,2.39l0.04,0.07h5.24v-0.38c0-0.91-0.21-1.63-0.64-2.18C176.24,443.01,175.6,442.74,174.74,442.74z"/>
	<path fill="#CCCCCC" d="M196.45,445.19h-2.87l-0.45-1.98c-0.29-0.23-0.66-0.43-1.1-0.59c-0.45-0.16-0.94-0.23-1.47-0.23
		c-0.75,0-1.35,0.17-1.79,0.51c-0.44,0.34-0.66,0.76-0.66,1.27c0,0.48,0.21,0.88,0.63,1.19c0.42,0.32,1.26,0.6,2.52,0.84
		c1.96,0.39,3.42,0.96,4.36,1.72c0.95,0.76,1.42,1.8,1.42,3.13c0,1.43-0.61,2.59-1.84,3.49s-2.84,1.36-4.84,1.36
		c-1.22,0-2.34-0.18-3.36-0.54c-1.02-0.36-1.93-0.87-2.72-1.53l-0.04-3.56h2.99l0.59,2.06c0.25,0.21,0.6,0.37,1.04,0.48
		c0.44,0.1,0.9,0.15,1.38,0.15c0.87,0,1.53-0.16,1.98-0.47c0.45-0.31,0.68-0.74,0.68-1.28c0-0.47-0.23-0.87-0.69-1.21
		s-1.3-0.64-2.53-0.91c-1.87-0.38-3.27-0.94-4.23-1.69c-0.95-0.75-1.43-1.77-1.43-3.05c0-1.33,0.55-2.47,1.64-3.44
		c1.09-0.97,2.65-1.44,4.67-1.44c1.23,0,2.4,0.17,3.49,0.5c1.1,0.33,1.96,0.76,2.59,1.28L196.45,445.19z"/>
	<path fill="#CCCCCC" d="M205.27,435.86v3.88h2.78v3h-2.78v8.07c0,0.61,0.13,1.05,0.38,1.32c0.25,0.27,0.6,0.4,1.02,0.4
		c0.29,0,0.55-0.01,0.77-0.04c0.22-0.02,0.47-0.07,0.74-0.12l0.37,3.09c-0.48,0.15-0.95,0.26-1.42,0.33
		c-0.47,0.07-0.98,0.11-1.52,0.11c-1.48,0-2.61-0.41-3.41-1.22c-0.79-0.81-1.19-2.09-1.19-3.85v-8.09h-2.33v-3h2.33v-3.88H205.27
		L205.27,435.86z"/>
	<path fill="#CCCCCC" d="M210.02,453.03l2.06-0.44v-9.83l-2.28-0.44v-2.58h6.56v12.85l2.05,0.44v2.56h-8.39V453.03L210.02,453.03z
		 M216.36,435.95h-4.28v-3.21h4.28V435.95z"/>
	<path fill="#CCCCCC" d="M219.82,447.52c0-2.36,0.66-4.3,1.98-5.81c1.32-1.51,3.15-2.26,5.49-2.26s4.18,0.75,5.5,2.26
		c1.32,1.5,1.98,3.44,1.98,5.82v0.31c0,2.38-0.66,4.32-1.98,5.82s-3.15,2.25-5.47,2.25c-2.35,0-4.19-0.75-5.52-2.25
		c-1.32-1.5-1.98-3.44-1.98-5.82V447.52L219.82,447.52z M224.09,447.83c0,1.45,0.25,2.6,0.76,3.48c0.51,0.87,1.33,1.31,2.46,1.31
		c1.1,0,1.91-0.44,2.42-1.32c0.51-0.88,0.77-2.04,0.77-3.47v-0.31c0-1.41-0.26-2.55-0.78-3.44s-1.33-1.33-2.45-1.33
		c-1.11,0-1.92,0.44-2.43,1.33c-0.51,0.89-0.76,2.04-0.76,3.44L224.09,447.83L224.09,447.83z"/>
	<path fill="#CCCCCC" d="M236.4,453.03l2.05-0.44v-9.83l-2.27-0.44v-2.58h6.25l0.19,2.27c0.53-0.81,1.18-1.44,1.95-1.89
		s1.64-0.67,2.59-0.67c1.6,0,2.85,0.5,3.75,1.51c0.9,1.01,1.35,2.58,1.35,4.73v6.9l2.05,0.44v2.56h-8.17v-2.56l1.83-0.44v-6.88
		c0-1.06-0.21-1.82-0.65-2.26c-0.43-0.45-1.08-0.67-1.95-0.67c-0.57,0-1.07,0.11-1.52,0.34c-0.45,0.23-0.82,0.55-1.13,0.97v8.5
		l1.73,0.44v2.56h-8.06L236.4,453.03L236.4,453.03z"/>
	<path fill="#CCCCCC" d="M265.77,455.59c-0.12-0.26-0.22-0.53-0.31-0.81c-0.09-0.28-0.16-0.56-0.2-0.84
		c-0.51,0.59-1.12,1.06-1.85,1.42c-0.73,0.36-1.56,0.54-2.5,0.54c-1.55,0-2.79-0.42-3.7-1.27c-0.91-0.84-1.37-1.99-1.37-3.45
		c0-1.48,0.6-2.63,1.79-3.44c1.19-0.81,2.94-1.21,5.24-1.21h2.18v-1.55c0-0.76-0.22-1.35-0.66-1.77s-1.09-0.63-1.95-0.63
		c-0.49,0-0.92,0.06-1.3,0.17c-0.38,0.11-0.69,0.25-0.92,0.4l-0.28,1.7h-3.22l0.01-3.52c0.78-0.53,1.68-0.97,2.69-1.33
		c1.01-0.36,2.11-0.54,3.3-0.54c1.96,0,3.56,0.48,4.78,1.44c1.23,0.96,1.84,2.33,1.84,4.11v6.55c0,0.24,0,0.48,0.01,0.69
		c0.01,0.21,0.02,0.42,0.05,0.61l1.3,0.18v2.56L265.77,455.59L265.77,455.59z M262.06,452.73c0.65,0,1.23-0.14,1.76-0.42
		c0.53-0.28,0.94-0.63,1.23-1.05v-2.42h-2.18c-0.91,0-1.6,0.21-2.06,0.64c-0.47,0.42-0.7,0.93-0.7,1.53c0,0.54,0.17,0.96,0.52,1.26
		C260.97,452.58,261.45,452.73,262.06,452.73z"/>
	<path fill="#CCCCCC" d="M272.48,453.03l2.05-0.44v-9.83l-2.27-0.44v-2.58h6.25l0.19,2.31c0.37-0.82,0.85-1.46,1.44-1.92
		c0.59-0.46,1.27-0.69,2.04-0.69c0.23,0,0.46,0.02,0.71,0.05c0.25,0.03,0.46,0.08,0.62,0.12l-0.45,3.9l-1.76-0.04
		c-0.62,0-1.14,0.12-1.55,0.37s-0.72,0.59-0.94,1.04v7.71l2.05,0.44v2.56h-8.38V453.03L272.48,453.03z"/>
</g>
<g>
	<path fill="#CCCCCC" d="M485.88,34.26c2.61,0,4.76,0.83,6.45,2.5c1.69,1.67,2.54,3.8,2.54,6.41v3.53c0,2.62-0.85,4.75-2.54,6.41
		c-1.69,1.66-3.84,2.48-6.45,2.48h-9.59v-2.56l2.27-0.44V37.28l-2.27-0.44v-2.58h2.27H485.88z M482.83,37.56v14.75h2.83
		c1.53,0,2.73-0.52,3.6-1.55c0.87-1.03,1.3-2.39,1.3-4.06v-3.56c0-1.65-0.43-2.99-1.3-4.03c-0.87-1.03-2.07-1.55-3.6-1.55H482.83
		L482.83,37.56z"/>
	<path fill="#CCCCCC" d="M504.64,55.9c-2.29,0-4.11-0.73-5.48-2.2c-1.37-1.47-2.05-3.33-2.05-5.58v-0.59c0-2.35,0.65-4.29,1.94-5.81
		c1.29-1.52,3.03-2.28,5.21-2.27c2.14,0,3.8,0.64,4.98,1.93c1.18,1.29,1.77,3.03,1.77,5.23v2.33h-9.46l-0.03,0.09
		c0.08,1.05,0.43,1.9,1.05,2.58c0.62,0.68,1.46,1.01,2.53,1.01c0.95,0,1.73-0.1,2.36-0.29s1.31-0.49,2.05-0.9l1.16,2.64
		c-0.65,0.52-1.5,0.95-2.54,1.31C507.09,55.74,505.92,55.9,504.64,55.9z M504.26,42.74c-0.79,0-1.42,0.3-1.88,0.91
		s-0.74,1.4-0.85,2.39l0.04,0.07h5.24v-0.38c0-0.91-0.21-1.63-0.64-2.18C505.74,43,505.12,42.74,504.26,42.74z"/>
	<path fill="#CCCCCC" d="M512.58,35.32v-2.58h6.56v19.85l2.06,0.44v2.56h-8.41v-2.56l2.07-0.44V35.76L512.58,35.32z"/>
	<path fill="#CCCCCC" d="M522.47,53.03l2.07-0.44v-9.83l-2.29-0.44v-2.58h6.56v12.85l2.05,0.44v2.56h-8.39V53.03z M528.81,35.95
		h-4.28v-3.21h4.28V35.95z"/>
	<path fill="#CCCCCC" d="M547.59,48.1c0,2.36-0.53,4.25-1.58,5.67c-1.06,1.42-2.58,2.12-4.57,2.12c-0.93,0-1.73-0.19-2.42-0.58
		c-0.68-0.39-1.26-0.94-1.73-1.68l-0.31,1.95h-3.69V35.76l-2.27-0.44v-2.58h6.53v8.69c0.46-0.63,1.01-1.12,1.65-1.46
		c0.64-0.34,1.38-0.51,2.21-0.51c2.01,0,3.54,0.76,4.6,2.28c1.05,1.52,1.58,3.54,1.58,6.07V48.1L547.59,48.1z M543.33,47.8
		c0-1.54-0.23-2.77-0.68-3.67c-0.45-0.9-1.23-1.35-2.32-1.35c-0.66,0-1.23,0.14-1.69,0.42c-0.46,0.28-0.82,0.68-1.08,1.19v6.69
		c0.26,0.49,0.63,0.86,1.09,1.11s1.03,0.38,1.71,0.38c1.1,0,1.88-0.39,2.31-1.16c0.44-0.78,0.66-1.88,0.66-3.3V47.8L543.33,47.8z"/>
	<path fill="#CCCCCC" d="M557.16,55.9c-2.29,0-4.11-0.73-5.48-2.2c-1.37-1.47-2.05-3.33-2.05-5.58v-0.59c0-2.35,0.65-4.29,1.94-5.81
		c1.29-1.52,3.03-2.28,5.21-2.27c2.14,0,3.8,0.64,4.98,1.93c1.18,1.29,1.77,3.03,1.77,5.23v2.33h-9.46l-0.03,0.09
		c0.08,1.05,0.43,1.9,1.05,2.58c0.62,0.68,1.46,1.01,2.53,1.01c0.95,0,1.73-0.1,2.36-0.29c0.63-0.19,1.31-0.49,2.05-0.9l1.16,2.64
		c-0.65,0.52-1.5,0.95-2.54,1.31C559.59,55.73,558.44,55.9,557.16,55.9z M556.78,42.74c-0.79,0-1.42,0.3-1.88,0.91
		s-0.74,1.4-0.85,2.39l0.04,0.07h5.24v-0.38c0-0.91-0.21-1.63-0.64-2.18C558.26,43,557.63,42.74,556.78,42.74z"/>
	<path fill="#CCCCCC" d="M565.87,53.03l2.05-0.44v-9.83l-2.27-0.44v-2.58h6.26l0.19,2.31c0.37-0.82,0.85-1.46,1.44-1.92
		s1.27-0.69,2.04-0.69c0.22,0,0.46,0.02,0.71,0.05c0.25,0.03,0.46,0.08,0.62,0.12l-0.45,3.9l-1.76-0.04c-0.62,0-1.14,0.12-1.55,0.36
		c-0.41,0.24-0.72,0.59-0.94,1.04v7.71l2.05,0.44v2.56h-8.38L565.87,53.03L565.87,53.03z"/>
	<path fill="#CCCCCC" d="M587.98,55.59c-0.12-0.26-0.22-0.53-0.31-0.81c-0.09-0.28-0.16-0.56-0.2-0.84
		c-0.51,0.59-1.13,1.06-1.85,1.42c-0.72,0.36-1.56,0.54-2.5,0.54c-1.55,0-2.79-0.42-3.7-1.27c-0.91-0.84-1.37-1.99-1.37-3.45
		c0-1.48,0.6-2.63,1.79-3.44c1.19-0.81,2.94-1.21,5.24-1.21h2.18v-1.55c0-0.76-0.22-1.35-0.66-1.77c-0.44-0.42-1.09-0.63-1.95-0.63
		c-0.49,0-0.92,0.06-1.3,0.17c-0.38,0.11-0.69,0.25-0.92,0.4l-0.28,1.7h-3.22l0.02-3.52c0.78-0.53,1.68-0.97,2.69-1.33
		c1.01-0.36,2.11-0.54,3.3-0.54c1.96,0,3.56,0.48,4.78,1.44c1.23,0.96,1.84,2.33,1.84,4.11v6.55c0,0.24,0,0.48,0.01,0.69
		c0,0.21,0.02,0.42,0.05,0.62l1.3,0.18v2.56L587.98,55.59L587.98,55.59z M584.27,52.73c0.64,0,1.23-0.14,1.76-0.42
		c0.53-0.28,0.94-0.63,1.23-1.05v-2.42h-2.18c-0.91,0-1.6,0.21-2.06,0.64c-0.47,0.42-0.7,0.93-0.7,1.53c0,0.54,0.17,0.96,0.52,1.26
		C583.18,52.58,583.66,52.73,584.27,52.73z"/>
	<path fill="#CCCCCC" d="M594.69,53.03l2.05-0.44v-9.83l-2.27-0.44v-2.58h6.25l0.19,2.31c0.37-0.82,0.85-1.46,1.44-1.92
		c0.59-0.46,1.26-0.69,2.04-0.69c0.22,0,0.46,0.02,0.71,0.05c0.25,0.03,0.46,0.08,0.62,0.12l-0.46,3.9l-1.76-0.04
		c-0.62,0-1.14,0.12-1.55,0.36c-0.41,0.24-0.72,0.59-0.94,1.04v7.71l2.05,0.44v2.56h-8.38L594.69,53.03L594.69,53.03z"/>
</g>
<g>
	<path fill="#CCCCCC" d="M486.41,441.46h-3.18l-0.44-2.84c-0.42-0.42-0.95-0.75-1.59-1c-0.64-0.24-1.39-0.37-2.26-0.37
		c-1.86,0-3.28,0.67-4.29,2.02c-1,1.35-1.5,3.11-1.5,5.27v0.75c0,2.17,0.5,3.93,1.49,5.29c1,1.36,2.4,2.04,4.22,2.04
		c0.84,0,1.61-0.12,2.31-0.37c0.7-0.24,1.24-0.58,1.62-1l0.44-2.84h3.18v4.22c-0.86,1-1.96,1.79-3.29,2.38s-2.82,0.89-4.47,0.89
		c-2.86,0-5.21-0.99-7.03-2.97c-1.82-1.98-2.74-4.53-2.74-7.63v-0.72c0-3.1,0.91-5.64,2.72-7.63c1.82-1.99,4.16-2.99,7.04-2.99
		c1.65,0,3.14,0.3,4.47,0.9c1.33,0.6,2.43,1.4,3.29,2.38L486.41,441.46L486.41,441.46z"/>
	<path fill="#CCCCCC" d="M488.48,447.52c0-2.36,0.66-4.3,1.98-5.81s3.15-2.26,5.48-2.26c2.35,0,4.18,0.75,5.5,2.26
		c1.32,1.5,1.98,3.44,1.98,5.82v0.31c0,2.38-0.66,4.32-1.98,5.82c-1.32,1.5-3.15,2.25-5.47,2.25c-2.35,0-4.19-0.75-5.51-2.25
		s-1.99-3.44-1.99-5.82L488.48,447.52L488.48,447.52z M492.76,447.83c0,1.45,0.25,2.6,0.76,3.48c0.51,0.88,1.33,1.31,2.46,1.31
		c1.1,0,1.91-0.44,2.42-1.32c0.51-0.88,0.77-2.04,0.77-3.47v-0.31c0-1.41-0.26-2.55-0.78-3.44c-0.52-0.89-1.33-1.33-2.45-1.33
		c-1.11,0-1.92,0.44-2.43,1.33s-0.76,2.04-0.76,3.44L492.76,447.83L492.76,447.83z"/>
	<path fill="#CCCCCC" d="M505.06,453.03l2.05-0.44v-9.83l-2.27-0.44v-2.58h6.26l0.19,2.27c0.53-0.81,1.18-1.44,1.95-1.89
		c0.77-0.45,1.64-0.67,2.59-0.67c1.6,0,2.85,0.5,3.75,1.51s1.35,2.58,1.35,4.73v6.9l2.05,0.44v2.56h-8.17v-2.56l1.83-0.44v-6.88
		c0-1.06-0.21-1.82-0.65-2.26c-0.43-0.45-1.08-0.67-1.95-0.67c-0.57,0-1.07,0.11-1.52,0.34c-0.45,0.23-0.82,0.55-1.13,0.97v8.5
		l1.73,0.44v2.56h-8.06V453.03L505.06,453.03z"/>
	<path fill="#CCCCCC" d="M531.06,442.32l-1.49,0.28l2.1,7.09l0.28,1.49h0.09l0.31-1.49l2.06-7.08l-1.52-0.29v-2.58h7.19v2.58
		l-1.38,0.22l-4.67,13.05h-4.09l-4.69-13.05l-1.38-0.22v-2.58h7.19V442.32L531.06,442.32z"/>
	<path fill="#CCCCCC" d="M548.83,455.9c-2.29,0-4.11-0.73-5.48-2.2c-1.37-1.46-2.05-3.33-2.05-5.58v-0.59
		c0-2.35,0.65-4.29,1.94-5.81c1.29-1.52,3.03-2.28,5.21-2.27c2.14,0,3.8,0.64,4.98,1.93c1.18,1.29,1.77,3.03,1.77,5.23v2.33h-9.46
		l-0.03,0.09c0.08,1.04,0.43,1.9,1.05,2.58c0.62,0.67,1.46,1.01,2.53,1.01c0.95,0,1.73-0.1,2.36-0.29c0.63-0.19,1.31-0.49,2.05-0.9
		l1.16,2.64c-0.65,0.52-1.5,0.95-2.54,1.3C551.27,455.72,550.11,455.9,548.83,455.9z M548.45,442.74c-0.79,0-1.42,0.3-1.88,0.91
		c-0.46,0.6-0.74,1.4-0.85,2.39l0.04,0.07H551v-0.38c0-0.91-0.21-1.63-0.64-2.18C549.95,443.01,549.31,442.74,548.45,442.74z"/>
	<path fill="#CCCCCC" d="M557.54,453.03l2.05-0.44v-9.83l-2.27-0.44v-2.58h6.26l0.19,2.31c0.37-0.82,0.85-1.46,1.44-1.92
		s1.26-0.69,2.04-0.69c0.22,0,0.46,0.02,0.71,0.05c0.25,0.03,0.46,0.08,0.62,0.12l-0.45,3.9l-1.76-0.04c-0.62,0-1.14,0.12-1.55,0.37
		c-0.41,0.25-0.72,0.59-0.94,1.04v7.71l2.05,0.44v2.56h-8.38L557.54,453.03L557.54,453.03z"/>
	<path fill="#CCCCCC" d="M582.79,445.19h-2.87l-0.45-1.98c-0.29-0.23-0.66-0.43-1.11-0.59c-0.45-0.16-0.94-0.23-1.47-0.23
		c-0.75,0-1.35,0.17-1.79,0.51c-0.44,0.34-0.66,0.76-0.66,1.27c0,0.48,0.21,0.88,0.63,1.19c0.42,0.32,1.26,0.6,2.52,0.84
		c1.96,0.39,3.42,0.96,4.37,1.72s1.42,1.8,1.42,3.13c0,1.43-0.61,2.59-1.84,3.49c-1.22,0.9-2.84,1.36-4.84,1.36
		c-1.22,0-2.34-0.18-3.36-0.54c-1.02-0.36-1.93-0.87-2.72-1.53l-0.04-3.56h2.99l0.59,2.06c0.25,0.21,0.6,0.37,1.04,0.48
		c0.44,0.1,0.9,0.15,1.38,0.15c0.87,0,1.53-0.16,1.98-0.47c0.46-0.31,0.68-0.74,0.68-1.28c0-0.47-0.23-0.87-0.69-1.21
		s-1.3-0.64-2.54-0.91c-1.87-0.38-3.27-0.94-4.23-1.69c-0.95-0.75-1.43-1.77-1.43-3.05c0-1.33,0.55-2.47,1.64-3.44
		s2.65-1.44,4.67-1.44c1.23,0,2.39,0.17,3.49,0.5c1.1,0.33,1.96,0.76,2.59,1.28L582.79,445.19z"/>
	<path fill="#CCCCCC" d="M595.38,455.59c-0.12-0.26-0.22-0.53-0.31-0.81c-0.09-0.28-0.16-0.56-0.21-0.84
		c-0.51,0.59-1.12,1.06-1.85,1.42c-0.73,0.36-1.56,0.54-2.5,0.54c-1.55,0-2.79-0.42-3.7-1.27c-0.91-0.84-1.37-1.99-1.37-3.45
		c0-1.48,0.6-2.63,1.79-3.44c1.19-0.81,2.94-1.21,5.24-1.21h2.18v-1.55c0-0.76-0.22-1.35-0.66-1.77c-0.44-0.42-1.09-0.63-1.95-0.63
		c-0.49,0-0.92,0.06-1.3,0.17s-0.69,0.25-0.92,0.4l-0.28,1.7h-3.22l0.02-3.52c0.78-0.53,1.68-0.97,2.69-1.33
		c1.01-0.36,2.11-0.54,3.3-0.54c1.96,0,3.56,0.48,4.78,1.44c1.23,0.96,1.84,2.33,1.84,4.11v6.55c0,0.24,0,0.48,0.01,0.69
		s0.02,0.42,0.05,0.61l1.3,0.18v2.56L595.38,455.59L595.38,455.59z M591.68,452.73c0.64,0,1.23-0.14,1.76-0.42
		c0.53-0.28,0.94-0.63,1.23-1.05v-2.42h-2.18c-0.91,0-1.6,0.21-2.06,0.64c-0.46,0.43-0.7,0.93-0.7,1.53c0,0.54,0.17,0.96,0.52,1.26
		C590.58,452.58,591.06,452.73,591.68,452.73z"/>
	<path fill="#CCCCCC" d="M602.09,453.03l2.05-0.44v-9.83l-2.27-0.44v-2.58h6.26l0.19,2.31c0.37-0.82,0.85-1.46,1.44-1.92
		s1.27-0.69,2.04-0.69c0.22,0,0.46,0.02,0.71,0.05c0.25,0.03,0.46,0.08,0.62,0.12l-0.45,3.9l-1.76-0.04c-0.62,0-1.14,0.12-1.55,0.37
		s-0.72,0.59-0.94,1.04v7.71l2.05,0.44v2.56h-8.38L602.09,453.03L602.09,453.03z"/>
</g>
<g>
	<path fill="#3FC0F0" stroke="#1D71B8" stroke-width="2" stroke-miterlimit="10" d="M381.83,250.24c0,0-15.64,22.2-33.31,22.2
		c-12.27,0-22.21-9.94-22.21-22.2c0-12.27,9.94-22.2,22.21-22.2C366.19,228.04,381.83,250.24,381.83,250.24z"/>
	<path fill="#3FC0F0" stroke="#1D71B8" stroke-width="2" stroke-miterlimit="10" d="M381.83,250.21c0,0,15.64,22.2,33.31,22.2
		c12.27,0,22.21-9.94,22.21-22.2s-9.94-22.2-22.21-22.2C397.48,228.01,381.83,250.21,381.83,250.21z"/>
</g>
<g>
	<path d="M159.57,254.4c-1.06,0-1.92-0.36-2.55-1.06c-0.63-0.72-0.94-1.63-0.94-2.77v-0.31c0-1.09,0.32-2,0.97-2.72
		c0.65-0.72,1.42-1.09,2.3-1.09c1.03,0,1.81,0.31,2.34,0.94c0.53,0.62,0.8,1.46,0.8,2.5v0.87h-4.97l-0.02,0.04
		c0.02,0.73,0.2,1.34,0.56,1.82c0.36,0.48,0.86,0.71,1.51,0.71c0.48,0,0.89-0.06,1.25-0.2c0.36-0.14,0.67-0.32,0.93-0.56l0.54,0.91
		c-0.27,0.27-0.63,0.49-1.09,0.67C160.75,254.31,160.21,254.4,159.57,254.4z M159.36,247.54c-0.47,0-0.87,0.19-1.2,0.6
		c-0.33,0.39-0.53,0.89-0.61,1.49l0.02,0.04h3.54v-0.18c0-0.55-0.15-1.01-0.44-1.38C160.37,247.73,159.94,247.54,159.36,247.54z"/>
	<path d="M169.75,248.99h-1.05l-0.23-0.92c-0.17-0.16-0.39-0.29-0.64-0.39c-0.26-0.1-0.55-0.15-0.87-0.15
		c-0.5,0-0.86,0.11-1.11,0.33c-0.24,0.22-0.36,0.48-0.36,0.79c0,0.3,0.11,0.54,0.32,0.72c0.21,0.17,0.64,0.33,1.29,0.47
		c0.97,0.21,1.69,0.49,2.17,0.84c0.47,0.36,0.71,0.83,0.71,1.44c0,0.68-0.28,1.23-0.83,1.65c-0.55,0.42-1.27,0.63-2.16,0.63
		c-0.58,0-1.1-0.06-1.57-0.2c-0.47-0.14-0.88-0.33-1.24-0.59l-0.01-1.75h1.05l0.27,1.03c0.16,0.15,0.38,0.26,0.65,0.32
		c0.28,0.06,0.56,0.1,0.84,0.1c0.5,0,0.88-0.1,1.17-0.3c0.28-0.2,0.42-0.46,0.42-0.79c0-0.31-0.12-0.56-0.35-0.76
		s-0.68-0.38-1.33-0.51c-0.93-0.2-1.63-0.48-2.1-0.83c-0.47-0.35-0.71-0.83-0.71-1.41c0-0.62,0.27-1.16,0.8-1.6
		c0.53-0.44,1.22-0.66,2.07-0.66c0.58,0,1.1,0.07,1.57,0.23s0.84,0.36,1.16,0.63L169.75,248.99z"/>
	<path d="M171.11,256.3l1.16-0.2v-8.42l-1.16-0.2v-0.9h2.36l0.13,0.94c0.26-0.35,0.57-0.61,0.94-0.8c0.37-0.18,0.79-0.27,1.28-0.27
		c0.95,0,1.69,0.38,2.21,1.13c0.52,0.75,0.79,1.75,0.79,2.99v0.15c0,1.11-0.27,2-0.8,2.68c-0.53,0.68-1.26,1.02-2.19,1.02
		c-0.48,0-0.89-0.08-1.25-0.24c-0.36-0.16-0.66-0.39-0.91-0.71v2.64l1.16,0.2v0.9h-3.71V256.3L171.11,256.3z M177.4,250.56
		c0-0.87-0.17-1.59-0.51-2.15c-0.34-0.56-0.84-0.83-1.51-0.83c-0.39,0-0.73,0.09-1.02,0.27c-0.28,0.18-0.51,0.42-0.69,0.73v3.73
		c0.17,0.31,0.4,0.56,0.69,0.73c0.28,0.17,0.62,0.26,1.04,0.26c0.66,0,1.17-0.24,1.5-0.72c0.34-0.48,0.51-1.11,0.51-1.88
		L177.4,250.56L177.4,250.56z"/>
	<path d="M185.08,254.25c-0.05-0.21-0.07-0.39-0.1-0.56c-0.03-0.17-0.04-0.33-0.05-0.5c-0.27,0.35-0.61,0.63-1.01,0.86
		s-0.83,0.35-1.29,0.35c-0.8,0-1.4-0.19-1.83-0.59c-0.42-0.4-0.62-0.94-0.62-1.65c0-0.72,0.29-1.29,0.88-1.69
		c0.59-0.39,1.39-0.59,2.42-0.59h1.44V249c0-0.45-0.14-0.81-0.42-1.06c-0.28-0.27-0.68-0.39-1.18-0.39c-0.35,0-0.66,0.05-0.93,0.14
		c-0.27,0.09-0.49,0.21-0.65,0.37l-0.15,0.81h-1.07v-1.49c0.35-0.27,0.77-0.5,1.27-0.67c0.5-0.16,1.04-0.25,1.61-0.25
		c0.87,0,1.58,0.22,2.11,0.67c0.54,0.44,0.81,1.08,0.81,1.91v3.7c0,0.1,0,0.19,0,0.29c0,0.09,0.01,0.19,0.02,0.29l0.57,0.08v0.89
		h-1.83V254.25z M182.83,253.23c0.47,0,0.89-0.11,1.27-0.33c0.39-0.22,0.66-0.49,0.83-0.8v-1.26h-1.49c-0.57,0-1.03,0.13-1.36,0.39
		c-0.33,0.27-0.5,0.59-0.5,0.96c0,0.34,0.1,0.6,0.31,0.77C182.1,253.14,182.41,253.23,182.83,253.23z"/>
	<path d="M191.51,253.3c0.47,0,0.87-0.15,1.22-0.43c0.35-0.28,0.53-0.63,0.53-1.05h1.26l0.02,0.04c0.03,0.66-0.28,1.25-0.88,1.76
		c-0.61,0.51-1.32,0.77-2.14,0.77c-1.12,0-1.96-0.37-2.56-1.09c-0.59-0.73-0.88-1.64-0.88-2.74v-0.29c0-1.09,0.29-2,0.89-2.73
		c0.59-0.73,1.44-1.09,2.55-1.09c0.61,0,1.17,0.1,1.65,0.3s0.9,0.49,1.22,0.83l0.06,1.71h-1.11l-0.3-1.2
		c-0.17-0.16-0.38-0.29-0.64-0.39s-0.55-0.15-0.88-0.15c-0.73,0-1.26,0.27-1.57,0.79c-0.31,0.53-0.47,1.17-0.47,1.94v0.29
		c0,0.79,0.16,1.44,0.47,1.96C190.25,253.05,190.77,253.3,191.51,253.3z"/>
	<path d="M195.89,253.36l1.16-0.2v-5.48l-1.16-0.2v-0.9h2.55v6.58l1.16,0.2v0.89h-3.71V253.36z M198.44,244.61h-1.39v-1.42h1.39
		V244.61z"/>
	<path d="M200.66,250.35c0-1.14,0.3-2.06,0.92-2.81c0.62-0.73,1.45-1.1,2.5-1.1s1.9,0.37,2.51,1.1c0.61,0.73,0.93,1.67,0.93,2.81
		v0.16c0,1.15-0.3,2.08-0.92,2.81c-0.61,0.73-1.45,1.09-2.5,1.09c-1.06,0-1.9-0.37-2.51-1.09c-0.61-0.73-0.92-1.66-0.92-2.81
		L200.66,250.35L200.66,250.35z M202.07,250.5c0,0.82,0.17,1.49,0.51,2.01c0.34,0.53,0.85,0.8,1.53,0.8c0.66,0,1.17-0.27,1.51-0.8
		c0.35-0.53,0.51-1.2,0.51-2.01v-0.16c0-0.81-0.17-1.47-0.51-2.01c-0.35-0.53-0.85-0.8-1.52-0.8c-0.67,0-1.17,0.27-1.51,0.8
		c-0.34,0.53-0.51,1.2-0.51,2.01L202.07,250.5L202.07,250.5z"/>
	<path d="M212.42,253.36l1.16-0.2v-5.48l-1.16-0.2v-0.9h2.55v6.58l1.16,0.2v0.89h-3.71V253.36z M214.97,244.61h-1.39v-1.42h1.39
		V244.61z"/>
	<path d="M216.98,253.36l1.16-0.2v-5.48l-1.16-0.2v-0.9h2.4l0.1,1.14c0.26-0.4,0.58-0.73,0.96-0.95c0.39-0.23,0.83-0.34,1.31-0.34
		c0.83,0,1.47,0.24,1.92,0.73c0.45,0.49,0.68,1.23,0.68,2.25v3.75l1.16,0.2v0.89h-3.71v-0.89l1.16-0.2v-3.73
		c0-0.68-0.14-1.16-0.4-1.44c-0.27-0.28-0.68-0.42-1.22-0.42c-0.4,0-0.76,0.1-1.06,0.29c-0.31,0.19-0.56,0.46-0.74,0.8v4.5l1.16,0.2
		v0.89h-3.71V253.36L216.98,253.36z"/>
	<path d="M231.63,253.34c-0.25,0.35-0.56,0.61-0.92,0.8c-0.36,0.18-0.78,0.27-1.26,0.27c-0.94,0-1.67-0.34-2.19-1.02
		c-0.52-0.68-0.79-1.57-0.79-2.68v-0.15c0-1.23,0.27-2.23,0.79-2.98c0.52-0.75,1.27-1.14,2.21-1.14c0.45,0,0.85,0.08,1.2,0.25
		s0.64,0.41,0.89,0.72v-3.13l-1.16-0.2v-0.9h1.16h1.39v9.96l1.16,0.2v0.89h-2.37L231.63,253.34z M227.86,250.71
		c0,0.77,0.16,1.38,0.48,1.85c0.31,0.47,0.81,0.7,1.47,0.7c0.41,0,0.76-0.09,1.05-0.28c0.28-0.19,0.51-0.46,0.71-0.8v-3.56
		c-0.18-0.32-0.41-0.58-0.71-0.76c-0.28-0.19-0.63-0.28-1.04-0.28c-0.67,0-1.16,0.27-1.48,0.83c-0.32,0.55-0.48,1.28-0.48,2.16
		V250.71z"/>
	<path d="M235.17,253.36l1.16-0.2v-5.48l-1.16-0.2v-0.9h2.55v6.58l1.16,0.2v0.89h-3.71V253.36z M237.72,244.61h-1.39v-1.42h1.39
		V244.61z"/>
	<path d="M242.57,247.48l-0.92,0.14l1.58,4.37l0.13,0.55h0.05l0.14-0.55l1.53-4.37l-0.93-0.14v-0.9h2.96v0.9l-0.63,0.11l-2.57,6.66
		h-1.06l-2.6-6.66l-0.63-0.11v-0.9h2.96L242.57,247.48L242.57,247.48z"/>
	<path d="M248.04,253.36l1.16-0.2v-5.48l-1.16-0.2v-0.9h2.55v6.58l1.16,0.2v0.89h-3.71V253.36z M250.59,244.61h-1.39v-1.42h1.39
		V244.61z"/>
	<path d="M257.97,253.34c-0.25,0.35-0.56,0.61-0.92,0.8c-0.36,0.18-0.78,0.27-1.26,0.27c-0.94,0-1.67-0.34-2.19-1.02
		c-0.52-0.68-0.79-1.57-0.79-2.68v-0.15c0-1.23,0.27-2.23,0.79-2.98c0.52-0.75,1.27-1.14,2.21-1.14c0.45,0,0.85,0.08,1.2,0.25
		c0.35,0.17,0.64,0.41,0.89,0.72v-3.13l-1.16-0.2v-0.9h1.16h1.39v9.96l1.16,0.2v0.89h-2.37L257.97,253.34z M254.21,250.71
		c0,0.77,0.16,1.38,0.48,1.85c0.31,0.47,0.81,0.7,1.47,0.7c0.41,0,0.76-0.09,1.05-0.28c0.28-0.19,0.51-0.46,0.7-0.8v-3.56
		c-0.18-0.32-0.41-0.58-0.7-0.76c-0.28-0.18-0.63-0.28-1.04-0.28c-0.67,0-1.16,0.27-1.48,0.83c-0.32,0.55-0.48,1.28-0.48,2.16
		V250.71z"/>
	<path d="M267.01,253.12c-0.24,0.41-0.55,0.72-0.94,0.95c-0.38,0.22-0.82,0.33-1.31,0.33c-0.83,0-1.48-0.27-1.94-0.8
		s-0.71-1.37-0.71-2.5v-3.42l-0.88-0.2v-0.9h0.88h1.39v4.54c0,0.82,0.12,1.38,0.36,1.69c0.24,0.31,0.61,0.46,1.13,0.46
		c0.5,0,0.91-0.1,1.23-0.3c0.32-0.2,0.57-0.49,0.73-0.85v-4.43l-1.03-0.2v-0.9h1.03h1.39v6.58l0.88,0.2v0.89h-2.14L267.01,253.12z"
		/>
	<path d="M275.34,254.25c-0.05-0.21-0.07-0.39-0.1-0.56c-0.03-0.17-0.04-0.33-0.05-0.5c-0.27,0.35-0.61,0.63-1.01,0.86
		c-0.4,0.23-0.83,0.35-1.29,0.35c-0.8,0-1.4-0.19-1.83-0.59c-0.42-0.4-0.62-0.94-0.62-1.65c0-0.72,0.29-1.29,0.88-1.69
		c0.59-0.39,1.39-0.59,2.42-0.59h1.44V249c0-0.45-0.14-0.81-0.42-1.06c-0.28-0.27-0.68-0.39-1.18-0.39c-0.35,0-0.66,0.05-0.93,0.14
		c-0.27,0.09-0.49,0.21-0.65,0.37l-0.15,0.81h-1.07v-1.49c0.35-0.27,0.77-0.5,1.27-0.67c0.5-0.16,1.04-0.25,1.61-0.25
		c0.87,0,1.58,0.22,2.11,0.67c0.54,0.44,0.81,1.08,0.81,1.91v3.7c0,0.1,0,0.19,0,0.29c0,0.09,0.01,0.19,0.02,0.29l0.57,0.08v0.89
		h-1.83V254.25z M273.09,253.23c0.47,0,0.89-0.11,1.27-0.33c0.39-0.22,0.66-0.49,0.83-0.8v-1.26h-1.49c-0.57,0-1.03,0.13-1.36,0.39
		c-0.33,0.27-0.5,0.59-0.5,0.96c0,0.34,0.1,0.6,0.31,0.77C272.36,253.14,272.67,253.23,273.09,253.23z"/>
	<path d="M278.14,244.09v-0.9h2.55v9.96l1.16,0.2v0.89h-3.71v-0.89l1.16-0.2v-8.87L278.14,244.09z"/>
</g>
<g>
	<path d="M489.41,254.4c-1.06,0-1.92-0.36-2.55-1.06c-0.63-0.72-0.94-1.63-0.94-2.77v-0.31c0-1.09,0.32-2,0.97-2.72
		c0.65-0.72,1.42-1.09,2.3-1.09c1.03,0,1.81,0.31,2.34,0.94c0.53,0.62,0.8,1.46,0.8,2.5v0.87h-4.97l-0.02,0.04
		c0.01,0.73,0.2,1.34,0.56,1.82c0.36,0.48,0.86,0.71,1.51,0.71c0.47,0,0.89-0.06,1.25-0.2c0.36-0.14,0.66-0.32,0.93-0.56l0.54,0.91
		c-0.28,0.27-0.63,0.49-1.09,0.67C490.58,254.31,490.04,254.4,489.41,254.4z M489.19,247.54c-0.47,0-0.87,0.19-1.2,0.6
		c-0.33,0.39-0.53,0.89-0.61,1.49l0.02,0.04h3.54v-0.18c0-0.55-0.15-1.01-0.44-1.38C490.21,247.73,489.77,247.54,489.19,247.54z"/>
	<path d="M499.57,248.99h-1.04l-0.23-0.92c-0.17-0.16-0.39-0.29-0.64-0.39c-0.26-0.1-0.55-0.15-0.87-0.15
		c-0.5,0-0.86,0.11-1.11,0.33c-0.24,0.22-0.36,0.48-0.36,0.79c0,0.3,0.11,0.54,0.32,0.72c0.21,0.17,0.64,0.33,1.29,0.47
		c0.97,0.21,1.69,0.49,2.16,0.84c0.47,0.36,0.71,0.83,0.71,1.44c0,0.68-0.28,1.23-0.83,1.65c-0.55,0.42-1.27,0.63-2.16,0.63
		c-0.58,0-1.1-0.06-1.57-0.2c-0.46-0.14-0.88-0.33-1.24-0.59l-0.01-1.75h1.04l0.27,1.03c0.16,0.15,0.38,0.26,0.65,0.32
		s0.56,0.1,0.84,0.1c0.5,0,0.88-0.1,1.16-0.3c0.28-0.2,0.42-0.46,0.42-0.79c0-0.31-0.12-0.56-0.35-0.76
		c-0.23-0.2-0.68-0.38-1.33-0.51c-0.93-0.2-1.63-0.48-2.1-0.83c-0.47-0.35-0.71-0.83-0.71-1.41c0-0.62,0.27-1.16,0.8-1.6
		c0.53-0.44,1.22-0.66,2.07-0.66c0.58,0,1.1,0.07,1.57,0.23c0.46,0.16,0.84,0.36,1.16,0.63L499.57,248.99z"/>
	<path d="M500.94,256.3l1.16-0.2v-8.42l-1.16-0.2v-0.9h2.36l0.13,0.94c0.26-0.35,0.57-0.61,0.94-0.8c0.37-0.18,0.79-0.27,1.28-0.27
		c0.95,0,1.69,0.38,2.21,1.13c0.53,0.75,0.79,1.75,0.79,2.99v0.15c0,1.11-0.27,2-0.8,2.68c-0.53,0.68-1.26,1.02-2.19,1.02
		c-0.47,0-0.89-0.08-1.25-0.24c-0.36-0.16-0.66-0.39-0.91-0.71v2.64l1.16,0.2v0.9h-3.71V256.3L500.94,256.3z M507.22,250.56
		c0-0.87-0.17-1.59-0.51-2.15c-0.34-0.56-0.84-0.83-1.51-0.83c-0.39,0-0.73,0.09-1.02,0.27c-0.28,0.18-0.51,0.42-0.69,0.73v3.73
		c0.17,0.31,0.4,0.56,0.69,0.73s0.62,0.26,1.04,0.26c0.66,0,1.17-0.24,1.5-0.72c0.34-0.48,0.51-1.11,0.51-1.88L507.22,250.56
		L507.22,250.56z"/>
	<path d="M514.9,254.25c-0.04-0.21-0.07-0.39-0.1-0.56c-0.03-0.17-0.04-0.33-0.05-0.5c-0.27,0.35-0.61,0.63-1.01,0.86
		c-0.4,0.23-0.83,0.35-1.29,0.35c-0.8,0-1.4-0.19-1.83-0.59c-0.42-0.4-0.62-0.94-0.62-1.65c0-0.72,0.29-1.29,0.88-1.69
		c0.59-0.39,1.39-0.59,2.42-0.59h1.44V249c0-0.45-0.15-0.81-0.42-1.06c-0.29-0.27-0.68-0.39-1.18-0.39c-0.35,0-0.66,0.05-0.93,0.14
		c-0.27,0.09-0.49,0.21-0.65,0.37l-0.15,0.81h-1.07v-1.49c0.35-0.27,0.77-0.5,1.27-0.67c0.5-0.16,1.04-0.25,1.61-0.25
		c0.87,0,1.57,0.22,2.11,0.67c0.54,0.44,0.81,1.08,0.81,1.91v3.7c0,0.1,0,0.19,0,0.29c0,0.09,0.01,0.19,0.02,0.29l0.57,0.08v0.89
		h-1.82V254.25z M512.66,253.23c0.47,0,0.88-0.11,1.27-0.33c0.39-0.22,0.65-0.49,0.83-0.8v-1.26h-1.49c-0.57,0-1.03,0.13-1.36,0.39
		c-0.33,0.27-0.5,0.59-0.5,0.96c0,0.34,0.1,0.6,0.31,0.77C511.92,253.14,512.23,253.23,512.66,253.23z"/>
	<path d="M521.33,253.3c0.47,0,0.87-0.15,1.22-0.43c0.35-0.28,0.52-0.63,0.52-1.05h1.26l0.02,0.04c0.03,0.66-0.28,1.25-0.88,1.76
		c-0.61,0.51-1.32,0.77-2.14,0.77c-1.11,0-1.96-0.37-2.55-1.09c-0.59-0.73-0.88-1.64-0.88-2.74v-0.29c0-1.09,0.29-2,0.89-2.73
		c0.59-0.73,1.44-1.09,2.55-1.09c0.62,0,1.17,0.1,1.66,0.3c0.49,0.2,0.89,0.49,1.22,0.83l0.06,1.71h-1.11l-0.3-1.2
		c-0.17-0.16-0.38-0.29-0.64-0.39c-0.26-0.1-0.55-0.15-0.88-0.15c-0.73,0-1.26,0.27-1.57,0.79c-0.31,0.53-0.47,1.17-0.47,1.94v0.29
		c0,0.79,0.16,1.44,0.47,1.96C520.1,253.05,520.6,253.3,521.33,253.3z"/>
	<path d="M525.72,253.36l1.16-0.2v-5.48l-1.16-0.2v-0.9h2.55v6.58l1.16,0.2v0.89h-3.71V253.36L525.72,253.36z M528.27,244.61h-1.4
		v-1.42h1.4V244.61z"/>
	<path d="M530.5,250.35c0-1.14,0.31-2.06,0.92-2.81c0.61-0.73,1.45-1.1,2.5-1.1c1.06,0,1.9,0.37,2.51,1.1s0.93,1.67,0.93,2.81v0.16
		c0,1.15-0.3,2.08-0.92,2.81c-0.61,0.73-1.45,1.09-2.5,1.09c-1.06,0-1.9-0.37-2.51-1.09c-0.62-0.73-0.92-1.66-0.92-2.81
		L530.5,250.35L530.5,250.35z M531.89,250.5c0,0.82,0.17,1.49,0.51,2.01c0.34,0.53,0.85,0.8,1.52,0.8c0.66,0,1.16-0.27,1.51-0.8
		c0.35-0.53,0.51-1.2,0.51-2.01v-0.16c0-0.81-0.17-1.47-0.51-2.01c-0.34-0.54-0.85-0.8-1.52-0.8s-1.17,0.27-1.51,0.8
		c-0.34,0.53-0.51,1.2-0.51,2.01V250.5z"/>
	<path d="M545.68,253.3c0.46,0,0.87-0.15,1.22-0.43c0.35-0.28,0.53-0.63,0.53-1.05h1.26l0.02,0.04c0.03,0.66-0.27,1.25-0.88,1.76
		c-0.61,0.51-1.32,0.77-2.14,0.77c-1.12,0-1.96-0.37-2.56-1.09c-0.59-0.73-0.88-1.64-0.88-2.74v-0.29c0-1.09,0.29-2,0.88-2.73
		c0.59-0.73,1.44-1.09,2.55-1.09c0.62,0,1.17,0.1,1.65,0.3c0.49,0.2,0.9,0.49,1.22,0.83l0.06,1.71h-1.11l-0.3-1.2
		c-0.17-0.16-0.38-0.29-0.64-0.39c-0.26-0.1-0.55-0.15-0.88-0.15c-0.73,0-1.26,0.27-1.57,0.79c-0.31,0.53-0.47,1.17-0.47,1.94v0.29
		c0,0.79,0.16,1.44,0.47,1.96C544.42,253.05,544.95,253.3,545.68,253.3z"/>
	<path d="M550.08,250.35c0-1.14,0.3-2.06,0.92-2.81c0.61-0.73,1.45-1.1,2.5-1.1c1.05,0,1.9,0.37,2.51,1.1s0.93,1.67,0.93,2.81v0.16
		c0,1.15-0.31,2.08-0.92,2.81c-0.61,0.73-1.45,1.09-2.5,1.09c-1.06,0-1.9-0.37-2.51-1.09c-0.61-0.73-0.92-1.66-0.92-2.81
		L550.08,250.35L550.08,250.35z M551.47,250.5c0,0.82,0.17,1.49,0.51,2.01c0.34,0.53,0.85,0.8,1.53,0.8c0.66,0,1.17-0.27,1.51-0.8
		c0.35-0.53,0.51-1.2,0.51-2.01v-0.16c0-0.81-0.17-1.47-0.51-2.01c-0.35-0.53-0.85-0.8-1.52-0.8c-0.67,0-1.17,0.27-1.51,0.8
		c-0.34,0.53-0.51,1.2-0.51,2.01L551.47,250.5L551.47,250.5z"/>
	<path d="M557.87,244.09v-0.9h2.55v9.96l1.16,0.2v0.89h-3.71v-0.89l1.16-0.2v-8.87L557.87,244.09z"/>
	<path d="M566.14,254.4c-1.06,0-1.92-0.36-2.55-1.06c-0.63-0.72-0.94-1.63-0.94-2.77v-0.31c0-1.09,0.33-2,0.97-2.72
		c0.65-0.72,1.41-1.09,2.3-1.09c1.03,0,1.81,0.31,2.34,0.94c0.53,0.62,0.8,1.46,0.8,2.5v0.87h-4.97l-0.02,0.04
		c0.01,0.73,0.2,1.34,0.56,1.82c0.36,0.48,0.86,0.71,1.51,0.71c0.47,0,0.89-0.06,1.25-0.2c0.36-0.14,0.66-0.32,0.93-0.56l0.54,0.91
		c-0.28,0.27-0.63,0.49-1.09,0.67C567.31,254.31,566.77,254.4,566.14,254.4z M565.93,247.54c-0.47,0-0.87,0.19-1.2,0.6
		c-0.33,0.39-0.53,0.89-0.62,1.49l0.02,0.04h3.54v-0.18c0-0.55-0.15-1.01-0.44-1.38C566.94,247.73,566.51,247.54,565.93,247.54z"/>
	<path d="M573.89,253.3c0.46,0,0.87-0.15,1.22-0.43c0.35-0.28,0.53-0.63,0.53-1.05h1.26l0.01,0.04c0.03,0.66-0.27,1.25-0.88,1.76
		c-0.62,0.51-1.32,0.77-2.14,0.77c-1.12,0-1.96-0.37-2.56-1.09c-0.59-0.73-0.88-1.64-0.88-2.74v-0.29c0-1.09,0.29-2,0.89-2.73
		c0.59-0.73,1.44-1.09,2.55-1.09c0.61,0,1.17,0.1,1.65,0.3c0.49,0.2,0.89,0.49,1.22,0.83l0.06,1.71h-1.11l-0.3-1.2
		c-0.17-0.16-0.38-0.29-0.63-0.39c-0.26-0.1-0.55-0.15-0.88-0.15c-0.73,0-1.26,0.27-1.57,0.79c-0.31,0.53-0.47,1.17-0.47,1.94v0.29
		c0,0.79,0.16,1.44,0.47,1.96C572.63,253.05,573.16,253.3,573.89,253.3z"/>
	<path d="M580.71,244.73v1.85h1.45v1.04h-1.45v4.66c0,0.36,0.07,0.61,0.22,0.76c0.15,0.15,0.35,0.22,0.6,0.22
		c0.13,0,0.27-0.01,0.41-0.04c0.16-0.02,0.28-0.05,0.38-0.06l0.19,0.96c-0.13,0.08-0.33,0.16-0.58,0.21
		c-0.26,0.05-0.51,0.08-0.76,0.08c-0.57,0-1.02-0.17-1.36-0.51c-0.34-0.34-0.5-0.88-0.5-1.61v-4.66h-1.21v-1.04h1.21v-1.85H580.71z"
		/>
	<path d="M583.59,253.36l1.16-0.2v-5.48l-1.16-0.2v-0.9h2.55v6.58l1.16,0.2v0.89h-3.71V253.36L583.59,253.36z M586.14,244.61h-1.4
		v-1.42h1.4V244.61z"/>
	<path d="M590.98,247.48l-0.92,0.14l1.58,4.37l0.13,0.55h0.05l0.14-0.55l1.53-4.37l-0.93-0.14v-0.9h2.96v0.9l-0.63,0.11l-2.57,6.66
		h-1.05l-2.61-6.66l-0.63-0.11v-0.9h2.96L590.98,247.48L590.98,247.48z"/>
	<path d="M596.36,250.35c0-1.14,0.3-2.06,0.92-2.81c0.61-0.73,1.45-1.1,2.5-1.1c1.06,0,1.9,0.37,2.51,1.1
		c0.62,0.73,0.93,1.67,0.93,2.81v0.16c0,1.15-0.3,2.08-0.92,2.81c-0.61,0.73-1.45,1.09-2.5,1.09c-1.06,0-1.9-0.37-2.51-1.09
		c-0.61-0.73-0.92-1.66-0.92-2.81L596.36,250.35L596.36,250.35z M597.75,250.5c0,0.82,0.17,1.49,0.51,2.01
		c0.34,0.53,0.85,0.8,1.52,0.8c0.66,0,1.17-0.27,1.51-0.8c0.35-0.53,0.51-1.2,0.51-2.01v-0.16c0-0.81-0.17-1.47-0.51-2.01
		c-0.35-0.53-0.85-0.8-1.52-0.8c-0.67,0-1.17,0.27-1.51,0.8c-0.34,0.53-0.51,1.2-0.51,2.01V250.5z"/>
</g>
<g>
	<path fill="#3FC0F0" d="M185.74,131.58v-1.6h3.85l0.13,1.15c0.29-0.42,0.64-0.75,1.05-0.98s0.88-0.35,1.42-0.35
		c1.22,0,2.16,0.48,2.84,1.43c0.68,0.95,1.01,2.2,1.01,3.75v0.19c0,1.45-0.34,2.62-1.01,3.51c-0.67,0.88-1.61,1.33-2.82,1.33
		c-0.51,0-0.97-0.1-1.37-0.29c-0.4-0.19-0.74-0.47-1.03-0.84v2.85l1.28,0.27v1.6h-5.21V142l1.28-0.27v-9.87L185.74,131.58z
		 M193.38,134.98c0-0.93-0.15-1.68-0.46-2.25c-0.31-0.58-0.78-0.86-1.42-0.86c-0.4,0-0.74,0.08-1.02,0.25
		c-0.28,0.16-0.5,0.4-0.67,0.7v4.31c0.16,0.28,0.39,0.49,0.67,0.64s0.63,0.22,1.04,0.22c0.64,0,1.11-0.25,1.41-0.75
		c0.3-0.5,0.45-1.18,0.45-2.04V134.98z"/>
	<path fill="#3FC0F0" d="M202.86,139.82c-0.07-0.16-0.14-0.33-0.19-0.5c-0.05-0.17-0.1-0.35-0.13-0.52
		c-0.31,0.36-0.7,0.66-1.15,0.88c-0.45,0.22-0.97,0.34-1.55,0.34c-0.96,0-1.73-0.26-2.29-0.79c-0.57-0.52-0.85-1.24-0.85-2.14
		c0-0.92,0.37-1.63,1.11-2.14c0.74-0.5,1.82-0.75,3.25-0.75h1.35v-0.96c0-0.47-0.14-0.84-0.41-1.1c-0.27-0.26-0.68-0.39-1.21-0.39
		c-0.3,0-0.57,0.03-0.81,0.1c-0.24,0.07-0.43,0.15-0.57,0.25l-0.17,1.05h-2l0.01-2.18c0.49-0.33,1.04-0.6,1.67-0.83
		c0.63-0.22,1.31-0.34,2.05-0.34c1.22,0,2.21,0.3,2.97,0.9c0.76,0.6,1.14,1.45,1.14,2.55v4.06c0,0.15,0,0.29,0,0.43
		c0,0.13,0.01,0.26,0.03,0.38l0.81,0.11v1.59H202.86z M200.56,138.05c0.4,0,0.76-0.09,1.09-0.26s0.58-0.39,0.76-0.65v-1.5h-1.35
		c-0.56,0-0.99,0.13-1.28,0.4c-0.29,0.27-0.44,0.58-0.44,0.95c0,0.33,0.11,0.59,0.32,0.78S200.18,138.05,200.56,138.05z"/>
	<path fill="#3FC0F0" d="M205.93,127.24v-1.6H210v12.32l1.28,0.27v1.59h-5.22v-1.59l1.28-0.27v-10.45L205.93,127.24z"/>
	<path fill="#3FC0F0" d="M217.8,139.82c-0.07-0.16-0.14-0.33-0.19-0.5c-0.06-0.17-0.1-0.35-0.13-0.52c-0.31,0.36-0.7,0.66-1.15,0.88
		c-0.45,0.22-0.97,0.34-1.55,0.34c-0.96,0-1.73-0.26-2.3-0.79c-0.57-0.52-0.85-1.24-0.85-2.14c0-0.92,0.37-1.63,1.11-2.14
		c0.74-0.5,1.82-0.75,3.25-0.75h1.35v-0.96c0-0.47-0.14-0.84-0.41-1.1c-0.27-0.26-0.68-0.39-1.21-0.39c-0.3,0-0.57,0.03-0.81,0.1
		c-0.24,0.07-0.43,0.15-0.57,0.25l-0.17,1.05h-2l0.01-2.18c0.48-0.33,1.04-0.6,1.67-0.83c0.63-0.22,1.31-0.34,2.05-0.34
		c1.22,0,2.21,0.3,2.97,0.9c0.76,0.6,1.14,1.45,1.14,2.55v4.06c0,0.15,0,0.29,0,0.43c0,0.13,0.01,0.26,0.03,0.38l0.81,0.11v1.59
		H217.8z M215.5,138.05c0.4,0,0.76-0.09,1.09-0.26s0.58-0.39,0.76-0.65v-1.5H216c-0.56,0-0.99,0.13-1.28,0.4
		c-0.29,0.26-0.44,0.58-0.44,0.95c0,0.33,0.11,0.59,0.32,0.78S215.12,138.05,215.5,138.05z"/>
	<path fill="#3FC0F0" d="M230.36,135.17c0,1.47-0.33,2.64-0.98,3.52s-1.6,1.32-2.84,1.32c-0.58,0-1.08-0.12-1.5-0.36
		c-0.42-0.24-0.78-0.59-1.07-1.04l-0.19,1.21h-2.29v-12.31l-1.41-0.27v-1.6h4.05v5.39c0.29-0.39,0.63-0.7,1.02-0.91
		c0.4-0.21,0.85-0.32,1.37-0.32c1.25,0,2.2,0.47,2.85,1.41s0.98,2.2,0.98,3.77L230.36,135.17L230.36,135.17z M227.72,134.98
		c0-0.96-0.14-1.72-0.42-2.28c-0.28-0.56-0.76-0.84-1.44-0.84c-0.41,0-0.76,0.09-1.05,0.26c-0.28,0.17-0.51,0.42-0.67,0.74v4.15
		c0.16,0.3,0.39,0.53,0.68,0.69c0.29,0.16,0.64,0.24,1.06,0.24c0.69,0,1.16-0.24,1.44-0.72c0.27-0.48,0.41-1.17,0.41-2.05
		L227.72,134.98L227.72,134.98z"/>
	<path fill="#3FC0F0" d="M231.18,138.23l1.27-0.27v-6.1l-1.41-0.27v-1.6h3.88l0.12,1.44c0.23-0.51,0.53-0.91,0.89-1.19
		c0.36-0.28,0.79-0.43,1.26-0.43c0.14,0,0.29,0.01,0.44,0.03s0.28,0.05,0.39,0.08l-0.28,2.42l-1.09-0.03
		c-0.39,0-0.71,0.08-0.96,0.23s-0.45,0.37-0.58,0.65v4.78l1.27,0.27v1.59h-5.2V138.23z"/>
	<path fill="#3FC0F0" d="M244.28,139.82c-0.07-0.16-0.14-0.33-0.19-0.5c-0.05-0.17-0.1-0.35-0.13-0.52
		c-0.32,0.36-0.7,0.66-1.15,0.88c-0.45,0.22-0.97,0.34-1.55,0.34c-0.96,0-1.73-0.26-2.3-0.79c-0.57-0.52-0.85-1.24-0.85-2.14
		c0-0.92,0.37-1.63,1.11-2.14c0.74-0.5,1.82-0.75,3.25-0.75h1.35v-0.96c0-0.47-0.14-0.84-0.41-1.1c-0.27-0.26-0.68-0.39-1.21-0.39
		c-0.3,0-0.57,0.03-0.81,0.1c-0.24,0.07-0.43,0.15-0.57,0.25l-0.17,1.05h-2l0.01-2.18c0.48-0.33,1.04-0.6,1.67-0.83
		c0.63-0.22,1.31-0.34,2.05-0.34c1.22,0,2.21,0.3,2.97,0.9c0.76,0.6,1.14,1.45,1.14,2.55v4.06c0,0.15,0,0.29,0,0.43
		c0,0.13,0.01,0.26,0.03,0.38l0.81,0.11v1.59H244.28z M241.98,138.05c0.4,0,0.76-0.09,1.09-0.26c0.33-0.17,0.58-0.39,0.76-0.65v-1.5
		h-1.35c-0.56,0-0.99,0.13-1.28,0.4c-0.29,0.26-0.44,0.58-0.44,0.95c0,0.33,0.11,0.59,0.32,0.78S241.6,138.05,241.98,138.05z"/>
</g>
<g>
	<path fill="#3FC0F0" d="M488.58,370.29c-0.31,0.46-0.67,0.8-1.1,1.04c-0.42,0.24-0.9,0.36-1.44,0.36c-1.21,0-2.15-0.44-2.82-1.33
		c-0.67-0.88-1-2.05-1-3.51v-0.19c0-1.55,0.34-2.8,1.01-3.75c0.67-0.95,1.62-1.43,2.84-1.43c0.49,0,0.93,0.11,1.33,0.32
		c0.39,0.21,0.74,0.52,1.04,0.91v-3.53l-1.42-0.27v-1.6h1.42h2.66v12.32l1.27,0.27v1.59h-3.57L488.58,370.29z M484.87,366.84
		c0,0.86,0.14,1.54,0.43,2.03s0.76,0.74,1.41,0.74c0.39,0,0.72-0.08,1.01-0.24s0.52-0.38,0.7-0.68v-4.17
		c-0.18-0.31-0.41-0.56-0.7-0.73c-0.28-0.17-0.61-0.26-0.99-0.26c-0.65,0-1.12,0.29-1.42,0.86c-0.3,0.58-0.45,1.33-0.45,2.25
		L484.87,366.84L484.87,366.84z"/>
	<path fill="#3FC0F0" d="M497.3,371.68c-1.42,0-2.55-0.46-3.4-1.36c-0.85-0.91-1.27-2.06-1.27-3.46v-0.36c0-1.46,0.4-2.66,1.2-3.61
		c0.8-0.95,1.88-1.42,3.23-1.41c1.33,0,2.36,0.4,3.09,1.2c0.73,0.8,1.1,1.88,1.1,3.25v1.44h-5.87l-0.02,0.06
		c0.05,0.65,0.26,1.18,0.65,1.6c0.39,0.42,0.91,0.63,1.57,0.63c0.59,0,1.08-0.06,1.46-0.18c0.39-0.12,0.81-0.31,1.27-0.56l0.72,1.64
		c-0.41,0.32-0.93,0.59-1.58,0.81C498.81,371.57,498.09,371.68,497.3,371.68z M497.06,363.52c-0.49,0-0.88,0.19-1.16,0.56
		c-0.29,0.38-0.46,0.87-0.53,1.48l0.03,0.05h3.25v-0.24c0-0.56-0.13-1.01-0.4-1.35C497.99,363.69,497.59,363.52,497.06,363.52z"/>
	<path fill="#3FC0F0" d="M511.4,366.84c0,1.47-0.33,2.64-0.98,3.52s-1.6,1.32-2.84,1.32c-0.58,0-1.08-0.12-1.5-0.36
		c-0.42-0.24-0.78-0.59-1.07-1.04l-0.19,1.21h-2.29v-12.31l-1.41-0.27v-1.6h4.05v5.39c0.29-0.39,0.62-0.7,1.02-0.91
		c0.4-0.21,0.85-0.32,1.37-0.32c1.25,0,2.2,0.47,2.85,1.41c0.66,0.94,0.98,2.2,0.98,3.77v0.19H511.4z M508.75,366.65
		c0-0.96-0.14-1.72-0.42-2.28c-0.28-0.56-0.76-0.84-1.44-0.84c-0.41,0-0.76,0.09-1.05,0.26s-0.51,0.42-0.67,0.74v4.15
		c0.16,0.3,0.39,0.53,0.68,0.69c0.29,0.16,0.64,0.24,1.06,0.24c0.68,0,1.16-0.24,1.44-0.72c0.27-0.48,0.41-1.17,0.41-2.05
		L508.75,366.65L508.75,366.65z"/>
	<path fill="#3FC0F0" d="M518.27,371.49c-0.07-0.16-0.14-0.33-0.19-0.5s-0.1-0.35-0.13-0.52c-0.31,0.36-0.7,0.66-1.15,0.88
		c-0.45,0.22-0.97,0.34-1.55,0.34c-0.96,0-1.73-0.26-2.29-0.79c-0.57-0.52-0.85-1.24-0.85-2.14c0-0.92,0.37-1.63,1.11-2.14
		c0.74-0.5,1.82-0.75,3.25-0.75h1.35v-0.96c0-0.47-0.14-0.84-0.41-1.1c-0.27-0.26-0.68-0.39-1.21-0.39c-0.3,0-0.57,0.04-0.81,0.11
		c-0.24,0.07-0.43,0.15-0.57,0.25l-0.17,1.05h-2l0.01-2.18c0.49-0.33,1.04-0.6,1.67-0.83c0.63-0.22,1.31-0.34,2.05-0.34
		c1.22,0,2.21,0.3,2.97,0.9c0.76,0.6,1.14,1.45,1.14,2.55v4.06c0,0.15,0,0.29,0,0.43c0,0.13,0.01,0.26,0.03,0.38l0.81,0.11v1.59
		L518.27,371.49L518.27,371.49z M515.97,369.72c0.4,0,0.76-0.08,1.09-0.26c0.33-0.17,0.58-0.39,0.76-0.65v-1.5h-1.35
		c-0.56,0-0.99,0.13-1.28,0.4c-0.29,0.26-0.44,0.58-0.44,0.95c0,0.33,0.11,0.59,0.32,0.78
		C515.29,369.62,515.59,369.72,515.97,369.72z"/>
	<path fill="#3FC0F0" d="M524.81,359.24v2.41h1.73v1.86h-1.73v5.01c0,0.38,0.08,0.65,0.24,0.82c0.16,0.16,0.37,0.25,0.64,0.25
		c0.18,0,0.34-0.01,0.48-0.02c0.14-0.02,0.29-0.04,0.46-0.08l0.23,1.92c-0.3,0.09-0.59,0.16-0.88,0.21
		c-0.29,0.04-0.6,0.07-0.95,0.07c-0.91,0-1.62-0.25-2.11-0.76c-0.49-0.5-0.74-1.3-0.74-2.39v-5.02h-1.44v-1.86h1.44v-2.41
		L524.81,359.24L524.81,359.24z"/>
	<path fill="#3FC0F0" d="M531.93,371.68c-1.42,0-2.55-0.46-3.4-1.36c-0.85-0.9-1.27-2.06-1.27-3.46v-0.36c0-1.46,0.4-2.66,1.21-3.61
		c0.81-0.95,1.88-1.42,3.23-1.41c1.33,0,2.36,0.4,3.09,1.2c0.73,0.8,1.1,1.88,1.1,3.25v1.44h-5.87l-0.02,0.06
		c0.05,0.65,0.27,1.18,0.65,1.6c0.38,0.42,0.91,0.63,1.57,0.63c0.59,0,1.08-0.06,1.46-0.18c0.39-0.12,0.81-0.31,1.27-0.56l0.72,1.64
		c-0.41,0.32-0.93,0.59-1.58,0.81C533.45,371.57,532.73,371.68,531.93,371.68z M531.7,363.52c-0.49,0-0.88,0.19-1.16,0.56
		c-0.28,0.38-0.46,0.87-0.53,1.48l0.03,0.05h3.25v-0.24c0-0.56-0.13-1.01-0.39-1.35C532.63,363.69,532.23,363.52,531.7,363.52z"/>
	<path fill="#3FC0F0" d="M540.28,363.25v-1.6h3.85l0.13,1.14c0.29-0.42,0.64-0.75,1.05-0.98c0.41-0.23,0.88-0.35,1.42-0.35
		c1.22,0,2.16,0.48,2.84,1.43c0.67,0.95,1.01,2.2,1.01,3.75v0.19c0,1.46-0.34,2.62-1.01,3.51c-0.67,0.88-1.61,1.33-2.82,1.33
		c-0.52,0-0.97-0.09-1.37-0.29c-0.4-0.19-0.74-0.47-1.03-0.84v2.85l1.28,0.27v1.6h-5.21v-1.6l1.28-0.27v-9.87L540.28,363.25z
		 M547.91,366.65c0-0.93-0.15-1.68-0.46-2.25c-0.31-0.58-0.78-0.86-1.42-0.86c-0.4,0-0.74,0.08-1.02,0.25
		c-0.28,0.16-0.51,0.4-0.67,0.7v4.31c0.16,0.28,0.39,0.49,0.67,0.64c0.28,0.14,0.63,0.22,1.04,0.22c0.64,0,1.12-0.25,1.42-0.75
		s0.45-1.18,0.45-2.05L547.91,366.65L547.91,366.65z"/>
	<path fill="#3FC0F0" d="M558.02,370.24c-0.32,0.46-0.7,0.82-1.17,1.06c-0.46,0.25-0.99,0.37-1.59,0.37c-1.04,0-1.85-0.33-2.44-1
		c-0.59-0.66-0.88-1.7-0.88-3.1v-4.06l-1.08-0.27v-1.6h1.08h2.65v5.95c0,0.72,0.12,1.23,0.36,1.54c0.24,0.31,0.6,0.47,1.07,0.47
		c0.42,0,0.78-0.07,1.09-0.21c0.3-0.14,0.56-0.33,0.75-0.59v-5.3l-1.16-0.27v-1.6h1.16h2.65v7.97l1.19,0.27v1.59h-3.52
		L558.02,370.24z M556.29,357.82h2.81l0.02,0.05l-2.51,2.36h-2.13L556.29,357.82z"/>
	<path fill="#3FC0F0" d="M571.65,366.84c0,1.47-0.33,2.64-0.98,3.52s-1.6,1.32-2.84,1.32c-0.58,0-1.08-0.12-1.5-0.36
		c-0.42-0.24-0.78-0.59-1.07-1.04l-0.19,1.21h-2.29v-12.31l-1.41-0.27v-1.6h4.05v5.39c0.28-0.39,0.63-0.7,1.02-0.91
		c0.39-0.21,0.85-0.32,1.37-0.32c1.25,0,2.2,0.47,2.85,1.41c0.66,0.94,0.98,2.2,0.98,3.77v0.19H571.65z M569,366.65
		c0-0.96-0.14-1.72-0.42-2.28c-0.28-0.56-0.76-0.84-1.44-0.84c-0.41,0-0.76,0.09-1.05,0.26c-0.28,0.17-0.51,0.42-0.67,0.74v4.15
		c0.16,0.3,0.39,0.53,0.68,0.69c0.29,0.16,0.64,0.24,1.06,0.24c0.68,0,1.16-0.24,1.44-0.72c0.27-0.48,0.41-1.17,0.41-2.05
		L569,366.65L569,366.65z"/>
	<path fill="#3FC0F0" d="M571.79,358.91v-1.6h4.07v12.32l1.28,0.27v1.59h-5.22v-1.59l1.28-0.27v-10.45L571.79,358.91z"/>
	<path fill="#3FC0F0" d="M577.32,369.9l1.28-0.27v-6.1l-1.42-0.27v-1.6h4.07v7.97l1.27,0.27v1.59h-5.21L577.32,369.9L577.32,369.9z
		 M581.25,359.3h-2.65v-1.99h2.65V359.3z"/>
	<path fill="#3FC0F0" d="M587.4,369.64c0.47,0,0.85-0.14,1.14-0.41c0.29-0.28,0.43-0.64,0.43-1.11h2.4l0.03,0.05
		c0.02,1-0.35,1.83-1.12,2.5c-0.77,0.67-1.73,1-2.87,1c-1.47,0-2.6-0.46-3.39-1.39c-0.79-0.93-1.19-2.12-1.19-3.57v-0.27
		c0-1.45,0.41-2.64,1.22-3.57c0.81-0.93,1.98-1.4,3.49-1.4c0.79,0,1.5,0.12,2.14,0.36c0.63,0.24,1.16,0.57,1.57,1l0.04,2.63h-2.15
		l-0.44-1.54c-0.13-0.11-0.3-0.21-0.49-0.29c-0.2-0.08-0.42-0.12-0.66-0.12c-0.75,0-1.28,0.27-1.59,0.82s-0.46,1.25-0.46,2.11v0.27
		c0,0.88,0.14,1.59,0.43,2.12C586.19,369.38,586.69,369.64,587.4,369.64z"/>
	<path fill="#3FC0F0" d="M591.98,366.48c0-1.47,0.41-2.67,1.23-3.6c0.82-0.94,1.96-1.41,3.41-1.41c1.46,0,2.59,0.47,3.41,1.4
		c0.82,0.93,1.23,2.14,1.23,3.61v0.19c0,1.48-0.41,2.68-1.23,3.61c-0.82,0.93-1.95,1.4-3.39,1.4c-1.46,0-2.6-0.46-3.42-1.4
		c-0.82-0.93-1.23-2.13-1.23-3.61L591.98,366.48L591.98,366.48z M594.63,366.67c0,0.9,0.16,1.62,0.47,2.16
		c0.31,0.54,0.82,0.81,1.53,0.81c0.68,0,1.19-0.27,1.5-0.82c0.32-0.55,0.48-1.26,0.48-2.16v-0.19c0-0.87-0.16-1.58-0.48-2.14
		c-0.32-0.55-0.83-0.83-1.52-0.83c-0.69,0-1.19,0.28-1.51,0.83c-0.32,0.55-0.47,1.26-0.47,2.14V366.67z"/>
</g>
<g>
	<path fill="#3FC0F0" d="M478.38,131.58v-1.6h3.85l0.13,1.15c0.29-0.42,0.64-0.75,1.04-0.98c0.4-0.23,0.88-0.35,1.42-0.35
		c1.22,0,2.16,0.48,2.84,1.43c0.67,0.95,1.01,2.2,1.01,3.75v0.19c0,1.45-0.34,2.62-1.01,3.51c-0.67,0.88-1.61,1.33-2.82,1.33
		c-0.52,0-0.97-0.1-1.37-0.29c-0.4-0.19-0.74-0.47-1.03-0.84v2.85l1.28,0.27v1.6h-5.21V142l1.28-0.27v-9.87L478.38,131.58z
		 M486.02,134.98c0-0.93-0.15-1.68-0.46-2.25c-0.31-0.58-0.78-0.86-1.42-0.86c-0.4,0-0.74,0.08-1.02,0.25
		c-0.28,0.16-0.5,0.4-0.67,0.7v4.31c0.16,0.28,0.39,0.49,0.67,0.64s0.63,0.22,1.04,0.22c0.64,0,1.11-0.25,1.41-0.75
		c0.3-0.5,0.45-1.18,0.45-2.04V134.98z"/>
	<path fill="#3FC0F0" d="M489.24,134.81c0-1.47,0.41-2.67,1.23-3.6c0.82-0.94,1.96-1.4,3.41-1.4c1.46,0,2.59,0.47,3.41,1.4
		s1.23,2.14,1.23,3.61V135c0,1.48-0.41,2.68-1.23,3.61c-0.82,0.93-1.95,1.4-3.39,1.4c-1.46,0-2.6-0.46-3.42-1.4
		c-0.82-0.93-1.23-2.13-1.23-3.61L489.24,134.81L489.24,134.81z M491.89,135c0,0.9,0.16,1.62,0.47,2.16
		c0.31,0.54,0.82,0.81,1.53,0.81c0.68,0,1.19-0.27,1.5-0.82c0.32-0.54,0.48-1.26,0.48-2.15v-0.19c0-0.87-0.16-1.58-0.48-2.14
		c-0.32-0.56-0.83-0.83-1.52-0.83c-0.69,0-1.19,0.28-1.51,0.83c-0.32,0.55-0.47,1.26-0.47,2.14V135z"/>
	<path fill="#3FC0F0" d="M498.59,127.24v-1.6h4.07v12.32l1.28,0.27v1.59h-5.22v-1.59l1.28-0.27v-10.45L498.59,127.24z"/>
	<path fill="#3FC0F0" d="M504.26,131.58v-1.6h4.07v7.97l1.27,0.27v1.59h-5.21v-1.59l1.28-0.27v-6.1L504.26,131.58z M507.12,126.15
		h2.81l0.02,0.05l-2.51,2.36h-2.13L507.12,126.15z"/>
	<path fill="#3FC0F0" d="M513.74,127.58v2.41h1.73v1.86h-1.73v5.01c0,0.38,0.08,0.65,0.24,0.82c0.16,0.16,0.37,0.24,0.64,0.24
		c0.18,0,0.34-0.01,0.48-0.02c0.14-0.01,0.29-0.04,0.46-0.08l0.23,1.92c-0.3,0.09-0.59,0.16-0.88,0.2
		c-0.29,0.05-0.61,0.07-0.95,0.07c-0.92,0-1.62-0.25-2.11-0.75c-0.49-0.5-0.74-1.3-0.74-2.39v-5.02h-1.45v-1.86h1.45v-2.41H513.74z"
		/>
	<path fill="#3FC0F0" d="M516.07,138.23l1.28-0.27v-6.1l-1.42-0.27v-1.6H520v7.97l1.27,0.27v1.59h-5.21v-1.59H516.07z M520,127.63
		h-2.65v-1.99H520V127.63z"/>
	<path fill="#3FC0F0" d="M526.15,137.97c0.47,0,0.85-0.14,1.14-0.41c0.29-0.28,0.43-0.64,0.43-1.1h2.4l0.03,0.05
		c0.03,0.99-0.35,1.83-1.12,2.5c-0.77,0.67-1.73,1-2.87,1c-1.47,0-2.6-0.46-3.39-1.39c-0.79-0.93-1.19-2.12-1.19-3.57v-0.27
		c0-1.45,0.41-2.64,1.22-3.57c0.82-0.93,1.98-1.4,3.49-1.4c0.79,0,1.51,0.12,2.14,0.35c0.63,0.24,1.15,0.57,1.57,1l0.04,2.63h-2.16
		l-0.44-1.54c-0.13-0.11-0.3-0.21-0.49-0.29c-0.19-0.08-0.42-0.11-0.66-0.11c-0.75,0-1.28,0.27-1.59,0.82
		c-0.31,0.55-0.46,1.25-0.46,2.11v0.27c0,0.88,0.14,1.59,0.43,2.12C524.94,137.71,525.44,137.97,526.15,137.97z"/>
	<path fill="#3FC0F0" d="M536.99,139.82c-0.07-0.16-0.14-0.33-0.19-0.5c-0.06-0.17-0.1-0.35-0.13-0.52
		c-0.31,0.36-0.7,0.66-1.15,0.88c-0.45,0.22-0.97,0.34-1.55,0.34c-0.96,0-1.73-0.26-2.29-0.79c-0.57-0.52-0.85-1.24-0.85-2.14
		c0-0.92,0.37-1.63,1.11-2.14c0.74-0.5,1.83-0.75,3.25-0.75h1.35v-0.96c0-0.47-0.14-0.84-0.41-1.1c-0.27-0.26-0.67-0.39-1.21-0.39
		c-0.3,0-0.57,0.03-0.81,0.1c-0.24,0.07-0.43,0.15-0.57,0.25l-0.17,1.05h-2l0.01-2.18c0.49-0.33,1.04-0.6,1.67-0.83
		s1.31-0.34,2.05-0.34c1.22,0,2.21,0.3,2.97,0.9c0.76,0.6,1.14,1.45,1.14,2.55v4.06c0,0.15,0,0.29,0.01,0.43
		c0,0.13,0.01,0.26,0.03,0.38l0.81,0.11v1.59H536.99z M534.69,138.05c0.4,0,0.76-0.09,1.09-0.26s0.58-0.39,0.76-0.65v-1.5h-1.35
		c-0.56,0-0.99,0.13-1.28,0.4c-0.29,0.26-0.44,0.58-0.44,0.95c0,0.33,0.11,0.59,0.32,0.78S534.31,138.05,534.69,138.05z"/>
	<path fill="#3FC0F0" d="M544.09,131.58v-1.6h3.85l0.13,1.15c0.29-0.42,0.64-0.75,1.05-0.98s0.88-0.35,1.42-0.35
		c1.22,0,2.16,0.48,2.84,1.43c0.67,0.95,1.01,2.2,1.01,3.75v0.19c0,1.45-0.34,2.62-1.01,3.51c-0.67,0.88-1.61,1.33-2.82,1.33
		c-0.52,0-0.97-0.1-1.37-0.29c-0.4-0.19-0.74-0.47-1.03-0.84v2.85l1.28,0.27v1.6h-5.21V142l1.28-0.27v-9.87L544.09,131.58z
		 M551.72,134.98c0-0.93-0.15-1.68-0.46-2.25c-0.31-0.58-0.78-0.86-1.42-0.86c-0.4,0-0.74,0.08-1.02,0.25
		c-0.28,0.16-0.5,0.4-0.67,0.7v4.31c0.16,0.28,0.39,0.49,0.67,0.64c0.28,0.15,0.63,0.22,1.04,0.22c0.64,0,1.11-0.25,1.41-0.75
		c0.3-0.5,0.45-1.18,0.45-2.04V134.98L551.72,134.98z"/>
	<path fill="#3FC0F0" d="M561.83,138.57c-0.32,0.46-0.71,0.81-1.17,1.06s-0.99,0.37-1.59,0.37c-1.04,0-1.85-0.33-2.44-0.99
		c-0.59-0.66-0.88-1.7-0.88-3.1v-4.06l-1.08-0.27v-1.6h1.08h2.65v5.95c0,0.71,0.12,1.23,0.36,1.54c0.24,0.31,0.6,0.47,1.07,0.47
		c0.42,0,0.78-0.07,1.09-0.2c0.31-0.14,0.56-0.33,0.75-0.59v-5.3l-1.16-0.27v-1.6h1.16h2.65v7.97l1.19,0.27v1.59H562L561.83,138.57z
		 M560.1,126.15h2.81l0.02,0.05l-2.51,2.36h-2.13L560.1,126.15z"/>
	<path fill="#3FC0F0" d="M575.46,135.17c0,1.47-0.33,2.64-0.98,3.52c-0.65,0.88-1.6,1.32-2.84,1.32c-0.58,0-1.08-0.12-1.5-0.36
		c-0.42-0.24-0.78-0.59-1.07-1.04l-0.19,1.21h-2.29v-12.31l-1.41-0.27v-1.6h4.05v5.39c0.29-0.39,0.62-0.7,1.02-0.91
		s0.85-0.32,1.37-0.32c1.25,0,2.2,0.47,2.85,1.41c0.66,0.94,0.98,2.2,0.98,3.77L575.46,135.17L575.46,135.17z M572.81,134.98
		c0-0.96-0.14-1.72-0.42-2.28c-0.28-0.56-0.76-0.84-1.44-0.84c-0.41,0-0.76,0.09-1.05,0.26s-0.51,0.42-0.67,0.74v4.15
		c0.16,0.3,0.39,0.53,0.68,0.69c0.29,0.16,0.64,0.24,1.06,0.24c0.68,0,1.16-0.24,1.44-0.72c0.27-0.48,0.41-1.17,0.41-2.05v-0.19
		H572.81z"/>
	<path fill="#3FC0F0" d="M575.61,127.24v-1.6h4.07v12.32l1.28,0.27v1.59h-5.22v-1.59l1.28-0.27v-10.45L575.61,127.24z"/>
	<path fill="#3FC0F0" d="M581.13,138.23l1.28-0.27v-6.1l-1.42-0.27v-1.6h4.07v7.97l1.27,0.27v1.59h-5.21L581.13,138.23
		L581.13,138.23z M585.07,127.63h-2.66v-1.99h2.66V127.63z"/>
	<path fill="#3FC0F0" d="M591.21,137.97c0.47,0,0.85-0.14,1.14-0.41s0.43-0.64,0.43-1.1h2.4l0.03,0.05c0.02,0.99-0.35,1.83-1.12,2.5
		c-0.77,0.67-1.73,1-2.87,1c-1.47,0-2.6-0.46-3.39-1.39c-0.79-0.93-1.19-2.12-1.19-3.57v-0.27c0-1.45,0.41-2.64,1.22-3.57
		c0.82-0.93,1.98-1.4,3.49-1.4c0.79,0,1.5,0.12,2.14,0.35c0.63,0.24,1.15,0.57,1.57,1l0.04,2.63h-2.15l-0.44-1.54
		c-0.13-0.11-0.3-0.21-0.49-0.29c-0.2-0.08-0.42-0.11-0.66-0.11c-0.75,0-1.28,0.27-1.59,0.82c-0.31,0.55-0.46,1.25-0.46,2.11v0.27
		c0,0.88,0.14,1.59,0.43,2.12C590,137.71,590.5,137.97,591.21,137.97z"/>
	<path fill="#3FC0F0" d="M602.05,139.82c-0.07-0.16-0.14-0.33-0.19-0.5c-0.05-0.17-0.1-0.35-0.13-0.52
		c-0.31,0.36-0.7,0.66-1.15,0.88c-0.45,0.22-0.97,0.34-1.55,0.34c-0.96,0-1.73-0.26-2.29-0.79c-0.57-0.52-0.85-1.24-0.85-2.14
		c0-0.92,0.37-1.63,1.11-2.14c0.74-0.5,1.82-0.75,3.25-0.75h1.35v-0.96c0-0.47-0.14-0.84-0.41-1.1c-0.27-0.26-0.68-0.39-1.21-0.39
		c-0.3,0-0.57,0.03-0.81,0.1c-0.24,0.07-0.43,0.15-0.57,0.25l-0.17,1.05h-2l0.01-2.18c0.49-0.33,1.04-0.6,1.67-0.83
		c0.63-0.22,1.31-0.34,2.05-0.34c1.22,0,2.21,0.3,2.97,0.9c0.76,0.6,1.14,1.45,1.14,2.55v4.06c0,0.15,0,0.29,0,0.43
		c0,0.13,0.01,0.26,0.03,0.38l0.81,0.11v1.59H602.05z M599.75,138.05c0.4,0,0.76-0.09,1.09-0.26s0.58-0.39,0.76-0.65v-1.5h-1.35
		c-0.56,0-0.99,0.13-1.28,0.4s-0.44,0.58-0.44,0.95c0,0.33,0.11,0.59,0.32,0.78C599.07,137.95,599.37,138.05,599.75,138.05z"/>
</g>
<g>
	<path fill="#3FC0F0" d="M195.84,371.49c-0.07-0.16-0.14-0.33-0.19-0.5c-0.05-0.17-0.1-0.35-0.13-0.52
		c-0.31,0.36-0.7,0.66-1.15,0.88c-0.45,0.22-0.97,0.34-1.55,0.34c-0.96,0-1.73-0.26-2.3-0.79c-0.57-0.53-0.85-1.24-0.85-2.14
		c0-0.92,0.37-1.63,1.11-2.14c0.74-0.5,1.82-0.75,3.25-0.75h1.35v-0.96c0-0.47-0.14-0.84-0.41-1.1c-0.27-0.26-0.68-0.39-1.21-0.39
		c-0.3,0-0.57,0.03-0.81,0.1c-0.24,0.07-0.43,0.15-0.57,0.25l-0.17,1.05h-2l0.01-2.18c0.49-0.33,1.04-0.6,1.67-0.83
		c0.63-0.22,1.31-0.34,2.05-0.34c1.22,0,2.21,0.3,2.97,0.9c0.76,0.6,1.14,1.45,1.14,2.55v4.06c0,0.15,0,0.29,0,0.43
		c0,0.13,0.01,0.26,0.03,0.38l0.81,0.11v1.59H195.84L195.84,371.49z M193.54,369.72c0.4,0,0.76-0.09,1.09-0.26s0.58-0.39,0.76-0.65
		v-1.5h-1.35c-0.56,0-0.99,0.13-1.28,0.4c-0.29,0.26-0.44,0.58-0.44,0.95c0,0.33,0.11,0.59,0.32,0.78
		C192.86,369.62,193.16,369.72,193.54,369.72z"/>
	<path fill="#3FC0F0" d="M203.81,369.64c0.47,0,0.85-0.14,1.14-0.41c0.29-0.28,0.43-0.64,0.43-1.1h2.4l0.03,0.05
		c0.02,1-0.35,1.83-1.12,2.49c-0.77,0.67-1.73,1.01-2.87,1.01c-1.47,0-2.6-0.46-3.39-1.39c-0.79-0.93-1.19-2.12-1.19-3.57v-0.27
		c0-1.45,0.41-2.64,1.22-3.57s1.98-1.4,3.49-1.4c0.79,0,1.51,0.12,2.14,0.36c0.63,0.24,1.15,0.57,1.57,1l0.04,2.63h-2.15l-0.44-1.54
		c-0.13-0.11-0.3-0.21-0.49-0.29s-0.42-0.11-0.66-0.11c-0.75,0-1.28,0.27-1.59,0.82c-0.31,0.55-0.46,1.25-0.46,2.11v0.27
		c0,0.88,0.14,1.59,0.43,2.12C202.63,369.38,203.1,369.64,203.81,369.64z"/>
	<path fill="#3FC0F0" d="M213,369.64c0.47,0,0.85-0.14,1.14-0.41c0.29-0.27,0.43-0.64,0.43-1.1h2.4l0.03,0.05
		c0.02,1-0.35,1.83-1.12,2.49c-0.77,0.67-1.73,1.01-2.87,1.01c-1.47,0-2.6-0.46-3.39-1.39s-1.19-2.12-1.19-3.57v-0.27
		c0-1.45,0.41-2.64,1.22-3.57s1.98-1.4,3.49-1.4c0.79,0,1.51,0.12,2.14,0.36c0.63,0.24,1.15,0.57,1.57,1l0.04,2.63h-2.15l-0.44-1.54
		c-0.13-0.11-0.3-0.21-0.49-0.29s-0.42-0.11-0.66-0.11c-0.75,0-1.28,0.27-1.59,0.82c-0.31,0.55-0.46,1.25-0.46,2.11v0.27
		c0,0.88,0.14,1.59,0.43,2.12C211.79,369.38,212.29,369.64,213,369.64z"/>
	<path fill="#3FC0F0" d="M217.5,369.9l1.28-0.27v-6.1l-1.42-0.27v-1.6h4.07v7.97l1.27,0.27v1.59h-5.21L217.5,369.9L217.5,369.9z
		 M221.44,359.3h-2.65v-1.99h2.65V359.3z"/>
	<path fill="#3FC0F0" d="M222.97,366.48c0-1.47,0.41-2.67,1.23-3.6c0.82-0.94,1.96-1.4,3.4-1.4c1.45,0,2.59,0.47,3.41,1.4
		c0.82,0.93,1.23,2.14,1.23,3.61v0.19c0,1.48-0.41,2.68-1.23,3.61c-0.82,0.93-1.95,1.4-3.4,1.4c-1.46,0-2.6-0.47-3.42-1.4
		s-1.23-2.13-1.23-3.61v-0.2H222.97z M225.62,366.67c0,0.9,0.16,1.62,0.47,2.16s0.82,0.81,1.53,0.81c0.69,0,1.19-0.27,1.5-0.82
		c0.32-0.55,0.48-1.26,0.48-2.16v-0.19c0-0.87-0.16-1.58-0.48-2.14c-0.32-0.56-0.83-0.83-1.52-0.83s-1.19,0.28-1.51,0.83
		c-0.32,0.55-0.47,1.26-0.47,2.14V366.67z M227.82,357.82h2.81l0.02,0.05l-2.51,2.36h-2.13L227.82,357.82z"/>
	<path fill="#3FC0F0" d="M232.64,369.9l1.27-0.27v-6.1l-1.41-0.27v-1.6h3.88l0.12,1.41c0.33-0.5,0.73-0.89,1.21-1.17
		c0.48-0.28,1.01-0.42,1.61-0.42c0.99,0,1.77,0.31,2.33,0.94c0.56,0.62,0.84,1.6,0.84,2.94v4.28l1.27,0.27v1.59h-5.07v-1.59
		l1.14-0.27v-4.27c0-0.66-0.13-1.13-0.4-1.4c-0.27-0.28-0.67-0.41-1.21-0.41c-0.35,0-0.67,0.07-0.95,0.21
		c-0.28,0.14-0.51,0.34-0.7,0.6v5.27l1.07,0.27v1.59h-5V369.9z"/>
</g>
</svg>
