<?xml version="1.0" encoding="utf-8"?>
<!-- Generator: Adobe Illustrator 16.0.0, SVG Export Plug-In . SVG Version: 6.00 Build 0)  -->
<!DOCTYPE svg PUBLIC "-//W3C//DTD SVG 1.1//EN" "http://www.w3.org/Graphics/SVG/1.1/DTD/svg11.dtd">
<svg version="1.1" xmlns="http://www.w3.org/2000/svg" xmlns:xlink="http://www.w3.org/1999/xlink" x="0px" y="0px" width="600px"
	 height="600px" viewBox="0 0 600 600" enable-background="new 0 0 600 600" xml:space="preserve">
<g id="fondos">
</g>
<g id="exp-democratica">
</g>
<g id="exp-personal">
</g>
<g id="esp-individual">
</g>
<g id="esp-colectivo">
	<g>
		<g>
			<path fill="#FFFFFF" d="M323.155,296.21c-4.946-1.906-5.6-5.049-5.6-7.211v0.042c2.882-2.159,5.054-5.687,5.054-10.039
				c0-6.299-2.266-11.396-8.806-11.396c-6.329,0-8.616,5.112-8.616,11.411c0,4.073,1.562,7.642,4.444,9.659v0.002
				c0,2.361-0.589,5.755-5.812,7.77c-2.535,0.978-4.788,1.807-6.624,2.969c0.358,0.82,1.2,1.59,3.331,2.411
				c6.271,2.419,10.736,4.209,13.436,10.692h22.683C334.879,300.994,330.613,299.088,323.155,296.21z"/>
			<path fill="#FFFFFF" d="M276.625,296.424c-4.965-1.914-5.826-5.035-5.665-7.348l0,0c2.722-1.923,5.119-5.705,5.119-10.057
				c0-6.298-2.232-11.405-8.775-11.405c-6.328,0-8.772,5.107-8.772,11.405c0,4.074,1.805,7.642,4.288,9.658l0,0
				c0.271,2.361-0.409,5.525-5.639,7.542c-7.458,2.875-11.797,4.774-13.564,16.3h21.606c2.7-6.483,7.212-8.262,13.485-10.682
				c2.559-0.984,3.335-2.099,3.546-3.053C280.621,297.882,278.755,297.244,276.625,296.424z"/>
			<path fill="#FFFFFF" d="M310.38,312.688c-2.356-4.321-5.983-5.794-11.062-7.753c-2.492-0.959-3.95-2.153-4.765-3.471
				c-0.002,0.005-0.007,0.029-0.009,0.033c-0.8-1.302-0.972-2.641-0.892-3.787c2.721-1.923,5.119-5.698,5.119-10.052
				c0-6.298-2.233-11.403-8.774-11.403c-6.329,0-8.773,5.11-8.773,11.406c0,4.074,1.804,7.643,4.287,9.659
				c0.12,1.034,0.053,2.268-0.495,3.497c-0.004-0.004-0.007-0.008-0.009-0.01c-0.708,1.568-2.209,3.081-5.134,4.209
				c-5.077,1.959-8.707,3.35-11.066,7.671c-1.105,2.161-1.934,5.596-2.497,8.477h23.298h23.266
				C312.309,318.284,311.482,314.85,310.38,312.688z M290.158,312.857c-0.009-0.052-0.019-0.104-0.026-0.157
				c-0.009,0.054-0.018,0.105-0.027,0.157h-0.021c0.012,0,0.027-0.099,0.042-0.188c0.001,0.011,0.003,0.02,0.006,0.031
				c0.001-0.014,0.003-0.025,0.006-0.037c0.015,0.091,0.03,0.194,0.042,0.194H290.158z"/>
		</g>
		<g>
			<g>
				<path fill="#FFFFFF" d="M264.43,484.92c-64.293-8.567-120.157-48.292-149.437-106.262l7.502-3.79
					c28.028,55.493,81.504,93.52,143.045,101.722c79.868,10.643,157.546-30.682,193.292-102.834l7.531,3.73
					C429.02,452.866,347.866,496.039,264.43,484.92z"/>
				<g>
					<polygon fill="#FFFFFF" points="110.245,397.06 114.308,398.146 119.632,378.121 139.217,384.896 140.588,380.92 
						116.736,372.674 					"/>
				</g>
			</g>
			<g>
				<path fill="#FFFFFF" d="M457.589,206.398c-35.645-69.308-108.78-108.972-186.324-101.05
					c-63.891,6.528-119.432,44.654-148.571,101.988l-7.493-3.808c30.44-59.896,88.463-99.722,155.211-106.541
					c40.065-4.094,79.8,4.016,114.908,23.449c34.306,18.988,61.878,47.383,79.743,82.115L457.589,206.398z"/>
				<g>
					<polygon fill="#FFFFFF" points="469.777,184.145 465.71,183.07 460.449,203.113 440.843,196.401 439.486,200.384 
						463.364,208.551 					"/>
				</g>
			</g>
		</g>
		<g>
			<path fill="#FFFFFF" d="M211.205,42.025V38.93h10.606v3.096l-2.744,0.527v18.381l2.744,0.527v3.076h-10.606v-3.076l2.743-0.527
				V42.553L211.205,42.025z"/>
			<path fill="#FFFFFF" d="M223.605,61.461l2.462-0.527V49.131l-2.728-0.527v-3.096h7.512l0.228,2.727
				c0.633-0.973,1.414-1.73,2.34-2.27c0.927-0.539,1.963-0.809,3.112-0.809c1.923,0,3.424,0.604,4.502,1.812
				c1.079,1.207,1.618,3.1,1.618,5.68v8.285l2.463,0.527v3.076H235.3v-3.076l2.2-0.527v-8.267c0-1.278-0.259-2.185-0.774-2.718
				s-1.297-0.8-2.34-0.8c-0.681,0-1.29,0.138-1.829,0.413c-0.54,0.275-0.99,0.666-1.354,1.17v10.201l2.075,0.527v3.076h-9.673
				V61.461z"/>
			<path fill="#FFFFFF" d="M246.152,48.604v-3.096h7.51l0.211,2.516c0.609-0.914,1.375-1.621,2.295-2.119
				c0.921-0.499,1.984-0.748,3.192-0.748c1.219,0,2.263,0.27,3.13,0.809c0.868,0.539,1.524,1.355,1.971,2.446
				c0.586-1.021,1.348-1.817,2.286-2.393c0.938-0.574,2.04-0.862,3.307-0.862c1.876,0,3.356,0.648,4.441,1.943
				c1.084,1.296,1.627,3.27,1.627,5.919v7.915l2.479,0.527v3.076h-9.831v-3.076l2.216-0.527V53c0-1.442-0.234-2.443-0.703-3.006
				c-0.469-0.563-1.168-0.845-2.094-0.845c-0.728,0-1.357,0.161-1.891,0.483s-0.959,0.771-1.275,1.346
				c0,0.223,0.007,0.413,0.019,0.571s0.017,0.319,0.017,0.484v8.899l2.075,0.527v3.076h-9.268v-3.076l2.075-0.527V53
				c0-1.407-0.234-2.4-0.703-2.98s-1.173-0.87-2.11-0.87c-0.692,0-1.3,0.132-1.821,0.396s-0.953,0.637-1.293,1.117v10.271
				l2.216,0.527v3.076h-9.814v-3.076l2.481-0.527V49.131L246.152,48.604z"/>
			<path fill="#FFFFFF" d="M289.189,64.908c-2.744,0-4.937-0.88-6.578-2.639s-2.463-3.993-2.463-6.702v-0.703
				c0-2.826,0.777-5.152,2.331-6.981s3.638-2.738,6.252-2.727c2.568,0,4.562,0.773,5.98,2.321c1.418,1.548,2.129,3.642,2.129,6.28
				v2.795h-11.361l-0.035,0.105c0.094,1.255,0.512,2.286,1.257,3.096c0.744,0.809,1.756,1.215,3.034,1.215
				c1.138,0,2.08-0.115,2.83-0.344c0.751-0.229,1.571-0.59,2.463-1.082l1.391,3.166c-0.786,0.621-1.804,1.144-3.052,1.566
				C292.118,64.697,290.725,64.908,289.189,64.908z M288.731,49.114c-0.949,0-1.7,0.363-2.251,1.091
				c-0.551,0.727-0.891,1.681-1.021,2.865l0.055,0.089h6.296v-0.457c0-1.091-0.256-1.962-0.766-2.612S289.764,49.114,288.731,49.114
				z"/>
			<path fill="#FFFFFF" d="M299.655,61.461l2.462-0.527V49.131l-2.728-0.527v-3.096h7.512l0.228,2.778
				c0.445-0.984,1.02-1.751,1.724-2.303c0.703-0.551,1.52-0.827,2.445-0.827c0.27,0,0.554,0.021,0.853,0.062
				s0.548,0.091,0.747,0.149l-0.544,4.678l-2.111-0.051c-0.75,0-1.371,0.145-1.863,0.438c-0.493,0.294-0.868,0.711-1.126,1.25v9.252
				l2.462,0.527v3.076h-10.06V61.461z"/>
			<path fill="#FFFFFF" d="M329.957,52.05h-3.447l-0.544-2.373c-0.352-0.281-0.795-0.516-1.328-0.703s-1.122-0.281-1.767-0.281
				c-0.903,0-1.618,0.201-2.146,0.606c-0.527,0.404-0.792,0.91-0.792,1.521c0,0.574,0.253,1.053,0.757,1.434
				c0.505,0.381,1.513,0.719,3.025,1.012c2.357,0.47,4.104,1.157,5.241,2.066c1.138,0.908,1.705,2.159,1.705,3.754
				c0,1.712-0.735,3.111-2.207,4.195c-1.472,1.085-3.409,1.628-5.813,1.628c-1.465,0-2.811-0.215-4.035-0.643
				c-1.226-0.428-2.312-1.041-3.263-1.839l-0.054-4.272h3.588l0.704,2.479c0.305,0.258,0.722,0.449,1.249,0.572
				c0.528,0.123,1.079,0.186,1.654,0.186c1.043,0,1.837-0.188,2.382-0.562c0.546-0.376,0.818-0.887,0.818-1.531
				c0-0.563-0.276-1.049-0.827-1.459c-0.552-0.41-1.564-0.773-3.042-1.091c-2.239-0.457-3.932-1.135-5.074-2.032
				c-1.144-0.896-1.715-2.118-1.715-3.666c0-1.595,0.657-2.97,1.97-4.125c1.313-1.154,3.183-1.732,5.609-1.732
				c1.478,0,2.877,0.199,4.195,0.598c1.319,0.398,2.354,0.91,3.105,1.531L329.957,52.05z"/>
			<path fill="#FFFFFF" d="M332.807,61.461l2.481-0.527V49.131l-2.744-0.527v-3.096h7.88v15.426l2.462,0.527v3.076h-10.079V61.461z
				 M340.424,40.953h-5.136v-3.853h5.136V40.953z"/>
			<path fill="#FFFFFF" d="M344.574,54.848c0-2.837,0.794-5.162,2.383-6.974c1.588-1.812,3.784-2.718,6.587-2.718
				c2.813,0,5.015,0.902,6.604,2.708s2.383,4.135,2.383,6.983v0.368c0,2.861-0.794,5.192-2.383,6.992s-3.778,2.7-6.568,2.7
				c-2.826,0-5.034-0.9-6.622-2.7c-1.589-1.8-2.383-4.131-2.383-6.992V54.848z M349.71,55.216c0,1.735,0.305,3.129,0.914,4.178
				c0.61,1.05,1.595,1.575,2.955,1.575c1.325,0,2.295-0.528,2.91-1.583c0.615-1.056,0.924-2.446,0.924-4.17v-0.368
				c0-1.688-0.312-3.067-0.934-4.134c-0.621-1.067-1.599-1.6-2.936-1.6s-2.31,0.532-2.92,1.6c-0.609,1.066-0.914,2.445-0.914,4.134
				V55.216z M353.966,38.086h5.434l0.035,0.105l-4.854,4.572h-4.115L353.966,38.086z"/>
			<path fill="#FFFFFF" d="M364.483,61.461l2.462-0.527V49.131l-2.727-0.527v-3.096h7.511l0.228,2.727
				c0.633-0.973,1.414-1.73,2.341-2.27c0.926-0.539,1.963-0.809,3.111-0.809c1.923,0,3.424,0.604,4.503,1.812
				c1.078,1.207,1.618,3.1,1.618,5.68v8.285l2.462,0.527v3.076h-9.814v-3.076l2.2-0.527v-8.267c0-1.278-0.258-2.185-0.774-2.718
				c-0.516-0.533-1.296-0.8-2.34-0.8c-0.68,0-1.29,0.138-1.829,0.413s-0.989,0.666-1.354,1.17v10.201l2.076,0.527v3.076h-9.674
				V61.461z"/>
		</g>
		<g>
			<path fill="#FFFFFF" d="M68.577,241.547v3.096l-2.744,0.527v21.985h-5.118l-10.342-17.236l-0.105,0.018v13.613l2.744,0.527v3.078
				H42.406v-3.078l2.727-0.527v-18.38l-2.727-0.527v-3.096h2.727h5.135l10.342,17.236l0.105-0.018V245.17l-2.743-0.527v-3.096h7.861
				H68.577z"/>
			<path fill="#FFFFFF" d="M70.354,257.464c0-2.837,0.794-5.161,2.384-6.974c1.587-1.811,3.783-2.717,6.586-2.717
				c2.813,0,5.015,0.902,6.604,2.708c1.588,1.806,2.383,4.134,2.383,6.982v0.369c0,2.861-0.795,5.191-2.383,6.992
				c-1.59,1.799-3.779,2.699-6.569,2.699c-2.826,0-5.034-0.9-6.621-2.699c-1.59-1.801-2.384-4.131-2.384-6.992V257.464z
				 M75.489,257.833c0,1.735,0.305,3.128,0.914,4.178c0.61,1.049,1.595,1.574,2.955,1.574c1.325,0,2.294-0.528,2.911-1.583
				c0.614-1.056,0.923-2.445,0.923-4.169v-0.369c0-1.688-0.311-3.065-0.933-4.133c-0.621-1.067-1.6-1.601-2.937-1.601
				s-2.31,0.533-2.92,1.601c-0.609,1.067-0.914,2.444-0.914,4.133V257.833z"/>
			<path fill="#FFFFFF" d="M106.074,254.668h-3.447l-0.545-2.375c-0.353-0.281-0.794-0.516-1.329-0.703
				c-0.532-0.188-1.122-0.281-1.767-0.281c-0.903,0-1.618,0.201-2.146,0.607c-0.528,0.403-0.792,0.911-0.792,1.521
				c0,0.574,0.252,1.052,0.757,1.434c0.504,0.38,1.513,0.718,3.024,1.011c2.357,0.47,4.104,1.159,5.241,2.066
				c1.138,0.91,1.706,2.161,1.706,3.756c0,1.712-0.736,3.11-2.206,4.193c-1.473,1.086-3.41,1.628-5.813,1.628
				c-1.466,0-2.812-0.214-4.036-0.643c-1.227-0.427-2.313-1.04-3.263-1.837l-0.053-4.274h3.588l0.703,2.479
				c0.305,0.259,0.721,0.449,1.249,0.571c0.527,0.124,1.078,0.186,1.653,0.186c1.043,0,1.837-0.188,2.384-0.562
				c0.544-0.376,0.816-0.886,0.816-1.53c0-0.563-0.275-1.05-0.826-1.46s-1.565-0.774-3.043-1.091
				c-2.239-0.457-3.932-1.135-5.073-2.03c-1.145-0.898-1.716-2.12-1.716-3.668c0-1.595,0.657-2.969,1.971-4.125
				c1.312-1.153,3.183-1.731,5.61-1.731c1.478,0,2.875,0.199,4.195,0.598c1.317,0.398,2.353,0.909,3.104,1.53L106.074,254.668z"/>
			<path fill="#FFFFFF" d="M109.082,257.464c0-2.837,0.793-5.161,2.383-6.974c1.588-1.811,3.784-2.717,6.587-2.717
				c2.813,0,5.015,0.902,6.604,2.708c1.588,1.806,2.383,4.134,2.383,6.982v0.369c0,2.861-0.795,5.191-2.383,6.992
				c-1.59,1.799-3.779,2.699-6.569,2.699c-2.826,0-5.034-0.9-6.622-2.699c-1.59-1.801-2.383-4.131-2.383-6.992V257.464z
				 M114.217,257.833c0,1.735,0.306,3.128,0.915,4.178c0.609,1.049,1.595,1.574,2.955,1.574c1.324,0,2.294-0.528,2.911-1.583
				c0.614-1.056,0.923-2.445,0.923-4.169v-0.369c0-1.688-0.311-3.065-0.933-4.133c-0.621-1.067-1.601-1.601-2.937-1.601
				c-1.337,0-2.311,0.533-2.92,1.601s-0.915,2.444-0.915,4.133V257.833z"/>
			<path fill="#FFFFFF" d="M136.853,243.464v4.661h3.342v3.605h-3.342v9.691c0,0.738,0.152,1.266,0.458,1.582
				c0.305,0.316,0.715,0.476,1.23,0.476c0.352,0,0.659-0.015,0.924-0.045c0.263-0.028,0.56-0.079,0.888-0.149l0.439,3.712
				c-0.574,0.176-1.143,0.307-1.706,0.396c-0.562,0.087-1.172,0.132-1.829,0.132c-1.771,0-3.134-0.486-4.088-1.46
				c-0.957-0.973-1.435-2.515-1.435-4.625v-9.709h-2.796v-3.605h2.796v-4.661H136.853z"/>
			<path fill="#FFFFFF" d="M143.097,264.077l2.462-0.527v-11.802l-2.726-0.527v-3.096h7.51l0.229,2.779
				c0.445-0.985,1.021-1.754,1.724-2.305s1.519-0.826,2.444-0.826c0.27,0,0.555,0.02,0.853,0.062
				c0.301,0.04,0.549,0.091,0.748,0.149l-0.545,4.678l-2.11-0.053c-0.751,0-1.372,0.147-1.864,0.44
				c-0.493,0.293-0.868,0.709-1.126,1.249v9.251l2.462,0.527v3.078h-10.06V264.077z"/>
			<path fill="#FFFFFF" d="M157.519,257.464c0-2.837,0.794-5.161,2.384-6.974c1.588-1.811,3.783-2.717,6.586-2.717
				c2.814,0,5.015,0.902,6.604,2.708c1.588,1.806,2.383,4.134,2.383,6.982v0.369c0,2.861-0.795,5.191-2.383,6.992
				c-1.59,1.799-3.778,2.699-6.569,2.699c-2.826,0-5.033-0.9-6.621-2.699c-1.59-1.801-2.384-4.131-2.384-6.992V257.464z
				 M162.654,257.833c0,1.735,0.305,3.128,0.914,4.178c0.61,1.049,1.595,1.574,2.955,1.574c1.325,0,2.295-0.528,2.911-1.583
				c0.614-1.056,0.923-2.445,0.923-4.169v-0.369c0-1.688-0.311-3.065-0.932-4.133c-0.622-1.067-1.601-1.601-2.938-1.601
				s-2.31,0.533-2.92,1.601c-0.609,1.067-0.914,2.444-0.914,4.133V257.833z"/>
			<path fill="#FFFFFF" d="M193.239,254.668h-3.447l-0.545-2.375c-0.352-0.281-0.794-0.516-1.329-0.703
				c-0.532-0.188-1.122-0.281-1.767-0.281c-0.903,0-1.618,0.201-2.146,0.607c-0.527,0.403-0.792,0.911-0.792,1.521
				c0,0.574,0.253,1.052,0.757,1.434c0.504,0.38,1.513,0.718,3.025,1.011c2.356,0.47,4.104,1.159,5.24,2.066
				c1.138,0.91,1.706,2.161,1.706,3.756c0,1.712-0.736,3.11-2.206,4.193c-1.473,1.086-3.41,1.628-5.813,1.628
				c-1.466,0-2.812-0.214-4.036-0.643c-1.227-0.427-2.313-1.04-3.263-1.837l-0.053-4.274h3.588l0.703,2.479
				c0.305,0.259,0.722,0.449,1.249,0.571c0.527,0.124,1.078,0.186,1.653,0.186c1.043,0,1.837-0.188,2.384-0.562
				c0.544-0.376,0.817-0.886,0.817-1.53c0-0.563-0.276-1.05-0.827-1.46s-1.565-0.774-3.043-1.091
				c-2.239-0.457-3.931-1.135-5.073-2.03c-1.145-0.898-1.715-2.12-1.715-3.668c0-1.595,0.656-2.969,1.97-4.125
				c1.312-1.153,3.184-1.731,5.61-1.731c1.478,0,2.875,0.199,4.195,0.598c1.317,0.398,2.354,0.909,3.104,1.53L193.239,254.668z"/>
		</g>
		<g>
			<path fill="#FFFFFF" d="M398.777,241.547c2.932,0,5.243,0.754,6.939,2.26c1.692,1.508,2.54,3.48,2.54,5.919
				c0,2.45-0.848,4.42-2.54,5.909c-1.696,1.489-4.008,2.234-6.939,2.234h-4.326v5.681l2.743,0.527v3.078h-10.605v-3.078l2.727-0.527
				v-18.38l-2.727-0.527v-3.096h2.727H398.777z M394.451,253.911h4.326c1.431,0,2.512-0.389,3.246-1.17
				c0.731-0.778,1.098-1.772,1.098-2.98c0-1.231-0.366-2.249-1.098-3.051c-0.734-0.805-1.815-1.206-3.246-1.206h-4.326V253.911z"/>
			<path fill="#FFFFFF" d="M410.403,264.077l2.462-0.527v-11.802l-2.727-0.527v-3.096h7.511l0.229,2.779
				c0.445-0.985,1.02-1.754,1.724-2.305c0.703-0.551,1.519-0.826,2.444-0.826c0.27,0,0.555,0.02,0.853,0.062
				c0.3,0.04,0.549,0.091,0.748,0.149l-0.545,4.678l-2.11-0.053c-0.751,0-1.372,0.147-1.864,0.44
				c-0.493,0.293-0.868,0.709-1.126,1.249v9.251l2.462,0.527v3.078h-10.06V264.077z"/>
			<path fill="#FFFFFF" d="M424.825,257.464c0-2.837,0.794-5.161,2.384-6.974c1.587-1.811,3.783-2.717,6.586-2.717
				c2.813,0,5.015,0.902,6.604,2.708c1.588,1.806,2.383,4.134,2.383,6.982v0.369c0,2.861-0.795,5.191-2.383,6.992
				c-1.59,1.799-3.779,2.699-6.569,2.699c-2.826,0-5.034-0.9-6.621-2.699c-1.59-1.801-2.384-4.131-2.384-6.992V257.464z
				 M429.961,257.833c0,1.735,0.305,3.128,0.914,4.178c0.609,1.049,1.595,1.574,2.955,1.574c1.325,0,2.295-0.528,2.911-1.583
				c0.614-1.056,0.923-2.445,0.923-4.169v-0.369c0-1.688-0.311-3.065-0.932-4.133c-0.622-1.067-1.602-1.601-2.938-1.601
				c-1.337,0-2.311,0.533-2.92,1.601s-0.914,2.444-0.914,4.133V257.833z"/>
			<path fill="#FFFFFF" d="M463.412,258.168c0,2.837-0.633,5.105-1.899,6.807c-1.266,1.699-3.095,2.55-5.487,2.55
				c-1.113,0-2.081-0.232-2.901-0.694c-0.821-0.464-1.513-1.135-2.075-2.015l-0.37,2.34h-4.432v-23.814l-2.727-0.527v-3.096h7.845
				v10.43c0.551-0.762,1.21-1.349,1.979-1.759c0.768-0.41,1.65-0.615,2.646-0.615c2.416,0,4.257,0.911,5.522,2.735
				c1.267,1.822,1.899,4.253,1.899,7.289V258.168z M458.295,257.798c0-1.853-0.272-3.321-0.818-4.405
				c-0.545-1.085-1.475-1.627-2.787-1.627c-0.798,0-1.472,0.166-2.023,0.502c-0.551,0.333-0.984,0.812-1.301,1.433v8.038
				c0.316,0.586,0.752,1.031,1.311,1.336c0.556,0.305,1.239,0.458,2.049,0.458c1.324,0,2.251-0.466,2.778-1.399
				c0.528-0.931,0.792-2.253,0.792-3.965V257.798z"/>
			<path fill="#FFFFFF" d="M464.89,242.813v-3.096h7.88v23.832l2.479,0.527v3.078h-10.095v-3.078l2.479-0.527v-20.209
				L464.89,242.813z"/>
			<path fill="#FFFFFF" d="M486.03,267.524c-2.743,0-4.937-0.88-6.577-2.639c-1.642-1.759-2.463-3.992-2.463-6.7v-0.704
				c0-2.825,0.777-5.153,2.33-6.982c1.555-1.829,3.639-2.737,6.253-2.726c2.567,0,4.562,0.773,5.979,2.321
				c1.419,1.548,2.129,3.641,2.129,6.279v2.796h-11.362l-0.035,0.105c0.094,1.255,0.514,2.287,1.257,3.096
				c0.746,0.809,1.757,1.214,3.035,1.214c1.137,0,2.081-0.115,2.831-0.343c0.751-0.229,1.571-0.59,2.462-1.082l1.39,3.166
				c-0.785,0.621-1.803,1.143-3.051,1.564C488.958,267.313,487.566,267.524,486.03,267.524z M485.573,251.73
				c-0.95,0-1.7,0.363-2.251,1.091c-0.552,0.727-0.892,1.683-1.021,2.866l0.053,0.088h6.297v-0.457c0-1.091-0.256-1.961-0.765-2.612
				C487.375,252.057,486.605,251.73,485.573,251.73z"/>
			<path fill="#FFFFFF" d="M495.511,251.221v-3.096h7.51l0.211,2.515c0.609-0.914,1.375-1.62,2.295-2.119
				c0.921-0.497,1.984-0.747,3.192-0.747c1.22,0,2.263,0.27,3.131,0.809c0.867,0.539,1.524,1.354,1.97,2.445
				c0.586-1.021,1.349-1.817,2.286-2.393c0.938-0.574,2.04-0.861,3.307-0.861c1.876,0,3.357,0.648,4.44,1.942
				c1.086,1.297,1.628,3.27,1.628,5.919v7.915l2.479,0.527v3.078h-9.832v-3.078l2.217-0.527v-7.933c0-1.442-0.235-2.444-0.704-3.008
				c-0.469-0.562-1.166-0.844-2.093-0.844c-0.727,0-1.356,0.162-1.892,0.483c-0.532,0.323-0.958,0.771-1.274,1.346
				c0,0.223,0.006,0.413,0.018,0.572c0.012,0.157,0.018,0.319,0.018,0.483v8.899l2.075,0.527v3.078h-9.269v-3.078l2.075-0.527
				v-7.933c0-1.407-0.234-2.4-0.703-2.981c-0.469-0.579-1.173-0.87-2.11-0.87c-0.692,0-1.3,0.131-1.82,0.396
				c-0.522,0.263-0.953,0.636-1.293,1.116v10.271l2.216,0.527v3.078h-9.813v-3.078l2.479-0.527v-11.802L495.511,251.221z"/>
			<path fill="#FFFFFF" d="M541.731,267.155c-0.141-0.317-0.265-0.642-0.37-0.978c-0.105-0.332-0.188-0.67-0.246-1.01
				c-0.609,0.703-1.352,1.271-2.224,1.705c-0.875,0.435-1.874,0.651-3,0.651c-1.864,0-3.344-0.507-4.441-1.522
				c-1.095-1.013-1.644-2.394-1.644-4.141c0-1.782,0.715-3.16,2.146-4.134c1.431-0.973,3.529-1.46,6.297-1.46h2.62v-1.863
				c0-0.915-0.264-1.624-0.791-2.129c-0.528-0.504-1.308-0.756-2.34-0.756c-0.586,0-1.107,0.068-1.564,0.201
				c-0.458,0.137-0.827,0.297-1.108,0.484l-0.334,2.04h-3.87l0.018-4.221c0.938-0.633,2.014-1.167,3.229-1.601
				c1.212-0.434,2.535-0.65,3.966-0.65c2.356,0,4.27,0.578,5.742,1.731c1.471,1.156,2.207,2.8,2.207,4.935v7.861
				c0,0.293,0.003,0.568,0.01,0.826c0.005,0.259,0.025,0.505,0.061,0.739l1.565,0.211v3.078H541.731z M537.281,263.726
				c0.774,0,1.478-0.167,2.11-0.502c0.634-0.333,1.126-0.753,1.478-1.257v-2.902h-2.62c-1.091,0-1.917,0.255-2.48,0.766
				c-0.562,0.509-0.844,1.122-0.844,1.838c0,0.645,0.207,1.148,0.625,1.512C535.965,263.544,536.543,263.726,537.281,263.726z"/>
		</g>
		<g>
			<path fill="#FFFFFF" d="M61.97,299.732h-5.78v4.878H61.7l0.152-2.04h2.603v4.666H50.948v-2.052l1.817-0.352V292.58l-1.817-0.352
				v-2.064h1.817h11.666v4.679h-2.626l-0.152-2.04h-5.464v4.291h5.78V299.732z"/>
			<path fill="#FFFFFF" d="M66.003,305.185l1.185-0.188l3.447-4.175l-3.33-4.01l-1.185-0.199v-2.063h5.711v1.981l-1.161,0.141
				l1.923,2.439l1.888-2.439l-1.185-0.141v-1.981h5.734v2.063l-1.149,0.199l-3.26,4.01l3.436,4.175l1.196,0.188v2.052h-5.804v-1.97
				l1.16-0.141l-1.97-2.556l-2.005,2.567l1.02,0.129v1.97h-5.651V305.185z"/>
			<path fill="#FFFFFF" d="M80.073,296.613v-2.063h4.972l0.164,1.478c0.375-0.548,0.824-0.97,1.349-1.267s1.134-0.445,1.829-0.445
				c1.571,0,2.79,0.613,3.658,1.841c0.867,1.228,1.302,2.841,1.302,4.843v0.246c0,1.876-0.435,3.385-1.302,4.525
				c-0.868,1.142-2.079,1.712-3.635,1.712c-0.665,0-1.255-0.123-1.771-0.369s-0.958-0.607-1.325-1.085v3.671l1.653,0.352v2.063
				h-6.719v-2.063l1.653-0.352v-12.734L80.073,296.613z M89.923,300.999c0-1.196-0.199-2.166-0.599-2.908
				c-0.398-0.742-1.008-1.114-1.829-1.114c-0.516,0-0.955,0.105-1.318,0.316c-0.364,0.212-0.651,0.513-0.862,0.903v5.558
				c0.211,0.36,0.498,0.633,0.862,0.821c0.363,0.188,0.812,0.281,1.342,0.281c0.829,0,1.437-0.325,1.823-0.974
				c0.388-0.648,0.581-1.527,0.581-2.638V300.999z"/>
			<path fill="#FFFFFF" d="M100.944,307.482c-1.829,0-3.291-0.586-4.386-1.759c-1.094-1.172-1.641-2.661-1.641-4.467v-0.47
				c0-1.884,0.517-3.436,1.553-4.654c1.037-1.22,2.425-1.826,4.169-1.817c1.712,0,3.04,0.516,3.986,1.548
				c0.946,1.031,1.419,2.427,1.419,4.186v1.864h-7.574l-0.023,0.07c0.062,0.836,0.341,1.524,0.838,2.063
				c0.497,0.54,1.17,0.81,2.022,0.81c0.759,0,1.388-0.076,1.888-0.229c0.501-0.153,1.047-0.394,1.642-0.722l0.927,2.11
				c-0.524,0.414-1.202,0.763-2.034,1.044C102.896,307.342,101.968,307.482,100.944,307.482z M100.64,296.953
				c-0.634,0-1.134,0.243-1.501,0.728s-0.595,1.122-0.68,1.911l0.035,0.059h4.197v-0.305c0-0.728-0.17-1.308-0.51-1.741
				C101.842,297.17,101.328,296.953,100.64,296.953z"/>
			<path fill="#FFFFFF" d="M107.921,305.185l1.642-0.352v-7.868l-1.817-0.352v-2.063h5.007l0.152,1.853
				c0.297-0.656,0.68-1.169,1.148-1.536c0.47-0.367,1.013-0.551,1.63-0.551c0.18,0,0.37,0.013,0.569,0.041s0.365,0.061,0.498,0.1
				l-0.363,3.119l-1.407-0.035c-0.501,0-0.915,0.097-1.243,0.293c-0.328,0.195-0.578,0.473-0.75,0.832v6.168l1.642,0.352v2.052
				h-6.707V305.185z"/>
			<path fill="#FFFFFF" d="M117.664,305.185l1.653-0.352v-7.868l-1.829-0.352v-2.063h5.253v10.283l1.642,0.352v2.052h-6.719V305.185
				z M122.741,291.513h-3.424v-2.567h3.424V291.513z"/>
			<path fill="#FFFFFF" d="M131.582,307.482c-1.829,0-3.291-0.586-4.385-1.759c-1.094-1.172-1.642-2.661-1.642-4.467v-0.47
				c0-1.884,0.517-3.436,1.554-4.654c1.036-1.22,2.425-1.826,4.168-1.817c1.712,0,3.04,0.516,3.986,1.548
				c0.946,1.031,1.419,2.427,1.419,4.186v1.864h-7.574l-0.023,0.07c0.062,0.836,0.341,1.524,0.838,2.063
				c0.497,0.54,1.171,0.81,2.022,0.81c0.759,0,1.388-0.076,1.889-0.229c0.5-0.153,1.047-0.394,1.641-0.722l0.927,2.11
				c-0.524,0.414-1.202,0.763-2.034,1.044C133.534,307.342,132.605,307.482,131.582,307.482z M131.277,296.953
				c-0.633,0-1.134,0.243-1.501,0.728s-0.595,1.122-0.68,1.911l0.035,0.059h4.197v-0.305c0-0.728-0.17-1.308-0.51-1.741
				C132.479,297.17,131.966,296.953,131.277,296.953z"/>
			<path fill="#FFFFFF" d="M138.113,305.185l1.642-0.352v-7.868l-1.817-0.352v-2.063h5.007l0.152,1.817
				c0.422-0.648,0.941-1.152,1.56-1.513c0.617-0.36,1.31-0.539,2.075-0.539c1.281,0,2.282,0.402,3.001,1.208
				c0.719,0.805,1.079,2.066,1.079,3.787v5.522l1.642,0.352v2.052h-6.543v-2.052l1.466-0.352v-5.511
				c0-0.853-0.172-1.455-0.516-1.812s-0.864-0.534-1.56-0.534c-0.454,0-0.859,0.093-1.22,0.275c-0.359,0.184-0.66,0.443-0.902,0.78
				v6.801l1.384,0.352v2.052h-6.449V305.185z"/>
			<path fill="#FFFFFF" d="M159.383,304.856c0.609,0,1.099-0.177,1.466-0.534c0.367-0.355,0.551-0.83,0.551-1.424h3.096l0.035,0.07
				c0.031,1.281-0.449,2.355-1.442,3.219c-0.993,0.862-2.228,1.295-3.705,1.295c-1.892,0-3.35-0.598-4.374-1.794
				c-1.023-1.196-1.535-2.731-1.535-4.607v-0.353c0-1.867,0.526-3.403,1.577-4.607c1.05-1.204,2.55-1.806,4.496-1.806
				c1.023,0,1.943,0.152,2.756,0.457s1.488,0.735,2.028,1.29l0.047,3.389h-2.779l-0.562-1.981c-0.173-0.149-0.384-0.271-0.634-0.37
				c-0.249-0.098-0.535-0.146-0.855-0.146c-0.97,0-1.653,0.352-2.052,1.056c-0.398,0.703-0.599,1.609-0.599,2.72v0.353
				c0,1.134,0.185,2.046,0.552,2.737S158.46,304.856,159.383,304.856z"/>
			<path fill="#FFFFFF" d="M165.973,305.185l1.653-0.352v-7.868l-1.829-0.352v-2.063h5.252v10.283l1.642,0.352v2.052h-6.718V305.185
				z M171.049,291.513h-3.423v-2.567h3.423V291.513z"/>
			<path fill="#FFFFFF" d="M181.896,307.236c-0.094-0.211-0.177-0.428-0.247-0.65s-0.125-0.448-0.164-0.675
				c-0.406,0.47-0.901,0.848-1.482,1.138c-0.582,0.289-1.249,0.434-2,0.434c-1.242,0-2.229-0.339-2.96-1.014
				c-0.731-0.676-1.097-1.598-1.097-2.762c0-1.188,0.478-2.107,1.431-2.756c0.953-0.647,2.354-0.973,4.197-0.973h1.747v-1.243
				c0-0.609-0.176-1.082-0.527-1.419c-0.352-0.336-0.871-0.504-1.56-0.504c-0.391,0-0.738,0.046-1.044,0.135
				c-0.305,0.09-0.551,0.197-0.738,0.322l-0.223,1.36h-2.58l0.012-2.813c0.625-0.423,1.343-0.777,2.152-1.067
				c0.809-0.29,1.69-0.434,2.644-0.434c1.571,0,2.849,0.386,3.828,1.155c0.98,0.769,1.472,1.866,1.472,3.288V304
				c0,0.196,0.001,0.379,0.006,0.552c0.005,0.172,0.018,0.336,0.041,0.492l1.044,0.141v2.052H181.896z M178.929,304.95
				c0.516,0,0.985-0.111,1.407-0.334c0.422-0.224,0.75-0.502,0.984-0.839v-1.935h-1.747c-0.727,0-1.277,0.17-1.653,0.51
				c-0.375,0.341-0.562,0.748-0.562,1.226c0,0.431,0.14,0.766,0.416,1.009C178.051,304.829,178.437,304.95,178.929,304.95z"/>
			<path fill="#FFFFFF" d="M80.167,318.98c1.955,0,3.495,0.503,4.626,1.507c1.13,1.003,1.694,2.319,1.694,3.945
				c0,1.634-0.564,2.946-1.694,3.939c-1.131,0.993-2.671,1.489-4.626,1.489h-2.884v3.787L79.112,334v2.053h-7.07V334l1.817-0.352
				v-12.253l-1.817-0.352v-2.063h1.817H80.167z M77.283,327.223h2.884c0.953,0,1.676-0.259,2.163-0.779
				c0.488-0.521,0.733-1.182,0.733-1.987c0-0.821-0.245-1.5-0.733-2.034c-0.487-0.535-1.21-0.804-2.163-0.804h-2.884V327.223z"/>
			<path fill="#FFFFFF" d="M87.918,334l1.642-0.352v-7.867l-1.817-0.352v-2.064h5.006l0.152,1.853
				c0.297-0.656,0.681-1.169,1.149-1.536c0.469-0.366,1.012-0.551,1.63-0.551c0.18,0,0.369,0.014,0.568,0.041
				c0.199,0.028,0.366,0.062,0.499,0.1l-0.364,3.119l-1.406-0.035c-0.501,0-0.915,0.098-1.243,0.293
				c-0.328,0.196-0.578,0.473-0.751,0.833v6.167L94.624,334v2.053h-6.706V334z"/>
			<path fill="#FFFFFF" d="M105.611,336.053c-0.094-0.212-0.176-0.429-0.247-0.651c-0.07-0.223-0.125-0.448-0.164-0.674
				c-0.406,0.469-0.901,0.848-1.482,1.137c-0.582,0.29-1.249,0.435-2,0.435c-1.242,0-2.229-0.339-2.96-1.015
				c-0.732-0.675-1.097-1.597-1.097-2.761c0-1.188,0.478-2.107,1.431-2.756s2.354-0.974,4.197-0.974h1.747v-1.242
				c0-0.61-0.176-1.083-0.527-1.419c-0.352-0.337-0.871-0.504-1.56-0.504c-0.391,0-0.738,0.045-1.043,0.135
				c-0.306,0.089-0.552,0.197-0.739,0.322l-0.223,1.36h-2.579l0.012-2.814c0.625-0.422,1.342-0.777,2.151-1.067
				c0.809-0.289,1.69-0.434,2.644-0.434c1.571,0,2.849,0.386,3.828,1.155c0.98,0.769,1.472,1.866,1.472,3.289v5.241
				c0,0.195,0.001,0.379,0.006,0.551s0.018,0.337,0.041,0.492l1.044,0.141v2.053H105.611z M102.645,333.766
				c0.516,0,0.984-0.111,1.407-0.334c0.422-0.223,0.75-0.502,0.984-0.838v-1.936h-1.747c-0.727,0-1.277,0.171-1.653,0.511
				c-0.375,0.34-0.562,0.748-0.562,1.226c0,0.43,0.14,0.766,0.416,1.008C101.767,333.646,102.152,333.766,102.645,333.766z
				 M103.794,318.441h3.623l0.023,0.07l-3.236,3.048h-2.744L103.794,318.441z"/>
			<path fill="#FFFFFF" d="M116.68,333.672c0.609,0,1.099-0.177,1.466-0.533c0.366-0.356,0.551-0.83,0.551-1.425h3.096l0.035,0.07
				c0.031,1.282-0.449,2.355-1.442,3.219s-2.228,1.296-3.705,1.296c-1.892,0-3.35-0.599-4.374-1.794
				c-1.023-1.196-1.536-2.732-1.536-4.608v-0.352c0-1.868,0.527-3.404,1.577-4.608c1.051-1.204,2.551-1.806,4.497-1.806
				c1.023,0,1.942,0.152,2.756,0.457c0.812,0.306,1.488,0.735,2.028,1.29l0.047,3.389h-2.779l-0.562-1.981
				c-0.173-0.148-0.384-0.271-0.634-0.369c-0.249-0.099-0.535-0.146-0.855-0.146c-0.97,0-1.653,0.352-2.052,1.055
				c-0.398,0.704-0.599,1.61-0.599,2.721v0.352c0,1.134,0.185,2.046,0.552,2.738C115.112,333.326,115.757,333.672,116.68,333.672z"
				/>
			<path fill="#FFFFFF" d="M128.428,320.259v3.106h2.229v2.404h-2.229v6.46c0,0.493,0.103,0.845,0.306,1.056
				c0.202,0.211,0.477,0.316,0.82,0.316c0.234,0,0.439-0.011,0.615-0.029c0.177-0.019,0.373-0.053,0.593-0.1l0.293,2.475
				c-0.384,0.117-0.762,0.205-1.138,0.264c-0.375,0.059-0.782,0.088-1.219,0.088c-1.181,0-2.089-0.325-2.727-0.974
				s-0.955-1.677-0.955-3.084v-6.472h-1.864v-2.404h1.864v-3.106H128.428z"/>
			<path fill="#FFFFFF" d="M132.228,334l1.653-0.352v-7.867l-1.83-0.352v-2.064h5.254v10.283l1.641,0.352v2.053h-6.718V334z
				 M137.305,320.329h-3.424v-2.568h3.424V320.329z"/>
			<path fill="#FFFFFF" d="M146.027,333.672c0.61,0,1.099-0.177,1.466-0.533s0.552-0.83,0.552-1.425h3.095l0.035,0.07
				c0.032,1.282-0.449,2.355-1.442,3.219c-0.992,0.863-2.228,1.296-3.705,1.296c-1.891,0-3.35-0.599-4.373-1.794
				c-1.023-1.196-1.536-2.732-1.536-4.608v-0.352c0-1.868,0.526-3.404,1.577-4.608s2.55-1.806,4.496-1.806
				c1.024,0,1.943,0.152,2.756,0.457c0.812,0.306,1.489,0.735,2.028,1.29l0.047,3.389h-2.778l-0.563-1.981
				c-0.172-0.148-0.383-0.271-0.633-0.369s-0.536-0.146-0.856-0.146c-0.969,0-1.652,0.352-2.052,1.055
				c-0.398,0.704-0.598,1.61-0.598,2.721v0.352c0,1.134,0.185,2.046,0.551,2.738C144.46,333.326,145.104,333.672,146.027,333.672z"
				/>
			<path fill="#FFFFFF" d="M160.802,336.053c-0.094-0.212-0.176-0.429-0.246-0.651s-0.126-0.448-0.165-0.674
				c-0.406,0.469-0.901,0.848-1.482,1.137c-0.582,0.29-1.249,0.435-2,0.435c-1.242,0-2.229-0.339-2.96-1.015
				c-0.731-0.675-1.097-1.597-1.097-2.761c0-1.188,0.478-2.107,1.431-2.756s2.354-0.974,4.197-0.974h1.747v-1.242
				c0-0.61-0.176-1.083-0.527-1.419c-0.352-0.337-0.871-0.504-1.56-0.504c-0.391,0-0.738,0.045-1.043,0.135
				c-0.306,0.089-0.552,0.197-0.739,0.322l-0.223,1.36h-2.579l0.012-2.814c0.625-0.422,1.342-0.777,2.151-1.067
				c0.809-0.289,1.69-0.434,2.644-0.434c1.571,0,2.849,0.386,3.829,1.155c0.979,0.769,1.471,1.866,1.471,3.289v5.241
				c0,0.195,0.002,0.379,0.006,0.551c0.005,0.172,0.018,0.337,0.041,0.492l1.044,0.141v2.053H160.802z M157.835,333.766
				c0.516,0,0.985-0.111,1.407-0.334s0.75-0.502,0.984-0.838v-1.936h-1.747c-0.727,0-1.277,0.171-1.653,0.511
				c-0.375,0.34-0.562,0.748-0.562,1.226c0,0.43,0.14,0.766,0.416,1.008C156.957,333.646,157.343,333.766,157.835,333.766z"/>
		</g>
		<g>
			<path fill="#FFFFFF" d="M410.638,299.732h-5.78v4.878h5.511l0.152-2.04h2.603v4.666h-13.508v-2.052l1.818-0.352V292.58
				l-1.818-0.352v-2.064h1.818H413.1v4.679h-2.626l-0.152-2.04h-5.464v4.291h5.78V299.732z"/>
			<path fill="#FFFFFF" d="M414.671,305.185l1.185-0.188l3.447-4.175l-3.33-4.01l-1.185-0.199v-2.063h5.71v1.981l-1.16,0.141
				l1.923,2.439l1.888-2.439l-1.185-0.141v-1.981h5.733v2.063l-1.148,0.199l-3.26,4.01l3.436,4.175l1.195,0.188v2.052h-5.804v-1.97
				l1.161-0.141l-1.97-2.556l-2.005,2.567l1.02,0.129v1.97h-5.651V305.185z"/>
			<path fill="#FFFFFF" d="M428.741,296.613v-2.063h4.972l0.164,1.478c0.375-0.548,0.824-0.97,1.349-1.267
				c0.523-0.297,1.134-0.445,1.829-0.445c1.57,0,2.79,0.613,3.658,1.841c0.867,1.228,1.301,2.841,1.301,4.843v0.246
				c0,1.876-0.434,3.385-1.301,4.525c-0.868,1.142-2.079,1.712-3.635,1.712c-0.665,0-1.255-0.123-1.771-0.369
				c-0.517-0.246-0.958-0.607-1.325-1.085v3.671l1.653,0.352v2.063h-6.719v-2.063l1.653-0.352v-12.734L428.741,296.613z
				 M438.59,300.999c0-1.196-0.199-2.166-0.598-2.908s-1.008-1.114-1.829-1.114c-0.516,0-0.955,0.105-1.319,0.316
				c-0.363,0.212-0.65,0.513-0.861,0.903v5.558c0.211,0.36,0.498,0.633,0.861,0.821c0.364,0.188,0.812,0.281,1.343,0.281
				c0.829,0,1.437-0.325,1.823-0.974s0.58-1.527,0.58-2.638V300.999z"/>
			<path fill="#FFFFFF" d="M449.612,307.482c-1.829,0-3.292-0.586-4.386-1.759c-1.094-1.172-1.642-2.661-1.642-4.467v-0.47
				c0-1.884,0.518-3.436,1.554-4.654c1.037-1.22,2.425-1.826,4.168-1.817c1.713,0,3.041,0.516,3.987,1.548
				c0.946,1.031,1.419,2.427,1.419,4.186v1.864h-7.575l-0.023,0.07c0.062,0.836,0.342,1.524,0.839,2.063
				c0.497,0.54,1.17,0.81,2.022,0.81c0.759,0,1.387-0.076,1.888-0.229c0.501-0.153,1.047-0.394,1.642-0.722l0.926,2.11
				c-0.523,0.414-1.201,0.763-2.034,1.044C451.564,307.342,450.636,307.482,449.612,307.482z M449.307,296.953
				c-0.633,0-1.133,0.243-1.5,0.728s-0.595,1.122-0.681,1.911l0.035,0.059h4.198v-0.305c0-0.728-0.17-1.308-0.511-1.741
				C450.509,297.17,449.995,296.953,449.307,296.953z"/>
			<path fill="#FFFFFF" d="M456.589,305.185l1.642-0.352v-7.868l-1.818-0.352v-2.063h5.007l0.153,1.853
				c0.296-0.656,0.68-1.169,1.148-1.536s1.012-0.551,1.63-0.551c0.18,0,0.369,0.013,0.568,0.041c0.2,0.028,0.366,0.061,0.499,0.1
				l-0.364,3.119l-1.406-0.035c-0.501,0-0.915,0.097-1.243,0.293c-0.328,0.195-0.578,0.473-0.75,0.832v6.168l1.641,0.352v2.052
				h-6.706V305.185z"/>
			<path fill="#FFFFFF" d="M466.332,305.185l1.653-0.352v-7.868l-1.829-0.352v-2.063h5.253v10.283l1.642,0.352v2.052h-6.719V305.185
				z M471.409,291.513h-3.424v-2.567h3.424V291.513z"/>
			<path fill="#FFFFFF" d="M480.25,307.482c-1.829,0-3.291-0.586-4.385-1.759c-1.095-1.172-1.642-2.661-1.642-4.467v-0.47
				c0-1.884,0.517-3.436,1.554-4.654c1.036-1.22,2.424-1.826,4.168-1.817c1.712,0,3.04,0.516,3.986,1.548
				c0.946,1.031,1.419,2.427,1.419,4.186v1.864h-7.574l-0.023,0.07c0.062,0.836,0.341,1.524,0.838,2.063
				c0.497,0.54,1.17,0.81,2.022,0.81c0.759,0,1.388-0.076,1.888-0.229c0.501-0.153,1.048-0.394,1.642-0.722l0.927,2.11
				c-0.524,0.414-1.202,0.763-2.034,1.044C482.202,307.342,481.273,307.482,480.25,307.482z M479.945,296.953
				c-0.633,0-1.134,0.243-1.501,0.728s-0.595,1.122-0.68,1.911l0.035,0.059h4.197v-0.305c0-0.728-0.17-1.308-0.51-1.741
				C481.146,297.17,480.634,296.953,479.945,296.953z"/>
			<path fill="#FFFFFF" d="M486.781,305.185l1.642-0.352v-7.868l-1.817-0.352v-2.063h5.006l0.152,1.817
				c0.423-0.648,0.942-1.152,1.56-1.513c0.618-0.36,1.31-0.539,2.075-0.539c1.282,0,2.283,0.402,3.002,1.208
				c0.719,0.805,1.079,2.066,1.079,3.787v5.522l1.642,0.352v2.052h-6.543v-2.052l1.466-0.352v-5.511
				c0-0.853-0.173-1.455-0.516-1.812c-0.344-0.356-0.864-0.534-1.56-0.534c-0.454,0-0.859,0.093-1.22,0.275
				c-0.36,0.184-0.66,0.443-0.903,0.78v6.801l1.384,0.352v2.052h-6.448V305.185z"/>
			<path fill="#FFFFFF" d="M508.051,304.856c0.609,0,1.099-0.177,1.465-0.534c0.367-0.355,0.552-0.83,0.552-1.424h3.095l0.035,0.07
				c0.032,1.281-0.448,2.355-1.441,3.219c-0.993,0.862-2.229,1.295-3.705,1.295c-1.892,0-3.351-0.598-4.374-1.794
				s-1.536-2.731-1.536-4.607v-0.353c0-1.867,0.526-3.403,1.577-4.607s2.551-1.806,4.497-1.806c1.023,0,1.942,0.152,2.755,0.457
				s1.489,0.735,2.028,1.29l0.047,3.389h-2.778l-0.562-1.981c-0.173-0.149-0.384-0.271-0.634-0.37
				c-0.25-0.098-0.535-0.146-0.855-0.146c-0.97,0-1.653,0.352-2.052,1.056c-0.399,0.703-0.599,1.609-0.599,2.72v0.353
				c0,1.134,0.185,2.046,0.552,2.737C506.482,304.51,507.128,304.856,508.051,304.856z"/>
			<path fill="#FFFFFF" d="M514.64,305.185l1.653-0.352v-7.868l-1.829-0.352v-2.063h5.253v10.283l1.642,0.352v2.052h-6.719V305.185z
				 M519.717,291.513h-3.424v-2.567h3.424V291.513z"/>
			<path fill="#FFFFFF" d="M530.562,307.236c-0.094-0.211-0.176-0.428-0.246-0.65s-0.125-0.448-0.164-0.675
				c-0.406,0.47-0.901,0.848-1.483,1.138c-0.581,0.289-1.248,0.434-1.999,0.434c-1.242,0-2.229-0.339-2.961-1.014
				c-0.731-0.676-1.096-1.598-1.096-2.762c0-1.188,0.477-2.107,1.431-2.756c0.953-0.647,2.353-0.973,4.197-0.973h1.747v-1.243
				c0-0.609-0.176-1.082-0.527-1.419c-0.352-0.336-0.871-0.504-1.56-0.504c-0.391,0-0.739,0.046-1.044,0.135
				c-0.305,0.09-0.551,0.197-0.738,0.322l-0.223,1.36h-2.58l0.012-2.813c0.625-0.423,1.343-0.777,2.152-1.067
				c0.809-0.29,1.69-0.434,2.644-0.434c1.571,0,2.848,0.386,3.828,1.155c0.98,0.769,1.472,1.866,1.472,3.288V304
				c0,0.196,0.001,0.379,0.006,0.552c0.005,0.172,0.018,0.336,0.041,0.492l1.044,0.141v2.052H530.562z M527.597,304.95
				c0.516,0,0.984-0.111,1.407-0.334c0.422-0.224,0.75-0.502,0.984-0.839v-1.935h-1.747c-0.727,0-1.278,0.17-1.653,0.51
				c-0.375,0.341-0.562,0.748-0.562,1.226c0,0.431,0.14,0.766,0.416,1.009C526.718,304.829,527.104,304.95,527.597,304.95z"/>
			<path fill="#FFFFFF" d="M421.694,318.98c1.938,0,3.459,0.444,4.562,1.331c1.102,0.886,1.652,2.112,1.652,3.676
				c0,0.859-0.23,1.606-0.691,2.239s-1.137,1.146-2.028,1.536c1.009,0.297,1.734,0.791,2.175,1.483
				c0.441,0.691,0.662,1.55,0.662,2.573v0.868c0,0.375,0.074,0.667,0.224,0.873c0.148,0.207,0.395,0.331,0.738,0.369l0.422,0.059
				v2.064h-1.771c-1.117,0-1.902-0.302-2.356-0.903s-0.68-1.38-0.68-2.333v-0.974c0-0.829-0.222-1.479-0.663-1.952
				c-0.44-0.474-1.064-0.721-1.87-0.744h-2.802v4.502l1.829,0.352v2.053h-7.07V334l1.817-0.352v-12.253l-1.817-0.352v-2.063h1.817
				H421.694z M419.268,326.508h2.368c0.953,0,1.669-0.203,2.146-0.609c0.478-0.407,0.715-0.993,0.715-1.759
				s-0.235-1.378-0.709-1.835s-1.17-0.687-2.093-0.687h-2.427V326.508z"/>
			<path fill="#FFFFFF" d="M436.69,336.299c-1.829,0-3.291-0.587-4.385-1.759c-1.094-1.173-1.642-2.662-1.642-4.468v-0.469
				c0-1.885,0.518-3.436,1.554-4.655c1.036-1.219,2.425-1.825,4.168-1.817c1.712,0,3.041,0.516,3.987,1.548
				c0.945,1.032,1.418,2.427,1.418,4.187v1.863h-7.574l-0.023,0.071c0.062,0.836,0.341,1.523,0.838,2.063
				c0.498,0.539,1.171,0.809,2.023,0.809c0.758,0,1.387-0.076,1.888-0.229c0.5-0.152,1.047-0.393,1.642-0.721l0.926,2.11
				c-0.523,0.414-1.201,0.762-2.034,1.043C438.643,336.158,437.715,336.299,436.69,336.299z M436.386,325.77
				c-0.633,0-1.134,0.242-1.501,0.727c-0.366,0.484-0.594,1.122-0.68,1.911l0.035,0.059h4.197v-0.305c0-0.727-0.17-1.308-0.51-1.741
				S437.074,325.77,436.386,325.77z"/>
			<path fill="#FFFFFF" d="M452.414,320.306c-0.422-0.056-0.879-0.082-1.371-0.082c-0.884,0-1.548,0.219-1.994,0.656
				c-0.445,0.438-0.668,1.082-0.668,1.935v0.551h2.814v2.404h-2.814v7.879l1.653,0.352v2.053h-6.906V334l1.829-0.352v-7.879h-1.595
				v-2.404h1.595v-0.551c0-1.696,0.513-3.003,1.536-3.922c1.023-0.92,2.466-1.378,4.326-1.378c0.672,0,1.337,0.06,1.993,0.182
				c0.657,0.122,1.419,0.296,2.287,0.522h2.017v15.43L458.77,334v2.053h-6.73V334l1.653-0.352v-13.12
				C453.262,320.435,452.836,320.36,452.414,320.306z"/>
			<path fill="#FFFFFF" d="M466.145,336.299c-1.829,0-3.291-0.587-4.385-1.759c-1.095-1.173-1.642-2.662-1.642-4.468v-0.469
				c0-1.885,0.517-3.436,1.554-4.655c1.036-1.219,2.424-1.825,4.168-1.817c1.712,0,3.04,0.516,3.986,1.548s1.419,2.427,1.419,4.187
				v1.863h-7.574l-0.023,0.071c0.062,0.836,0.341,1.523,0.838,2.063c0.497,0.539,1.17,0.809,2.022,0.809
				c0.759,0,1.388-0.076,1.888-0.229c0.501-0.152,1.048-0.393,1.642-0.721l0.927,2.11c-0.524,0.414-1.202,0.762-2.034,1.043
				C468.097,336.158,467.168,336.299,466.145,336.299z M465.84,325.77c-0.633,0-1.134,0.242-1.501,0.727s-0.595,1.122-0.68,1.911
				l0.035,0.059h4.197v-0.305c0-0.727-0.17-1.308-0.51-1.741C467.041,325.986,466.528,325.77,465.84,325.77z"/>
			<path fill="#FFFFFF" d="M472.5,334l1.184-0.188l3.447-4.174l-3.33-4.01l-1.184-0.199v-2.064h5.71v1.982l-1.161,0.141l1.923,2.438
				l1.888-2.438l-1.184-0.141v-1.982h5.733v2.064l-1.149,0.199l-3.26,4.01l3.436,4.174l1.196,0.188v2.053h-5.804v-1.971l1.16-0.141
				l-1.97-2.556l-2.005,2.567l1.021,0.129v1.971H472.5V334z"/>
			<path fill="#FFFFFF" d="M486.723,334l1.653-0.352v-7.867l-1.829-0.352v-2.064h5.252v10.283L493.44,334v2.053h-6.718V334z
				 M491.799,320.329h-3.423v-2.568h3.423V320.329z"/>
			<path fill="#FFFFFF" d="M499.948,325.43l-1.196,0.223l1.677,5.675l0.224,1.196h0.07l0.246-1.196l1.653-5.663l-1.22-0.234v-2.064
				h5.757v2.064l-1.103,0.176l-3.74,10.447h-3.271l-3.753-10.447l-1.102-0.176v-2.064h5.757V325.43z"/>
			<path fill="#FFFFFF" d="M516.152,336.053c-0.094-0.212-0.176-0.429-0.246-0.651s-0.125-0.448-0.164-0.674
				c-0.407,0.469-0.901,0.848-1.483,1.137c-0.581,0.29-1.249,0.435-1.999,0.435c-1.243,0-2.229-0.339-2.961-1.015
				c-0.731-0.675-1.096-1.597-1.096-2.761c0-1.188,0.477-2.107,1.43-2.756c0.954-0.648,2.354-0.974,4.198-0.974h1.747v-1.242
				c0-0.61-0.176-1.083-0.527-1.419c-0.353-0.337-0.871-0.504-1.56-0.504c-0.391,0-0.739,0.045-1.044,0.135
				c-0.305,0.089-0.551,0.197-0.738,0.322l-0.223,1.36h-2.58l0.012-2.814c0.625-0.422,1.343-0.777,2.151-1.067
				c0.81-0.289,1.691-0.434,2.645-0.434c1.571,0,2.848,0.386,3.828,1.155c0.98,0.769,1.472,1.866,1.472,3.289v5.241
				c0,0.195,0.001,0.379,0.006,0.551s0.018,0.337,0.041,0.492l1.043,0.141v2.053H516.152z M513.186,333.766
				c0.517,0,0.985-0.111,1.407-0.334c0.423-0.223,0.751-0.502,0.985-0.838v-1.936h-1.747c-0.728,0-1.278,0.171-1.653,0.511
				s-0.562,0.748-0.562,1.226c0,0.43,0.139,0.766,0.416,1.008C512.308,333.646,512.693,333.766,513.186,333.766z"/>
		</g>
		<g>
			<path fill="#FFFFFF" d="M223.068,519.194c3.131,0,5.71,1,7.738,2.999s3.043,4.563,3.043,7.694v4.239
				c0,3.143-1.015,5.707-3.043,7.694s-4.607,2.98-7.738,2.98h-11.521v-3.076l2.727-0.528v-18.38l-2.727-0.528v-3.095h2.727H223.068z
				 M219.41,523.152v17.71h3.395c1.841,0,3.283-0.621,4.326-1.864c1.044-1.243,1.565-2.865,1.565-4.871v-4.274
				c0-1.981-0.521-3.593-1.565-4.836c-1.043-1.243-2.485-1.864-4.326-1.864H219.41z"/>
			<path fill="#FFFFFF" d="M245.598,545.173c-2.743,0-4.936-0.88-6.577-2.639s-2.463-3.993-2.463-6.702v-0.703
				c0-2.826,0.777-5.152,2.33-6.981c1.555-1.829,3.639-2.739,6.253-2.728c2.568,0,4.562,0.774,5.98,2.322
				c1.418,1.547,2.128,3.642,2.128,6.279v2.796h-11.362l-0.035,0.105c0.094,1.255,0.514,2.286,1.258,3.095
				c0.745,0.81,1.756,1.215,3.034,1.215c1.137,0,2.081-0.114,2.831-0.343c0.751-0.229,1.571-0.59,2.463-1.083l1.39,3.166
				c-0.786,0.621-1.804,1.145-3.052,1.566C248.526,544.961,247.134,545.173,245.598,545.173z M245.141,529.379
				c-0.949,0-1.7,0.363-2.251,1.09c-0.551,0.728-0.892,1.682-1.021,2.866l0.053,0.089h6.297v-0.457c0-1.091-0.256-1.962-0.765-2.612
				C246.943,529.703,246.173,529.379,245.141,529.379z"/>
			<path fill="#FFFFFF" d="M255.166,529.379v-3.607h2.832v-1.301c0-2.393,0.729-4.235,2.189-5.531
				c1.459-1.295,3.515-1.942,6.164-1.942c0.915,0,1.817,0.09,2.709,0.271c0.891,0.182,1.923,0.443,3.096,0.783l-0.739,4.046
				c-0.855-0.258-1.634-0.458-2.33-0.599c-0.698-0.141-1.498-0.211-2.401-0.211c-1.184,0-2.072,0.27-2.664,0.81
				c-0.593,0.539-0.889,1.329-0.889,2.373v1.301h11.538v15.426l2.726,0.528v3.076h-10.341v-3.076l2.479-0.528v-11.818h-6.402v11.818
				l2.48,0.528v3.076h-10.359v-3.076l2.744-0.528v-11.818H255.166z"/>
			<path fill="#FFFFFF" d="M278.909,541.726l2.463-0.528v-11.803l-2.727-0.527v-3.096h7.51l0.229,2.728
				c0.633-0.973,1.412-1.73,2.339-2.27c0.926-0.54,1.964-0.81,3.113-0.81c1.923,0,3.423,0.605,4.502,1.812
				c1.079,1.208,1.618,3.101,1.618,5.68v8.285l2.462,0.528v3.076h-9.813v-3.076l2.198-0.528v-8.266c0-1.278-0.258-2.185-0.773-2.718
				c-0.517-0.534-1.296-0.8-2.34-0.8c-0.68,0-1.289,0.137-1.829,0.412c-0.539,0.275-0.99,0.666-1.354,1.171v10.2l2.075,0.528v3.076
				h-9.674V541.726z"/>
			<path fill="#FFFFFF" d="M301.896,541.726l2.48-0.528v-11.803l-2.744-0.527v-3.096h7.879v15.426l2.463,0.528v3.076h-10.078
				V541.726z M309.512,521.218h-5.135v-3.853h5.135V521.218z"/>
			<path fill="#FFFFFF" d="M322.598,541.232c0.914,0,1.647-0.267,2.198-0.801c0.552-0.533,0.827-1.246,0.827-2.137h4.643
				l0.053,0.105c0.047,1.923-0.674,3.532-2.163,4.828s-3.342,1.944-5.558,1.944c-2.838,0-5.024-0.898-6.561-2.692
				s-2.304-4.097-2.304-6.911v-0.527c0-2.803,0.789-5.107,2.365-6.913c1.578-1.806,3.825-2.709,6.745-2.709
				c1.536,0,2.914,0.23,4.133,0.688c1.22,0.457,2.234,1.102,3.043,1.935l0.07,5.082h-4.168l-0.845-2.972
				c-0.258-0.223-0.574-0.408-0.949-0.555s-0.804-0.219-1.284-0.219c-1.454,0-2.479,0.527-3.078,1.583
				c-0.598,1.055-0.896,2.415-0.896,4.08v0.527c0,1.7,0.275,3.068,0.826,4.106C320.247,540.713,321.214,541.232,322.598,541.232z"/>
			<path fill="#FFFFFF" d="M332.482,541.726l2.479-0.528v-11.803l-2.744-0.527v-3.096h7.88v15.426l2.462,0.528v3.076h-10.077
				V541.726z M340.098,521.218h-5.136v-3.853h5.136V521.218z"/>
			<path fill="#FFFFFF" d="M344.248,535.112c0-2.838,0.795-5.163,2.383-6.975c1.59-1.812,3.785-2.718,6.587-2.718
				c2.814,0,5.017,0.903,6.604,2.709c1.59,1.806,2.384,4.134,2.384,6.983v0.368c0,2.861-0.794,5.191-2.384,6.992
				c-1.587,1.799-3.777,2.7-6.568,2.7c-2.825,0-5.032-0.901-6.622-2.7c-1.588-1.801-2.383-4.131-2.383-6.992V535.112z
				 M349.384,535.48c0,1.735,0.305,3.128,0.915,4.178c0.609,1.049,1.594,1.574,2.954,1.574c1.325,0,2.296-0.527,2.91-1.582
				c0.617-1.056,0.924-2.446,0.924-4.17v-0.368c0-1.688-0.311-3.067-0.932-4.135c-0.622-1.066-1.601-1.599-2.938-1.599
				s-2.31,0.532-2.919,1.599c-0.61,1.067-0.915,2.446-0.915,4.135V535.48z M353.64,518.35h5.435l0.035,0.105l-4.854,4.573h-4.115
				L353.64,518.35z"/>
			<path fill="#FFFFFF" d="M364.157,541.726l2.463-0.528v-11.803l-2.727-0.527v-3.096h7.51l0.229,2.728
				c0.633-0.973,1.412-1.73,2.339-2.27c0.926-0.54,1.964-0.81,3.113-0.81c1.923,0,3.424,0.605,4.502,1.812
				c1.079,1.208,1.618,3.101,1.618,5.68v8.285l2.463,0.528v3.076h-9.814v-3.076l2.198-0.528v-8.266c0-1.278-0.258-2.185-0.773-2.718
				c-0.517-0.534-1.296-0.8-2.34-0.8c-0.68,0-1.289,0.137-1.829,0.412c-0.539,0.275-0.99,0.666-1.354,1.171v10.2l2.075,0.528v3.076
				h-9.674V541.726z"/>
		</g>
	</g>
</g>
</svg>
