<?xml version="1.0" encoding="utf-8"?>
<!-- Generator: Adobe Illustrator 16.0.0, SVG Export Plug-In . SVG Version: 6.00 Build 0)  -->
<!DOCTYPE svg PUBLIC "-//W3C//DTD SVG 1.1//EN" "http://www.w3.org/Graphics/SVG/1.1/DTD/svg11.dtd">
<svg version="1.1" id="Capa_1" xmlns="http://www.w3.org/2000/svg" xmlns:xlink="http://www.w3.org/1999/xlink" x="0px" y="0px"
	 width="760px" height="500px" viewBox="0 0 760 500" enable-background="new 0 0 760 500" xml:space="preserve">
<g id="modelo_completo">
</g>
<g id="publicacion">
</g>
<g id="publicacion_y_conversacion">
</g>
<g id="conversacion">
</g>
<path fill="#FFFFFF" d="M72.84,250.52c-6.9-2.66-8.09-7.01-7.86-10.22c3.78-2.67,7.11-7.92,7.11-13.96c0-8.74-3.1-15.83-12.18-15.83
	c-8.78,0-12.18,7.09-12.18,15.83c0,5.66,2.5,10.61,5.95,13.41c0.38,3.28-0.57,7.99-7.83,10.79c-10.35,3.989-16.38,6.45-18.83,22.95
	h32.34h32.29C89.21,256.99,83.19,254.52,72.84,250.52z"/>
<g>
	<path fill="#FFFFFF" d="M713.77,244.53c-6.869-2.65-7.77-7.01-7.77-10.01v0.06c4-3,7.02-7.9,7.02-13.94
		c0-8.74-3.14-15.82-12.22-15.82c-8.79,0-11.96,7.1-11.96,15.84c0,5.66,2.17,10.61,6.17,13.41l0,0c0,3.28-0.819,7.99-8.069,10.79
		c-3.521,1.36-6.65,2.51-9.2,4.12c0.5,1.14,1.67,2.209,4.62,3.35c8.699,3.359,14.899,5.84,18.649,14.84h31.49
		C730.05,251.17,724.12,248.53,713.77,244.53z"/>
	<path fill="#FFFFFF" d="M649.18,244.83c-6.89-2.66-8.09-6.99-7.859-10.2l0,0c3.779-2.67,7.109-7.92,7.109-13.96
		c0-8.74-3.1-15.83-12.18-15.83c-8.79,0-12.18,7.09-12.18,15.83c0,5.65,2.5,10.61,5.949,13.41l0,0
		c0.381,3.28-0.569,7.67-7.829,10.47c-10.351,3.99-16.381,6.63-18.83,22.63h29.989c3.75-9,10.011-11.47,18.721-14.83
		c3.55-1.369,4.63-2.91,4.92-4.24C654.73,246.86,652.14,245.97,649.18,244.83z"/>
	<path fill="#FFFFFF" d="M696.04,267.41c-3.271-6-8.3-8.04-15.36-10.76c-3.46-1.33-5.479-2.99-6.609-4.82l-0.011,0.04
		c-1.109-1.81-1.35-3.67-1.239-5.26c3.779-2.67,7.1-7.91,7.1-13.95c0-8.74-3.1-15.83-12.18-15.83c-8.79,0-12.181,7.09-12.181,15.83
		c0,5.65,2.5,10.61,5.95,13.41c0.17,1.43,0.07,3.15-0.689,4.85l-0.011-0.01c-0.979,2.18-3.069,4.279-7.13,5.84
		c-7.05,2.721-12.09,4.65-15.359,10.65c-1.53,3-2.681,7.77-3.471,11.77h32.341h32.29C698.72,275.17,697.57,270.41,696.04,267.41z
		 M667.97,267.641c-0.01-0.07-0.03-0.141-0.04-0.221c-0.01,0.08-0.02,0.15-0.04,0.221h-0.029c0.02,0,0.04-0.141,0.06-0.261
		c0,0.011,0,0.03,0.01,0.04c0-0.02,0.011-0.029,0.011-0.05c0.02,0.13,0.04,0.271,0.06,0.271H667.97z"/>
</g>
<path fill="#FFFFFF" d="M380,248.97c3.85,0,6.97-3.13,6.97-6.97s-3.13-6.97-6.97-6.97s-6.97,3.13-6.97,6.97
	S376.16,248.97,380,248.97z M380,238.17c2.12,0,3.83,1.71,3.83,3.83s-1.71,3.83-3.83,3.83s-3.83-1.71-3.83-3.83
	S377.88,238.17,380,238.17z"/>
<path fill="#FFFFFF" d="M360.85,238.79l-4.39,0.58l0.021,5.18l4.39,0.54V245c0.2,1.24,0.5,2.44,0.93,3.59l-3.51,2.61l2.53,4.521
	l4.069-1.641c0.87,1.08,1.86,2.08,2.931,2.96l-0.36-0.21l-1.71,4.08l4.47,2.6l2.681-3.5c1.149,0.461,2.35,0.801,3.59,1.03l0.42,4.3
	l5.17,0.15l0.68-4.32c1.51-0.21,2.96-0.6,4.33-1.13l-0.5,0.28l2.67,3.52l4.49-2.58l-1.7-4.09l-0.02,0.01
	c1.029-0.81,1.96-1.72,2.81-2.72l4.05,1.761l2.65-4.451l-3.47-2.72c0.5-1.26,0.859-2.59,1.09-3.96l4.32-0.52l0.039-5.17l-4.359-0.59
	c-0.23-1.37-0.59-2.7-1.08-3.96l3.45-2.73l-2.67-4.44l-4.021,1.76c-0.859-1.01-1.82-1.93-2.859-2.76l1.67-3.92l-4.471-2.62
	l-2.71,3.5l0.021,0.02c-1.21-0.43-2.47-0.74-3.771-0.93l-0.54-4.24H377l-0.56,4.37c-1.28,0.24-2.521,0.6-3.7,1.08l0.06-0.04
	l-2.75-3.47l-4.43,2.68l1.79,4.05l0.03-0.02c-0.95,0.8-1.82,1.7-2.591,2.67l-4.069-1.67l-2.561,4.51l3.54,2.66
	c-0.439,1.2-0.75,2.45-0.95,3.75L360.85,238.79L360.85,238.79z M368.54,230.46c2.95-2.95,7.01-4.76,11.5-4.76
	c4.5,0,8.55,1.82,11.5,4.76s4.76,7.01,4.76,11.5c0,4.5-1.819,8.55-4.76,11.5c-2.95,2.95-7.01,4.771-11.5,4.771
	c-4.5,0-8.55-1.82-11.5-4.771s-4.76-7-4.76-11.5S365.6,233.41,368.54,230.46L368.54,230.46z"/>
</svg>
