<?xml version="1.0" encoding="utf-8"?>
<!-- Generator: Adobe Illustrator 16.0.0, SVG Export Plug-In . SVG Version: 6.00 Build 0)  -->
<!DOCTYPE svg PUBLIC "-//W3C//DTD SVG 1.1 Tiny//EN" "http://www.w3.org/Graphics/SVG/1.1/DTD/svg11-tiny.dtd">
<svg version="1.1" baseProfile="tiny" id="Capa_1" xmlns="http://www.w3.org/2000/svg" xmlns:xlink="http://www.w3.org/1999/xlink"
	 x="0px" y="0px" width="760px" height="500px" viewBox="0 0 760 500" xml:space="preserve">
<g id="modelo_completo">
</g>
<g id="publicacion">
</g>
<g id="publicacion_y_conversacion">
</g>
<g id="conversacion">
</g>
<path fill="#FFFFFF" d="M677.2,352.91l-2-15.56c0.03-0.05,0.07-0.1,0.11-0.15l-0.14-0.09l-0.65-5.04l-20.6,4.19l0.7,3.43l12.1-2.46
	c-29.47,40.33-76.39,64.26-126.47,64.26c-67.11,0-126.7-42.66-148.27-106.16l-6.63,2.25c22.54,66.34,84.79,110.91,154.9,110.91
	c52.24,0,101.17-24.92,131.97-66.93l1.51,11.8L677.2,352.91z"/>
<path fill="#FFFFFF" d="M372.04,192.18l5.52-14.72l-3.28-1.23l-4.2,11.21c-12.09-28.19-31.74-52.28-57.11-69.91
	c-27.45-19.07-59.68-29.16-93.23-29.16c-55.88,0-107.33,28.09-137.62,75.14l5.89,3.79c29-45.04,78.24-71.93,131.73-71.93
	c63.27,0,119.24,37.1,143.95,94.94l-11.16-5.14l-1.46,3.18l19.09,8.79l1.79-4.78l0.12-0.05
	C372.08,192.27,372.06,192.23,372.04,192.18z"/>
<path fill="#FFFFFF" d="M72.84,250.52c-6.9-2.66-8.09-7.01-7.86-10.22c3.78-2.67,7.11-7.92,7.11-13.96c0-8.74-3.1-15.83-12.18-15.83
	c-8.78,0-12.18,7.09-12.18,15.83c0,5.66,2.5,10.61,5.95,13.41c0.38,3.28-0.57,7.99-7.83,10.79c-10.35,3.99-16.38,6.45-18.83,22.95
	h32.34h32.29C89.21,256.99,83.19,254.52,72.84,250.52z"/>
<g>
	<path fill="#FFFFFF" d="M713.77,244.53c-6.87-2.65-7.77-7.01-7.77-10.01v0.06c4-3,7.02-7.9,7.02-13.94
		c0-8.74-3.14-15.82-12.22-15.82c-8.79,0-11.96,7.1-11.96,15.84c0,5.66,2.17,10.61,6.17,13.41l0,0c0,3.28-0.82,7.99-8.07,10.79
		c-3.52,1.36-6.65,2.51-9.2,4.12c0.5,1.14,1.67,2.21,4.62,3.35c8.7,3.36,14.9,5.84,18.65,14.84h31.49
		C730.05,251.17,724.12,248.53,713.77,244.53z"/>
	<path fill="#FFFFFF" d="M649.18,244.83c-6.89-2.66-8.09-6.99-7.86-10.2l0,0c3.78-2.67,7.11-7.92,7.11-13.96
		c0-8.74-3.1-15.83-12.18-15.83c-8.79,0-12.18,7.09-12.18,15.83c0,5.65,2.5,10.61,5.95,13.41l0,0c0.38,3.28-0.57,7.67-7.83,10.47
		c-10.35,3.99-16.38,6.63-18.83,22.63h29.99c3.75-9,10.01-11.47,18.72-14.83c3.55-1.37,4.63-2.91,4.92-4.24
		C654.73,246.86,652.14,245.97,649.18,244.83z"/>
	<path fill="#FFFFFF" d="M696.04,267.41c-3.27-6-8.3-8.04-15.36-10.76c-3.46-1.33-5.48-2.99-6.61-4.82l-0.01,0.04
		c-1.11-1.81-1.35-3.67-1.24-5.26c3.78-2.67,7.1-7.91,7.1-13.95c0-8.74-3.1-15.83-12.18-15.83c-8.79,0-12.18,7.09-12.18,15.83
		c0,5.65,2.5,10.61,5.95,13.41c0.17,1.43,0.07,3.15-0.69,4.85l-0.01-0.01c-0.98,2.18-3.07,4.28-7.13,5.84
		c-7.05,2.72-12.09,4.65-15.36,10.65c-1.53,3-2.68,7.77-3.47,11.77h32.34h32.29C698.72,275.17,697.57,270.41,696.04,267.41z
		 M667.97,267.64c-0.01-0.07-0.03-0.14-0.04-0.22c-0.01,0.08-0.02,0.15-0.04,0.22h-0.03c0.02,0,0.04-0.14,0.06-0.26
		c0,0.01,0,0.03,0.01,0.04c0-0.02,0.01-0.03,0.01-0.05c0.02,0.13,0.04,0.27,0.06,0.27H667.97z"/>
</g>
<g>
	<path fill="#FFFFFF" d="M166.59,34.26c2.44,0,4.37,0.63,5.78,1.88c1.41,1.25,2.12,2.9,2.12,4.93c0,2.04-0.71,3.68-2.12,4.92
		c-1.41,1.24-3.34,1.86-5.78,1.86h-3.6v4.73l2.29,0.44v2.56h-8.83v-2.56l2.27-0.44v-15.3l-2.27-0.44v-2.58h2.27H166.59z
		 M162.99,44.56h3.6c1.19,0,2.09-0.33,2.7-0.98s0.92-1.48,0.92-2.48c0-1.02-0.31-1.87-0.92-2.54s-1.51-1-2.7-1h-3.6V44.56z"/>
	<path fill="#FFFFFF" d="M187.04,53.58c-0.51,0.74-1.14,1.31-1.88,1.71c-0.75,0.4-1.6,0.6-2.56,0.6c-1.67,0-2.98-0.53-3.93-1.6
		c-0.95-1.07-1.42-2.73-1.42-4.99v-6.55l-1.74-0.44v-2.58h1.74h4.28v9.6c0,1.15,0.19,1.98,0.58,2.48c0.38,0.5,0.96,0.75,1.72,0.75
		c0.67,0,1.26-0.11,1.75-0.33c0.49-0.22,0.9-0.53,1.21-0.94v-8.54l-1.88-0.44v-2.58h1.88h4.28v12.85l1.92,0.44v2.56h-5.67
		L187.04,53.58z"/>
	<path fill="#FFFFFF" d="M209.99,48.1c0,2.36-0.53,4.25-1.58,5.67c-1.05,1.42-2.58,2.12-4.57,2.12c-0.93,0-1.73-0.19-2.42-0.58
		c-0.68-0.39-1.26-0.94-1.73-1.68l-0.31,1.95h-3.69V35.76l-2.27-0.44v-2.58h6.53v8.69c0.46-0.63,1.01-1.12,1.65-1.46
		c0.64-0.34,1.38-0.51,2.2-0.51c2.01,0,3.55,0.76,4.6,2.28c1.06,1.52,1.58,3.54,1.58,6.07L209.99,48.1L209.99,48.1z M205.73,47.8
		c0-1.54-0.23-2.77-0.68-3.67c-0.46-0.9-1.23-1.35-2.32-1.35c-0.66,0-1.23,0.14-1.69,0.42c-0.46,0.28-0.82,0.68-1.08,1.19v6.69
		c0.26,0.49,0.63,0.86,1.09,1.11s1.03,0.38,1.71,0.38c1.1,0,1.88-0.39,2.31-1.16c0.44-0.78,0.66-1.88,0.66-3.3V47.8L205.73,47.8z"/>
	<path fill="#FFFFFF" d="M211.23,35.32v-2.58h6.56v19.85l2.06,0.44v2.56h-8.41v-2.56l2.06-0.44V35.76L211.23,35.32z"/>
	<path fill="#FFFFFF" d="M221.11,53.03l2.06-0.44v-9.83l-2.29-0.44v-2.58h6.56v12.85l2.05,0.44v2.56h-8.39L221.11,53.03
		L221.11,53.03z M227.46,35.95h-4.28v-3.21h4.28V35.95z"/>
	<path fill="#FFFFFF" d="M238.35,52.62c0.76,0,1.37-0.22,1.83-0.67c0.46-0.44,0.69-1.04,0.69-1.78h3.87l0.04,0.09
		c0.04,1.6-0.56,2.94-1.8,4.02c-1.24,1.08-2.78,1.62-4.63,1.62c-2.36,0-4.18-0.75-5.46-2.24c-1.28-1.49-1.92-3.41-1.92-5.76v-0.44
		c0-2.33,0.66-4.25,1.97-5.76c1.31-1.5,3.19-2.26,5.62-2.26c1.28,0,2.43,0.19,3.44,0.57c1.01,0.38,1.86,0.92,2.53,1.61l0.06,4.23
		h-3.47l-0.7-2.47c-0.22-0.19-0.48-0.34-0.79-0.46s-0.67-0.18-1.07-0.18c-1.21,0-2.06,0.44-2.56,1.32s-0.75,2.01-0.75,3.4v0.44
		c0,1.42,0.23,2.56,0.69,3.42C236.4,52.18,237.2,52.62,238.35,52.62z"/>
	<path fill="#FFFFFF" d="M256.81,55.59c-0.12-0.26-0.22-0.53-0.31-0.81c-0.09-0.28-0.16-0.56-0.21-0.84
		c-0.51,0.59-1.13,1.06-1.85,1.42c-0.73,0.36-1.56,0.54-2.5,0.54c-1.55,0-2.79-0.42-3.7-1.27c-0.91-0.84-1.37-1.99-1.37-3.45
		c0-1.48,0.6-2.63,1.79-3.44c1.19-0.81,2.94-1.21,5.24-1.21h2.18v-1.55c0-0.76-0.22-1.35-0.66-1.77s-1.09-0.63-1.95-0.63
		c-0.49,0-0.92,0.06-1.3,0.17s-0.69,0.25-0.92,0.4l-0.28,1.7h-3.22l0.02-3.52c0.78-0.53,1.68-0.97,2.69-1.33
		c1.01-0.36,2.11-0.54,3.3-0.54c1.96,0,3.56,0.48,4.78,1.44c1.23,0.96,1.84,2.33,1.84,4.11v6.55c0,0.24,0,0.48,0.01,0.69
		c0,0.22,0.02,0.42,0.05,0.62l1.3,0.18v2.56L256.81,55.59L256.81,55.59z M253.11,52.73c0.65,0,1.23-0.14,1.76-0.42
		c0.53-0.28,0.94-0.63,1.23-1.05v-2.42h-2.18c-0.91,0-1.6,0.21-2.06,0.64c-0.47,0.42-0.7,0.93-0.7,1.53c0,0.54,0.17,0.96,0.52,1.26
		C252.01,52.58,252.49,52.73,253.11,52.73z"/>
	<path fill="#FFFFFF" d="M263.52,53.03l2.05-0.44v-9.83l-2.27-0.44v-2.58h6.25l0.19,2.31c0.37-0.82,0.85-1.46,1.44-1.92
		c0.59-0.46,1.27-0.69,2.04-0.69c0.23,0,0.46,0.02,0.71,0.05c0.25,0.03,0.46,0.08,0.62,0.12l-0.45,3.9l-1.76-0.04
		c-0.62,0-1.14,0.12-1.55,0.36c-0.41,0.24-0.72,0.59-0.94,1.04v7.71l2.05,0.44v2.56h-8.38V53.03L263.52,53.03z"/>
</g>
<g>
	<path fill="#FFFFFF" d="M486.41,441.46h-3.18l-0.44-2.84c-0.42-0.42-0.95-0.75-1.59-1c-0.64-0.24-1.39-0.37-2.26-0.37
		c-1.86,0-3.28,0.67-4.29,2.02c-1,1.35-1.5,3.11-1.5,5.27v0.75c0,2.17,0.5,3.93,1.49,5.29c1,1.36,2.4,2.04,4.22,2.04
		c0.84,0,1.61-0.12,2.31-0.37c0.7-0.24,1.24-0.58,1.62-1l0.44-2.84h3.18v4.22c-0.86,1-1.96,1.79-3.29,2.38s-2.82,0.89-4.47,0.89
		c-2.86,0-5.21-0.99-7.03-2.97c-1.82-1.98-2.74-4.53-2.74-7.63v-0.72c0-3.1,0.91-5.64,2.72-7.63c1.82-1.99,4.16-2.99,7.04-2.99
		c1.65,0,3.14,0.3,4.47,0.9c1.33,0.6,2.43,1.4,3.29,2.38L486.41,441.46L486.41,441.46z"/>
	<path fill="#FFFFFF" d="M488.48,447.52c0-2.36,0.66-4.3,1.98-5.81s3.15-2.26,5.48-2.26c2.35,0,4.18,0.75,5.5,2.26
		c1.32,1.5,1.98,3.44,1.98,5.82v0.31c0,2.38-0.66,4.32-1.98,5.82c-1.32,1.5-3.15,2.25-5.47,2.25c-2.35,0-4.19-0.75-5.51-2.25
		s-1.99-3.44-1.99-5.82L488.48,447.52L488.48,447.52z M492.76,447.83c0,1.45,0.25,2.6,0.76,3.48c0.51,0.88,1.33,1.31,2.46,1.31
		c1.1,0,1.91-0.44,2.42-1.32c0.51-0.88,0.77-2.04,0.77-3.47v-0.31c0-1.41-0.26-2.55-0.78-3.44c-0.52-0.89-1.33-1.33-2.45-1.33
		c-1.11,0-1.92,0.44-2.43,1.33s-0.76,2.04-0.76,3.44L492.76,447.83L492.76,447.83z"/>
	<path fill="#FFFFFF" d="M505.06,453.03l2.05-0.44v-9.83l-2.27-0.44v-2.58h6.26l0.19,2.27c0.53-0.81,1.18-1.44,1.95-1.89
		c0.77-0.45,1.64-0.67,2.59-0.67c1.6,0,2.85,0.5,3.75,1.51s1.35,2.58,1.35,4.73v6.9l2.05,0.44v2.56h-8.17v-2.56l1.83-0.44v-6.88
		c0-1.06-0.21-1.82-0.65-2.26c-0.43-0.45-1.08-0.67-1.95-0.67c-0.57,0-1.07,0.11-1.52,0.34c-0.45,0.23-0.82,0.55-1.13,0.97v8.5
		l1.73,0.44v2.56h-8.06V453.03L505.06,453.03z"/>
	<path fill="#FFFFFF" d="M531.06,442.32l-1.49,0.28l2.1,7.09l0.28,1.49h0.09l0.31-1.49l2.06-7.08l-1.52-0.29v-2.58h7.19v2.58
		l-1.38,0.22l-4.67,13.05h-4.09l-4.69-13.05l-1.38-0.22v-2.58h7.19V442.32L531.06,442.32z"/>
	<path fill="#FFFFFF" d="M548.83,455.9c-2.29,0-4.11-0.73-5.48-2.2c-1.37-1.46-2.05-3.33-2.05-5.58v-0.59
		c0-2.35,0.65-4.29,1.94-5.81c1.29-1.52,3.03-2.28,5.21-2.27c2.14,0,3.8,0.64,4.98,1.93c1.18,1.29,1.77,3.03,1.77,5.23v2.33h-9.46
		l-0.03,0.09c0.08,1.04,0.43,1.9,1.05,2.58c0.62,0.67,1.46,1.01,2.53,1.01c0.95,0,1.73-0.1,2.36-0.29c0.63-0.19,1.31-0.49,2.05-0.9
		l1.16,2.64c-0.65,0.52-1.5,0.95-2.54,1.3C551.27,455.72,550.11,455.9,548.83,455.9z M548.45,442.74c-0.79,0-1.42,0.3-1.88,0.91
		c-0.46,0.6-0.74,1.4-0.85,2.39l0.04,0.07H551v-0.38c0-0.91-0.21-1.63-0.64-2.18C549.95,443.01,549.31,442.74,548.45,442.74z"/>
	<path fill="#FFFFFF" d="M557.54,453.03l2.05-0.44v-9.83l-2.27-0.44v-2.58h6.26l0.19,2.31c0.37-0.82,0.85-1.46,1.44-1.92
		s1.26-0.69,2.04-0.69c0.22,0,0.46,0.02,0.71,0.05c0.25,0.03,0.46,0.08,0.62,0.12l-0.45,3.9l-1.76-0.04c-0.62,0-1.14,0.12-1.55,0.37
		c-0.41,0.25-0.72,0.59-0.94,1.04v7.71l2.05,0.44v2.56h-8.38L557.54,453.03L557.54,453.03z"/>
	<path fill="#FFFFFF" d="M582.79,445.19h-2.87l-0.45-1.98c-0.29-0.23-0.66-0.43-1.11-0.59c-0.45-0.16-0.94-0.23-1.47-0.23
		c-0.75,0-1.35,0.17-1.79,0.51c-0.44,0.34-0.66,0.76-0.66,1.27c0,0.48,0.21,0.88,0.63,1.19c0.42,0.32,1.26,0.6,2.52,0.84
		c1.96,0.39,3.42,0.96,4.37,1.72s1.42,1.8,1.42,3.13c0,1.43-0.61,2.59-1.84,3.49c-1.22,0.9-2.84,1.36-4.84,1.36
		c-1.22,0-2.34-0.18-3.36-0.54c-1.02-0.36-1.93-0.87-2.72-1.53l-0.04-3.56h2.99l0.59,2.06c0.25,0.21,0.6,0.37,1.04,0.48
		c0.44,0.1,0.9,0.15,1.38,0.15c0.87,0,1.53-0.16,1.98-0.47c0.46-0.31,0.68-0.74,0.68-1.28c0-0.47-0.23-0.87-0.69-1.21
		s-1.3-0.64-2.54-0.91c-1.87-0.38-3.27-0.94-4.23-1.69c-0.95-0.75-1.43-1.77-1.43-3.05c0-1.33,0.55-2.47,1.64-3.44
		s2.65-1.44,4.67-1.44c1.23,0,2.39,0.17,3.49,0.5c1.1,0.33,1.96,0.76,2.59,1.28L582.79,445.19z"/>
	<path fill="#FFFFFF" d="M595.38,455.59c-0.12-0.26-0.22-0.53-0.31-0.81c-0.09-0.28-0.16-0.56-0.21-0.84
		c-0.51,0.59-1.12,1.06-1.85,1.42c-0.73,0.36-1.56,0.54-2.5,0.54c-1.55,0-2.79-0.42-3.7-1.27c-0.91-0.84-1.37-1.99-1.37-3.45
		c0-1.48,0.6-2.63,1.79-3.44c1.19-0.81,2.94-1.21,5.24-1.21h2.18v-1.55c0-0.76-0.22-1.35-0.66-1.77c-0.44-0.42-1.09-0.63-1.95-0.63
		c-0.49,0-0.92,0.06-1.3,0.17s-0.69,0.25-0.92,0.4l-0.28,1.7h-3.22l0.02-3.52c0.78-0.53,1.68-0.97,2.69-1.33
		c1.01-0.36,2.11-0.54,3.3-0.54c1.96,0,3.56,0.48,4.78,1.44c1.23,0.96,1.84,2.33,1.84,4.11v6.55c0,0.24,0,0.48,0.01,0.69
		s0.02,0.42,0.05,0.61l1.3,0.18v2.56L595.38,455.59L595.38,455.59z M591.68,452.73c0.64,0,1.23-0.14,1.76-0.42
		c0.53-0.28,0.94-0.63,1.23-1.05v-2.42h-2.18c-0.91,0-1.6,0.21-2.06,0.64c-0.46,0.43-0.7,0.93-0.7,1.53c0,0.54,0.17,0.96,0.52,1.26
		C590.58,452.58,591.06,452.73,591.68,452.73z"/>
	<path fill="#FFFFFF" d="M602.09,453.03l2.05-0.44v-9.83l-2.27-0.44v-2.58h6.26l0.19,2.31c0.37-0.82,0.85-1.46,1.44-1.92
		s1.27-0.69,2.04-0.69c0.22,0,0.46,0.02,0.71,0.05c0.25,0.03,0.46,0.08,0.62,0.12l-0.45,3.9l-1.76-0.04c-0.62,0-1.14,0.12-1.55,0.37
		s-0.72,0.59-0.94,1.04v7.71l2.05,0.44v2.56h-8.38L602.09,453.03L602.09,453.03z"/>
</g>
<path fill="#FFFFFF" d="M380,248.97c3.85,0,6.97-3.13,6.97-6.97s-3.13-6.97-6.97-6.97s-6.97,3.13-6.97,6.97
	S376.16,248.97,380,248.97z M380,238.17c2.12,0,3.83,1.71,3.83,3.83s-1.71,3.83-3.83,3.83s-3.83-1.71-3.83-3.83
	S377.88,238.17,380,238.17z"/>
<path fill="#FFFFFF" d="M360.85,238.79l-4.39,0.58l0.02,5.18l4.39,0.54V245c0.2,1.24,0.5,2.44,0.93,3.59l-3.51,2.61l2.53,4.52
	l4.07-1.64c0.87,1.08,1.86,2.08,2.93,2.96l-0.36-0.21l-1.71,4.08l4.47,2.6l2.68-3.5c1.15,0.46,2.35,0.8,3.59,1.03l0.42,4.3
	l5.17,0.15l0.68-4.32c1.51-0.21,2.96-0.6,4.33-1.13l-0.5,0.28l2.67,3.52l4.49-2.58l-1.7-4.09l-0.02,0.01
	c1.03-0.81,1.96-1.72,2.81-2.72l4.05,1.76l2.65-4.45l-3.47-2.72c0.5-1.26,0.86-2.59,1.09-3.96l4.32-0.52l0.04-5.17l-4.36-0.59
	c-0.23-1.37-0.59-2.7-1.08-3.96l3.45-2.73l-2.67-4.44l-4.02,1.76c-0.86-1.01-1.82-1.93-2.86-2.76l1.67-3.92l-4.47-2.62l-2.71,3.5
	l0.02,0.02c-1.21-0.43-2.47-0.74-3.77-0.93l-0.54-4.24H377l-0.56,4.37c-1.28,0.24-2.52,0.6-3.7,1.08l0.06-0.04l-2.75-3.47
	l-4.43,2.68l1.79,4.05l0.03-0.02c-0.95,0.8-1.82,1.7-2.59,2.67l-4.07-1.67l-2.56,4.51l3.54,2.66c-0.44,1.2-0.75,2.45-0.95,3.75
	L360.85,238.79L360.85,238.79z M368.54,230.46c2.95-2.95,7.01-4.76,11.5-4.76c4.5,0,8.55,1.82,11.5,4.76s4.76,7.01,4.76,11.5
	c0,4.5-1.82,8.55-4.76,11.5c-2.95,2.95-7.01,4.77-11.5,4.77c-4.5,0-8.55-1.82-11.5-4.77s-4.76-7-4.76-11.5
	S365.6,233.41,368.54,230.46L368.54,230.46z"/>
</svg>
