<?xml version="1.0" encoding="utf-8"?>
<!-- Generator: Adobe Illustrator 16.0.0, SVG Export Plug-In . SVG Version: 6.00 Build 0)  -->
<!DOCTYPE svg PUBLIC "-//W3C//DTD SVG 1.1//EN" "http://www.w3.org/Graphics/SVG/1.1/DTD/svg11.dtd">
<svg version="1.1" id="Capa_1" xmlns="http://www.w3.org/2000/svg" xmlns:xlink="http://www.w3.org/1999/xlink" x="0px" y="0px"
	 width="760px" height="500px" viewBox="0 0 760 500" enable-background="new 0 0 760 500" xml:space="preserve">
<g id="modelo_completo">
</g>
<g id="publicacion">
</g>
<g id="publicacion_y_conversacion">
</g>
<g id="conversacion">
</g>
<path fill="#FFFFFF" d="M540.25,88.37c-33.54,0-65.78,10.08-93.23,29.16c-25.359,17.63-45.01,41.72-57.1,69.91l-4.2-11.2
	l-3.279,1.23l5.52,14.71c-0.02,0.05-0.04,0.09-0.06,0.14l0.13,0.05l1.79,4.78l19.09-8.79l-1.46-3.18l-11.16,5.14
	c24.71-57.84,80.69-94.94,143.96-94.94c53.49,0,102.74,26.89,131.73,71.93l5.89-3.79C647.58,116.46,596.13,88.37,540.25,88.37z"/>
<path fill="#FFFFFF" d="M72.84,250.52c-6.9-2.66-8.09-7.01-7.86-10.22c3.78-2.67,7.11-7.92,7.11-13.96c0-8.74-3.1-15.83-12.18-15.83
	c-8.78,0-12.18,7.09-12.18,15.83c0,5.66,2.5,10.61,5.95,13.41c0.38,3.28-0.57,7.99-7.83,10.79c-10.35,3.989-16.38,6.45-18.83,22.95
	h32.34h32.29C89.21,256.99,83.19,254.52,72.84,250.52z"/>
<path fill="#FFFFFF" d="M713.77,244.53c-6.869-2.65-7.77-7.01-7.77-10.01v0.06c4-3,7.02-7.9,7.02-13.94
	c0-8.74-3.14-15.82-12.22-15.82c-8.79,0-11.96,7.1-11.96,15.84c0,5.66,2.17,10.61,6.17,13.41l0,0c0,3.28-0.819,7.99-8.069,10.79
	c-3.521,1.36-6.65,2.51-9.2,4.12c0.5,1.14,1.67,2.209,4.62,3.35c8.699,3.359,14.899,5.84,18.649,14.84h31.49
	C730.05,251.17,724.12,248.53,713.77,244.53z"/>
<path fill="#FFFFFF" d="M649.18,244.83c-6.89-2.66-8.09-6.99-7.859-10.2l0,0c3.779-2.67,7.109-7.92,7.109-13.96
	c0-8.74-3.1-15.83-12.18-15.83c-8.79,0-12.18,7.09-12.18,15.83c0,5.65,2.5,10.61,5.949,13.41l0,0c0.381,3.28-0.569,7.67-7.829,10.47
	c-10.351,3.99-16.381,6.63-18.83,22.63h29.989c3.75-9,10.011-11.47,18.721-14.83c3.55-1.369,4.63-2.91,4.92-4.24
	C654.73,246.86,652.14,245.97,649.18,244.83z"/>
<path fill="#FFFFFF" d="M696.04,267.41c-3.271-6-8.3-8.04-15.36-10.76c-3.46-1.33-5.479-2.99-6.609-4.82l-0.011,0.04
	c-1.109-1.81-1.35-3.67-1.239-5.26c3.779-2.67,7.1-7.91,7.1-13.95c0-8.74-3.1-15.83-12.18-15.83c-8.79,0-12.181,7.09-12.181,15.83
	c0,5.65,2.5,10.61,5.95,13.41c0.17,1.43,0.07,3.15-0.689,4.85l-0.011-0.01c-0.979,2.18-3.069,4.279-7.13,5.84
	c-7.05,2.721-12.09,4.65-15.359,10.65c-1.53,3-2.681,7.77-3.471,11.77h32.341h32.29C698.72,275.17,697.57,270.41,696.04,267.41z
	 M667.97,267.641c-0.01-0.07-0.03-0.141-0.04-0.221c-0.01,0.08-0.02,0.15-0.04,0.221h-0.029c0.02,0,0.04-0.141,0.06-0.261
	c0,0.011,0,0.03,0.01,0.04c0-0.02,0.011-0.029,0.011-0.05c0.02,0.13,0.04,0.271,0.06,0.271H667.97z"/>
<path fill="#FFFFFF" d="M485.88,34.26c2.61,0,4.76,0.83,6.45,2.5c1.689,1.67,2.54,3.8,2.54,6.41v3.53c0,2.62-0.851,4.75-2.54,6.41
	c-1.69,1.66-3.84,2.48-6.45,2.48h-9.59v-2.56l2.27-0.44V37.28l-2.27-0.44v-2.58h2.27H485.88z M482.83,37.56v14.75h2.83
	c1.53,0,2.729-0.52,3.6-1.55c0.87-1.03,1.3-2.39,1.3-4.06v-3.56c0-1.65-0.43-2.99-1.3-4.03c-0.87-1.03-2.069-1.55-3.6-1.55H482.83
	L482.83,37.56z"/>
<path fill="#FFFFFF" d="M504.64,55.9c-2.29,0-4.109-0.73-5.479-2.2c-1.37-1.47-2.05-3.33-2.05-5.58v-0.59
	c0-2.35,0.649-4.29,1.939-5.81s3.03-2.28,5.21-2.27c2.141,0,3.8,0.64,4.98,1.93c1.18,1.29,1.77,3.03,1.77,5.23v2.33h-9.46
	l-0.03,0.09c0.08,1.05,0.431,1.9,1.051,2.58c0.62,0.68,1.46,1.01,2.529,1.01c0.95,0,1.73-0.1,2.36-0.29s1.31-0.49,2.05-0.9
	l1.16,2.64c-0.65,0.52-1.5,0.95-2.54,1.31C507.09,55.74,505.92,55.9,504.64,55.9z M504.26,42.74c-0.79,0-1.42,0.3-1.88,0.91
	s-0.74,1.4-0.85,2.39l0.04,0.07h5.239v-0.38c0-0.91-0.21-1.63-0.64-2.18C505.74,43,505.12,42.74,504.26,42.74z"/>
<path fill="#FFFFFF" d="M512.58,35.32v-2.58h6.56v19.85l2.061,0.44v2.56h-8.41v-2.56l2.07-0.44V35.76L512.58,35.32z"/>
<path fill="#FFFFFF" d="M522.47,53.03l2.07-0.44v-9.83l-2.29-0.44v-2.58h6.56v12.85l2.051,0.44v2.56h-8.391V53.03z M528.81,35.95
	h-4.279v-3.21h4.279V35.95z"/>
<path fill="#FFFFFF" d="M547.59,48.1c0,2.36-0.53,4.25-1.58,5.67c-1.06,1.42-2.58,2.12-4.569,2.12c-0.931,0-1.73-0.19-2.421-0.58
	c-0.68-0.39-1.26-0.94-1.729-1.68l-0.31,1.95h-3.69V35.76l-2.271-0.44v-2.58h6.53v8.69c0.46-0.63,1.011-1.12,1.65-1.46
	c0.64-0.34,1.38-0.51,2.21-0.51c2.01,0,3.54,0.76,4.6,2.28c1.051,1.52,1.58,3.54,1.58,6.07V48.1L547.59,48.1z M543.33,47.8
	c0-1.54-0.23-2.77-0.68-3.67c-0.45-0.9-1.23-1.35-2.32-1.35c-0.66,0-1.23,0.14-1.69,0.42c-0.46,0.28-0.819,0.68-1.08,1.19v6.69
	c0.261,0.49,0.631,0.86,1.091,1.11s1.029,0.38,1.71,0.38c1.1,0,1.88-0.39,2.31-1.16c0.44-0.78,0.66-1.88,0.66-3.3V47.8L543.33,47.8z
	"/>
<path fill="#FFFFFF" d="M557.16,55.9c-2.29,0-4.11-0.73-5.48-2.2c-1.37-1.47-2.05-3.33-2.05-5.58v-0.59c0-2.35,0.65-4.29,1.94-5.81
	s3.029-2.28,5.21-2.27c2.14,0,3.8,0.64,4.979,1.93c1.181,1.29,1.771,3.03,1.771,5.23v2.33h-9.46l-0.03,0.09
	c0.08,1.05,0.43,1.9,1.05,2.58c0.62,0.68,1.46,1.01,2.53,1.01c0.95,0,1.729-0.1,2.36-0.29c0.63-0.19,1.31-0.49,2.05-0.9l1.159,2.64
	c-0.649,0.52-1.5,0.95-2.539,1.31C559.59,55.73,558.44,55.9,557.16,55.9z M556.78,42.74c-0.79,0-1.42,0.3-1.88,0.91
	s-0.74,1.4-0.851,2.39l0.04,0.07h5.24v-0.38c0-0.91-0.21-1.63-0.64-2.18C558.26,43,557.63,42.74,556.78,42.74z"/>
<path fill="#FFFFFF" d="M565.87,53.03l2.05-0.44v-9.83l-2.27-0.44v-2.58h6.26l0.189,2.31c0.37-0.82,0.851-1.46,1.44-1.92
	s1.27-0.69,2.04-0.69c0.22,0,0.46,0.02,0.71,0.05c0.25,0.03,0.46,0.08,0.62,0.12l-0.45,3.9l-1.76-0.04c-0.62,0-1.141,0.12-1.55,0.36
	c-0.41,0.24-0.721,0.59-0.94,1.04v7.71l2.05,0.44v2.56h-8.38L565.87,53.03L565.87,53.03z"/>
<path fill="#FFFFFF" d="M587.98,55.59c-0.12-0.26-0.221-0.53-0.311-0.81c-0.09-0.28-0.16-0.56-0.2-0.84
	c-0.51,0.59-1.13,1.06-1.85,1.42c-0.72,0.36-1.561,0.54-2.5,0.54c-1.55,0-2.79-0.42-3.7-1.27c-0.91-0.84-1.37-1.99-1.37-3.45
	c0-1.48,0.601-2.63,1.79-3.44c1.19-0.81,2.94-1.21,5.24-1.21h2.18v-1.55c0-0.76-0.22-1.35-0.66-1.77
	c-0.439-0.42-1.09-0.63-1.949-0.63c-0.49,0-0.92,0.06-1.301,0.17c-0.38,0.11-0.689,0.25-0.92,0.4l-0.279,1.7h-3.221l0.021-3.52
	c0.78-0.53,1.68-0.97,2.689-1.33c1.011-0.36,2.11-0.54,3.301-0.54c1.96,0,3.56,0.48,4.779,1.44c1.23,0.96,1.841,2.33,1.841,4.11
	v6.55c0,0.24,0,0.48,0.01,0.69c0,0.21,0.02,0.42,0.05,0.62l1.3,0.18v2.56L587.98,55.59L587.98,55.59z M584.27,52.73
	c0.641,0,1.23-0.14,1.761-0.42c0.53-0.28,0.939-0.63,1.229-1.05v-2.42h-2.18c-0.91,0-1.6,0.21-2.061,0.64
	c-0.47,0.42-0.699,0.93-0.699,1.53c0,0.54,0.17,0.96,0.52,1.26C583.18,52.58,583.66,52.73,584.27,52.73z"/>
<path fill="#FFFFFF" d="M594.69,53.03l2.05-0.44v-9.83l-2.271-0.44v-2.58h6.25l0.19,2.31c0.37-0.82,0.85-1.46,1.439-1.92
	c0.591-0.46,1.261-0.69,2.04-0.69c0.221,0,0.46,0.02,0.71,0.05c0.25,0.03,0.46,0.08,0.62,0.12l-0.46,3.9l-1.76-0.04
	c-0.62,0-1.14,0.12-1.55,0.36c-0.41,0.24-0.72,0.59-0.94,1.04v7.71l2.05,0.44v2.56h-8.38L594.69,53.03L594.69,53.03z"/>
<path fill="#FFFFFF" d="M380,248.97c3.85,0,6.97-3.13,6.97-6.97s-3.13-6.97-6.97-6.97s-6.97,3.13-6.97,6.97
	S376.16,248.97,380,248.97z M380,238.17c2.12,0,3.83,1.71,3.83,3.83s-1.71,3.83-3.83,3.83s-3.83-1.71-3.83-3.83
	S377.88,238.17,380,238.17z"/>
<path fill="#FFFFFF" d="M360.85,238.79l-4.39,0.58l0.021,5.18l4.39,0.54V245c0.2,1.24,0.5,2.44,0.93,3.59l-3.51,2.61l2.53,4.521
	l4.069-1.641c0.87,1.08,1.86,2.08,2.931,2.96l-0.36-0.21l-1.71,4.08l4.47,2.6l2.681-3.5c1.149,0.461,2.35,0.801,3.59,1.03l0.42,4.3
	l5.17,0.15l0.68-4.32c1.51-0.21,2.96-0.6,4.33-1.13l-0.5,0.28l2.67,3.52l4.49-2.58l-1.7-4.09l-0.02,0.01
	c1.029-0.81,1.96-1.72,2.81-2.72l4.05,1.761l2.65-4.451l-3.47-2.72c0.5-1.26,0.859-2.59,1.09-3.96l4.32-0.52l0.039-5.17l-4.359-0.59
	c-0.23-1.37-0.59-2.7-1.08-3.96l3.45-2.73l-2.67-4.44l-4.021,1.76c-0.859-1.01-1.82-1.93-2.859-2.76l1.67-3.92l-4.471-2.62
	l-2.71,3.5l0.021,0.02c-1.21-0.43-2.47-0.74-3.771-0.93l-0.54-4.24H377l-0.56,4.37c-1.28,0.24-2.521,0.6-3.7,1.08l0.06-0.04
	l-2.75-3.47l-4.43,2.68l1.79,4.05l0.03-0.02c-0.95,0.8-1.82,1.7-2.591,2.67l-4.069-1.67l-2.561,4.51l3.54,2.66
	c-0.439,1.2-0.75,2.45-0.95,3.75L360.85,238.79L360.85,238.79z M368.54,230.46c2.95-2.95,7.01-4.76,11.5-4.76
	c4.5,0,8.55,1.82,11.5,4.76s4.76,7.01,4.76,11.5c0,4.5-1.819,8.55-4.76,11.5c-2.95,2.95-7.01,4.771-11.5,4.771
	c-4.5,0-8.55-1.82-11.5-4.771s-4.76-7-4.76-11.5S365.6,233.41,368.54,230.46L368.54,230.46z"/>
</svg>
