<?xml version="1.0" encoding="utf-8"?>
<!-- Generator: Adobe Illustrator 16.0.0, SVG Export Plug-In . SVG Version: 6.00 Build 0)  -->
<!DOCTYPE svg PUBLIC "-//W3C//DTD SVG 1.1//EN" "http://www.w3.org/Graphics/SVG/1.1/DTD/svg11.dtd">
<svg version="1.1" xmlns="http://www.w3.org/2000/svg" xmlns:xlink="http://www.w3.org/1999/xlink" x="0px" y="0px" width="480px"
	 height="480px" viewBox="0 0 480 480" enable-background="new 0 0 480 480" xml:space="preserve">
<g id="modelos_anteriores">
</g>
<g id="fondo">
</g>
<g id="exp-personal">
</g>
<g id="tema-territorio-personas">
</g>
<g id="similitud">
</g>
<g id="integracion">
</g>
<g id="coordinacion">
	<g>
		<path fill="#999999" d="M238.615,234.844c2.942,0,5.326-2.391,5.326-5.326s-2.393-5.326-5.326-5.326
			c-2.935,0-5.326,2.391-5.326,5.326S235.681,234.844,238.615,234.844z M238.615,226.592c1.621,0,2.928,1.305,2.928,2.926
			s-1.307,2.928-2.928,2.928c-1.619,0-2.927-1.307-2.927-2.928S236.996,226.592,238.615,226.592z"/>
		<path fill="#999999" d="M223.979,227.064l-3.354,0.443l0.016,3.959l3.354,0.412v-0.068c0.154,0.949,0.382,1.863,0.71,2.742
			l-2.683,1.998l1.935,3.453l3.11-1.254c0.666,0.826,1.423,1.59,2.24,2.262l-0.275-0.162l-1.308,3.121l3.416,1.986l2.049-2.676
			c0.879,0.354,1.796,0.613,2.743,0.787l0.321,3.287l3.951,0.115l0.52-3.303c1.152-0.16,2.262-0.459,3.309-0.863l-0.381,0.215
			l2.041,2.689l3.43-1.971l-1.299-3.127l-0.015,0.008c0.786-0.619,1.498-1.316,2.147-2.078l3.096,1.346l2.024-3.402l-2.651-2.078
			c0.383-0.963,0.657-1.98,0.833-3.027l3.302-0.396l0.03-3.951l-3.332-0.451c-0.176-1.047-0.45-2.066-0.824-3.029l2.636-2.084
			l-2.041-3.393l-3.072,1.344c-0.657-0.771-1.391-1.475-2.186-2.109l1.276-2.996l-3.416-2.002l-2.073,2.676l0.017,0.016
			c-0.924-0.328-1.887-0.566-2.882-0.711l-0.412-3.242h-3.958l-0.43,3.34c-0.977,0.184-1.925,0.459-2.825,0.826l0.045-0.029
			l-2.103-2.654l-3.385,2.049l1.368,3.096l0.023-0.016c-0.727,0.611-1.392,1.301-1.98,2.041l-3.109-1.275l-1.959,3.447l2.707,2.031
			c-0.336,0.918-0.574,1.871-0.727,2.867L223.979,227.064L223.979,227.064z M229.857,220.697c2.254-2.254,5.356-3.637,8.789-3.637
			c3.438,0,6.533,1.391,8.789,3.637c2.254,2.248,3.637,5.359,3.637,8.791c0,3.438-1.391,6.533-3.637,8.787
			c-2.256,2.256-5.356,3.646-8.789,3.646c-3.439,0-6.535-1.391-8.789-3.646c-2.254-2.254-3.639-5.35-3.639-8.787
			C226.219,226.047,227.61,222.951,229.857,220.697L229.857,220.697z"/>
	</g>
	<g>
		<path fill="#999999" d="M407.294,231.174c-4.12-1.588-4.664-4.205-4.664-6.006v0.035c2.4-1.799,4.209-4.736,4.209-8.361
			c0-5.246-1.887-9.492-7.334-9.492c-5.271,0-7.176,4.258-7.176,9.504c0,3.393,1.301,6.365,3.701,8.045v0.002
			c0,1.967-0.49,4.793-4.84,6.471c-2.112,0.814-3.988,1.504-5.518,2.473c0.299,0.684,1,1.324,2.774,2.008
			c5.223,2.016,8.942,3.506,11.19,8.906h18.892C417.058,235.158,413.505,233.57,407.294,231.174z"/>
		<path fill="#999999" d="M368.54,231.352c-4.136-1.594-4.853-4.193-4.719-6.119l0,0c2.267-1.602,4.264-4.752,4.264-8.377
			c0-5.244-1.859-9.498-7.309-9.498c-5.271,0-7.307,4.254-7.307,9.498c0,3.395,1.503,6.365,3.571,8.045l0,0
			c0.227,1.967-0.341,4.602-4.696,6.281c-6.211,2.395-9.825,3.977-11.297,13.576h17.995c2.249-5.4,6.007-6.881,11.231-8.896
			c2.131-0.82,2.777-1.748,2.953-2.543C371.868,232.566,370.313,232.035,368.54,231.352z"/>
		<path fill="#999999" d="M396.653,244.898c-1.963-3.6-4.983-4.826-9.214-6.457c-2.075-0.799-3.29-1.795-3.968-2.891
			c-0.002,0.004-0.006,0.023-0.008,0.027c-0.666-1.084-0.81-2.199-0.742-3.154c2.266-1.602,4.264-4.746,4.264-8.373
			c0-5.244-1.86-9.496-7.309-9.496c-5.271,0-7.307,4.256-7.307,9.5c0,3.393,1.502,6.365,3.57,8.045
			c0.1,0.861,0.044,1.889-0.412,2.912c-0.004-0.004-0.006-0.006-0.008-0.008c-0.59,1.307-1.84,2.566-4.275,3.506
			c-4.229,1.631-7.252,2.789-9.217,6.389c-0.921,1.799-1.61,4.66-2.08,7.059h19.404h19.377
			C398.26,249.559,397.571,246.697,396.653,244.898z M379.812,245.039c-0.008-0.043-0.016-0.086-0.022-0.131
			c-0.007,0.045-0.015,0.088-0.022,0.131h-0.018c0.01,0,0.023-0.082,0.035-0.158c0.001,0.01,0.003,0.018,0.005,0.027
			c0.001-0.012,0.003-0.021,0.005-0.031c0.013,0.076,0.025,0.162,0.035,0.162H379.812z"/>
	</g>
	<g>
		<g>
			<path fill="#33CCFF" d="M215.717,392.855c-53.548-7.135-100.076-40.221-124.462-88.502l6.248-3.156
				c23.344,46.219,67.883,77.889,119.139,84.721c66.52,8.863,131.216-25.555,160.987-85.648l6.273,3.107
				C352.799,366.158,285.209,402.117,215.717,392.855z"/>
			<g>
				<polygon fill="#33CCFF" points="87.3,319.68 90.684,320.584 95.118,303.906 111.43,309.549 112.572,306.236 92.706,299.369 				
					"/>
			</g>
		</g>
		<g>
			<path fill="#33CCFF" d="M376.594,160.883c-29.688-57.725-90.601-90.76-155.185-84.162
				c-53.213,5.438-99.472,37.191-123.741,84.943l-6.241-3.172c25.354-49.885,73.679-83.055,129.271-88.734
				c33.369-3.41,66.463,3.344,95.704,19.529c28.572,15.814,51.537,39.465,66.416,68.393L376.594,160.883z"/>
			<g>
				<polygon fill="#33CCFF" points="386.745,142.348 383.357,141.453 378.977,158.146 362.646,152.557 361.517,155.873 
					381.404,162.676 				"/>
			</g>
		</g>
	</g>
	<g>
		<path fill="#CCCCCC" d="M186.549,33.355h-7.223v6.094h6.885l0.191-2.549h3.252v5.83h-16.875v-2.563l2.27-0.439V24.42l-2.27-0.439
			v-2.578h2.27h14.576v5.845h-3.281l-0.191-2.549h-6.826v5.361h7.223V33.355z"/>
		<path fill="#CCCCCC" d="M191.588,40.167l1.479-0.234l4.307-5.215l-4.16-5.01l-1.479-0.249v-2.578h7.133v2.476l-1.449,0.176
			l2.402,3.047l2.357-3.047l-1.479-0.176v-2.476h7.162v2.578l-1.436,0.249l-4.072,5.01l4.293,5.215l1.494,0.234v2.563h-7.252V40.27
			l1.451-0.176l-2.461-3.193l-2.506,3.208l1.275,0.161v2.461h-7.061V40.167z"/>
		<path fill="#CCCCCC" d="M209.166,29.459v-2.578h6.211l0.205,1.846c0.469-0.684,1.029-1.211,1.684-1.582s1.416-0.557,2.285-0.557
			c1.963,0,3.486,0.767,4.57,2.3s1.627,3.55,1.627,6.05v0.308c0,2.344-0.543,4.229-1.627,5.654s-2.598,2.139-4.541,2.139
			c-0.83,0-1.566-0.153-2.211-0.462c-0.645-0.307-1.197-0.759-1.656-1.354v4.585l2.066,0.439v2.578h-8.395v-2.578l2.066-0.439
			V29.898L209.166,29.459z M221.471,34.938c0-1.494-0.25-2.705-0.748-3.633s-1.26-1.392-2.285-1.392
			c-0.645,0-1.193,0.132-1.647,0.396s-0.813,0.64-1.077,1.128v6.943c0.264,0.449,0.623,0.791,1.077,1.025s1.013,0.352,1.677,0.352
			c1.035,0,1.795-0.405,2.278-1.216s0.726-1.909,0.726-3.296V34.938z"/>
		<path fill="#CCCCCC" d="M227.975,40.167l2.051-0.439v-9.829l-2.271-0.439v-2.578h6.256l0.189,2.314
			c0.371-0.82,0.85-1.46,1.436-1.919s1.266-0.688,2.037-0.688c0.225,0,0.461,0.018,0.71,0.051c0.249,0.035,0.456,0.076,0.622,0.125
			l-0.453,3.896l-1.758-0.044c-0.625,0-1.143,0.122-1.553,0.366s-0.723,0.591-0.938,1.04v7.705l2.051,0.439v2.563h-8.379V40.167z"/>
		<path fill="#CCCCCC" d="M247.588,43.038c-2.285,0-4.111-0.732-5.479-2.197s-2.051-3.325-2.051-5.581v-0.586
			c0-2.354,0.647-4.292,1.941-5.815s3.029-2.28,5.207-2.271c2.139,0,3.799,0.645,4.98,1.934s1.773,3.032,1.773,5.229v2.329h-9.463
			l-0.029,0.088c0.078,1.045,0.427,1.904,1.047,2.578s1.463,1.011,2.527,1.011c0.947,0,1.732-0.095,2.357-0.286
			c0.625-0.189,1.309-0.49,2.051-0.9l1.158,2.637c-0.654,0.518-1.502,0.952-2.542,1.304S248.867,43.038,247.588,43.038z
			 M247.207,29.884c-0.791,0-1.416,0.303-1.875,0.908s-0.742,1.401-0.85,2.388l0.045,0.073h5.244v-0.381
			c0-0.908-0.213-1.634-0.638-2.175C248.709,30.154,248.066,29.884,247.207,29.884z"/>
		<path fill="#CCCCCC" d="M268.916,32.33h-2.871l-0.453-1.978c-0.293-0.234-0.662-0.43-1.106-0.586s-0.935-0.234-1.472-0.234
			c-0.752,0-1.348,0.169-1.787,0.505c-0.439,0.338-0.66,0.76-0.66,1.268c0,0.479,0.211,0.877,0.631,1.193
			c0.42,0.318,1.26,0.599,2.52,0.843c1.963,0.391,3.418,0.964,4.365,1.722c0.947,0.756,1.42,1.799,1.42,3.127
			c0,1.426-0.612,2.59-1.838,3.494c-1.226,0.902-2.84,1.354-4.842,1.354c-1.221,0-2.341-0.179-3.361-0.534
			c-1.021-0.357-1.926-0.867-2.717-1.531l-0.045-3.56h2.988l0.586,2.065c0.254,0.215,0.602,0.373,1.041,0.477
			c0.439,0.102,0.898,0.153,1.377,0.153c0.869,0,1.53-0.156,1.984-0.469s0.682-0.737,0.682-1.274c0-0.469-0.23-0.874-0.689-1.216
			s-1.303-0.645-2.533-0.908c-1.865-0.381-3.274-0.944-4.227-1.692c-0.952-0.746-1.428-1.765-1.428-3.054
			c0-1.328,0.547-2.474,1.641-3.435c1.094-0.963,2.65-1.443,4.672-1.443c1.23,0,2.396,0.166,3.494,0.498s1.961,0.757,2.586,1.274
			L268.916,32.33z"/>
		<path fill="#CCCCCC" d="M271.289,40.167l2.066-0.439v-9.829l-2.285-0.439v-2.578h6.562v12.847l2.051,0.439v2.563h-8.395V40.167z
			 M277.633,23.087h-4.277v-3.208h4.277V23.087z"/>
		<path fill="#CCCCCC" d="M281.09,34.659c0-2.363,0.661-4.3,1.984-5.808c1.323-1.51,3.152-2.264,5.486-2.264
			c2.344,0,4.177,0.752,5.5,2.256s1.984,3.442,1.984,5.815v0.308c0,2.383-0.661,4.324-1.984,5.822
			c-1.323,1.5-3.146,2.249-5.471,2.249c-2.354,0-4.192-0.749-5.516-2.249c-1.323-1.498-1.984-3.439-1.984-5.822V34.659z
			 M285.367,34.967c0,1.445,0.254,2.605,0.762,3.479c0.508,0.875,1.328,1.312,2.461,1.312c1.104,0,1.911-0.439,2.424-1.318
			s0.77-2.036,0.77-3.472v-0.308c0-1.406-0.26-2.554-0.777-3.442s-1.332-1.333-2.445-1.333s-1.924,0.444-2.432,1.333
			s-0.762,2.036-0.762,3.442V34.967z M288.912,20.699h4.525l0.029,0.088l-4.043,3.809h-3.428L288.912,20.699z"/>
		<path fill="#CCCCCC" d="M297.672,40.167l2.051-0.439v-9.829l-2.271-0.439v-2.578h6.256l0.189,2.271
			c0.527-0.811,1.178-1.44,1.949-1.89s1.635-0.674,2.592-0.674c1.602,0,2.852,0.503,3.75,1.509s1.348,2.583,1.348,4.731v6.899
			l2.051,0.439v2.563h-8.174v-2.563l1.832-0.439v-6.885c0-1.064-0.215-1.819-0.645-2.263c-0.43-0.445-1.08-0.667-1.949-0.667
			c-0.566,0-1.074,0.114-1.523,0.345c-0.449,0.229-0.824,0.554-1.127,0.974v8.496l1.729,0.439v2.563h-8.057V40.167z"/>
	</g>
	<g>
		<path fill="#CCCCCC" d="M171.893,423.98v-2.578h8.833v2.578l-2.285,0.439v15.308l2.285,0.439v2.563h-8.833v-2.563l2.285-0.439
			V424.42L171.893,423.98z"/>
		<path fill="#CCCCCC" d="M181.956,429.459v-2.578h6.255l0.176,2.095c0.508-0.762,1.145-1.351,1.912-1.765
			c0.766-0.416,1.652-0.623,2.658-0.623c1.016,0,1.885,0.225,2.607,0.674s1.27,1.128,1.641,2.036
			c0.488-0.85,1.123-1.514,1.904-1.992s1.699-0.718,2.754-0.718c1.562,0,2.795,0.539,3.699,1.619
			c0.902,1.078,1.354,2.722,1.354,4.929v6.592l2.065,0.439v2.563h-8.188v-2.563l1.846-0.439v-6.606c0-1.201-0.195-2.036-0.586-2.505
			s-0.972-0.703-1.743-0.703c-0.605,0-1.131,0.134-1.574,0.403c-0.445,0.268-0.799,0.642-1.062,1.12
			c0,0.186,0.005,0.345,0.015,0.476c0.01,0.133,0.015,0.267,0.015,0.403v7.412l1.729,0.439v2.563h-7.72v-2.563l1.729-0.439v-6.606
			c0-1.172-0.195-2-0.586-2.482c-0.391-0.484-0.977-0.726-1.758-0.726c-0.576,0-1.081,0.11-1.517,0.329
			c-0.434,0.221-0.793,0.53-1.076,0.931v8.555l1.846,0.439v2.563h-8.174v-2.563l2.065-0.439v-9.829L181.956,429.459z"/>
		<path fill="#CCCCCC" d="M210.037,429.459v-2.578h6.211l0.205,1.846c0.469-0.684,1.03-1.211,1.685-1.582s1.416-0.557,2.285-0.557
			c1.963,0,3.486,0.767,4.57,2.3s1.626,3.55,1.626,6.05v0.308c0,2.344-0.542,4.229-1.626,5.654s-2.598,2.139-4.541,2.139
			c-0.83,0-1.567-0.153-2.212-0.462c-0.645-0.307-1.196-0.759-1.655-1.354v4.585l2.065,0.439v2.578h-8.394v-2.578l2.065-0.439
			v-15.908L210.037,429.459z M222.342,434.938c0-1.494-0.249-2.705-0.747-3.633s-1.26-1.392-2.285-1.392
			c-0.645,0-1.194,0.132-1.647,0.396c-0.455,0.264-0.813,0.64-1.077,1.128v6.943c0.264,0.449,0.622,0.791,1.077,1.025
			c0.453,0.234,1.013,0.352,1.677,0.352c1.035,0,1.794-0.405,2.278-1.216c0.482-0.811,0.725-1.909,0.725-3.296V434.938z"/>
		<path fill="#CCCCCC" d="M228.846,440.167l2.051-0.439v-9.829l-2.271-0.439v-2.578h6.255l0.19,2.314
			c0.371-0.82,0.85-1.46,1.436-1.919s1.265-0.688,2.036-0.688c0.225,0,0.461,0.018,0.711,0.051c0.248,0.035,0.456,0.076,0.622,0.125
			l-0.454,3.896l-1.758-0.044c-0.625,0-1.143,0.122-1.553,0.366s-0.723,0.591-0.938,1.04v7.705l2.051,0.439v2.563h-8.379V440.167z"
			/>
		<path fill="#CCCCCC" d="M248.46,443.038c-2.285,0-4.111-0.732-5.479-2.197s-2.051-3.325-2.051-5.581v-0.586
			c0-2.354,0.647-4.292,1.94-5.815c1.295-1.523,3.03-2.28,5.208-2.271c2.139,0,3.799,0.645,4.98,1.934s1.772,3.032,1.772,5.229
			v2.329h-9.463l-0.029,0.088c0.078,1.045,0.428,1.904,1.047,2.578c0.621,0.674,1.463,1.011,2.527,1.011
			c0.947,0,1.733-0.095,2.358-0.286c0.625-0.189,1.309-0.49,2.051-0.9l1.157,2.637c-0.654,0.518-1.502,0.952-2.541,1.304
			C250.898,442.862,249.739,443.038,248.46,443.038z M248.079,429.884c-0.791,0-1.416,0.303-1.875,0.908s-0.742,1.401-0.85,2.388
			l0.044,0.073h5.244v-0.381c0-0.908-0.213-1.634-0.637-2.175C249.58,430.154,248.938,429.884,248.079,429.884z"/>
		<path fill="#CCCCCC" d="M269.788,432.33h-2.871l-0.454-1.978c-0.293-0.234-0.662-0.43-1.105-0.586
			c-0.445-0.156-0.936-0.234-1.473-0.234c-0.752,0-1.348,0.169-1.787,0.505c-0.439,0.338-0.659,0.76-0.659,1.268
			c0,0.479,0.21,0.877,0.63,1.193c0.42,0.318,1.26,0.599,2.52,0.843c1.963,0.391,3.418,0.964,4.365,1.722
			c0.947,0.756,1.421,1.799,1.421,3.127c0,1.426-0.612,2.59-1.839,3.494c-1.225,0.902-2.839,1.354-4.841,1.354
			c-1.221,0-2.341-0.179-3.362-0.534c-1.02-0.357-1.926-0.867-2.717-1.531l-0.044-3.56h2.988l0.586,2.065
			c0.254,0.215,0.601,0.373,1.04,0.477c0.439,0.102,0.898,0.153,1.377,0.153c0.869,0,1.531-0.156,1.984-0.469
			c0.455-0.312,0.682-0.737,0.682-1.274c0-0.469-0.229-0.874-0.688-1.216s-1.304-0.645-2.534-0.908
			c-1.865-0.381-3.273-0.944-4.227-1.692c-0.951-0.746-1.428-1.765-1.428-3.054c0-1.328,0.547-2.474,1.641-3.435
			c1.094-0.963,2.651-1.443,4.673-1.443c1.23,0,2.396,0.166,3.493,0.498c1.1,0.332,1.961,0.757,2.586,1.274L269.788,432.33z"/>
		<path fill="#CCCCCC" d="M272.161,440.167l2.065-0.439v-9.829l-2.285-0.439v-2.578h6.562v12.847l2.051,0.439v2.563h-8.394V440.167z
			 M278.504,423.087h-4.277v-3.208h4.277V423.087z"/>
		<path fill="#CCCCCC" d="M281.961,434.659c0-2.363,0.662-4.3,1.984-5.808c1.324-1.51,3.152-2.264,5.486-2.264
			c2.344,0,4.178,0.752,5.5,2.256c1.324,1.504,1.985,3.442,1.985,5.815v0.308c0,2.383-0.661,4.324-1.985,5.822
			c-1.322,1.5-3.146,2.249-5.471,2.249c-2.354,0-4.191-0.749-5.516-2.249c-1.322-1.498-1.984-3.439-1.984-5.822V434.659z
			 M286.238,434.967c0,1.445,0.254,2.605,0.762,3.479c0.508,0.875,1.328,1.312,2.461,1.312c1.104,0,1.912-0.439,2.424-1.318
			c0.514-0.879,0.77-2.036,0.77-3.472v-0.308c0-1.406-0.259-2.554-0.776-3.442s-1.333-1.333-2.446-1.333s-1.924,0.444-2.432,1.333
			s-0.762,2.036-0.762,3.442V434.967z M289.783,420.699h4.526l0.029,0.088l-4.043,3.809h-3.428L289.783,420.699z"/>
		<path fill="#CCCCCC" d="M298.543,440.167l2.051-0.439v-9.829l-2.271-0.439v-2.578h6.255l0.19,2.271
			c0.527-0.811,1.177-1.44,1.948-1.89s1.636-0.674,2.593-0.674c1.602,0,2.852,0.503,3.75,1.509s1.348,2.583,1.348,4.731v6.899
			l2.051,0.439v2.563h-8.174v-2.563l1.831-0.439v-6.885c0-1.064-0.215-1.819-0.645-2.263c-0.43-0.445-1.079-0.667-1.948-0.667
			c-0.566,0-1.074,0.114-1.523,0.345c-0.449,0.229-0.825,0.554-1.128,0.974v8.496l1.729,0.439v2.563h-8.057V440.167z"/>
	</g>
	<g>
		<path fill="#999999" d="M99.073,220.26c0,5.244-4.18,9.5-7.309,9.5c-3.725,0-7.307-4.256-7.307-9.5c0-5.246,2.036-9.5,7.307-9.5
			C97.214,210.76,99.073,215.014,99.073,220.26z"/>
		<path fill="#999999" d="M99.528,234.768c-7.18-2.768-4.062-8.592-4.062-8.592l-4.025-5.146l-4.04,5.086
			c0,0,3.112,5.895-4.068,8.662c-6.211,2.396-9.825,3.871-11.297,13.77h19.405h19.376
			C109.347,238.648,105.739,237.164,99.528,234.768z"/>
	</g>
	<g>
		<path fill="#999999" d="M201.073,114.031c1.628,0,2.911,0.419,3.853,1.256c0.941,0.836,1.411,1.932,1.411,3.285
			c0,1.361-0.47,2.455-1.411,3.281c-0.941,0.827-2.225,1.24-3.853,1.24h-2.402v3.154l1.523,0.293v1.709h-5.889v-1.709l1.514-0.293
			v-10.205l-1.514-0.293v-1.719h1.514H201.073z M198.671,120.896h2.402c0.794,0,1.396-0.216,1.802-0.648
			c0.406-0.434,0.61-0.985,0.61-1.656c0-0.684-0.204-1.248-0.61-1.693c-0.406-0.446-1.008-0.67-1.802-0.67h-2.402V120.896z"/>
		<path fill="#999999" d="M214.706,126.912c-0.339,0.495-0.757,0.876-1.255,1.143c-0.498,0.268-1.066,0.4-1.704,0.4
			c-1.113,0-1.985-0.355-2.617-1.068s-0.947-1.822-0.947-3.326v-4.365l-1.162-0.293v-1.719h1.162h2.852v6.396
			c0,0.769,0.128,1.32,0.386,1.656c0.258,0.335,0.64,0.502,1.147,0.502c0.449,0,0.839-0.072,1.167-0.219s0.598-0.357,0.806-0.631
			v-5.693l-1.25-0.293v-1.719h1.25h2.852v8.564l1.279,0.293v1.709h-3.779L214.706,126.912z"/>
		<path fill="#999999" d="M230.009,123.26c0,1.576-0.352,2.836-1.055,3.779c-0.703,0.944-1.719,1.416-3.047,1.416
			c-0.618,0-1.155-0.128-1.611-0.385c-0.456-0.258-0.84-0.631-1.152-1.119l-0.205,1.299h-2.461v-13.223l-1.514-0.293v-1.719h4.355
			v5.791c0.306-0.423,0.673-0.748,1.099-0.977c0.426-0.228,0.916-0.342,1.47-0.342c1.341,0,2.363,0.507,3.066,1.52
			c0.703,1.012,1.055,2.361,1.055,4.047V123.26z M227.167,123.055c0-1.028-0.151-1.844-0.454-2.445
			c-0.303-0.603-0.818-0.904-1.548-0.904c-0.442,0-0.817,0.094-1.123,0.279s-0.547,0.45-0.723,0.795v4.463
			c0.176,0.326,0.419,0.573,0.728,0.742c0.309,0.17,0.688,0.254,1.138,0.254c0.735,0,1.25-0.258,1.543-0.775
			s0.439-1.252,0.439-2.203V123.055z"/>
		<path fill="#999999" d="M230.829,114.734v-1.719h4.375v13.232l1.377,0.293v1.709h-5.605v-1.709l1.377-0.293v-11.221
			L230.829,114.734z"/>
		<path fill="#999999" d="M237.421,126.541l1.377-0.293v-6.553l-1.523-0.293v-1.719h4.375v8.564l1.367,0.293v1.709h-5.596V126.541z
			 M241.649,115.154h-2.852v-2.139h2.852V115.154z"/>
		<path fill="#999999" d="M248.915,126.268c0.508,0,0.915-0.147,1.221-0.443c0.306-0.297,0.459-0.692,0.459-1.188h2.578l0.029,0.059
			c0.026,1.068-0.374,1.962-1.201,2.682c-0.827,0.719-1.855,1.078-3.086,1.078c-1.575,0-2.79-0.498-3.643-1.494
			s-1.279-2.275-1.279-3.838v-0.293c0-1.556,0.438-2.835,1.313-3.838c0.875-1.002,2.124-1.504,3.745-1.504
			c0.853,0,1.618,0.127,2.295,0.381s1.24,0.612,1.689,1.074l0.039,2.822h-2.314l-0.469-1.65c-0.144-0.123-0.319-0.226-0.527-0.307
			c-0.208-0.082-0.446-0.123-0.713-0.123c-0.808,0-1.377,0.293-1.709,0.879s-0.498,1.342-0.498,2.266v0.293
			c0,0.944,0.153,1.705,0.459,2.281S248.146,126.268,248.915,126.268z"/>
		<path fill="#999999" d="M261.22,128.25c-0.078-0.176-0.146-0.355-0.205-0.541s-0.104-0.373-0.137-0.562
			c-0.339,0.391-0.751,0.707-1.235,0.947c-0.484,0.241-1.04,0.361-1.665,0.361c-1.035,0-1.856-0.281-2.466-0.844
			c-0.609-0.563-0.913-1.33-0.913-2.301c0-0.989,0.397-1.754,1.191-2.295c0.794-0.54,1.96-0.811,3.496-0.811h1.455v-1.035
			c0-0.508-0.146-0.901-0.439-1.182c-0.293-0.279-0.726-0.42-1.299-0.42c-0.325,0-0.615,0.038-0.869,0.113
			c-0.254,0.074-0.459,0.164-0.615,0.268l-0.186,1.133h-2.148l0.01-2.344c0.521-0.352,1.118-0.647,1.792-0.889
			c0.674-0.24,1.408-0.361,2.202-0.361c1.309,0,2.372,0.321,3.188,0.963c0.816,0.641,1.226,1.554,1.226,2.738v4.365
			c0,0.163,0.001,0.316,0.005,0.459c0.004,0.144,0.015,0.28,0.034,0.41l0.869,0.117v1.709H261.22z M258.749,126.346
			c0.43,0,0.82-0.092,1.172-0.277s0.625-0.419,0.82-0.699v-1.611h-1.455c-0.605,0-1.064,0.143-1.377,0.426s-0.469,0.623-0.469,1.02
			c0,0.358,0.116,0.639,0.347,0.84C258.018,126.245,258.339,126.346,258.749,126.346z"/>
		<path fill="#999999" d="M265.692,126.541l1.367-0.293v-6.553l-1.514-0.293v-1.719h4.17l0.127,1.543
			c0.247-0.547,0.566-0.973,0.957-1.279c0.391-0.306,0.843-0.459,1.357-0.459c0.149,0,0.308,0.012,0.474,0.035
			c0.166,0.022,0.305,0.05,0.415,0.082l-0.303,2.598l-1.172-0.029c-0.417,0-0.762,0.082-1.035,0.244
			c-0.273,0.163-0.481,0.395-0.625,0.693v5.137l1.367,0.293v1.709h-5.586V126.541z"/>
	</g>
	<g>
		<path fill="#999999" d="M205.956,151.826h-2.119l-0.293-1.895c-0.28-0.279-0.634-0.501-1.06-0.664
			c-0.426-0.162-0.93-0.244-1.509-0.244c-1.237,0-2.188,0.449-2.856,1.348s-1.001,2.07-1.001,3.516v0.498
			c0,1.445,0.332,2.621,0.996,3.525c0.664,0.905,1.602,1.357,2.812,1.357c0.56,0,1.073-0.081,1.538-0.244
			c0.465-0.162,0.825-0.384,1.079-0.664l0.293-1.895h2.119v2.812c-0.573,0.664-1.304,1.193-2.192,1.588
			c-0.889,0.394-1.883,0.59-2.983,0.59c-1.907,0-3.47-0.66-4.688-1.982c-1.218-1.321-1.826-3.018-1.826-5.088v-0.479
			c0-2.063,0.605-3.76,1.816-5.088s2.776-1.992,4.697-1.992c1.101,0,2.093,0.201,2.979,0.602s1.618,0.929,2.197,1.586V151.826z"/>
		<path fill="#999999" d="M207.333,155.869c0-1.575,0.44-2.865,1.323-3.871s2.102-1.51,3.657-1.51c1.562,0,2.784,0.502,3.667,1.504
			c0.883,1.003,1.323,2.295,1.323,3.877v0.205c0,1.589-0.44,2.883-1.323,3.883c-0.883,0.999-2.098,1.498-3.647,1.498
			c-1.569,0-2.794-0.499-3.677-1.498c-0.883-1-1.323-2.294-1.323-3.883V155.869z M210.185,156.074c0,0.964,0.169,1.737,0.508,2.32
			c0.339,0.582,0.886,0.873,1.641,0.873c0.735,0,1.274-0.293,1.616-0.879s0.513-1.357,0.513-2.314v-0.205
			c0-0.938-0.173-1.702-0.518-2.295c-0.345-0.592-0.889-0.889-1.631-0.889s-1.282,0.297-1.621,0.889
			c-0.339,0.593-0.508,1.357-0.508,2.295V156.074z"/>
		<path fill="#999999" d="M218.388,159.541l1.367-0.293v-6.553l-1.514-0.293v-1.719h4.17l0.127,1.514
			c0.352-0.54,0.784-0.96,1.299-1.26c0.515-0.299,1.091-0.449,1.729-0.449c1.067,0,1.901,0.336,2.5,1.006
			c0.599,0.671,0.898,1.723,0.898,3.154v4.6l1.367,0.293v1.709h-5.449v-1.709l1.221-0.293v-4.59c0-0.709-0.144-1.212-0.43-1.508
			c-0.286-0.297-0.72-0.445-1.299-0.445c-0.378,0-0.716,0.077-1.016,0.23c-0.3,0.152-0.55,0.369-0.752,0.648v5.664l1.152,0.293
			v1.709h-5.371V159.541z"/>
		<path fill="#999999" d="M235.722,152.402l-0.996,0.186l1.396,4.727l0.186,0.996h0.059l0.205-0.996l1.377-4.717l-1.016-0.195
			v-1.719h4.795v1.719l-0.918,0.146l-3.115,8.701h-2.725l-3.125-8.701l-0.918-0.146v-1.719h4.795V152.402z"/>
		<path fill="#999999" d="M247.567,161.455c-1.523,0-2.741-0.488-3.652-1.465s-1.367-2.217-1.367-3.721v-0.391
			c0-1.568,0.431-2.861,1.294-3.877s2.02-1.52,3.472-1.514c1.426,0,2.532,0.43,3.32,1.289s1.182,2.021,1.182,3.486v1.553h-6.309
			l-0.02,0.059c0.052,0.697,0.284,1.27,0.698,1.719s0.975,0.674,1.685,0.674c0.632,0,1.155-0.062,1.572-0.189
			s0.872-0.328,1.367-0.602l0.771,1.758c-0.437,0.346-1.001,0.635-1.694,0.869S248.42,161.455,247.567,161.455z M247.313,152.686
			c-0.527,0-0.944,0.202-1.25,0.605c-0.306,0.404-0.495,0.935-0.566,1.592l0.029,0.049h3.496v-0.254
			c0-0.605-0.142-1.088-0.425-1.449S247.887,152.686,247.313,152.686z"/>
		<path fill="#999999" d="M253.378,159.541l1.367-0.293v-6.553l-1.514-0.293v-1.719h4.17l0.127,1.543
			c0.247-0.547,0.566-0.973,0.957-1.279c0.391-0.306,0.843-0.459,1.357-0.459c0.149,0,0.308,0.012,0.474,0.035
			c0.166,0.022,0.305,0.05,0.415,0.082l-0.303,2.598l-1.172-0.029c-0.417,0-0.762,0.082-1.035,0.244
			c-0.273,0.163-0.481,0.395-0.625,0.693v5.137l1.367,0.293v1.709h-5.586V159.541z"/>
		<path fill="#999999" d="M270.204,154.316h-1.914l-0.303-1.318c-0.195-0.156-0.44-0.286-0.737-0.391
			c-0.297-0.104-0.623-0.156-0.981-0.156c-0.501,0-0.898,0.113-1.191,0.338s-0.439,0.506-0.439,0.844c0,0.319,0.14,0.585,0.42,0.797
			c0.28,0.211,0.84,0.398,1.68,0.561c1.309,0.261,2.278,0.644,2.91,1.148c0.632,0.504,0.947,1.199,0.947,2.084
			c0,0.951-0.409,1.728-1.226,2.33c-0.816,0.602-1.893,0.902-3.228,0.902c-0.813,0-1.562-0.118-2.241-0.355
			c-0.68-0.238-1.284-0.578-1.812-1.021l-0.029-2.373h1.992l0.391,1.377c0.169,0.144,0.4,0.25,0.693,0.318s0.599,0.102,0.918,0.102
			c0.579,0,1.021-0.104,1.323-0.312c0.303-0.208,0.454-0.491,0.454-0.85c0-0.312-0.153-0.582-0.459-0.811
			c-0.306-0.228-0.869-0.43-1.689-0.605c-1.243-0.254-2.183-0.629-2.817-1.127s-0.952-1.178-0.952-2.037
			c0-0.885,0.364-1.648,1.094-2.289c0.729-0.642,1.768-0.963,3.115-0.963c0.82,0,1.597,0.111,2.329,0.332
			c0.732,0.222,1.307,0.505,1.724,0.85L270.204,154.316z"/>
		<path fill="#999999" d="M278.603,161.25c-0.078-0.176-0.146-0.355-0.205-0.541s-0.104-0.373-0.137-0.562
			c-0.339,0.391-0.751,0.707-1.235,0.947c-0.484,0.241-1.04,0.361-1.665,0.361c-1.035,0-1.856-0.281-2.466-0.844
			c-0.609-0.563-0.913-1.33-0.913-2.301c0-0.989,0.397-1.754,1.191-2.295c0.794-0.54,1.96-0.811,3.496-0.811h1.455v-1.035
			c0-0.508-0.146-0.901-0.439-1.182c-0.293-0.279-0.726-0.42-1.299-0.42c-0.325,0-0.615,0.038-0.869,0.113
			c-0.254,0.074-0.459,0.164-0.615,0.268l-0.186,1.133h-2.148l0.01-2.344c0.521-0.352,1.118-0.647,1.792-0.889
			c0.674-0.24,1.408-0.361,2.202-0.361c1.309,0,2.372,0.321,3.188,0.963c0.816,0.641,1.226,1.554,1.226,2.738v4.365
			c0,0.163,0.001,0.316,0.005,0.459c0.004,0.144,0.015,0.28,0.034,0.41l0.869,0.117v1.709H278.603z M276.132,159.346
			c0.43,0,0.82-0.092,1.172-0.277s0.625-0.419,0.82-0.699v-1.611h-1.455c-0.605,0-1.064,0.143-1.377,0.426s-0.469,0.623-0.469,1.02
			c0,0.358,0.116,0.639,0.347,0.84C275.4,159.245,275.722,159.346,276.132,159.346z"/>
		<path fill="#999999" d="M283.075,159.541l1.367-0.293v-6.553l-1.514-0.293v-1.719h4.17l0.127,1.543
			c0.247-0.547,0.566-0.973,0.957-1.279c0.391-0.306,0.843-0.459,1.357-0.459c0.149,0,0.308,0.012,0.474,0.035
			c0.166,0.022,0.305,0.05,0.415,0.082l-0.303,2.598l-1.172-0.029c-0.417,0-0.762,0.082-1.035,0.244
			c-0.273,0.163-0.481,0.395-0.625,0.693v5.137l1.367,0.293v1.709h-5.586V159.541z"/>
	</g>
	<g>
		<path fill="#999999" d="M200.702,300.648c1.738,0,3.171,0.556,4.297,1.666c1.126,1.109,1.689,2.533,1.689,4.271v2.354
			c0,1.745-0.563,3.17-1.689,4.273s-2.559,1.654-4.297,1.654h-6.396v-1.709l1.514-0.293V302.66l-1.514-0.293v-1.719h1.514H200.702z
			 M198.671,302.846v9.834h1.885c1.022,0,1.823-0.345,2.402-1.035c0.579-0.689,0.869-1.592,0.869-2.705v-2.373
			c0-1.1-0.29-1.995-0.869-2.686c-0.579-0.689-1.38-1.035-2.402-1.035H198.671z"/>
		<path fill="#999999" d="M213.212,315.072c-1.523,0-2.741-0.488-3.652-1.465s-1.367-2.217-1.367-3.721v-0.391
			c0-1.568,0.431-2.861,1.294-3.877s2.02-1.52,3.472-1.514c1.426,0,2.532,0.43,3.32,1.289s1.182,2.021,1.182,3.486v1.553h-6.309
			l-0.02,0.059c0.052,0.697,0.284,1.27,0.698,1.719s0.975,0.674,1.685,0.674c0.632,0,1.155-0.062,1.572-0.189
			s0.872-0.328,1.367-0.602l0.771,1.758c-0.437,0.346-1.001,0.635-1.694,0.869S214.064,315.072,213.212,315.072z M212.958,306.303
			c-0.527,0-0.944,0.202-1.25,0.605c-0.306,0.404-0.495,0.935-0.566,1.592l0.029,0.049h3.496v-0.254
			c0-0.605-0.142-1.088-0.425-1.449S213.531,306.303,212.958,306.303z"/>
		<path fill="#999999" d="M218.505,301.352v-1.719h4.375v13.232l1.377,0.293v1.709h-5.605v-1.709l1.377-0.293v-11.221
			L218.505,301.352z"/>
		<path fill="#999999" d="M225.097,313.158l1.377-0.293v-6.553l-1.523-0.293v-1.719h4.375v8.564l1.367,0.293v1.709h-5.596V313.158z
			 M229.325,301.771h-2.852v-2.139h2.852V301.771z"/>
		<path fill="#999999" d="M241.845,309.877c0,1.576-0.352,2.836-1.055,3.779c-0.703,0.944-1.719,1.416-3.047,1.416
			c-0.618,0-1.155-0.128-1.611-0.385c-0.456-0.258-0.84-0.631-1.152-1.119l-0.205,1.299h-2.461v-13.223l-1.514-0.293v-1.719h4.355
			v5.791c0.306-0.423,0.673-0.748,1.099-0.977c0.426-0.228,0.916-0.342,1.47-0.342c1.341,0,2.363,0.507,3.066,1.52
			c0.703,1.012,1.055,2.361,1.055,4.047V309.877z M239.003,309.672c0-1.028-0.151-1.844-0.454-2.445
			c-0.303-0.603-0.818-0.904-1.548-0.904c-0.442,0-0.817,0.094-1.123,0.279s-0.547,0.45-0.723,0.795v4.463
			c0.176,0.326,0.419,0.573,0.728,0.742c0.309,0.17,0.688,0.254,1.138,0.254c0.735,0,1.25-0.258,1.543-0.775
			s0.439-1.252,0.439-2.203V309.672z"/>
		<path fill="#999999" d="M248.222,315.072c-1.523,0-2.741-0.488-3.652-1.465s-1.367-2.217-1.367-3.721v-0.391
			c0-1.568,0.431-2.861,1.294-3.877s2.02-1.52,3.472-1.514c1.426,0,2.532,0.43,3.32,1.289s1.182,2.021,1.182,3.486v1.553h-6.309
			l-0.02,0.059c0.052,0.697,0.284,1.27,0.698,1.719s0.975,0.674,1.685,0.674c0.632,0,1.155-0.062,1.572-0.189
			s0.872-0.328,1.367-0.602l0.771,1.758c-0.437,0.346-1.001,0.635-1.694,0.869S249.074,315.072,248.222,315.072z M247.968,306.303
			c-0.527,0-0.944,0.202-1.25,0.605c-0.306,0.404-0.495,0.935-0.566,1.592l0.029,0.049h3.496v-0.254
			c0-0.605-0.142-1.088-0.425-1.449S248.541,306.303,247.968,306.303z"/>
		<path fill="#999999" d="M254.032,313.158l1.367-0.293v-6.553l-1.514-0.293v-1.719h4.17l0.127,1.543
			c0.247-0.547,0.566-0.973,0.957-1.279c0.391-0.306,0.843-0.459,1.357-0.459c0.149,0,0.308,0.012,0.474,0.035
			c0.166,0.022,0.305,0.05,0.415,0.082l-0.303,2.598l-1.172-0.029c-0.417,0-0.762,0.082-1.035,0.244
			c-0.273,0.163-0.481,0.395-0.625,0.693v5.137l1.367,0.293v1.709h-5.586V313.158z"/>
		<path fill="#999999" d="M268.769,314.867c-0.078-0.176-0.146-0.355-0.205-0.541s-0.104-0.373-0.137-0.562
			c-0.339,0.391-0.751,0.707-1.235,0.947c-0.484,0.241-1.04,0.361-1.665,0.361c-1.035,0-1.856-0.281-2.466-0.844
			c-0.609-0.563-0.913-1.33-0.913-2.301c0-0.989,0.397-1.754,1.191-2.295c0.794-0.54,1.96-0.811,3.496-0.811h1.455v-1.035
			c0-0.508-0.146-0.901-0.439-1.182c-0.293-0.279-0.726-0.42-1.299-0.42c-0.325,0-0.615,0.038-0.869,0.113
			c-0.254,0.074-0.459,0.164-0.615,0.268l-0.186,1.133h-2.148l0.01-2.344c0.521-0.352,1.118-0.647,1.792-0.889
			c0.674-0.24,1.408-0.361,2.202-0.361c1.309,0,2.372,0.321,3.188,0.963c0.816,0.641,1.226,1.554,1.226,2.738v4.365
			c0,0.163,0.001,0.316,0.005,0.459c0.004,0.144,0.015,0.28,0.034,0.41l0.869,0.117v1.709H268.769z M266.298,312.963
			c0.43,0,0.82-0.092,1.172-0.277s0.625-0.419,0.82-0.699v-1.611h-1.455c-0.605,0-1.064,0.143-1.377,0.426s-0.469,0.623-0.469,1.02
			c0,0.358,0.116,0.639,0.347,0.84C265.566,312.862,265.888,312.963,266.298,312.963z"/>
		<path fill="#999999" d="M273.241,313.158l1.367-0.293v-6.553l-1.514-0.293v-1.719h4.17l0.127,1.543
			c0.247-0.547,0.566-0.973,0.957-1.279c0.391-0.306,0.843-0.459,1.357-0.459c0.149,0,0.308,0.012,0.474,0.035
			c0.166,0.022,0.305,0.05,0.415,0.082l-0.303,2.598l-1.172-0.029c-0.417,0-0.762,0.082-1.035,0.244
			c-0.273,0.163-0.481,0.395-0.625,0.693v5.137l1.367,0.293v1.709h-5.586V313.158z"/>
	</g>
	<g>
		<path fill="#999999" d="M206.093,346.285c-0.462,0.456-1.136,0.868-2.021,1.236c-0.886,0.367-2.005,0.551-3.359,0.551
			c-1.921,0-3.483-0.643-4.688-1.928c-1.204-1.286-1.807-2.958-1.807-5.016v-0.488c0-2.129,0.595-3.86,1.782-5.195
			c1.188-1.334,2.739-2.002,4.653-2.002c1.113,0,2.13,0.178,3.052,0.533c0.922,0.354,1.688,0.834,2.3,1.439v2.861h-2.109l-0.4-1.904
			c-0.261-0.221-0.604-0.398-1.03-0.531c-0.426-0.134-0.916-0.201-1.47-0.201c-1.243,0-2.21,0.459-2.9,1.377
			s-1.035,2.119-1.035,3.604v0.508c0,1.445,0.339,2.6,1.016,3.463c0.677,0.862,1.653,1.293,2.93,1.293
			c0.573,0,1.036-0.049,1.392-0.146s0.633-0.211,0.835-0.342v-2.412l-2.031-0.156v-2.002h4.893V346.285z"/>
		<path fill="#999999" d="M212.646,348.072c-1.523,0-2.741-0.488-3.652-1.465s-1.367-2.217-1.367-3.721v-0.391
			c0-1.568,0.431-2.861,1.294-3.877s2.02-1.52,3.472-1.514c1.426,0,2.532,0.43,3.32,1.289s1.182,2.021,1.182,3.486v1.553h-6.309
			l-0.02,0.059c0.052,0.697,0.284,1.27,0.698,1.719s0.975,0.674,1.685,0.674c0.632,0,1.155-0.062,1.572-0.189
			s0.872-0.328,1.367-0.602l0.771,1.758c-0.437,0.346-1.001,0.635-1.694,0.869S213.498,348.072,212.646,348.072z M212.392,339.303
			c-0.527,0-0.944,0.202-1.25,0.605c-0.306,0.404-0.495,0.935-0.566,1.592l0.029,0.049h3.496v-0.254
			c0-0.605-0.142-1.088-0.425-1.449S212.965,339.303,212.392,339.303z"/>
		<path fill="#999999" d="M226.864,340.934h-1.914l-0.303-1.318c-0.195-0.156-0.44-0.286-0.737-0.391
			c-0.297-0.104-0.623-0.156-0.981-0.156c-0.501,0-0.898,0.113-1.191,0.338s-0.439,0.506-0.439,0.844c0,0.319,0.14,0.585,0.42,0.797
			c0.28,0.211,0.84,0.398,1.68,0.561c1.309,0.261,2.278,0.644,2.91,1.148c0.632,0.504,0.947,1.199,0.947,2.084
			c0,0.951-0.409,1.728-1.226,2.33c-0.816,0.602-1.893,0.902-3.228,0.902c-0.813,0-1.562-0.118-2.241-0.355
			c-0.68-0.238-1.284-0.578-1.812-1.021l-0.029-2.373h1.992l0.391,1.377c0.169,0.144,0.4,0.25,0.693,0.318s0.599,0.102,0.918,0.102
			c0.579,0,1.021-0.104,1.323-0.312c0.303-0.208,0.454-0.491,0.454-0.85c0-0.312-0.153-0.582-0.459-0.811
			c-0.306-0.228-0.869-0.43-1.689-0.605c-1.243-0.254-2.183-0.629-2.817-1.127s-0.952-1.178-0.952-2.037
			c0-0.885,0.364-1.648,1.094-2.289c0.729-0.642,1.768-0.963,3.115-0.963c0.82,0,1.597,0.111,2.329,0.332
			c0.732,0.222,1.307,0.505,1.724,0.85L226.864,340.934z"/>
		<path fill="#999999" d="M232.743,334.713v2.588h1.855v2.002h-1.855v5.381c0,0.41,0.085,0.703,0.254,0.879s0.397,0.264,0.684,0.264
			c0.195,0,0.366-0.008,0.513-0.023c0.146-0.017,0.311-0.045,0.493-0.084l0.244,2.061c-0.319,0.098-0.635,0.172-0.947,0.221
			s-0.651,0.072-1.016,0.072c-0.983,0-1.739-0.27-2.271-0.811c-0.531-0.54-0.796-1.396-0.796-2.568v-5.391h-1.553v-2.002h1.553
			v-2.588H232.743z"/>
		<path fill="#999999" d="M235.907,346.158l1.377-0.293v-6.553l-1.523-0.293v-1.719h4.375v8.564l1.367,0.293v1.709h-5.596V346.158z
			 M240.136,334.771h-2.852v-2.139h2.852V334.771z"/>
		<path fill="#999999" d="M242.44,342.486c0-1.575,0.44-2.865,1.323-3.871s2.102-1.51,3.657-1.51c1.562,0,2.784,0.502,3.667,1.504
			c0.883,1.003,1.323,2.295,1.323,3.877v0.205c0,1.589-0.44,2.883-1.323,3.883c-0.883,0.999-2.098,1.498-3.647,1.498
			c-1.569,0-2.794-0.499-3.677-1.498c-0.883-1-1.323-2.294-1.323-3.883V342.486z M245.292,342.691c0,0.964,0.169,1.737,0.508,2.32
			c0.339,0.582,0.886,0.873,1.641,0.873c0.735,0,1.274-0.293,1.616-0.879s0.513-1.357,0.513-2.314v-0.205
			c0-0.938-0.173-1.702-0.518-2.295c-0.345-0.592-0.889-0.889-1.631-0.889s-1.282,0.297-1.621,0.889
			c-0.339,0.593-0.508,1.357-0.508,2.295V342.691z"/>
		<path fill="#999999" d="M253.495,346.158l1.367-0.293v-6.553l-1.514-0.293v-1.719h4.17l0.127,1.514
			c0.352-0.54,0.784-0.96,1.299-1.26c0.515-0.299,1.091-0.449,1.729-0.449c1.067,0,1.901,0.336,2.5,1.006
			c0.599,0.671,0.898,1.723,0.898,3.154v4.6l1.367,0.293v1.709h-5.449v-1.709l1.221-0.293v-4.59c0-0.709-0.144-1.212-0.43-1.508
			c-0.286-0.297-0.72-0.445-1.299-0.445c-0.378,0-0.716,0.077-1.016,0.23c-0.3,0.152-0.55,0.369-0.752,0.648v5.664l1.152,0.293
			v1.709h-5.371V346.158z"/>
		<path fill="#999999" d="M273.075,347.867c-0.078-0.176-0.146-0.355-0.205-0.541s-0.104-0.373-0.137-0.562
			c-0.339,0.391-0.751,0.707-1.235,0.947c-0.484,0.241-1.04,0.361-1.665,0.361c-1.035,0-1.856-0.281-2.466-0.844
			c-0.609-0.563-0.913-1.33-0.913-2.301c0-0.989,0.397-1.754,1.191-2.295c0.794-0.54,1.96-0.811,3.496-0.811h1.455v-1.035
			c0-0.508-0.146-0.901-0.439-1.182c-0.293-0.279-0.726-0.42-1.299-0.42c-0.325,0-0.615,0.038-0.869,0.113
			c-0.254,0.074-0.459,0.164-0.615,0.268l-0.186,1.133h-2.148l0.01-2.344c0.521-0.352,1.118-0.647,1.792-0.889
			c0.674-0.24,1.408-0.361,2.202-0.361c1.309,0,2.372,0.321,3.188,0.963c0.816,0.641,1.226,1.554,1.226,2.738v4.365
			c0,0.163,0.001,0.316,0.005,0.459c0.004,0.144,0.015,0.28,0.034,0.41l0.869,0.117v1.709H273.075z M270.604,345.963
			c0.43,0,0.82-0.092,1.172-0.277s0.625-0.419,0.82-0.699v-1.611h-1.455c-0.605,0-1.064,0.143-1.377,0.426s-0.469,0.623-0.469,1.02
			c0,0.358,0.116,0.639,0.347,0.84C269.873,345.862,270.194,345.963,270.604,345.963z"/>
		<path fill="#999999" d="M277.548,346.158l1.367-0.293v-6.553l-1.514-0.293v-1.719h4.17l0.127,1.543
			c0.247-0.547,0.566-0.973,0.957-1.279c0.391-0.306,0.843-0.459,1.357-0.459c0.149,0,0.308,0.012,0.474,0.035
			c0.166,0.022,0.305,0.05,0.415,0.082l-0.303,2.598l-1.172-0.029c-0.417,0-0.762,0.082-1.035,0.244
			c-0.273,0.163-0.481,0.395-0.625,0.693v5.137l1.367,0.293v1.709h-5.586V346.158z"/>
	</g>
</g>
<g id="colectividad">
</g>
</svg>
