<?xml version="1.0" encoding="utf-8"?>
<!-- Generator: Adobe Illustrator 16.0.0, SVG Export Plug-In . SVG Version: 6.00 Build 0)  -->
<!DOCTYPE svg PUBLIC "-//W3C//DTD SVG 1.1//EN" "http://www.w3.org/Graphics/SVG/1.1/DTD/svg11.dtd">
<svg version="1.1" xmlns="http://www.w3.org/2000/svg" xmlns:xlink="http://www.w3.org/1999/xlink" x="0px" y="0px" width="480px"
	 height="480px" viewBox="0 0 480 480" enable-background="new 0 0 480 480" xml:space="preserve">
<g id="modelos_anteriores">
</g>
<g id="fondo">
</g>
<g id="exp-personal">
	<g>
		<g>
			<path fill="#33CCFF" d="M207.613,394.201c-53.547-7.136-100.076-40.222-124.461-88.503l6.248-3.156
				c23.344,46.219,67.883,77.89,119.139,84.721c66.52,8.864,131.215-25.554,160.986-85.647l6.273,3.107
				C344.695,367.504,277.105,403.462,207.613,394.201z"/>
			<g>
				<polygon fill="#33CCFF" points="79.197,321.024 82.58,321.929 87.016,305.251 103.326,310.894 104.469,307.582 84.604,300.714 
									"/>
			</g>
		</g>
		<g>
			<path fill="#33CCFF" d="M368.49,162.228c-29.688-57.725-90.6-90.76-155.184-84.162c-53.213,5.438-99.473,37.191-123.742,84.943
				l-6.24-3.171c25.354-49.886,73.678-83.056,129.271-88.735c33.369-3.409,66.463,3.345,95.703,19.53
				c28.572,15.814,51.537,39.464,66.416,68.392L368.49,162.228z"/>
			<g>
				<polygon fill="#33CCFF" points="378.643,143.692 375.254,142.798 370.873,159.491 354.543,153.901 353.414,157.218 
					373.301,164.021 				"/>
			</g>
		</g>
	</g>
	<g>
		<path fill="#CCCCCC" d="M178.124,34.701h-7.222v6.094h6.885l0.19-2.549h3.252v5.83h-16.875v-2.564l2.271-0.439V25.766
			l-2.271-0.439v-2.578h2.271H181.2v5.844h-3.281l-0.19-2.549h-6.826v5.361h7.222V34.701z"/>
		<path fill="#CCCCCC" d="M183.163,41.512l1.479-0.234l4.307-5.215l-4.16-5.01l-1.479-0.248v-2.578h7.134v2.475l-1.45,0.176
			l2.402,3.047l2.358-3.047l-1.479-0.176v-2.475h7.163v2.578l-1.436,0.248l-4.072,5.01l4.292,5.215l1.494,0.234v2.564h-7.251v-2.461
			l1.45-0.176l-2.461-3.193l-2.505,3.207l1.274,0.162v2.461h-7.061V41.512z"/>
		<path fill="#CCCCCC" d="M200.741,30.805v-2.578h6.211l0.205,1.846c0.469-0.684,1.03-1.211,1.685-1.582s1.416-0.557,2.285-0.557
			c1.963,0,3.486,0.766,4.57,2.299s1.626,3.551,1.626,6.051v0.307c0,2.344-0.542,4.229-1.626,5.654s-2.598,2.139-4.541,2.139
			c-0.83,0-1.567-0.153-2.212-0.461s-1.196-0.76-1.655-1.355v4.586l2.065,0.439v2.578h-8.394v-2.578l2.065-0.439V31.244
			L200.741,30.805z M213.045,36.283c0-1.494-0.249-2.705-0.747-3.633s-1.26-1.393-2.285-1.393c-0.645,0-1.194,0.133-1.648,0.396
			s-0.813,0.639-1.077,1.127v6.943c0.264,0.449,0.623,0.791,1.077,1.025s1.013,0.352,1.677,0.352c1.035,0,1.794-0.404,2.278-1.215
			s0.725-1.91,0.725-3.297V36.283z"/>
		<path fill="#CCCCCC" d="M219.549,41.512l2.051-0.439v-9.828l-2.271-0.439v-2.578h6.255l0.19,2.314
			c0.371-0.82,0.85-1.461,1.436-1.92s1.265-0.688,2.036-0.688c0.225,0,0.461,0.017,0.71,0.051s0.457,0.076,0.623,0.125l-0.454,3.896
			l-1.758-0.045c-0.625,0-1.143,0.123-1.553,0.367s-0.723,0.59-0.938,1.039v7.705l2.051,0.439v2.564h-8.379V41.512z"/>
		<path fill="#CCCCCC" d="M239.164,44.383c-2.285,0-4.111-0.732-5.479-2.197s-2.051-3.324-2.051-5.58V36.02
			c0-2.354,0.647-4.293,1.941-5.816s3.03-2.279,5.208-2.27c2.139,0,3.799,0.645,4.98,1.934s1.772,3.031,1.772,5.229v2.33h-9.463
			l-0.029,0.088c0.078,1.045,0.427,1.904,1.047,2.578s1.462,1.01,2.527,1.01c0.947,0,1.733-0.095,2.358-0.285s1.309-0.49,2.051-0.9
			l1.157,2.637c-0.654,0.518-1.501,0.951-2.542,1.303S240.443,44.383,239.164,44.383z M238.783,31.229
			c-0.791,0-1.416,0.303-1.875,0.908s-0.742,1.402-0.85,2.389l0.044,0.072h5.244v-0.381c0-0.908-0.212-1.633-0.637-2.175
			S239.642,31.229,238.783,31.229z"/>
		<path fill="#CCCCCC" d="M260.492,33.676h-2.871l-0.454-1.979c-0.293-0.234-0.662-0.43-1.106-0.586s-0.935-0.234-1.472-0.234
			c-0.752,0-1.348,0.169-1.787,0.506s-0.659,0.76-0.659,1.268c0,0.479,0.21,0.876,0.63,1.193s1.26,0.598,2.52,0.842
			c1.963,0.391,3.418,0.965,4.365,1.722s1.421,1.8,1.421,3.128c0,1.426-0.613,2.59-1.838,3.493s-2.839,1.354-4.841,1.354
			c-1.221,0-2.341-0.178-3.362-0.534s-1.926-0.866-2.717-1.53l-0.044-3.561h2.988l0.586,2.066c0.254,0.215,0.601,0.373,1.04,0.476
			s0.898,0.153,1.377,0.153c0.869,0,1.531-0.156,1.985-0.469s0.681-0.736,0.681-1.273c0-0.469-0.229-0.875-0.688-1.217
			s-1.304-0.645-2.534-0.908c-1.865-0.381-3.274-0.944-4.226-1.691s-1.428-1.766-1.428-3.055c0-1.328,0.547-2.473,1.641-3.435
			s2.651-1.442,4.673-1.442c1.23,0,2.395,0.166,3.494,0.498s1.96,0.756,2.585,1.273L260.492,33.676z"/>
		<path fill="#CCCCCC" d="M262.865,41.512l2.065-0.439v-9.828l-2.285-0.439v-2.578h6.562v12.846l2.051,0.439v2.564h-8.394V41.512z
			 M269.208,24.432h-4.277v-3.207h4.277V24.432z"/>
		<path fill="#CCCCCC" d="M272.665,36.004c0-2.363,0.662-4.299,1.985-5.808s3.152-2.263,5.486-2.263c2.344,0,4.177,0.752,5.5,2.256
			s1.985,3.441,1.985,5.814v0.309c0,2.383-0.662,4.323-1.985,5.822s-3.147,2.248-5.471,2.248c-2.354,0-4.192-0.749-5.515-2.248
			s-1.985-3.439-1.985-5.822V36.004z M276.942,36.312c0,1.445,0.254,2.604,0.762,3.479s1.328,1.311,2.461,1.311
			c1.104,0,1.912-0.439,2.424-1.318s0.769-2.035,0.769-3.471v-0.309c0-1.406-0.259-2.553-0.776-3.441s-1.333-1.334-2.446-1.334
			s-1.924,0.445-2.432,1.334s-0.762,2.035-0.762,3.441V36.312z M280.487,22.045h4.526l0.029,0.088L281,25.941h-3.428L280.487,22.045
			z"/>
		<path fill="#CCCCCC" d="M289.247,41.512l2.051-0.439v-9.828l-2.271-0.439v-2.578h6.255l0.19,2.27
			c0.527-0.811,1.177-1.439,1.948-1.889s1.636-0.674,2.593-0.674c1.602,0,2.852,0.502,3.75,1.508s1.348,2.584,1.348,4.732v6.898
			l2.051,0.439v2.564h-8.174v-2.564l1.831-0.439v-6.885c0-1.064-0.215-1.818-0.645-2.263s-1.079-0.667-1.948-0.667
			c-0.566,0-1.074,0.115-1.523,0.345s-0.825,0.554-1.128,0.974v8.496l1.729,0.439v2.564h-8.057V41.512z"/>
	</g>
	<g>
		<path fill="#999999" d="M75.995,194.08l-1.743,0.249l3.311,7.002h0.088l3.311-7.002l-1.729-0.249v-2.578h8.071v2.578l-1.816,0.293
			l-5.801,10.957v4.497l2.285,0.439v2.563h-8.833v-2.563l2.285-0.439v-4.717l-5.698-10.737l-1.802-0.293v-2.578h8.071V194.08z"/>
		<path fill="#999999" d="M87.845,204.759c0-2.363,0.662-4.3,1.985-5.808c1.323-1.51,3.152-2.264,5.486-2.264
			c2.344,0,4.177,0.752,5.5,2.256s1.985,3.442,1.985,5.815v0.308c0,2.383-0.662,4.324-1.985,5.822
			c-1.323,1.5-3.147,2.249-5.471,2.249c-2.354,0-4.192-0.749-5.515-2.249c-1.323-1.498-1.985-3.439-1.985-5.822V204.759z
			 M92.123,205.066c0,1.445,0.254,2.605,0.762,3.479c0.508,0.875,1.328,1.312,2.461,1.312c1.104,0,1.912-0.439,2.424-1.318
			s0.769-2.036,0.769-3.472v-0.308c0-1.406-0.259-2.554-0.776-3.442s-1.333-1.333-2.446-1.333s-1.924,0.444-2.432,1.333
			s-0.762,2.036-0.762,3.442V205.066z"/>
	</g>
	<g>
		<path fill="#999999" d="M319.187,191.502c2.441,0,4.368,0.627,5.779,1.883c1.411,1.254,2.117,2.897,2.117,4.929
			c0,2.041-0.706,3.682-2.117,4.922s-3.337,1.86-5.779,1.86h-3.604v4.731l2.285,0.439v2.563h-8.833v-2.563l2.271-0.439V194.52
			l-2.271-0.439v-2.578h2.271H319.187z M315.583,201.8h3.604c1.191,0,2.092-0.325,2.703-0.974c0.61-0.65,0.916-1.478,0.916-2.483
			c0-1.025-0.305-1.872-0.916-2.542c-0.61-0.668-1.511-1.003-2.703-1.003h-3.604V201.8z"/>
		<path fill="#999999" d="M328.869,210.267l2.051-0.439v-9.829l-2.271-0.439v-2.578h6.255l0.19,2.314
			c0.371-0.82,0.85-1.46,1.436-1.919s1.265-0.688,2.036-0.688c0.225,0,0.461,0.018,0.71,0.051c0.249,0.035,0.457,0.076,0.623,0.125
			l-0.454,3.896l-1.758-0.044c-0.625,0-1.143,0.122-1.553,0.366s-0.723,0.591-0.938,1.04v7.705l2.051,0.439v2.563h-8.379V210.267z"
			/>
		<path fill="#999999" d="M340.881,204.759c0-2.363,0.662-4.3,1.985-5.808c1.323-1.51,3.152-2.264,5.486-2.264
			c2.344,0,4.177,0.752,5.5,2.256s1.985,3.442,1.985,5.815v0.308c0,2.383-0.662,4.324-1.985,5.822
			c-1.323,1.5-3.147,2.249-5.471,2.249c-2.354,0-4.192-0.749-5.515-2.249c-1.323-1.498-1.985-3.439-1.985-5.822V204.759z
			 M345.158,205.066c0,1.445,0.254,2.605,0.762,3.479c0.508,0.875,1.328,1.312,2.461,1.312c1.104,0,1.912-0.439,2.424-1.318
			s0.769-2.036,0.769-3.472v-0.308c0-1.406-0.259-2.554-0.776-3.442s-1.333-1.333-2.446-1.333s-1.924,0.444-2.432,1.333
			s-0.762,2.036-0.762,3.442V205.066z"/>
		<path fill="#999999" d="M373.02,205.345c0,2.363-0.527,4.253-1.582,5.669s-2.578,2.124-4.57,2.124
			c-0.928,0-1.733-0.192-2.417-0.579c-0.684-0.385-1.26-0.944-1.729-1.677l-0.308,1.948h-3.691v-19.834l-2.271-0.439v-2.578h6.533
			v8.687c0.459-0.635,1.008-1.123,1.648-1.465s1.375-0.513,2.205-0.513c2.012,0,3.545,0.76,4.6,2.277
			c1.055,1.52,1.582,3.543,1.582,6.072V205.345z M368.757,205.037c0-1.543-0.227-2.766-0.681-3.67
			c-0.454-0.902-1.228-1.354-2.322-1.354c-0.664,0-1.226,0.14-1.685,0.417c-0.459,0.279-0.82,0.677-1.084,1.194v6.694
			c0.264,0.488,0.627,0.859,1.091,1.113s1.033,0.381,1.707,0.381c1.104,0,1.875-0.389,2.314-1.164
			c0.439-0.777,0.659-1.878,0.659-3.304V205.037z"/>
		<path fill="#999999" d="M374.25,192.557v-2.578h6.562v19.849l2.065,0.439v2.563h-8.408v-2.563l2.065-0.439v-16.831L374.25,192.557
			z"/>
		<path fill="#999999" d="M391.857,213.138c-2.285,0-4.111-0.732-5.479-2.197s-2.051-3.325-2.051-5.581v-0.586
			c0-2.354,0.647-4.292,1.941-5.815s3.03-2.28,5.208-2.271c2.139,0,3.799,0.645,4.98,1.934s1.772,3.032,1.772,5.229v2.329h-9.463
			l-0.029,0.088c0.078,1.045,0.427,1.904,1.047,2.578s1.462,1.011,2.527,1.011c0.947,0,1.733-0.095,2.358-0.286
			c0.625-0.189,1.309-0.49,2.051-0.9l1.157,2.637c-0.654,0.518-1.501,0.952-2.542,1.304S393.137,213.138,391.857,213.138z
			 M391.477,199.983c-0.791,0-1.416,0.303-1.875,0.908s-0.742,1.401-0.85,2.388l0.044,0.073h5.244v-0.381
			c0-0.908-0.212-1.634-0.637-2.175C392.978,200.254,392.336,199.983,391.477,199.983z"/>
		<path fill="#999999" d="M399.753,199.559v-2.578h6.255l0.176,2.095c0.508-0.762,1.145-1.351,1.912-1.765
			c0.766-0.416,1.652-0.623,2.658-0.623c1.016,0,1.885,0.225,2.607,0.674s1.27,1.128,1.641,2.036
			c0.488-0.85,1.123-1.514,1.904-1.992s1.699-0.718,2.754-0.718c1.562,0,2.795,0.539,3.699,1.619
			c0.902,1.078,1.354,2.722,1.354,4.929v6.592l2.065,0.439v2.563h-8.188v-2.563l1.846-0.439v-6.606c0-1.201-0.195-2.036-0.586-2.505
			s-0.972-0.703-1.743-0.703c-0.605,0-1.131,0.134-1.574,0.403c-0.445,0.268-0.799,0.642-1.062,1.12
			c0,0.186,0.005,0.345,0.015,0.476c0.01,0.133,0.015,0.267,0.015,0.403v7.412l1.729,0.439v2.563h-7.72v-2.563l1.729-0.439v-6.606
			c0-1.172-0.195-2-0.586-2.482c-0.391-0.484-0.977-0.726-1.758-0.726c-0.576,0-1.081,0.11-1.517,0.329
			c-0.434,0.221-0.793,0.53-1.076,0.931v8.555l1.846,0.439v2.563h-8.174v-2.563l2.065-0.439v-9.829L399.753,199.559z"/>
		<path fill="#999999" d="M438.249,212.83c-0.117-0.264-0.22-0.535-0.308-0.812c-0.088-0.279-0.156-0.56-0.205-0.843
			c-0.508,0.586-1.125,1.06-1.854,1.421c-0.727,0.361-1.56,0.542-2.497,0.542c-1.553,0-2.786-0.423-3.698-1.267
			c-0.914-0.846-1.37-1.995-1.37-3.45c0-1.484,0.596-2.632,1.787-3.442s2.939-1.216,5.244-1.216h2.183v-1.553
			c0-0.762-0.22-1.353-0.659-1.772s-1.089-0.63-1.948-0.63c-0.488,0-0.923,0.056-1.304,0.169c-0.381,0.111-0.688,0.246-0.923,0.402
			l-0.278,1.699h-3.223l0.015-3.516c0.781-0.527,1.678-0.972,2.688-1.333c1.012-0.361,2.112-0.542,3.304-0.542
			c1.963,0,3.558,0.48,4.782,1.443c1.227,0.961,1.839,2.331,1.839,4.108v6.548c0,0.244,0.003,0.474,0.007,0.688
			c0.006,0.215,0.022,0.42,0.052,0.615l1.304,0.176v2.563H438.249z M434.543,209.974c0.645,0,1.23-0.14,1.758-0.417
			c0.527-0.279,0.938-0.628,1.23-1.048v-2.417h-2.183c-0.908,0-1.597,0.213-2.065,0.637c-0.469,0.426-0.703,0.936-0.703,1.531
			c0,0.537,0.174,0.957,0.52,1.26C433.447,209.822,433.928,209.974,434.543,209.974z"/>
	</g>
	<g>
		<path fill="#00C0F3" d="M38.668,239.963h-4.814v4.062h4.59l0.127-1.699h2.168v3.887h-11.25v-1.709l1.514-0.293v-10.205
			l-1.514-0.293v-1.719h1.514h9.717v3.896h-2.188l-0.127-1.699h-4.551v3.574h4.814V239.963z"/>
		<path fill="#00C0F3" d="M42.027,244.504l0.986-0.156l2.871-3.477l-2.773-3.34l-0.986-0.166v-1.719h4.756v1.65l-0.967,0.117
			l1.602,2.031l1.572-2.031l-0.986-0.117v-1.65h4.775v1.719l-0.957,0.166l-2.715,3.34l2.861,3.477l0.996,0.156v1.709h-4.834v-1.641
			l0.967-0.117l-1.641-2.129l-1.67,2.139l0.85,0.107v1.641h-4.707V244.504z"/>
		<path fill="#00C0F3" d="M53.746,237.365v-1.719h4.141l0.137,1.23c0.312-0.455,0.687-0.807,1.123-1.055s0.944-0.371,1.523-0.371
			c1.309,0,2.324,0.512,3.047,1.533s1.084,2.367,1.084,4.033v0.205c0,1.562-0.361,2.818-1.084,3.77s-1.732,1.426-3.027,1.426
			c-0.553,0-1.045-0.103-1.475-0.308s-0.797-0.507-1.104-0.903v3.057l1.377,0.293v1.719h-5.596v-1.719l1.377-0.293v-10.605
			L53.746,237.365z M61.949,241.018c0-0.996-0.166-1.803-0.498-2.422s-0.84-0.928-1.523-0.928c-0.43,0-0.796,0.088-1.099,0.264
			s-0.542,0.426-0.718,0.752v4.629c0.176,0.299,0.415,0.527,0.718,0.684s0.675,0.234,1.118,0.234c0.69,0,1.196-0.27,1.519-0.811
			s0.483-1.273,0.483-2.197V241.018z"/>
		<path fill="#00C0F3" d="M71.129,246.418c-1.523,0-2.741-0.488-3.652-1.465s-1.367-2.217-1.367-3.721v-0.391
			c0-1.568,0.431-2.861,1.294-3.877s2.02-1.52,3.472-1.514c1.426,0,2.533,0.43,3.32,1.289s1.182,2.021,1.182,3.486v1.553h-6.309
			l-0.02,0.059c0.052,0.697,0.285,1.27,0.698,1.719s0.975,0.674,1.685,0.674c0.631,0,1.156-0.063,1.572-0.19
			s0.873-0.327,1.367-0.601l0.771,1.758c-0.436,0.346-1.001,0.635-1.694,0.869S71.982,246.418,71.129,246.418z M70.875,237.648
			c-0.527,0-0.944,0.201-1.25,0.605s-0.495,0.934-0.566,1.592l0.029,0.049h3.496v-0.254c0-0.605-0.142-1.089-0.425-1.45
			S71.448,237.648,70.875,237.648z"/>
		<path fill="#00C0F3" d="M76.939,244.504l1.367-0.293v-6.553l-1.514-0.293v-1.719h4.17l0.127,1.543
			c0.248-0.547,0.566-0.973,0.957-1.279s0.843-0.459,1.357-0.459c0.15,0,0.308,0.012,0.474,0.034s0.304,0.05,0.415,0.083
			l-0.303,2.598l-1.172-0.029c-0.417,0-0.762,0.082-1.035,0.244s-0.482,0.395-0.625,0.693v5.137l1.367,0.293v1.709h-5.586V244.504z"
			/>
		<path fill="#00C0F3" d="M85.055,244.504l1.377-0.293v-6.553l-1.523-0.293v-1.719h4.375v8.564l1.367,0.293v1.709h-5.596V244.504z
			 M89.283,233.117h-2.852v-2.139h2.852V233.117z"/>
		<path fill="#00C0F3" d="M96.646,246.418c-1.523,0-2.741-0.488-3.652-1.465s-1.367-2.217-1.367-3.721v-0.391
			c0-1.568,0.431-2.861,1.294-3.877s2.02-1.52,3.472-1.514c1.426,0,2.533,0.43,3.32,1.289s1.182,2.021,1.182,3.486v1.553h-6.309
			l-0.02,0.059c0.052,0.697,0.285,1.27,0.698,1.719s0.975,0.674,1.685,0.674c0.631,0,1.156-0.063,1.572-0.19
			s0.873-0.327,1.367-0.601l0.771,1.758c-0.436,0.346-1.001,0.635-1.694,0.869S97.5,246.418,96.646,246.418z M96.393,237.648
			c-0.527,0-0.944,0.201-1.25,0.605s-0.495,0.934-0.566,1.592l0.029,0.049h3.496v-0.254c0-0.605-0.142-1.089-0.425-1.45
			S96.965,237.648,96.393,237.648z"/>
		<path fill="#00C0F3" d="M102.086,244.504l1.367-0.293v-6.553l-1.514-0.293v-1.719h4.17l0.127,1.514
			c0.352-0.541,0.785-0.961,1.299-1.26s1.09-0.449,1.729-0.449c1.068,0,1.901,0.336,2.5,1.006s0.898,1.723,0.898,3.154v4.6
			l1.367,0.293v1.709h-5.449v-1.709l1.221-0.293v-4.59c0-0.709-0.143-1.213-0.43-1.509s-0.719-0.444-1.299-0.444
			c-0.377,0-0.716,0.076-1.016,0.229s-0.55,0.37-0.752,0.649v5.664l1.152,0.293v1.709h-5.371V244.504z"/>
		<path fill="#00C0F3" d="M119.801,244.23c0.508,0,0.915-0.148,1.221-0.444s0.459-0.692,0.459-1.187h2.578l0.029,0.059
			c0.026,1.068-0.375,1.961-1.201,2.681s-1.855,1.079-3.086,1.079c-1.576,0-2.79-0.498-3.643-1.494s-1.279-2.275-1.279-3.838v-0.293
			c0-1.557,0.438-2.836,1.313-3.838s2.124-1.504,3.745-1.504c0.853,0,1.618,0.127,2.295,0.381s1.24,0.611,1.689,1.074l0.039,2.822
			h-2.314l-0.469-1.65c-0.143-0.123-0.319-0.227-0.527-0.308s-0.446-0.122-0.713-0.122c-0.807,0-1.377,0.293-1.709,0.879
			s-0.498,1.342-0.498,2.266v0.293c0,0.943,0.153,1.704,0.459,2.28S119.033,244.23,119.801,244.23z"/>
		<path fill="#00C0F3" d="M125.289,244.504l1.377-0.293v-6.553l-1.523-0.293v-1.719h4.375v8.564l1.367,0.293v1.709h-5.596V244.504z
			 M129.518,233.117h-2.852v-2.139h2.852V233.117z"/>
		<path fill="#00C0F3" d="M138.551,246.213c-0.078-0.176-0.146-0.356-0.205-0.542s-0.104-0.372-0.137-0.562
			c-0.338,0.391-0.75,0.707-1.235,0.947s-1.04,0.361-1.665,0.361c-1.035,0-1.857-0.281-2.466-0.845s-0.913-1.329-0.913-2.3
			c0-0.99,0.397-1.754,1.191-2.295s1.959-0.811,3.496-0.811h1.455v-1.035c0-0.508-0.146-0.902-0.439-1.182s-0.726-0.42-1.299-0.42
			c-0.326,0-0.615,0.037-0.869,0.112s-0.459,0.165-0.615,0.269l-0.186,1.133h-2.148l0.01-2.344c0.521-0.352,1.118-0.648,1.792-0.889
			s1.408-0.361,2.202-0.361c1.309,0,2.372,0.32,3.188,0.962s1.226,1.554,1.226,2.739v4.365c0,0.162,0.001,0.316,0.005,0.459
			s0.015,0.279,0.034,0.41l0.869,0.117v1.709H138.551z M136.08,244.309c0.43,0,0.82-0.093,1.172-0.278s0.625-0.419,0.82-0.698
			v-1.611h-1.455c-0.605,0-1.064,0.142-1.377,0.425s-0.469,0.624-0.469,1.021c0,0.357,0.116,0.639,0.347,0.84
			S135.67,244.309,136.08,244.309z"/>
		<path fill="#00C0F3" d="M34.781,257.713v-1.719h5.889v1.719l-1.523,0.293v10.205l1.523,0.293v1.709h-5.889v-1.709l1.523-0.293
			v-10.205L34.781,257.713z"/>
		<path fill="#00C0F3" d="M41.666,268.504l1.367-0.293v-6.553l-1.514-0.293v-1.719h4.17l0.127,1.514
			c0.352-0.541,0.785-0.961,1.299-1.26s1.09-0.449,1.729-0.449c1.068,0,1.901,0.336,2.5,1.006s0.898,1.723,0.898,3.154v4.6
			l1.367,0.293v1.709H48.16v-1.709l1.221-0.293v-4.59c0-0.709-0.143-1.213-0.43-1.509s-0.719-0.444-1.299-0.444
			c-0.377,0-0.716,0.076-1.016,0.229s-0.55,0.37-0.752,0.649v5.664l1.152,0.293v1.709h-5.371V268.504z"/>
		<path fill="#00C0F3" d="M58.727,257.059v2.588h1.855v2.002h-1.855v5.381c0,0.41,0.084,0.703,0.254,0.879s0.397,0.264,0.684,0.264
			c0.195,0,0.366-0.008,0.513-0.024s0.311-0.044,0.493-0.083l0.244,2.061c-0.319,0.098-0.635,0.171-0.947,0.22
			s-0.651,0.073-1.016,0.073c-0.983,0-1.74-0.27-2.271-0.811s-0.796-1.396-0.796-2.568v-5.391h-1.553v-2.002h1.553v-2.588H58.727z"
			/>
		<path fill="#00C0F3" d="M67.037,270.418c-1.523,0-2.741-0.488-3.652-1.465s-1.367-2.217-1.367-3.721v-0.391
			c0-1.568,0.431-2.861,1.294-3.877s2.02-1.52,3.472-1.514c1.426,0,2.533,0.43,3.32,1.289s1.182,2.021,1.182,3.486v1.553h-6.309
			l-0.02,0.059c0.052,0.697,0.285,1.27,0.698,1.719s0.975,0.674,1.685,0.674c0.631,0,1.156-0.063,1.572-0.19
			s0.873-0.327,1.367-0.601l0.771,1.758c-0.436,0.346-1.001,0.635-1.694,0.869S67.89,270.418,67.037,270.418z M66.783,261.648
			c-0.527,0-0.944,0.201-1.25,0.605s-0.495,0.934-0.566,1.592l0.029,0.049h3.496v-0.254c0-0.605-0.142-1.089-0.425-1.45
			S67.356,261.648,66.783,261.648z"/>
		<path fill="#00C0F3" d="M72.33,256.697v-1.719h4.375v13.232l1.377,0.293v1.709h-5.605v-1.709l1.377-0.293V256.99L72.33,256.697z"
			/>
		<path fill="#00C0F3" d="M84.068,270.418c-1.523,0-2.741-0.488-3.652-1.465s-1.367-2.217-1.367-3.721v-0.391
			c0-1.568,0.431-2.861,1.294-3.877s2.02-1.52,3.472-1.514c1.426,0,2.533,0.43,3.32,1.289s1.182,2.021,1.182,3.486v1.553h-6.309
			l-0.02,0.059c0.052,0.697,0.285,1.27,0.698,1.719s0.975,0.674,1.685,0.674c0.631,0,1.156-0.063,1.572-0.19
			s0.873-0.327,1.367-0.601l0.771,1.758c-0.436,0.346-1.001,0.635-1.694,0.869S84.921,270.418,84.068,270.418z M83.814,261.648
			c-0.527,0-0.944,0.201-1.25,0.605s-0.495,0.934-0.566,1.592l0.029,0.049h3.496v-0.254c0-0.605-0.142-1.089-0.425-1.45
			S84.387,261.648,83.814,261.648z"/>
		<path fill="#00C0F3" d="M94.625,268.23c0.508,0,0.915-0.148,1.221-0.444s0.459-0.692,0.459-1.187h2.578l0.029,0.059
			c0.026,1.068-0.375,1.961-1.201,2.681s-1.855,1.079-3.086,1.079c-1.576,0-2.79-0.498-3.643-1.494s-1.279-2.275-1.279-3.838v-0.293
			c0-1.557,0.438-2.836,1.313-3.838s2.124-1.504,3.745-1.504c0.853,0,1.618,0.127,2.295,0.381s1.24,0.611,1.689,1.074l0.039,2.822
			h-2.314l-0.469-1.65c-0.143-0.123-0.319-0.227-0.527-0.308s-0.446-0.122-0.713-0.122c-0.807,0-1.377,0.293-1.709,0.879
			s-0.498,1.342-0.498,2.266v0.293c0,0.943,0.153,1.704,0.459,2.28S93.857,268.23,94.625,268.23z"/>
		<path fill="#00C0F3" d="M104.41,257.059v2.588h1.855v2.002h-1.855v5.381c0,0.41,0.084,0.703,0.254,0.879s0.397,0.264,0.684,0.264
			c0.195,0,0.366-0.008,0.513-0.024s0.311-0.044,0.493-0.083l0.244,2.061c-0.319,0.098-0.635,0.171-0.947,0.22
			s-0.651,0.073-1.016,0.073c-0.983,0-1.74-0.27-2.271-0.811s-0.796-1.396-0.796-2.568v-5.391h-1.553v-2.002h1.553v-2.588H104.41z"
			/>
		<path fill="#00C0F3" d="M115.055,268.875c-0.338,0.494-0.757,0.875-1.255,1.143s-1.066,0.4-1.704,0.4
			c-1.113,0-1.986-0.356-2.617-1.069s-0.947-1.821-0.947-3.325v-4.365l-1.162-0.293v-1.719h1.162h2.852v6.396
			c0,0.768,0.128,1.32,0.386,1.655s0.64,0.503,1.147,0.503c0.449,0,0.838-0.073,1.167-0.22s0.597-0.356,0.806-0.63v-5.693
			l-1.25-0.293v-1.719h1.25h2.852v8.564l1.279,0.293v1.709h-3.779L115.055,268.875z"/>
		<path fill="#00C0F3" d="M126.871,270.213c-0.078-0.176-0.146-0.356-0.205-0.542s-0.104-0.372-0.137-0.562
			c-0.338,0.391-0.75,0.707-1.235,0.947s-1.04,0.361-1.665,0.361c-1.035,0-1.857-0.281-2.466-0.845s-0.913-1.329-0.913-2.3
			c0-0.99,0.397-1.754,1.191-2.295s1.959-0.811,3.496-0.811h1.455v-1.035c0-0.508-0.146-0.902-0.439-1.182s-0.726-0.42-1.299-0.42
			c-0.326,0-0.615,0.037-0.869,0.112s-0.459,0.165-0.615,0.269l-0.186,1.133h-2.148l0.01-2.344c0.521-0.352,1.118-0.648,1.792-0.889
			s1.408-0.361,2.202-0.361c1.309,0,2.372,0.32,3.188,0.962s1.226,1.554,1.226,2.739v4.365c0,0.162,0.001,0.316,0.005,0.459
			s0.015,0.279,0.034,0.41l0.869,0.117v1.709H126.871z M124.4,268.309c0.43,0,0.82-0.093,1.172-0.278s0.625-0.419,0.82-0.698v-1.611
			h-1.455c-0.605,0-1.064,0.142-1.377,0.425s-0.469,0.624-0.469,1.021c0,0.357,0.116,0.639,0.347,0.84S123.99,268.309,124.4,268.309
			z"/>
		<path fill="#00C0F3" d="M130.826,256.697v-1.719h4.375v13.232l1.377,0.293v1.709h-5.605v-1.709l1.377-0.293V256.99
			L130.826,256.697z"/>
	</g>
	<g>
		<path fill="#00C0F3" d="M329.064,239.963h-4.814v4.062h4.59l0.127-1.699h2.168v3.887h-11.25v-1.709l1.514-0.293v-10.205
			l-1.514-0.293v-1.719h1.514h9.717v3.896h-2.188l-0.127-1.699h-4.551v3.574h4.814V239.963z"/>
		<path fill="#00C0F3" d="M332.424,244.504l0.986-0.156l2.871-3.477l-2.773-3.34l-0.986-0.166v-1.719h4.756v1.65l-0.967,0.117
			l1.602,2.031l1.572-2.031l-0.986-0.117v-1.65h4.775v1.719l-0.957,0.166l-2.715,3.34l2.861,3.477l0.996,0.156v1.709h-4.834v-1.641
			l0.967-0.117l-1.641-2.129l-1.67,2.139l0.85,0.107v1.641h-4.707V244.504z"/>
		<path fill="#00C0F3" d="M344.143,237.365v-1.719h4.141l0.137,1.23c0.312-0.455,0.687-0.807,1.123-1.055s0.944-0.371,1.523-0.371
			c1.309,0,2.324,0.512,3.047,1.533s1.084,2.367,1.084,4.033v0.205c0,1.562-0.361,2.818-1.084,3.77s-1.732,1.426-3.027,1.426
			c-0.553,0-1.045-0.103-1.475-0.308s-0.797-0.507-1.104-0.903v3.057l1.377,0.293v1.719h-5.596v-1.719l1.377-0.293v-10.605
			L344.143,237.365z M352.346,241.018c0-0.996-0.166-1.803-0.498-2.422s-0.84-0.928-1.523-0.928c-0.43,0-0.796,0.088-1.099,0.264
			s-0.542,0.426-0.718,0.752v4.629c0.176,0.299,0.415,0.527,0.718,0.684s0.675,0.234,1.118,0.234c0.69,0,1.196-0.27,1.519-0.811
			s0.483-1.273,0.483-2.197V241.018z"/>
		<path fill="#00C0F3" d="M361.525,246.418c-1.523,0-2.741-0.488-3.652-1.465s-1.367-2.217-1.367-3.721v-0.391
			c0-1.568,0.431-2.861,1.294-3.877s2.02-1.52,3.472-1.514c1.426,0,2.533,0.43,3.32,1.289s1.182,2.021,1.182,3.486v1.553h-6.309
			l-0.02,0.059c0.052,0.697,0.285,1.27,0.698,1.719s0.975,0.674,1.685,0.674c0.631,0,1.156-0.063,1.572-0.19
			s0.873-0.327,1.367-0.601l0.771,1.758c-0.436,0.346-1.001,0.635-1.694,0.869S362.378,246.418,361.525,246.418z M361.271,237.648
			c-0.527,0-0.944,0.201-1.25,0.605s-0.495,0.934-0.566,1.592l0.029,0.049h3.496v-0.254c0-0.605-0.142-1.089-0.425-1.45
			S361.844,237.648,361.271,237.648z"/>
		<path fill="#00C0F3" d="M367.336,244.504l1.367-0.293v-6.553l-1.514-0.293v-1.719h4.17l0.127,1.543
			c0.248-0.547,0.566-0.973,0.957-1.279s0.843-0.459,1.357-0.459c0.15,0,0.308,0.012,0.474,0.034s0.304,0.05,0.415,0.083
			l-0.303,2.598l-1.172-0.029c-0.417,0-0.762,0.082-1.035,0.244s-0.482,0.395-0.625,0.693v5.137l1.367,0.293v1.709h-5.586V244.504z"
			/>
		<path fill="#00C0F3" d="M375.451,244.504l1.377-0.293v-6.553l-1.523-0.293v-1.719h4.375v8.564l1.367,0.293v1.709h-5.596V244.504z
			 M379.68,233.117h-2.852v-2.139h2.852V233.117z"/>
		<path fill="#00C0F3" d="M387.043,246.418c-1.523,0-2.741-0.488-3.652-1.465s-1.367-2.217-1.367-3.721v-0.391
			c0-1.568,0.431-2.861,1.294-3.877s2.02-1.52,3.472-1.514c1.426,0,2.533,0.43,3.32,1.289s1.182,2.021,1.182,3.486v1.553h-6.309
			l-0.02,0.059c0.052,0.697,0.285,1.27,0.698,1.719s0.975,0.674,1.685,0.674c0.631,0,1.156-0.063,1.572-0.19
			s0.873-0.327,1.367-0.601l0.771,1.758c-0.436,0.346-1.001,0.635-1.694,0.869S387.896,246.418,387.043,246.418z M386.789,237.648
			c-0.527,0-0.944,0.201-1.25,0.605s-0.495,0.934-0.566,1.592l0.029,0.049h3.496v-0.254c0-0.605-0.142-1.089-0.425-1.45
			S387.362,237.648,386.789,237.648z"/>
		<path fill="#00C0F3" d="M392.482,244.504l1.367-0.293v-6.553l-1.514-0.293v-1.719h4.17l0.127,1.514
			c0.352-0.541,0.785-0.961,1.299-1.26s1.09-0.449,1.729-0.449c1.068,0,1.9,0.336,2.5,1.006s0.898,1.723,0.898,3.154v4.6
			l1.367,0.293v1.709h-5.449v-1.709l1.221-0.293v-4.59c0-0.709-0.143-1.213-0.43-1.509s-0.719-0.444-1.299-0.444
			c-0.377,0-0.716,0.076-1.016,0.229s-0.55,0.37-0.752,0.649v5.664l1.152,0.293v1.709h-5.371V244.504z"/>
		<path fill="#00C0F3" d="M410.197,244.23c0.508,0,0.914-0.148,1.221-0.444s0.459-0.692,0.459-1.187h2.578l0.029,0.059
			c0.025,1.068-0.375,1.961-1.201,2.681s-1.855,1.079-3.086,1.079c-1.576,0-2.789-0.498-3.643-1.494s-1.279-2.275-1.279-3.838
			v-0.293c0-1.557,0.438-2.836,1.313-3.838s2.124-1.504,3.745-1.504c0.854,0,1.617,0.127,2.295,0.381s1.24,0.611,1.689,1.074
			l0.039,2.822h-2.314l-0.469-1.65c-0.143-0.123-0.318-0.227-0.527-0.308s-0.445-0.122-0.713-0.122
			c-0.807,0-1.377,0.293-1.709,0.879s-0.498,1.342-0.498,2.266v0.293c0,0.943,0.152,1.704,0.459,2.28S409.43,244.23,410.197,244.23z
			"/>
		<path fill="#00C0F3" d="M415.686,244.504l1.377-0.293v-6.553l-1.523-0.293v-1.719h4.375v8.564l1.367,0.293v1.709h-5.596V244.504z
			 M419.914,233.117h-2.852v-2.139h2.852V233.117z"/>
		<path fill="#00C0F3" d="M428.947,246.213c-0.078-0.176-0.146-0.356-0.205-0.542s-0.104-0.372-0.137-0.562
			c-0.338,0.391-0.75,0.707-1.235,0.947s-1.04,0.361-1.665,0.361c-1.035,0-1.857-0.281-2.466-0.845s-0.913-1.329-0.913-2.3
			c0-0.99,0.396-1.754,1.191-2.295s1.959-0.811,3.496-0.811h1.455v-1.035c0-0.508-0.146-0.902-0.439-1.182s-0.727-0.42-1.299-0.42
			c-0.326,0-0.615,0.037-0.869,0.112s-0.459,0.165-0.615,0.269l-0.186,1.133h-2.148l0.01-2.344c0.521-0.352,1.118-0.648,1.792-0.889
			s1.407-0.361,2.202-0.361c1.309,0,2.371,0.32,3.188,0.962s1.226,1.554,1.226,2.739v4.365c0,0.162,0.002,0.316,0.005,0.459
			s0.015,0.279,0.034,0.41l0.869,0.117v1.709H428.947z M426.477,244.309c0.43,0,0.82-0.093,1.172-0.278s0.625-0.419,0.82-0.698
			v-1.611h-1.455c-0.605,0-1.064,0.142-1.377,0.425s-0.469,0.624-0.469,1.021c0,0.357,0.115,0.639,0.347,0.84
			S426.066,244.309,426.477,244.309z"/>
		<path fill="#00C0F3" d="M344.221,255.994c1.627,0,2.912,0.418,3.853,1.255s1.411,1.933,1.411,3.286
			c0,1.361-0.47,2.455-1.411,3.281s-2.225,1.24-3.853,1.24h-2.402v3.154l1.523,0.293v1.709h-5.889v-1.709l1.514-0.293v-10.205
			l-1.514-0.293v-1.719h1.514H344.221z M341.818,262.859h2.402c0.794,0,1.395-0.217,1.802-0.649s0.61-0.985,0.61-1.655
			c0-0.684-0.204-1.248-0.61-1.694s-1.007-0.669-1.802-0.669h-2.402V262.859z"/>
		<path fill="#00C0F3" d="M350.676,268.504l1.367-0.293v-6.553l-1.514-0.293v-1.719h4.17l0.127,1.543
			c0.248-0.547,0.566-0.973,0.957-1.279s0.843-0.459,1.357-0.459c0.15,0,0.308,0.012,0.474,0.034s0.304,0.05,0.415,0.083
			l-0.303,2.598l-1.172-0.029c-0.417,0-0.762,0.082-1.035,0.244s-0.482,0.395-0.625,0.693v5.137l1.367,0.293v1.709h-5.586V268.504z"
			/>
		<path fill="#00C0F3" d="M365.412,270.213c-0.078-0.176-0.146-0.356-0.205-0.542s-0.104-0.372-0.137-0.562
			c-0.338,0.391-0.75,0.707-1.235,0.947s-1.04,0.361-1.665,0.361c-1.035,0-1.857-0.281-2.466-0.845s-0.913-1.329-0.913-2.3
			c0-0.99,0.397-1.754,1.191-2.295s1.959-0.811,3.496-0.811h1.455v-1.035c0-0.508-0.146-0.902-0.439-1.182s-0.726-0.42-1.299-0.42
			c-0.326,0-0.615,0.037-0.869,0.112s-0.459,0.165-0.615,0.269l-0.186,1.133h-2.148l0.01-2.344c0.521-0.352,1.118-0.648,1.792-0.889
			s1.408-0.361,2.202-0.361c1.309,0,2.372,0.32,3.188,0.962s1.226,1.554,1.226,2.739v4.365c0,0.162,0.001,0.316,0.005,0.459
			s0.015,0.279,0.034,0.41l0.869,0.117v1.709H365.412z M362.941,268.309c0.43,0,0.82-0.093,1.172-0.278s0.625-0.419,0.82-0.698
			v-1.611h-1.455c-0.605,0-1.064,0.142-1.377,0.425s-0.469,0.624-0.469,1.021c0,0.357,0.116,0.639,0.347,0.84
			S362.531,268.309,362.941,268.309z M363.898,255.545h3.018l0.02,0.059l-2.695,2.539h-2.285L363.898,255.545z"/>
		<path fill="#00C0F3" d="M374.631,268.23c0.508,0,0.915-0.148,1.221-0.444s0.459-0.692,0.459-1.187h2.578l0.029,0.059
			c0.026,1.068-0.375,1.961-1.201,2.681s-1.855,1.079-3.086,1.079c-1.576,0-2.79-0.498-3.643-1.494s-1.279-2.275-1.279-3.838v-0.293
			c0-1.557,0.438-2.836,1.313-3.838s2.124-1.504,3.745-1.504c0.853,0,1.618,0.127,2.295,0.381s1.24,0.611,1.689,1.074l0.039,2.822
			h-2.314l-0.469-1.65c-0.143-0.123-0.319-0.227-0.527-0.308s-0.446-0.122-0.713-0.122c-0.807,0-1.377,0.293-1.709,0.879
			s-0.498,1.342-0.498,2.266v0.293c0,0.943,0.153,1.704,0.459,2.28S373.863,268.23,374.631,268.23z"/>
		<path fill="#00C0F3" d="M384.416,257.059v2.588h1.855v2.002h-1.855v5.381c0,0.41,0.084,0.703,0.254,0.879s0.397,0.264,0.684,0.264
			c0.195,0,0.366-0.008,0.513-0.024s0.311-0.044,0.493-0.083l0.244,2.061c-0.319,0.098-0.635,0.171-0.947,0.22
			s-0.651,0.073-1.016,0.073c-0.983,0-1.74-0.27-2.271-0.811s-0.796-1.396-0.796-2.568v-5.391h-1.553v-2.002h1.553v-2.588H384.416z"
			/>
		<path fill="#00C0F3" d="M387.58,268.504l1.377-0.293v-6.553l-1.523-0.293v-1.719h4.375v8.564l1.367,0.293v1.709h-5.596V268.504z
			 M391.809,257.117h-2.852v-2.139h2.852V257.117z"/>
		<path fill="#00C0F3" d="M399.074,268.23c0.508,0,0.915-0.148,1.221-0.444s0.459-0.692,0.459-1.187h2.578l0.029,0.059
			c0.025,1.068-0.375,1.961-1.201,2.681s-1.855,1.079-3.086,1.079c-1.576,0-2.79-0.498-3.643-1.494s-1.279-2.275-1.279-3.838v-0.293
			c0-1.557,0.438-2.836,1.313-3.838s2.124-1.504,3.745-1.504c0.853,0,1.618,0.127,2.295,0.381c0.678,0.254,1.24,0.611,1.689,1.074
			l0.039,2.822h-2.314l-0.469-1.65c-0.143-0.123-0.319-0.227-0.527-0.308s-0.446-0.122-0.713-0.122
			c-0.807,0-1.377,0.293-1.709,0.879s-0.498,1.342-0.498,2.266v0.293c0,0.943,0.153,1.704,0.459,2.28S398.306,268.23,399.074,268.23
			z"/>
		<path fill="#00C0F3" d="M411.379,270.213c-0.078-0.176-0.146-0.356-0.205-0.542s-0.104-0.372-0.137-0.562
			c-0.338,0.391-0.75,0.707-1.235,0.947s-1.04,0.361-1.665,0.361c-1.035,0-1.857-0.281-2.466-0.845s-0.913-1.329-0.913-2.3
			c0-0.99,0.396-1.754,1.191-2.295s1.959-0.811,3.496-0.811h1.455v-1.035c0-0.508-0.146-0.902-0.439-1.182s-0.727-0.42-1.299-0.42
			c-0.326,0-0.615,0.037-0.869,0.112s-0.459,0.165-0.615,0.269l-0.186,1.133h-2.148l0.01-2.344c0.521-0.352,1.118-0.648,1.792-0.889
			s1.407-0.361,2.202-0.361c1.309,0,2.371,0.32,3.188,0.962s1.226,1.554,1.226,2.739v4.365c0,0.162,0.002,0.316,0.005,0.459
			s0.015,0.279,0.034,0.41l0.869,0.117v1.709H411.379z M408.908,268.309c0.43,0,0.82-0.093,1.172-0.278s0.625-0.419,0.82-0.698
			v-1.611h-1.455c-0.605,0-1.064,0.142-1.377,0.425s-0.469,0.624-0.469,1.021c0,0.357,0.115,0.639,0.347,0.84
			S408.498,268.309,408.908,268.309z"/>
	</g>
	<g>
		<path fill="#CCCCCC" d="M163.468,425.326v-2.578h8.833v2.578l-2.285,0.439v15.307l2.285,0.439v2.564h-8.833v-2.564l2.285-0.439
			v-15.307L163.468,425.326z"/>
		<path fill="#CCCCCC" d="M173.531,430.805v-2.578h6.255l0.176,2.094c0.508-0.762,1.145-1.35,1.912-1.765s1.653-0.622,2.659-0.622
			c1.016,0,1.885,0.225,2.607,0.674s1.27,1.127,1.641,2.035c0.488-0.85,1.123-1.514,1.904-1.992s1.699-0.717,2.754-0.717
			c1.562,0,2.795,0.539,3.699,1.618s1.355,2.722,1.355,4.929v6.592l2.065,0.439v2.564h-8.188v-2.564l1.846-0.439v-6.605
			c0-1.201-0.195-2.037-0.586-2.506s-0.972-0.703-1.743-0.703c-0.605,0-1.13,0.135-1.575,0.403s-0.798,0.642-1.062,1.12
			c0,0.186,0.005,0.345,0.015,0.477s0.015,0.266,0.015,0.402v7.412l1.729,0.439v2.564h-7.72v-2.564l1.729-0.439v-6.605
			c0-1.172-0.195-2-0.586-2.483s-0.977-0.726-1.758-0.726c-0.576,0-1.082,0.11-1.516,0.33s-0.793,0.529-1.077,0.93v8.555
			l1.846,0.439v2.564h-8.174v-2.564l2.065-0.439v-9.828L173.531,430.805z"/>
		<path fill="#CCCCCC" d="M201.612,430.805v-2.578h6.211l0.205,1.846c0.469-0.684,1.03-1.211,1.685-1.582s1.416-0.557,2.285-0.557
			c1.963,0,3.486,0.766,4.57,2.299s1.626,3.551,1.626,6.051v0.307c0,2.344-0.542,4.229-1.626,5.654s-2.598,2.139-4.541,2.139
			c-0.83,0-1.567-0.153-2.212-0.461s-1.196-0.76-1.655-1.355v4.586l2.065,0.439v2.578h-8.394v-2.578l2.065-0.439v-15.908
			L201.612,430.805z M213.917,436.283c0-1.494-0.249-2.705-0.747-3.633s-1.26-1.393-2.285-1.393c-0.645,0-1.194,0.133-1.648,0.396
			s-0.813,0.639-1.077,1.127v6.943c0.264,0.449,0.623,0.791,1.077,1.025s1.013,0.352,1.677,0.352c1.035,0,1.794-0.404,2.278-1.215
			s0.725-1.91,0.725-3.297V436.283z"/>
		<path fill="#CCCCCC" d="M220.421,441.512l2.051-0.439v-9.828l-2.271-0.439v-2.578h6.255l0.19,2.314
			c0.371-0.82,0.85-1.461,1.436-1.92s1.265-0.688,2.036-0.688c0.225,0,0.461,0.017,0.71,0.051s0.457,0.076,0.623,0.125l-0.454,3.896
			l-1.758-0.045c-0.625,0-1.143,0.123-1.553,0.367s-0.723,0.59-0.938,1.039v7.705l2.051,0.439v2.564h-8.379V441.512z"/>
		<path fill="#CCCCCC" d="M240.035,444.383c-2.285,0-4.111-0.732-5.479-2.197s-2.051-3.324-2.051-5.58v-0.586
			c0-2.354,0.647-4.293,1.941-5.816s3.03-2.279,5.208-2.27c2.139,0,3.799,0.645,4.98,1.934s1.772,3.031,1.772,5.229v2.33h-9.463
			l-0.029,0.088c0.078,1.045,0.427,1.904,1.047,2.578s1.462,1.01,2.527,1.01c0.947,0,1.733-0.095,2.358-0.285s1.309-0.49,2.051-0.9
			l1.157,2.637c-0.654,0.518-1.501,0.951-2.542,1.303S241.314,444.383,240.035,444.383z M239.654,431.229
			c-0.791,0-1.416,0.303-1.875,0.908s-0.742,1.402-0.85,2.389l0.044,0.072h5.244v-0.381c0-0.908-0.212-1.633-0.637-2.175
			S240.514,431.229,239.654,431.229z"/>
		<path fill="#CCCCCC" d="M261.363,433.676h-2.871l-0.454-1.979c-0.293-0.234-0.662-0.43-1.106-0.586s-0.935-0.234-1.472-0.234
			c-0.752,0-1.348,0.169-1.787,0.506s-0.659,0.76-0.659,1.268c0,0.479,0.21,0.876,0.63,1.193s1.26,0.598,2.52,0.842
			c1.963,0.391,3.418,0.965,4.365,1.722s1.421,1.8,1.421,3.128c0,1.426-0.613,2.59-1.838,3.493s-2.839,1.354-4.841,1.354
			c-1.221,0-2.341-0.178-3.362-0.534s-1.926-0.866-2.717-1.53l-0.044-3.561h2.988l0.586,2.066c0.254,0.215,0.601,0.373,1.04,0.476
			s0.898,0.153,1.377,0.153c0.869,0,1.531-0.156,1.985-0.469s0.681-0.736,0.681-1.273c0-0.469-0.229-0.875-0.688-1.217
			s-1.304-0.645-2.534-0.908c-1.865-0.381-3.274-0.944-4.226-1.691s-1.428-1.766-1.428-3.055c0-1.328,0.547-2.473,1.641-3.435
			s2.651-1.442,4.673-1.442c1.23,0,2.395,0.166,3.494,0.498s1.96,0.756,2.585,1.273L261.363,433.676z"/>
		<path fill="#CCCCCC" d="M263.736,441.512l2.065-0.439v-9.828l-2.285-0.439v-2.578h6.562v12.846l2.051,0.439v2.564h-8.394V441.512z
			 M270.079,424.432h-4.277v-3.207h4.277V424.432z"/>
		<path fill="#CCCCCC" d="M273.536,436.004c0-2.363,0.662-4.299,1.985-5.808s3.152-2.263,5.486-2.263c2.344,0,4.177,0.752,5.5,2.256
			s1.985,3.441,1.985,5.814v0.309c0,2.383-0.662,4.323-1.985,5.822s-3.147,2.248-5.471,2.248c-2.354,0-4.192-0.749-5.515-2.248
			s-1.985-3.439-1.985-5.822V436.004z M277.813,436.312c0,1.445,0.254,2.604,0.762,3.479s1.328,1.311,2.461,1.311
			c1.104,0,1.912-0.439,2.424-1.318s0.769-2.035,0.769-3.471v-0.309c0-1.406-0.259-2.553-0.776-3.441s-1.333-1.334-2.446-1.334
			s-1.924,0.445-2.432,1.334s-0.762,2.035-0.762,3.441V436.312z M281.358,422.045h4.526l0.029,0.088l-4.043,3.809h-3.428
			L281.358,422.045z"/>
		<path fill="#CCCCCC" d="M290.118,441.512l2.051-0.439v-9.828l-2.271-0.439v-2.578h6.255l0.19,2.27
			c0.527-0.811,1.177-1.439,1.948-1.889s1.636-0.674,2.593-0.674c1.602,0,2.852,0.502,3.75,1.508s1.348,2.584,1.348,4.732v6.898
			l2.051,0.439v2.564h-8.174v-2.564l1.831-0.439v-6.885c0-1.064-0.215-1.818-0.645-2.263s-1.079-0.667-1.948-0.667
			c-0.566,0-1.074,0.115-1.523,0.345s-0.825,0.554-1.128,0.974v8.496l1.729,0.439v2.564h-8.057V441.512z"/>
	</g>
	<path fill="#999999" d="M237.121,238.276c-4.14-1.596-4.854-4.179-4.718-6.104c2.266-1.602,4.263-4.736,4.263-8.361
		c0-5.246-1.859-9.493-7.309-9.493c-5.271,0-7.307,4.257-7.307,9.503c0,3.393,1.503,6.365,3.57,8.046
		c0.228,1.966-0.339,4.74-4.695,6.419c-6.211,2.396-9.825,3.715-11.297,13.715h19.405h19.376
		C246.939,242,243.332,240.673,237.121,238.276z"/>
</g>
<g id="tema-territorio-personas">
</g>
<g id="similitud">
</g>
<g id="integracion">
</g>
<g id="coordinacion">
</g>
<g id="colectividad">
</g>
</svg>
