<?xml version="1.0" encoding="utf-8"?>
<!-- Generator: Adobe Illustrator 16.0.0, SVG Export Plug-In . SVG Version: 6.00 Build 0)  -->
<!DOCTYPE svg PUBLIC "-//W3C//DTD SVG 1.1//EN" "http://www.w3.org/Graphics/SVG/1.1/DTD/svg11.dtd">
<svg version="1.1" xmlns="http://www.w3.org/2000/svg" xmlns:xlink="http://www.w3.org/1999/xlink" x="0px" y="0px" width="480px"
	 height="480px" viewBox="0 0 480 480" enable-background="new 0 0 480 480" xml:space="preserve">
<g id="modelos_anteriores">
</g>
<g id="fondo">
</g>
<g id="exp-personal">
</g>
<g id="tema-territorio-personas">
</g>
<g id="similitud">
</g>
<g id="integracion">
	<g>
		<path fill="#999999" d="M265.628,235.759c-4.12-1.588-4.664-4.205-4.664-6.006v0.035c2.4-1.799,4.209-4.736,4.209-8.361
			c0-5.246-1.887-9.492-7.334-9.492c-5.271,0-7.176,4.258-7.176,9.504c0,3.393,1.301,6.365,3.701,8.045v0.002
			c0,1.967-0.49,4.793-4.84,6.471c-2.112,0.814-3.988,1.505-5.518,2.473c0.299,0.684,1,1.324,2.774,2.009
			c5.223,2.015,8.942,3.505,11.19,8.905h18.892C275.392,239.743,271.839,238.155,265.628,235.759z"/>
		<path fill="#999999" d="M226.874,235.937c-4.136-1.594-4.853-4.193-4.719-6.119l0,0c2.267-1.602,4.264-4.752,4.264-8.376
			c0-5.245-1.859-9.499-7.309-9.499c-5.271,0-7.307,4.254-7.307,9.499c0,3.394,1.503,6.364,3.571,8.044l0,0
			c0.227,1.967-0.341,4.602-4.696,6.281c-6.211,2.395-9.825,3.977-11.297,13.576h17.995c2.249-5.4,6.007-6.881,11.231-8.896
			c2.131-0.82,2.777-1.748,2.953-2.543C230.202,237.151,228.647,236.62,226.874,235.937z"/>
		<path fill="#999999" d="M254.987,249.483c-1.963-3.6-4.983-4.826-9.214-6.457c-2.075-0.799-3.29-1.794-3.968-2.891
			c-0.002,0.004-0.006,0.024-0.008,0.027c-0.666-1.084-0.81-2.199-0.742-3.154c2.266-1.602,4.264-4.746,4.264-8.372
			c0-5.245-1.86-9.497-7.309-9.497c-5.271,0-7.307,4.256-7.307,9.5c0,3.394,1.502,6.365,3.57,8.045
			c0.1,0.861,0.044,1.889-0.412,2.912c-0.004-0.003-0.006-0.006-0.008-0.008c-0.59,1.307-1.84,2.566-4.275,3.506
			c-4.229,1.631-7.252,2.789-9.217,6.389c-0.921,1.8-1.61,4.66-2.08,7.06h19.404h19.377
			C256.594,254.144,255.905,251.283,254.987,249.483z M238.146,249.624c-0.008-0.043-0.016-0.086-0.022-0.131
			c-0.007,0.045-0.015,0.088-0.022,0.131h-0.018c0.01,0,0.023-0.082,0.035-0.157c0.001,0.009,0.003,0.017,0.005,0.026
			c0.001-0.012,0.003-0.021,0.005-0.031c0.013,0.076,0.025,0.162,0.035,0.162H238.146z"/>
	</g>
	<g>
		<g>
			<path fill="#33CCFF" d="M216.717,392.931c-53.548-7.136-100.076-40.222-124.462-88.503l6.248-3.156
				c23.344,46.219,67.883,77.89,119.139,84.721c66.52,8.864,131.216-25.554,160.987-85.647l6.273,3.107
				C353.799,366.233,286.209,402.191,216.717,392.931z"/>
			<g>
				<polygon fill="#33CCFF" points="88.3,319.754 91.684,320.658 96.118,303.98 112.43,309.623 113.572,306.312 93.706,299.443 				
					"/>
			</g>
		</g>
		<g>
			<path fill="#33CCFF" d="M377.594,160.957c-29.688-57.725-90.601-90.76-155.185-84.162
				c-53.213,5.438-99.472,37.191-123.741,84.943l-6.241-3.171c25.354-49.886,73.679-83.056,129.271-88.735
				c33.369-3.409,66.463,3.345,95.704,19.53c28.572,15.814,51.537,39.464,66.416,68.392L377.594,160.957z"/>
			<g>
				<polygon fill="#33CCFF" points="387.745,142.422 384.357,141.527 379.977,158.221 363.646,152.631 362.517,155.947 
					382.404,162.75 				"/>
			</g>
		</g>
	</g>
	<g>
		<path fill="#CCCCCC" d="M172.387,24.055v-2.578h8.834v2.578l-2.285,0.439v15.309l2.285,0.439v2.562h-8.834v-2.562l2.285-0.439
			V24.494L172.387,24.055z"/>
		<path fill="#CCCCCC" d="M182.715,40.242l2.051-0.439v-9.83l-2.271-0.439v-2.578h6.256l0.189,2.271
			c0.527-0.811,1.178-1.441,1.949-1.891s1.635-0.674,2.592-0.674c1.602,0,2.852,0.504,3.75,1.51s1.348,2.582,1.348,4.73v6.9
			l2.051,0.439v2.562h-8.174v-2.562l1.832-0.439v-6.885c0-1.064-0.215-1.819-0.645-2.264s-1.08-0.666-1.949-0.666
			c-0.566,0-1.074,0.114-1.523,0.344s-0.824,0.555-1.127,0.975v8.496l1.729,0.439v2.562h-8.057V40.242z"/>
		<path fill="#CCCCCC" d="M201.494,29.533v-2.578h6.254l0.176,2.096c0.508-0.762,1.146-1.351,1.912-1.766s1.652-0.623,2.658-0.623
			c1.016,0,1.885,0.225,2.607,0.674s1.27,1.129,1.641,2.037c0.488-0.85,1.123-1.514,1.904-1.992s1.699-0.719,2.754-0.719
			c1.562,0,2.796,0.54,3.699,1.619s1.355,2.723,1.355,4.93v6.592l2.064,0.439v2.562h-8.188v-2.562l1.846-0.439v-6.607
			c0-1.201-0.195-2.035-0.586-2.504s-0.973-0.703-1.744-0.703c-0.605,0-1.13,0.134-1.574,0.402s-0.799,0.643-1.062,1.121
			c0,0.186,0.006,0.344,0.016,0.476s0.014,0.267,0.014,0.403v7.412l1.729,0.439v2.562h-7.719v-2.562l1.729-0.439v-6.607
			c0-1.172-0.195-1.999-0.586-2.482s-0.977-0.725-1.758-0.725c-0.576,0-1.082,0.109-1.517,0.329s-0.794,0.53-1.077,0.931v8.555
			l1.846,0.439v2.562h-8.174v-2.562l2.066-0.439v-9.83L201.494,29.533z"/>
		<path fill="#CCCCCC" d="M237.338,43.113c-2.285,0-4.111-0.732-5.479-2.197s-2.051-3.326-2.051-5.582v-0.586
			c0-2.354,0.647-4.291,1.941-5.814s3.029-2.281,5.207-2.271c2.139,0,3.799,0.645,4.98,1.934s1.773,3.033,1.773,5.23v2.328h-9.463
			l-0.029,0.088c0.078,1.045,0.427,1.904,1.047,2.578s1.463,1.012,2.527,1.012c0.947,0,1.732-0.096,2.357-0.286
			s1.309-0.491,2.051-0.901l1.158,2.637c-0.654,0.518-1.502,0.953-2.542,1.305S238.617,43.113,237.338,43.113z M236.957,29.959
			c-0.791,0-1.416,0.303-1.875,0.908s-0.742,1.4-0.85,2.387l0.045,0.074h5.244v-0.381c0-0.908-0.213-1.634-0.638-2.176
			S237.816,29.959,236.957,29.959z"/>
		<path fill="#CCCCCC" d="M246.055,40.242l2.051-0.439v-9.83l-2.271-0.439v-2.578h6.256l0.189,2.314
			c0.371-0.82,0.85-1.459,1.436-1.918s1.266-0.689,2.037-0.689c0.225,0,0.461,0.018,0.71,0.052s0.456,0.075,0.622,0.124
			l-0.453,3.896l-1.758-0.043c-0.625,0-1.143,0.121-1.553,0.365s-0.723,0.592-0.938,1.041v7.705l2.051,0.439v2.562h-8.379V40.242z"
			/>
		<path fill="#CCCCCC" d="M271.293,32.404h-2.871l-0.453-1.977c-0.293-0.234-0.662-0.43-1.106-0.586s-0.935-0.234-1.472-0.234
			c-0.752,0-1.348,0.168-1.787,0.505s-0.66,0.759-0.66,1.267c0,0.479,0.211,0.877,0.631,1.194s1.26,0.599,2.52,0.843
			c1.963,0.391,3.418,0.964,4.365,1.721s1.42,1.799,1.42,3.127c0,1.426-0.612,2.591-1.838,3.494s-2.84,1.355-4.842,1.355
			c-1.221,0-2.341-0.179-3.361-0.535s-1.926-0.867-2.717-1.531l-0.045-3.559h2.988l0.586,2.064c0.254,0.215,0.602,0.374,1.041,0.477
			s0.898,0.154,1.377,0.154c0.869,0,1.53-0.156,1.984-0.469s0.682-0.738,0.682-1.275c0-0.469-0.23-0.873-0.689-1.215
			s-1.303-0.645-2.533-0.908c-1.865-0.381-3.274-0.945-4.227-1.692s-1.428-1.765-1.428-3.054c0-1.328,0.547-2.474,1.641-3.436
			s2.65-1.443,4.672-1.443c1.23,0,2.396,0.166,3.494,0.498s1.961,0.758,2.586,1.275L271.293,32.404z"/>
		<path fill="#CCCCCC" d="M273.666,40.242l2.066-0.439v-9.83l-2.285-0.439v-2.578h6.562v12.848l2.051,0.439v2.562h-8.395V40.242z
			 M280.01,23.162h-4.277v-3.209h4.277V23.162z"/>
		<path fill="#CCCCCC" d="M283.467,34.734c0-2.363,0.661-4.3,1.984-5.809s3.152-2.264,5.486-2.264c2.344,0,4.177,0.752,5.5,2.256
			s1.984,3.443,1.984,5.816v0.307c0,2.383-0.661,4.324-1.984,5.823s-3.146,2.249-5.471,2.249c-2.354,0-4.192-0.75-5.516-2.249
			s-1.984-3.44-1.984-5.823V34.734z M287.744,35.041c0,1.445,0.254,2.605,0.762,3.479s1.328,1.312,2.461,1.312
			c1.104,0,1.911-0.439,2.424-1.318s0.77-2.037,0.77-3.473v-0.307c0-1.406-0.26-2.555-0.777-3.443s-1.332-1.332-2.445-1.332
			s-1.924,0.443-2.432,1.332s-0.762,2.037-0.762,3.443V35.041z M291.289,20.773h4.525l0.029,0.088l-4.043,3.809h-3.428
			L291.289,20.773z"/>
		<path fill="#CCCCCC" d="M300.049,40.242l2.051-0.439v-9.83l-2.271-0.439v-2.578h6.256l0.189,2.271
			c0.527-0.811,1.178-1.441,1.949-1.891s1.635-0.674,2.592-0.674c1.602,0,2.852,0.504,3.75,1.51s1.348,2.582,1.348,4.73v6.9
			l2.051,0.439v2.562h-8.174v-2.562l1.832-0.439v-6.885c0-1.064-0.215-1.819-0.645-2.264s-1.08-0.666-1.949-0.666
			c-0.566,0-1.074,0.114-1.523,0.344s-0.824,0.555-1.127,0.975v8.496l1.729,0.439v2.562h-8.057V40.242z"/>
	</g>
	<g>
		<path fill="#999999" d="M53.596,190.231v2.578l-2.285,0.439v18.311h-4.263l-8.613-14.355l-0.088,0.015v11.338l2.285,0.439v2.563
			h-8.833v-2.563l2.271-0.439v-15.308l-2.271-0.439v-2.578h2.271h4.277l8.613,14.355l0.088-0.015v-11.323l-2.285-0.439v-2.578h6.548
			H53.596z"/>
		<path fill="#999999" d="M55.075,203.488c0-2.363,0.661-4.299,1.985-5.809c1.322-1.508,3.151-2.263,5.485-2.263
			c2.344,0,4.177,0.752,5.501,2.256c1.322,1.504,1.984,3.442,1.984,5.815v0.308c0,2.383-0.662,4.323-1.984,5.823
			c-1.324,1.498-3.147,2.248-5.472,2.248c-2.354,0-4.192-0.75-5.515-2.248c-1.324-1.5-1.985-3.44-1.985-5.823V203.488z
			 M59.353,203.796c0,1.445,0.254,2.604,0.762,3.479c0.508,0.873,1.328,1.311,2.461,1.311c1.104,0,1.911-0.439,2.425-1.318
			c0.512-0.879,0.769-2.036,0.769-3.472v-0.308c0-1.406-0.259-2.554-0.776-3.442s-1.333-1.333-2.446-1.333s-1.924,0.444-2.432,1.333
			s-0.762,2.036-0.762,3.442V203.796z"/>
		<path fill="#999999" d="M84.826,201.159h-2.871l-0.454-1.978c-0.293-0.234-0.661-0.43-1.106-0.586
			c-0.443-0.156-0.935-0.234-1.472-0.234c-0.752,0-1.348,0.168-1.787,0.506c-0.439,0.336-0.659,0.759-0.659,1.267
			c0,0.479,0.21,0.876,0.63,1.194c0.42,0.316,1.26,0.598,2.52,0.842c1.963,0.391,3.418,0.965,4.365,1.721
			c0.947,0.758,1.421,1.8,1.421,3.128c0,1.426-0.613,2.591-1.838,3.493c-1.227,0.904-2.84,1.355-4.842,1.355
			c-1.221,0-2.342-0.178-3.361-0.535c-1.021-0.355-1.927-0.866-2.718-1.53l-0.044-3.56h2.988l0.586,2.065
			c0.254,0.215,0.601,0.374,1.04,0.476c0.439,0.104,0.898,0.154,1.377,0.154c0.869,0,1.53-0.156,1.985-0.469
			c0.453-0.312,0.681-0.737,0.681-1.274c0-0.469-0.229-0.874-0.688-1.216s-1.304-0.645-2.534-0.908
			c-1.865-0.381-3.274-0.945-4.226-1.691c-0.953-0.748-1.429-1.766-1.429-3.055c0-1.328,0.547-2.473,1.641-3.436
			c1.094-0.961,2.651-1.442,4.673-1.442c1.23,0,2.395,0.166,3.494,0.498c1.098,0.332,1.96,0.757,2.585,1.274L84.826,201.159z"/>
		<path fill="#999999" d="M87.331,203.488c0-2.363,0.661-4.299,1.985-5.809c1.322-1.508,3.151-2.263,5.485-2.263
			c2.344,0,4.177,0.752,5.501,2.256c1.322,1.504,1.984,3.442,1.984,5.815v0.308c0,2.383-0.662,4.323-1.984,5.823
			c-1.324,1.498-3.147,2.248-5.472,2.248c-2.354,0-4.192-0.75-5.515-2.248c-1.324-1.5-1.985-3.44-1.985-5.823V203.488z
			 M91.608,203.796c0,1.445,0.254,2.604,0.762,3.479c0.508,0.873,1.328,1.311,2.461,1.311c1.104,0,1.911-0.439,2.425-1.318
			c0.512-0.879,0.769-2.036,0.769-3.472v-0.308c0-1.406-0.259-2.554-0.776-3.442s-1.333-1.333-2.446-1.333s-1.924,0.444-2.432,1.333
			s-0.762,2.036-0.762,3.442V203.796z"/>
		<path fill="#999999" d="M110.461,191.828v3.882h2.783v3.003h-2.783v8.071c0,0.615,0.127,1.055,0.381,1.318
			s0.596,0.396,1.025,0.396c0.293,0,0.549-0.012,0.77-0.037c0.219-0.023,0.466-0.065,0.739-0.124l0.366,3.091
			c-0.479,0.146-0.952,0.256-1.421,0.33c-0.469,0.072-0.977,0.109-1.523,0.109c-1.475,0-2.61-0.405-3.405-1.216
			c-0.797-0.811-1.194-2.095-1.194-3.853v-8.086h-2.329v-3.003h2.329v-3.882H110.461z"/>
		<path fill="#999999" d="M115.661,208.996l2.051-0.439v-9.829l-2.271-0.439v-2.578h6.255l0.19,2.314
			c0.371-0.82,0.85-1.46,1.436-1.919s1.265-0.688,2.036-0.688c0.225,0,0.462,0.017,0.71,0.052c0.25,0.033,0.457,0.075,0.623,0.124
			l-0.454,3.896l-1.758-0.044c-0.625,0-1.143,0.122-1.553,0.366s-0.723,0.591-0.938,1.04v7.705l2.051,0.439v2.563h-8.379V208.996z"
			/>
		<path fill="#999999" d="M127.673,203.488c0-2.363,0.661-4.299,1.985-5.809c1.322-1.508,3.151-2.263,5.485-2.263
			c2.344,0,4.177,0.752,5.501,2.256c1.322,1.504,1.984,3.442,1.984,5.815v0.308c0,2.383-0.662,4.323-1.984,5.823
			c-1.324,1.498-3.147,2.248-5.472,2.248c-2.354,0-4.192-0.75-5.515-2.248c-1.324-1.5-1.985-3.44-1.985-5.823V203.488z
			 M131.95,203.796c0,1.445,0.254,2.604,0.762,3.479c0.508,0.873,1.328,1.311,2.461,1.311c1.104,0,1.911-0.439,2.425-1.318
			c0.512-0.879,0.769-2.036,0.769-3.472v-0.308c0-1.406-0.259-2.554-0.776-3.442s-1.333-1.333-2.446-1.333s-1.924,0.444-2.432,1.333
			s-0.762,2.036-0.762,3.442V203.796z"/>
		<path fill="#999999" d="M157.424,201.159h-2.871l-0.454-1.978c-0.293-0.234-0.661-0.43-1.106-0.586
			c-0.443-0.156-0.935-0.234-1.472-0.234c-0.752,0-1.348,0.168-1.787,0.506c-0.439,0.336-0.659,0.759-0.659,1.267
			c0,0.479,0.21,0.876,0.63,1.194c0.42,0.316,1.26,0.598,2.52,0.842c1.963,0.391,3.418,0.965,4.365,1.721
			c0.947,0.758,1.421,1.8,1.421,3.128c0,1.426-0.613,2.591-1.838,3.493c-1.227,0.904-2.84,1.355-4.842,1.355
			c-1.221,0-2.342-0.178-3.361-0.535c-1.021-0.355-1.927-0.866-2.718-1.53l-0.044-3.56h2.988l0.586,2.065
			c0.254,0.215,0.601,0.374,1.04,0.476c0.439,0.104,0.898,0.154,1.377,0.154c0.869,0,1.53-0.156,1.985-0.469
			c0.453-0.312,0.681-0.737,0.681-1.274c0-0.469-0.229-0.874-0.688-1.216s-1.304-0.645-2.534-0.908
			c-1.865-0.381-3.274-0.945-4.226-1.691c-0.953-0.748-1.429-1.766-1.429-3.055c0-1.328,0.547-2.473,1.641-3.436
			c1.094-0.961,2.651-1.442,4.673-1.442c1.23,0,2.395,0.166,3.494,0.498c1.098,0.332,1.96,0.757,2.585,1.274L157.424,201.159z"/>
	</g>
	<g>
		<path fill="#999999" d="M328.611,190.231c2.441,0,4.367,0.628,5.779,1.882c1.41,1.256,2.116,2.898,2.116,4.93
			c0,2.041-0.706,3.682-2.116,4.922c-1.412,1.24-3.338,1.86-5.779,1.86h-3.604v4.731l2.285,0.439v2.563h-8.833v-2.563l2.271-0.439
			v-15.308l-2.271-0.439v-2.578h2.271H328.611z M325.008,200.529h3.604c1.191,0,2.092-0.324,2.703-0.975
			c0.609-0.648,0.915-1.477,0.915-2.482c0-1.025-0.306-1.873-0.915-2.541c-0.611-0.67-1.512-1.004-2.703-1.004h-3.604V200.529z"/>
		<path fill="#999999" d="M338.294,208.996l2.051-0.439v-9.829l-2.271-0.439v-2.578h6.255l0.19,2.314
			c0.371-0.82,0.85-1.46,1.436-1.919s1.265-0.688,2.036-0.688c0.225,0,0.462,0.017,0.71,0.052c0.25,0.033,0.457,0.075,0.623,0.124
			l-0.454,3.896l-1.758-0.044c-0.625,0-1.143,0.122-1.553,0.366s-0.723,0.591-0.938,1.04v7.705l2.051,0.439v2.563h-8.379V208.996z"
			/>
		<path fill="#999999" d="M350.306,203.488c0-2.363,0.661-4.299,1.985-5.809c1.322-1.508,3.151-2.263,5.485-2.263
			c2.344,0,4.177,0.752,5.501,2.256c1.322,1.504,1.984,3.442,1.984,5.815v0.308c0,2.383-0.662,4.323-1.984,5.823
			c-1.324,1.498-3.147,2.248-5.472,2.248c-2.354,0-4.192-0.75-5.515-2.248c-1.324-1.5-1.985-3.44-1.985-5.823V203.488z
			 M354.583,203.796c0,1.445,0.254,2.604,0.762,3.479c0.508,0.873,1.328,1.311,2.461,1.311c1.104,0,1.911-0.439,2.425-1.318
			c0.512-0.879,0.769-2.036,0.769-3.472v-0.308c0-1.406-0.259-2.554-0.776-3.442s-1.333-1.333-2.446-1.333s-1.924,0.444-2.432,1.333
			s-0.762,2.036-0.762,3.442V203.796z"/>
		<path fill="#999999" d="M382.444,204.074c0,2.363-0.527,4.253-1.582,5.669s-2.578,2.124-4.57,2.124
			c-0.928,0-1.733-0.193-2.417-0.578c-0.684-0.387-1.26-0.945-1.729-1.678l-0.308,1.948h-3.691v-19.834l-2.271-0.439v-2.578h6.533
			v8.687c0.459-0.635,1.008-1.123,1.648-1.465c0.639-0.342,1.374-0.513,2.204-0.513c2.012,0,3.545,0.759,4.6,2.278
			c1.055,1.518,1.582,3.542,1.582,6.071V204.074z M378.182,203.767c0-1.543-0.227-2.767-0.682-3.669
			c-0.453-0.904-1.228-1.355-2.321-1.355c-0.664,0-1.226,0.139-1.685,0.418c-0.459,0.277-0.82,0.676-1.084,1.193v6.694
			c0.264,0.488,0.627,0.859,1.092,1.113c0.463,0.254,1.032,0.381,1.706,0.381c1.104,0,1.875-0.388,2.314-1.165
			c0.439-0.775,0.659-1.877,0.659-3.303V203.767z"/>
		<path fill="#999999" d="M383.675,191.286v-2.578h6.562v19.849l2.065,0.439v2.563h-8.408v-2.563l2.065-0.439v-16.831
			L383.675,191.286z"/>
		<path fill="#999999" d="M401.282,211.867c-2.285,0-4.111-0.732-5.479-2.197s-2.051-3.325-2.051-5.581v-0.586
			c0-2.354,0.647-4.292,1.94-5.815c1.295-1.523,3.03-2.28,5.208-2.271c2.139,0,3.799,0.645,4.98,1.934s1.772,3.032,1.772,5.229
			v2.329h-9.463l-0.029,0.088c0.078,1.045,0.428,1.904,1.047,2.578c0.621,0.674,1.463,1.011,2.527,1.011
			c0.947,0,1.733-0.096,2.358-0.285c0.625-0.191,1.309-0.491,2.051-0.901l1.157,2.637c-0.654,0.518-1.502,0.952-2.541,1.304
			C403.721,211.691,402.562,211.867,401.282,211.867z M400.901,198.713c-0.791,0-1.416,0.303-1.875,0.908s-0.742,1.401-0.85,2.388
			l0.044,0.073h5.244v-0.381c0-0.908-0.213-1.633-0.637-2.176C402.402,198.984,401.761,198.713,400.901,198.713z"/>
		<path fill="#999999" d="M409.178,198.288v-2.578h6.255l0.176,2.095c0.508-0.762,1.146-1.35,1.911-1.766
			c0.768-0.414,1.653-0.622,2.659-0.622c1.016,0,1.885,0.225,2.607,0.674s1.27,1.128,1.641,2.036
			c0.488-0.85,1.123-1.514,1.904-1.992s1.699-0.718,2.754-0.718c1.562,0,2.796,0.54,3.698,1.618c0.904,1.08,1.355,2.723,1.355,4.93
			v6.592l2.065,0.439v2.563h-8.188v-2.563l1.846-0.439v-6.606c0-1.201-0.195-2.036-0.586-2.505s-0.972-0.703-1.743-0.703
			c-0.605,0-1.13,0.135-1.575,0.402c-0.443,0.27-0.798,0.643-1.062,1.121c0,0.186,0.005,0.344,0.015,0.477
			c0.01,0.131,0.015,0.266,0.015,0.402v7.412l1.729,0.439v2.563h-7.72v-2.563l1.729-0.439v-6.606c0-1.172-0.195-1.999-0.586-2.483
			c-0.391-0.482-0.977-0.725-1.758-0.725c-0.576,0-1.082,0.109-1.516,0.33c-0.436,0.219-0.794,0.529-1.077,0.93v8.555l1.846,0.439
			v2.563h-8.174v-2.563l2.065-0.439v-9.829L409.178,198.288z"/>
		<path fill="#999999" d="M447.674,211.56c-0.117-0.264-0.22-0.534-0.308-0.813c-0.088-0.277-0.156-0.559-0.205-0.842
			c-0.508,0.586-1.126,1.06-1.853,1.421c-0.729,0.361-1.561,0.542-2.498,0.542c-1.553,0-2.785-0.422-3.699-1.268
			c-0.912-0.844-1.369-1.994-1.369-3.449c0-1.484,0.596-2.632,1.787-3.442s2.939-1.216,5.244-1.216h2.183v-1.553
			c0-0.762-0.22-1.353-0.659-1.772s-1.089-0.63-1.948-0.63c-0.488,0-0.923,0.057-1.304,0.168c-0.381,0.113-0.688,0.247-0.923,0.403
			l-0.278,1.699h-3.223l0.015-3.516c0.781-0.527,1.677-0.972,2.688-1.333c1.01-0.361,2.111-0.542,3.303-0.542
			c1.963,0,3.557,0.481,4.783,1.442c1.225,0.963,1.838,2.332,1.838,4.109v6.548c0,0.244,0.002,0.474,0.008,0.688
			c0.004,0.215,0.021,0.42,0.051,0.615l1.304,0.176v2.563H447.674z M443.968,208.703c0.645,0,1.23-0.139,1.758-0.418
			c0.527-0.277,0.938-0.627,1.23-1.047v-2.417h-2.183c-0.908,0-1.597,0.212-2.065,0.638c-0.469,0.424-0.703,0.935-0.703,1.53
			c0,0.537,0.173,0.957,0.521,1.26C442.871,208.552,443.353,208.703,443.968,208.703z"/>
	</g>
	<g>
		<path fill="#00C0F3" d="M48.093,238.692h-4.814v4.062h4.59l0.127-1.699h2.168v3.887h-11.25v-1.709l1.514-0.293v-10.205
			l-1.514-0.293v-1.719h1.514h9.717v3.896h-2.188l-0.127-1.699h-4.551v3.574h4.814V238.692z"/>
		<path fill="#00C0F3" d="M51.452,243.233l0.986-0.156l2.871-3.477l-2.773-3.34l-0.986-0.166v-1.719h4.756v1.65l-0.967,0.117
			l1.602,2.031l1.572-2.031l-0.986-0.117v-1.65h4.775v1.719l-0.957,0.166l-2.715,3.34l2.861,3.477l0.996,0.156v1.709h-4.834v-1.641
			l0.967-0.117l-1.641-2.129l-1.67,2.139l0.85,0.107v1.641h-4.707V243.233z"/>
		<path fill="#00C0F3" d="M63.171,236.095v-1.719h4.141l0.137,1.23c0.312-0.456,0.687-0.808,1.123-1.055s0.944-0.371,1.523-0.371
			c1.309,0,2.324,0.511,3.047,1.533s1.084,2.366,1.084,4.033v0.205c0,1.562-0.361,2.819-1.084,3.77s-1.731,1.426-3.027,1.426
			c-0.554,0-1.045-0.103-1.475-0.308s-0.798-0.506-1.104-0.903v3.057l1.377,0.293v1.719h-5.596v-1.719l1.377-0.293v-10.605
			L63.171,236.095z M71.374,239.747c0-0.996-0.166-1.804-0.498-2.422s-0.84-0.928-1.523-0.928c-0.43,0-0.796,0.088-1.099,0.264
			s-0.542,0.427-0.718,0.752v4.629c0.176,0.3,0.415,0.527,0.718,0.684s0.676,0.234,1.118,0.234c0.69,0,1.196-0.271,1.519-0.811
			s0.483-1.272,0.483-2.197V239.747z"/>
		<path fill="#00C0F3" d="M80.554,245.147c-1.523,0-2.741-0.488-3.652-1.465s-1.367-2.217-1.367-3.721v-0.391
			c0-1.569,0.431-2.861,1.294-3.877s2.02-1.521,3.472-1.514c1.426,0,2.532,0.43,3.32,1.289s1.182,2.021,1.182,3.486v1.553h-6.309
			l-0.02,0.059c0.052,0.696,0.284,1.27,0.698,1.719s0.975,0.674,1.685,0.674c0.632,0,1.155-0.063,1.572-0.19
			s0.872-0.327,1.367-0.601l0.771,1.758c-0.437,0.345-1.001,0.635-1.694,0.869S81.406,245.147,80.554,245.147z M80.3,236.378
			c-0.527,0-0.944,0.202-1.25,0.605s-0.495,0.935-0.566,1.592l0.029,0.049h3.496v-0.254c0-0.605-0.142-1.089-0.425-1.45
			S80.873,236.378,80.3,236.378z"/>
		<path fill="#00C0F3" d="M86.364,243.233l1.367-0.293v-6.553l-1.514-0.293v-1.719h4.17l0.127,1.543
			c0.247-0.547,0.566-0.974,0.957-1.279s0.843-0.459,1.357-0.459c0.149,0,0.308,0.011,0.474,0.034s0.305,0.051,0.415,0.083
			l-0.303,2.598l-1.172-0.029c-0.417,0-0.762,0.081-1.035,0.244s-0.481,0.394-0.625,0.693v5.137l1.367,0.293v1.709h-5.586V243.233z"
			/>
		<path fill="#00C0F3" d="M94.479,243.233l1.377-0.293v-6.553l-1.523-0.293v-1.719h4.375v8.564l1.367,0.293v1.709h-5.596V243.233z
			 M98.708,231.847h-2.852v-2.139h2.852V231.847z"/>
		<path fill="#00C0F3" d="M106.071,245.147c-1.523,0-2.741-0.488-3.652-1.465s-1.367-2.217-1.367-3.721v-0.391
			c0-1.569,0.431-2.861,1.294-3.877s2.02-1.521,3.472-1.514c1.426,0,2.532,0.43,3.32,1.289s1.182,2.021,1.182,3.486v1.553h-6.309
			l-0.02,0.059c0.052,0.696,0.284,1.27,0.698,1.719s0.975,0.674,1.685,0.674c0.632,0,1.155-0.063,1.572-0.19
			s0.872-0.327,1.367-0.601l0.771,1.758c-0.437,0.345-1.001,0.635-1.694,0.869S106.924,245.147,106.071,245.147z M105.817,236.378
			c-0.527,0-0.944,0.202-1.25,0.605s-0.495,0.935-0.566,1.592l0.029,0.049h3.496v-0.254c0-0.605-0.142-1.089-0.425-1.45
			S106.391,236.378,105.817,236.378z"/>
		<path fill="#00C0F3" d="M111.511,243.233l1.367-0.293v-6.553l-1.514-0.293v-1.719h4.17l0.127,1.514
			c0.352-0.54,0.784-0.96,1.299-1.26s1.091-0.449,1.729-0.449c1.067,0,1.901,0.335,2.5,1.006s0.898,1.722,0.898,3.154v4.6
			l1.367,0.293v1.709h-5.449v-1.709l1.221-0.293v-4.59c0-0.71-0.144-1.212-0.43-1.509s-0.72-0.444-1.299-0.444
			c-0.378,0-0.716,0.077-1.016,0.229s-0.55,0.369-0.752,0.649v5.664l1.152,0.293v1.709h-5.371V243.233z"/>
		<path fill="#00C0F3" d="M129.226,242.96c0.508,0,0.915-0.147,1.221-0.444s0.459-0.691,0.459-1.187h2.578l0.029,0.059
			c0.026,1.067-0.374,1.962-1.201,2.681s-1.855,1.079-3.086,1.079c-1.575,0-2.79-0.498-3.643-1.494s-1.279-2.275-1.279-3.838v-0.293
			c0-1.556,0.438-2.835,1.313-3.838s2.124-1.504,3.745-1.504c0.853,0,1.618,0.127,2.295,0.381s1.24,0.612,1.689,1.074l0.039,2.822
			h-2.314l-0.469-1.65c-0.144-0.124-0.319-0.226-0.527-0.308s-0.446-0.122-0.713-0.122c-0.808,0-1.377,0.293-1.709,0.879
			s-0.498,1.341-0.498,2.266v0.293c0,0.944,0.153,1.704,0.459,2.28S128.457,242.96,129.226,242.96z"/>
		<path fill="#00C0F3" d="M134.714,243.233l1.377-0.293v-6.553l-1.523-0.293v-1.719h4.375v8.564l1.367,0.293v1.709h-5.596V243.233z
			 M138.942,231.847h-2.852v-2.139h2.852V231.847z"/>
		<path fill="#00C0F3" d="M147.976,244.942c-0.078-0.176-0.146-0.356-0.205-0.542s-0.104-0.373-0.137-0.562
			c-0.339,0.391-0.751,0.706-1.235,0.947s-1.04,0.361-1.665,0.361c-1.035,0-1.856-0.282-2.466-0.845s-0.913-1.33-0.913-2.3
			c0-0.989,0.397-1.755,1.191-2.295s1.96-0.811,3.496-0.811h1.455v-1.035c0-0.508-0.146-0.901-0.439-1.182s-0.726-0.42-1.299-0.42
			c-0.325,0-0.615,0.038-0.869,0.112s-0.459,0.164-0.615,0.269l-0.186,1.133h-2.148l0.01-2.344c0.521-0.352,1.118-0.647,1.792-0.889
			s1.408-0.361,2.202-0.361c1.309,0,2.372,0.321,3.188,0.962s1.226,1.555,1.226,2.739v4.365c0,0.163,0.001,0.315,0.005,0.459
			s0.015,0.28,0.034,0.41l0.869,0.117v1.709H147.976z M145.505,243.038c0.43,0,0.82-0.093,1.172-0.278s0.625-0.418,0.82-0.698
			v-1.611h-1.455c-0.605,0-1.064,0.142-1.377,0.425s-0.469,0.623-0.469,1.021c0,0.358,0.116,0.638,0.347,0.84
			S145.095,243.038,145.505,243.038z"/>
		<path fill="#00C0F3" d="M63.249,254.724c1.628,0,2.911,0.419,3.853,1.255s1.411,1.932,1.411,3.286c0,1.36-0.47,2.454-1.411,3.281
			s-2.225,1.24-3.853,1.24h-2.402v3.154l1.523,0.293v1.709h-5.889v-1.709l1.514-0.293v-10.205l-1.514-0.293v-1.719h1.514H63.249z
			 M60.847,261.589h2.402c0.794,0,1.396-0.216,1.802-0.649s0.61-0.984,0.61-1.655c0-0.684-0.204-1.249-0.61-1.694
			s-1.008-0.669-1.802-0.669h-2.402V261.589z"/>
		<path fill="#00C0F3" d="M69.704,267.233l1.367-0.293v-6.553l-1.514-0.293v-1.719h4.17l0.127,1.543
			c0.247-0.547,0.566-0.974,0.957-1.279s0.843-0.459,1.357-0.459c0.149,0,0.308,0.011,0.474,0.034s0.305,0.051,0.415,0.083
			l-0.303,2.598l-1.172-0.029c-0.417,0-0.762,0.081-1.035,0.244s-0.481,0.394-0.625,0.693v5.137l1.367,0.293v1.709h-5.586V267.233z"
			/>
		<path fill="#00C0F3" d="M84.44,268.942c-0.078-0.176-0.146-0.356-0.205-0.542s-0.104-0.373-0.137-0.562
			c-0.339,0.391-0.751,0.706-1.235,0.947s-1.04,0.361-1.665,0.361c-1.035,0-1.856-0.282-2.466-0.845s-0.913-1.33-0.913-2.3
			c0-0.989,0.397-1.755,1.191-2.295s1.96-0.811,3.496-0.811h1.455v-1.035c0-0.508-0.146-0.901-0.439-1.182s-0.726-0.42-1.299-0.42
			c-0.325,0-0.615,0.038-0.869,0.112s-0.459,0.164-0.615,0.269l-0.186,1.133h-2.148l0.01-2.344c0.521-0.352,1.118-0.647,1.792-0.889
			s1.408-0.361,2.202-0.361c1.309,0,2.372,0.321,3.188,0.962s1.226,1.555,1.226,2.739v4.365c0,0.163,0.001,0.315,0.005,0.459
			s0.015,0.28,0.034,0.41l0.869,0.117v1.709H84.44z M81.97,267.038c0.43,0,0.82-0.093,1.172-0.278s0.625-0.418,0.82-0.698v-1.611
			h-1.455c-0.605,0-1.064,0.142-1.377,0.425s-0.469,0.623-0.469,1.021c0,0.358,0.116,0.638,0.347,0.84S81.56,267.038,81.97,267.038z
			 M82.927,254.274h3.018l0.02,0.059l-2.695,2.539h-2.285L82.927,254.274z"/>
		<path fill="#00C0F3" d="M93.659,266.96c0.508,0,0.915-0.147,1.221-0.444s0.459-0.691,0.459-1.187h2.578l0.029,0.059
			c0.026,1.067-0.374,1.962-1.201,2.681s-1.855,1.079-3.086,1.079c-1.575,0-2.79-0.498-3.643-1.494s-1.279-2.275-1.279-3.838v-0.293
			c0-1.556,0.438-2.835,1.313-3.838s2.124-1.504,3.745-1.504c0.853,0,1.618,0.127,2.295,0.381s1.24,0.612,1.689,1.074l0.039,2.822
			h-2.314l-0.469-1.65c-0.144-0.124-0.319-0.226-0.527-0.308s-0.446-0.122-0.713-0.122c-0.808,0-1.377,0.293-1.709,0.879
			s-0.498,1.341-0.498,2.266v0.293c0,0.944,0.153,1.704,0.459,2.28S92.891,266.96,93.659,266.96z"/>
		<path fill="#00C0F3" d="M103.444,255.788v2.588h1.855v2.002h-1.855v5.381c0,0.41,0.085,0.703,0.254,0.879s0.397,0.264,0.684,0.264
			c0.195,0,0.366-0.009,0.513-0.024s0.311-0.044,0.493-0.083l0.244,2.061c-0.319,0.098-0.635,0.171-0.947,0.22
			s-0.651,0.073-1.016,0.073c-0.983,0-1.739-0.271-2.271-0.811s-0.796-1.396-0.796-2.568v-5.391H99.05v-2.002h1.553v-2.588H103.444z
			"/>
		<path fill="#00C0F3" d="M106.608,267.233l1.377-0.293v-6.553l-1.523-0.293v-1.719h4.375v8.564l1.367,0.293v1.709h-5.596V267.233z
			 M110.837,255.847h-2.852v-2.139h2.852V255.847z"/>
		<path fill="#00C0F3" d="M118.103,266.96c0.508,0,0.915-0.147,1.221-0.444s0.459-0.691,0.459-1.187h2.578l0.029,0.059
			c0.026,1.067-0.374,1.962-1.201,2.681s-1.855,1.079-3.086,1.079c-1.575,0-2.79-0.498-3.643-1.494s-1.279-2.275-1.279-3.838v-0.293
			c0-1.556,0.438-2.835,1.313-3.838s2.124-1.504,3.745-1.504c0.853,0,1.618,0.127,2.295,0.381s1.24,0.612,1.689,1.074l0.039,2.822
			h-2.314l-0.469-1.65c-0.144-0.124-0.319-0.226-0.527-0.308s-0.446-0.122-0.713-0.122c-0.808,0-1.377,0.293-1.709,0.879
			s-0.498,1.341-0.498,2.266v0.293c0,0.944,0.153,1.704,0.459,2.28S117.334,266.96,118.103,266.96z"/>
		<path fill="#00C0F3" d="M130.407,268.942c-0.078-0.176-0.146-0.356-0.205-0.542s-0.104-0.373-0.137-0.562
			c-0.339,0.391-0.751,0.706-1.235,0.947s-1.04,0.361-1.665,0.361c-1.035,0-1.856-0.282-2.466-0.845s-0.913-1.33-0.913-2.3
			c0-0.989,0.397-1.755,1.191-2.295s1.96-0.811,3.496-0.811h1.455v-1.035c0-0.508-0.146-0.901-0.439-1.182s-0.726-0.42-1.299-0.42
			c-0.325,0-0.615,0.038-0.869,0.112s-0.459,0.164-0.615,0.269l-0.186,1.133h-2.148l0.01-2.344c0.521-0.352,1.118-0.647,1.792-0.889
			s1.408-0.361,2.202-0.361c1.309,0,2.372,0.321,3.188,0.962s1.226,1.555,1.226,2.739v4.365c0,0.163,0.001,0.315,0.005,0.459
			s0.015,0.28,0.034,0.41l0.869,0.117v1.709H130.407z M127.937,267.038c0.43,0,0.82-0.093,1.172-0.278s0.625-0.418,0.82-0.698
			v-1.611h-1.455c-0.605,0-1.064,0.142-1.377,0.425s-0.469,0.623-0.469,1.021c0,0.358,0.116,0.638,0.347,0.84
			S127.526,267.038,127.937,267.038z"/>
	</g>
	<g>
		<path fill="#00C0F3" d="M338.489,238.692h-4.814v4.062h4.59l0.127-1.699h2.168v3.887h-11.25v-1.709l1.514-0.293v-10.205
			l-1.514-0.293v-1.719h1.514h9.717v3.896h-2.188l-0.127-1.699h-4.551v3.574h4.814V238.692z"/>
		<path fill="#00C0F3" d="M341.849,243.233l0.986-0.156l2.871-3.477l-2.773-3.34l-0.986-0.166v-1.719h4.756v1.65l-0.967,0.117
			l1.602,2.031l1.572-2.031l-0.986-0.117v-1.65h4.775v1.719l-0.957,0.166l-2.715,3.34l2.861,3.477l0.996,0.156v1.709h-4.834v-1.641
			l0.967-0.117l-1.641-2.129l-1.67,2.139l0.85,0.107v1.641h-4.707V243.233z"/>
		<path fill="#00C0F3" d="M353.567,236.095v-1.719h4.141l0.137,1.23c0.312-0.456,0.687-0.808,1.123-1.055s0.944-0.371,1.523-0.371
			c1.309,0,2.324,0.511,3.047,1.533s1.084,2.366,1.084,4.033v0.205c0,1.562-0.361,2.819-1.084,3.77s-1.731,1.426-3.027,1.426
			c-0.554,0-1.045-0.103-1.475-0.308s-0.798-0.506-1.104-0.903v3.057l1.377,0.293v1.719h-5.596v-1.719l1.377-0.293v-10.605
			L353.567,236.095z M361.771,239.747c0-0.996-0.166-1.804-0.498-2.422s-0.84-0.928-1.523-0.928c-0.43,0-0.796,0.088-1.099,0.264
			s-0.542,0.427-0.718,0.752v4.629c0.176,0.3,0.415,0.527,0.718,0.684s0.676,0.234,1.118,0.234c0.69,0,1.196-0.271,1.519-0.811
			s0.483-1.272,0.483-2.197V239.747z"/>
		<path fill="#00C0F3" d="M370.95,245.147c-1.523,0-2.741-0.488-3.652-1.465s-1.367-2.217-1.367-3.721v-0.391
			c0-1.569,0.431-2.861,1.294-3.877s2.02-1.521,3.472-1.514c1.426,0,2.532,0.43,3.32,1.289s1.182,2.021,1.182,3.486v1.553h-6.309
			l-0.02,0.059c0.052,0.696,0.284,1.27,0.698,1.719s0.975,0.674,1.685,0.674c0.632,0,1.155-0.063,1.572-0.19
			s0.872-0.327,1.367-0.601l0.771,1.758c-0.437,0.345-1.001,0.635-1.694,0.869S371.803,245.147,370.95,245.147z M370.696,236.378
			c-0.527,0-0.944,0.202-1.25,0.605s-0.495,0.935-0.566,1.592l0.029,0.049h3.496v-0.254c0-0.605-0.142-1.089-0.425-1.45
			S371.27,236.378,370.696,236.378z"/>
		<path fill="#00C0F3" d="M376.761,243.233l1.367-0.293v-6.553l-1.514-0.293v-1.719h4.17l0.127,1.543
			c0.247-0.547,0.566-0.974,0.957-1.279s0.843-0.459,1.357-0.459c0.149,0,0.308,0.011,0.474,0.034s0.305,0.051,0.415,0.083
			l-0.303,2.598l-1.172-0.029c-0.417,0-0.762,0.081-1.035,0.244s-0.481,0.394-0.625,0.693v5.137l1.367,0.293v1.709h-5.586V243.233z"
			/>
		<path fill="#00C0F3" d="M384.876,243.233l1.377-0.293v-6.553l-1.523-0.293v-1.719h4.375v8.564l1.367,0.293v1.709h-5.596V243.233z
			 M389.104,231.847h-2.852v-2.139h2.852V231.847z"/>
		<path fill="#00C0F3" d="M396.468,245.147c-1.523,0-2.741-0.488-3.652-1.465s-1.367-2.217-1.367-3.721v-0.391
			c0-1.569,0.431-2.861,1.294-3.877s2.02-1.521,3.472-1.514c1.426,0,2.532,0.43,3.32,1.289s1.182,2.021,1.182,3.486v1.553h-6.309
			l-0.02,0.059c0.052,0.696,0.284,1.27,0.698,1.719s0.975,0.674,1.685,0.674c0.632,0,1.155-0.063,1.572-0.19
			s0.872-0.327,1.367-0.601l0.771,1.758c-0.437,0.345-1.001,0.635-1.694,0.869S397.32,245.147,396.468,245.147z M396.214,236.378
			c-0.527,0-0.944,0.202-1.25,0.605s-0.495,0.935-0.566,1.592l0.029,0.049h3.496v-0.254c0-0.605-0.142-1.089-0.425-1.45
			S396.787,236.378,396.214,236.378z"/>
		<path fill="#00C0F3" d="M401.907,243.233l1.367-0.293v-6.553l-1.514-0.293v-1.719h4.17l0.127,1.514
			c0.352-0.54,0.784-0.96,1.299-1.26s1.091-0.449,1.729-0.449c1.067,0,1.901,0.335,2.5,1.006s0.898,1.722,0.898,3.154v4.6
			l1.367,0.293v1.709h-5.449v-1.709l1.221-0.293v-4.59c0-0.71-0.144-1.212-0.43-1.509s-0.72-0.444-1.299-0.444
			c-0.378,0-0.716,0.077-1.016,0.229s-0.55,0.369-0.752,0.649v5.664l1.152,0.293v1.709h-5.371V243.233z"/>
		<path fill="#00C0F3" d="M419.622,242.96c0.508,0,0.915-0.147,1.221-0.444s0.459-0.691,0.459-1.187h2.578l0.029,0.059
			c0.026,1.067-0.374,1.962-1.201,2.681s-1.855,1.079-3.086,1.079c-1.575,0-2.79-0.498-3.643-1.494s-1.279-2.275-1.279-3.838v-0.293
			c0-1.556,0.438-2.835,1.313-3.838s2.124-1.504,3.745-1.504c0.853,0,1.618,0.127,2.295,0.381s1.24,0.612,1.689,1.074l0.039,2.822
			h-2.314l-0.469-1.65c-0.144-0.124-0.319-0.226-0.527-0.308s-0.446-0.122-0.713-0.122c-0.808,0-1.377,0.293-1.709,0.879
			s-0.498,1.341-0.498,2.266v0.293c0,0.944,0.153,1.704,0.459,2.28S418.854,242.96,419.622,242.96z"/>
		<path fill="#00C0F3" d="M425.11,243.233l1.377-0.293v-6.553l-1.523-0.293v-1.719h4.375v8.564l1.367,0.293v1.709h-5.596V243.233z
			 M429.339,231.847h-2.852v-2.139h2.852V231.847z"/>
		<path fill="#00C0F3" d="M438.372,244.942c-0.078-0.176-0.146-0.356-0.205-0.542s-0.104-0.373-0.137-0.562
			c-0.339,0.391-0.751,0.706-1.235,0.947s-1.04,0.361-1.665,0.361c-1.035,0-1.856-0.282-2.466-0.845s-0.913-1.33-0.913-2.3
			c0-0.989,0.397-1.755,1.191-2.295s1.96-0.811,3.496-0.811h1.455v-1.035c0-0.508-0.146-0.901-0.439-1.182s-0.726-0.42-1.299-0.42
			c-0.325,0-0.615,0.038-0.869,0.112s-0.459,0.164-0.615,0.269l-0.186,1.133h-2.148l0.01-2.344c0.521-0.352,1.118-0.647,1.792-0.889
			s1.408-0.361,2.202-0.361c1.309,0,2.372,0.321,3.188,0.962s1.226,1.555,1.226,2.739v4.365c0,0.163,0.001,0.315,0.005,0.459
			s0.015,0.28,0.034,0.41l0.869,0.117v1.709H438.372z M435.901,243.038c0.43,0,0.82-0.093,1.172-0.278s0.625-0.418,0.82-0.698
			v-1.611h-1.455c-0.605,0-1.064,0.142-1.377,0.425s-0.469,0.623-0.469,1.021c0,0.358,0.116,0.638,0.347,0.84
			S435.491,243.038,435.901,243.038z"/>
		<path fill="#00C0F3" d="M347.698,254.724c1.614,0,2.881,0.37,3.799,1.108s1.377,1.76,1.377,3.062c0,0.716-0.192,1.338-0.576,1.865
			s-0.947,0.954-1.689,1.279c0.84,0.247,1.444,0.659,1.812,1.235s0.552,1.291,0.552,2.144v0.723c0,0.312,0.062,0.556,0.186,0.728
			s0.329,0.275,0.615,0.308l0.352,0.049v1.719h-1.475c-0.931,0-1.585-0.251-1.963-0.752s-0.566-1.149-0.566-1.943v-0.811
			c0-0.69-0.185-1.231-0.552-1.626s-0.887-0.601-1.558-0.62h-2.334v3.75l1.523,0.293v1.709h-5.889v-1.709l1.514-0.293v-10.205
			l-1.514-0.293v-1.719h1.514H347.698z M345.677,260.993h1.973c0.794,0,1.39-0.169,1.787-0.508s0.596-0.827,0.596-1.465
			s-0.196-1.147-0.591-1.528s-0.975-0.571-1.743-0.571h-2.021V260.993z"/>
		<path fill="#00C0F3" d="M360.188,269.147c-1.523,0-2.741-0.488-3.652-1.465s-1.367-2.217-1.367-3.721v-0.391
			c0-1.569,0.431-2.861,1.294-3.877s2.02-1.521,3.472-1.514c1.426,0,2.532,0.43,3.32,1.289s1.182,2.021,1.182,3.486v1.553h-6.309
			l-0.02,0.059c0.052,0.696,0.284,1.27,0.698,1.719s0.975,0.674,1.685,0.674c0.632,0,1.155-0.063,1.572-0.19
			s0.872-0.327,1.367-0.601l0.771,1.758c-0.437,0.345-1.001,0.635-1.694,0.869S361.041,269.147,360.188,269.147z M359.935,260.378
			c-0.527,0-0.944,0.202-1.25,0.605s-0.495,0.935-0.566,1.592l0.029,0.049h3.496v-0.254c0-0.605-0.142-1.089-0.425-1.45
			S360.508,260.378,359.935,260.378z"/>
		<path fill="#00C0F3" d="M373.284,255.827c-0.352-0.046-0.732-0.068-1.143-0.068c-0.735,0-1.289,0.183-1.66,0.547
			s-0.557,0.901-0.557,1.611v0.459h2.344v2.002h-2.344v6.562l1.377,0.293v1.709h-5.752v-1.709l1.523-0.293v-6.562h-1.328v-2.002
			h1.328v-0.459c0-1.413,0.427-2.501,1.279-3.267s2.054-1.147,3.604-1.147c0.56,0,1.113,0.05,1.66,0.151s1.182,0.246,1.904,0.435
			h1.68v12.852l1.377,0.293v1.709h-5.605v-1.709l1.377-0.293v-10.928C373.99,255.935,373.636,255.873,373.284,255.827z"/>
		<path fill="#00C0F3" d="M384.72,269.147c-1.523,0-2.741-0.488-3.652-1.465s-1.367-2.217-1.367-3.721v-0.391
			c0-1.569,0.431-2.861,1.294-3.877s2.02-1.521,3.472-1.514c1.426,0,2.532,0.43,3.32,1.289s1.182,2.021,1.182,3.486v1.553h-6.309
			l-0.02,0.059c0.052,0.696,0.284,1.27,0.698,1.719s0.975,0.674,1.685,0.674c0.632,0,1.155-0.063,1.572-0.19
			s0.872-0.327,1.367-0.601l0.771,1.758c-0.437,0.345-1.001,0.635-1.694,0.869S385.572,269.147,384.72,269.147z M384.466,260.378
			c-0.527,0-0.944,0.202-1.25,0.605s-0.495,0.935-0.566,1.592l0.029,0.049h3.496v-0.254c0-0.605-0.142-1.089-0.425-1.45
			S385.039,260.378,384.466,260.378z"/>
		<path fill="#00C0F3" d="M390.013,267.233l0.986-0.156l2.871-3.477l-2.773-3.34l-0.986-0.166v-1.719h4.756v1.65l-0.967,0.117
			l1.602,2.031l1.572-2.031l-0.986-0.117v-1.65h4.775v1.719l-0.957,0.166l-2.715,3.34l2.861,3.477l0.996,0.156v1.709h-4.834v-1.641
			l0.967-0.117l-1.641-2.129l-1.67,2.139l0.85,0.107v1.641h-4.707V267.233z"/>
		<path fill="#00C0F3" d="M401.858,267.233l1.377-0.293v-6.553l-1.523-0.293v-1.719h4.375v8.564l1.367,0.293v1.709h-5.596V267.233z
			 M406.087,255.847h-2.852v-2.139h2.852V255.847z"/>
		<path fill="#00C0F3" d="M412.874,260.095l-0.996,0.186l1.396,4.727l0.186,0.996h0.059l0.205-0.996l1.377-4.717l-1.016-0.195
			v-1.719h4.795v1.719l-0.918,0.146l-3.115,8.701h-2.725l-3.125-8.701l-0.918-0.146v-1.719h4.795V260.095z"/>
		<path fill="#00C0F3" d="M426.37,268.942c-0.078-0.176-0.146-0.356-0.205-0.542s-0.104-0.373-0.137-0.562
			c-0.339,0.391-0.751,0.706-1.235,0.947s-1.04,0.361-1.665,0.361c-1.035,0-1.856-0.282-2.466-0.845s-0.913-1.33-0.913-2.3
			c0-0.989,0.397-1.755,1.191-2.295s1.96-0.811,3.496-0.811h1.455v-1.035c0-0.508-0.146-0.901-0.439-1.182s-0.726-0.42-1.299-0.42
			c-0.325,0-0.615,0.038-0.869,0.112s-0.459,0.164-0.615,0.269l-0.186,1.133h-2.148l0.01-2.344c0.521-0.352,1.118-0.647,1.792-0.889
			s1.408-0.361,2.202-0.361c1.309,0,2.372,0.321,3.188,0.962s1.226,1.555,1.226,2.739v4.365c0,0.163,0.001,0.315,0.005,0.459
			s0.015,0.28,0.034,0.41l0.869,0.117v1.709H426.37z M423.899,267.038c0.43,0,0.82-0.093,1.172-0.278s0.625-0.418,0.82-0.698v-1.611
			h-1.455c-0.605,0-1.064,0.142-1.377,0.425s-0.469,0.623-0.469,1.021c0,0.358,0.116,0.638,0.347,0.84
			S423.489,267.038,423.899,267.038z"/>
	</g>
	<g>
		<path fill="#CCCCCC" d="M182.268,421.477c2.607,0,4.756,0.833,6.445,2.498s2.534,3.801,2.534,6.408v3.531
			c0,2.617-0.845,4.753-2.534,6.408s-3.838,2.482-6.445,2.482h-9.595v-2.562l2.271-0.439v-15.309l-2.271-0.439v-2.578h2.271H182.268
			z M179.221,424.773v14.75h2.827c1.533,0,2.734-0.518,3.604-1.553s1.304-2.387,1.304-4.057v-3.561c0-1.65-0.435-2.992-1.304-4.027
			s-2.07-1.553-3.604-1.553H179.221z"/>
		<path fill="#CCCCCC" d="M201.032,443.113c-2.285,0-4.111-0.732-5.479-2.197s-2.051-3.326-2.051-5.582v-0.586
			c0-2.354,0.647-4.291,1.94-5.814c1.295-1.523,3.03-2.281,5.208-2.271c2.139,0,3.799,0.645,4.98,1.934s1.772,3.033,1.772,5.23
			v2.328h-9.463l-0.029,0.088c0.078,1.045,0.428,1.904,1.047,2.578c0.621,0.674,1.463,1.012,2.527,1.012
			c0.947,0,1.733-0.096,2.358-0.286s1.309-0.491,2.051-0.901l1.157,2.637c-0.654,0.518-1.502,0.953-2.541,1.305
			C203.471,442.938,202.312,443.113,201.032,443.113z M200.651,429.959c-0.791,0-1.416,0.303-1.875,0.908s-0.742,1.4-0.85,2.387
			l0.044,0.074h5.244v-0.381c0-0.908-0.213-1.634-0.637-2.176C202.152,430.229,201.511,429.959,200.651,429.959z"/>
		<path fill="#CCCCCC" d="M209.001,429.959v-3.004h2.358v-1.084c0-1.992,0.607-3.527,1.824-4.606
			c1.215-1.079,2.927-1.618,5.134-1.618c0.762,0,1.514,0.075,2.256,0.227s1.602,0.369,2.578,0.652l-0.615,3.369
			c-0.713-0.215-1.36-0.381-1.94-0.498c-0.582-0.117-1.248-0.176-2-0.176c-0.986,0-1.727,0.225-2.219,0.674
			c-0.494,0.449-0.74,1.107-0.74,1.977v1.084h9.609v12.848l2.271,0.439v2.562h-8.613v-2.562l2.065-0.439v-9.844h-5.332v9.844
			l2.065,0.439v2.562h-8.628v-2.562l2.285-0.439v-9.844H209.001z"/>
		<path fill="#CCCCCC" d="M228.776,440.242l2.051-0.439v-9.83l-2.271-0.439v-2.578h6.255l0.19,2.271
			c0.527-0.811,1.177-1.441,1.948-1.891s1.636-0.674,2.593-0.674c1.602,0,2.852,0.504,3.75,1.51s1.348,2.582,1.348,4.73v6.9
			l2.051,0.439v2.562h-8.174v-2.562l1.831-0.439v-6.885c0-1.064-0.215-1.819-0.645-2.264s-1.079-0.666-1.948-0.666
			c-0.566,0-1.074,0.114-1.523,0.344s-0.825,0.555-1.128,0.975v8.496l1.729,0.439v2.562h-8.057V440.242z"/>
		<path fill="#CCCCCC" d="M247.922,440.242l2.065-0.439v-9.83l-2.285-0.439v-2.578h6.562v12.848l2.051,0.439v2.562h-8.394V440.242z
			 M254.265,423.162h-4.277v-3.209h4.277V423.162z"/>
		<path fill="#CCCCCC" d="M265.163,439.832c0.762,0,1.372-0.223,1.831-0.667s0.688-1.038,0.688-1.78h3.867l0.044,0.088
			c0.039,1.602-0.562,2.942-1.802,4.021s-2.783,1.619-4.629,1.619c-2.363,0-4.185-0.748-5.464-2.242s-1.919-3.412-1.919-5.756
			v-0.439c0-2.334,0.657-4.254,1.97-5.758c1.314-1.504,3.187-2.256,5.618-2.256c1.279,0,2.427,0.191,3.442,0.572
			s1.86,0.918,2.534,1.611l0.059,4.232h-3.472l-0.703-2.475c-0.215-0.186-0.479-0.34-0.791-0.462s-0.669-0.183-1.069-0.183
			c-1.211,0-2.065,0.439-2.563,1.318s-0.747,2.012-0.747,3.398v0.439c0,1.416,0.229,2.556,0.688,3.42
			S264.011,439.832,265.163,439.832z"/>
		<path fill="#CCCCCC" d="M273.396,440.242l2.065-0.439v-9.83l-2.285-0.439v-2.578h6.562v12.848l2.051,0.439v2.562h-8.394V440.242z
			 M279.738,423.162h-4.277v-3.209h4.277V423.162z"/>
		<path fill="#CCCCCC" d="M283.195,434.734c0-2.363,0.662-4.3,1.984-5.809c1.324-1.509,3.152-2.264,5.486-2.264
			c2.344,0,4.178,0.752,5.5,2.256c1.324,1.504,1.985,3.443,1.985,5.816v0.307c0,2.383-0.661,4.324-1.985,5.823
			c-1.322,1.499-3.146,2.249-5.471,2.249c-2.354,0-4.191-0.75-5.516-2.249c-1.322-1.499-1.984-3.44-1.984-5.823V434.734z
			 M287.473,435.041c0,1.445,0.254,2.605,0.762,3.479s1.328,1.312,2.461,1.312c1.104,0,1.912-0.439,2.424-1.318
			c0.514-0.879,0.77-2.037,0.77-3.473v-0.307c0-1.406-0.259-2.555-0.776-3.443s-1.333-1.332-2.446-1.332s-1.924,0.443-2.432,1.332
			s-0.762,2.037-0.762,3.443V435.041z M291.018,420.773h4.526l0.029,0.088l-4.043,3.809h-3.428L291.018,420.773z"/>
		<path fill="#CCCCCC" d="M299.777,440.242l2.051-0.439v-9.83l-2.271-0.439v-2.578h6.255l0.19,2.271
			c0.527-0.811,1.177-1.441,1.948-1.891s1.636-0.674,2.593-0.674c1.602,0,2.852,0.504,3.75,1.51s1.348,2.582,1.348,4.73v6.9
			l2.051,0.439v2.562h-8.174v-2.562l1.831-0.439v-6.885c0-1.064-0.215-1.819-0.645-2.264s-1.079-0.666-1.948-0.666
			c-0.566,0-1.074,0.114-1.523,0.344s-0.825,0.555-1.128,0.975v8.496l1.729,0.439v2.562h-8.057V440.242z"/>
	</g>
</g>
<g id="coordinacion">
</g>
<g id="colectividad">
</g>
</svg>
