<?xml version="1.0" encoding="utf-8"?>
<!-- Generator: Adobe Illustrator 16.0.0, SVG Export Plug-In . SVG Version: 6.00 Build 0)  -->
<!DOCTYPE svg PUBLIC "-//W3C//DTD SVG 1.1//EN" "http://www.w3.org/Graphics/SVG/1.1/DTD/svg11.dtd">
<svg version="1.1" xmlns="http://www.w3.org/2000/svg" xmlns:xlink="http://www.w3.org/1999/xlink" x="0px" y="0px" width="480px"
	 height="480px" viewBox="0 0 480 480" enable-background="new 0 0 480 480" xml:space="preserve">
<g id="modelos_anteriores">
</g>
<g id="fondo">
</g>
<g id="exp-personal">
</g>
<g id="tema-territorio-personas">
</g>
<g id="similitud">
	<g>
		<path fill="#999999" d="M198.78,395.739h-2.119l-0.293-1.895c-0.28-0.28-0.634-0.501-1.06-0.664s-0.93-0.244-1.509-0.244
			c-1.237,0-2.188,0.449-2.856,1.348s-1.001,2.07-1.001,3.516v0.498c0,1.445,0.332,2.62,0.996,3.525s1.602,1.357,2.812,1.357
			c0.56,0,1.073-0.081,1.538-0.244s0.825-0.384,1.079-0.664l0.293-1.895h2.119v2.812c-0.573,0.664-1.304,1.192-2.192,1.587
			s-1.883,0.591-2.983,0.591c-1.907,0-3.47-0.661-4.688-1.982s-1.826-3.018-1.826-5.088v-0.479c0-2.063,0.605-3.76,1.816-5.088
			s2.776-1.992,4.697-1.992c1.101,0,2.093,0.2,2.979,0.601s1.618,0.93,2.197,1.587V395.739z"/>
		<path fill="#999999" d="M200.157,399.782c0-1.575,0.44-2.866,1.323-3.872s2.102-1.509,3.657-1.509
			c1.562,0,2.784,0.501,3.667,1.504s1.323,2.295,1.323,3.877v0.205c0,1.589-0.44,2.882-1.323,3.882s-2.098,1.499-3.647,1.499
			c-1.569,0-2.794-0.499-3.677-1.499s-1.323-2.293-1.323-3.882V399.782z M203.009,399.987c0,0.964,0.169,1.737,0.508,2.319
			s0.886,0.874,1.641,0.874c0.735,0,1.274-0.293,1.616-0.879s0.513-1.357,0.513-2.314v-0.205c0-0.938-0.173-1.702-0.518-2.295
			s-0.889-0.889-1.631-0.889s-1.282,0.296-1.621,0.889s-0.508,1.357-0.508,2.295V399.987z"/>
		<path fill="#999999" d="M211.036,396.315v-1.719h4.17l0.117,1.396c0.339-0.508,0.763-0.899,1.274-1.177s1.102-0.415,1.772-0.415
			c0.677,0,1.257,0.149,1.738,0.449s0.847,0.752,1.094,1.357c0.325-0.566,0.749-1.009,1.27-1.328s1.133-0.479,1.836-0.479
			c1.042,0,1.864,0.36,2.466,1.079s0.903,1.814,0.903,3.286v4.395l1.377,0.293v1.709h-5.459v-1.709l1.23-0.293v-4.404
			c0-0.801-0.13-1.357-0.391-1.67s-0.647-0.469-1.162-0.469c-0.403,0-0.753,0.089-1.05,0.269s-0.532,0.428-0.708,0.747
			c0,0.124,0.003,0.229,0.01,0.317s0.01,0.178,0.01,0.269v4.941l1.152,0.293v1.709h-5.146v-1.709l1.152-0.293v-4.404
			c0-0.781-0.13-1.333-0.391-1.655s-0.651-0.483-1.172-0.483c-0.384,0-0.722,0.073-1.011,0.22s-0.529,0.354-0.718,0.62v5.703
			l1.23,0.293v1.709h-5.449v-1.709l1.377-0.293v-6.553L211.036,396.315z"/>
		<path fill="#999999" d="M237.364,403.825c-0.339,0.495-0.757,0.876-1.255,1.143s-1.066,0.4-1.704,0.4
			c-1.113,0-1.985-0.356-2.617-1.069s-0.947-1.821-0.947-3.325v-4.365l-1.162-0.293v-1.719h1.162h2.852v6.396
			c0,0.769,0.128,1.319,0.386,1.655s0.64,0.503,1.147,0.503c0.449,0,0.839-0.073,1.167-0.22s0.598-0.356,0.806-0.63v-5.693
			l-1.25-0.293v-1.719h1.25h2.852v8.564l1.279,0.293v1.709h-3.779L237.364,403.825z"/>
		<path fill="#999999" d="M242.296,403.454l1.367-0.293v-6.553l-1.514-0.293v-1.719h4.17l0.127,1.514
			c0.352-0.54,0.784-0.96,1.299-1.26s1.091-0.449,1.729-0.449c1.067,0,1.901,0.335,2.5,1.006s0.898,1.722,0.898,3.154v4.6
			l1.367,0.293v1.709h-5.449v-1.709l1.221-0.293v-4.59c0-0.71-0.144-1.212-0.43-1.509s-0.72-0.444-1.299-0.444
			c-0.378,0-0.716,0.077-1.016,0.229s-0.55,0.369-0.752,0.649v5.664l1.152,0.293v1.709h-5.371V403.454z"/>
		<path fill="#999999" d="M255.06,403.454l1.377-0.293v-6.553l-1.523-0.293v-1.719h4.375v8.564l1.367,0.293v1.709h-5.596V403.454z
			 M259.288,392.067h-2.852v-2.139h2.852V392.067z"/>
		<path fill="#999999" d="M268.468,403.874c-0.332,0.488-0.724,0.859-1.177,1.113s-0.969,0.381-1.548,0.381
			c-1.302,0-2.313-0.476-3.032-1.426s-1.079-2.207-1.079-3.77v-0.205c0-1.667,0.361-3.011,1.084-4.033s1.738-1.533,3.047-1.533
			c0.527,0,1.003,0.116,1.426,0.347s0.794,0.559,1.113,0.981v-3.789l-1.523-0.293v-1.719h1.523h2.852v13.232l1.367,0.293v1.709
			h-3.838L268.468,403.874z M264.483,400.173c0,0.925,0.155,1.651,0.464,2.183s0.815,0.796,1.519,0.796
			c0.417,0,0.778-0.085,1.084-0.254s0.557-0.413,0.752-0.732v-4.482c-0.195-0.339-0.444-0.601-0.747-0.786s-0.659-0.278-1.069-0.278
			c-0.696,0-1.204,0.31-1.523,0.928s-0.479,1.426-0.479,2.422V400.173z"/>
		<path fill="#999999" d="M280.157,405.163c-0.078-0.176-0.146-0.356-0.205-0.542s-0.104-0.373-0.137-0.562
			c-0.339,0.391-0.751,0.706-1.235,0.947s-1.04,0.361-1.665,0.361c-1.035,0-1.856-0.282-2.466-0.845s-0.913-1.33-0.913-2.3
			c0-0.989,0.397-1.755,1.191-2.295s1.96-0.811,3.496-0.811h1.455v-1.035c0-0.508-0.146-0.901-0.439-1.182s-0.726-0.42-1.299-0.42
			c-0.325,0-0.615,0.038-0.869,0.112s-0.459,0.164-0.615,0.269l-0.186,1.133h-2.148l0.01-2.344c0.521-0.352,1.118-0.647,1.792-0.889
			s1.408-0.361,2.202-0.361c1.309,0,2.372,0.321,3.188,0.962s1.226,1.555,1.226,2.739v4.365c0,0.163,0.001,0.315,0.005,0.459
			s0.015,0.28,0.034,0.41l0.869,0.117v1.709H280.157z M277.687,403.259c0.43,0,0.82-0.093,1.172-0.278s0.625-0.418,0.82-0.698
			v-1.611h-1.455c-0.605,0-1.064,0.142-1.377,0.425s-0.469,0.623-0.469,1.021c0,0.358,0.116,0.638,0.347,0.84
			S277.276,403.259,277.687,403.259z"/>
		<path fill="#999999" d="M291.29,403.874c-0.332,0.488-0.724,0.859-1.177,1.113s-0.969,0.381-1.548,0.381
			c-1.302,0-2.313-0.476-3.032-1.426s-1.079-2.207-1.079-3.77v-0.205c0-1.667,0.361-3.011,1.084-4.033s1.738-1.533,3.047-1.533
			c0.527,0,1.003,0.116,1.426,0.347s0.794,0.559,1.113,0.981v-3.789l-1.523-0.293v-1.719h1.523h2.852v13.232l1.367,0.293v1.709
			h-3.838L291.29,403.874z M287.306,400.173c0,0.925,0.155,1.651,0.464,2.183s0.815,0.796,1.519,0.796
			c0.417,0,0.778-0.085,1.084-0.254s0.557-0.413,0.752-0.732v-4.482c-0.195-0.339-0.444-0.601-0.747-0.786s-0.659-0.278-1.069-0.278
			c-0.696,0-1.204,0.31-1.523,0.928s-0.479,1.426-0.479,2.422V400.173z"/>
	</g>
	<path fill="#00C0F3" d="M239,452h0.252c-2.324,0-4.672-0.027-6.979-0.102l0.223-7c2.232,0.07,4.506,0.102,6.756,0.102H239V452z
		 M253.542,451.555l-0.455-6.984c2.282-0.148,4.584-0.336,6.843-0.557l0.682,6.967C258.276,451.209,255.898,451.402,253.542,451.555
		z M218.122,451.002c-2.339-0.226-4.71-0.494-7.048-0.797l0.898-6.941c2.264,0.293,4.56,0.552,6.823,0.771L218.122,451.002z
		 M274.675,449.139l-1.135-6.908c2.244-0.368,4.517-0.779,6.754-1.224l1.361,6.867C279.343,448.332,276.994,448.758,274.675,449.139
		z M197.073,447.917c-2.317-0.457-4.651-0.956-6.938-1.485l1.578-6.82c2.212,0.513,4.471,0.996,6.713,1.438L197.073,447.917z
		 M295.475,444.658l-1.812-6.762c2.208-0.592,4.429-1.226,6.602-1.885l2.031,6.699C300.05,443.392,297.755,444.047,295.475,444.658z
		 M176.427,442.776c-2.254-0.682-4.534-1.412-6.779-2.172l2.246-6.631c2.172,0.736,4.378,1.442,6.559,2.102L176.427,442.776z
		 M315.728,438.146l-2.467-6.551c2.119-0.798,4.259-1.645,6.36-2.517l2.684,6.465C320.132,436.446,317.919,437.321,315.728,438.146z
		 M156.349,435.604c-2.184-0.903-4.379-1.855-6.525-2.829l2.891-6.375c2.076,0.941,4.2,1.862,6.312,2.737L156.349,435.604z
		 M335.206,429.687l-3.104-6.275c2.048-1.013,4.098-2.067,6.091-3.135l3.305,6.17C339.438,427.55,337.321,428.64,335.206,429.687z
		 M137.087,426.489c-2.079-1.112-4.168-2.275-6.209-3.455l3.504-6.061c1.976,1.143,3.996,2.268,6.008,3.344L137.087,426.489z
		 M353.771,419.348l-3.703-5.939c1.938-1.209,3.875-2.46,5.759-3.721l3.893,5.818C357.773,416.808,355.772,418.1,353.771,419.348z
		 M118.827,415.529c-1.945-1.302-3.909-2.663-5.836-4.044l4.08-5.689c1.865,1.338,3.766,2.655,5.648,3.915L118.827,415.529z
		 M371.24,407.237l-4.266-5.551c1.805-1.387,3.611-2.822,5.372-4.268l4.441,5.41C374.971,404.321,373.104,405.805,371.24,407.237z
		 M101.735,402.841c-1.81-1.485-3.63-3.03-5.41-4.593l4.615-5.262c1.725,1.512,3.486,3.007,5.236,4.444L101.735,402.841z
		 M387.452,393.476l-4.785-5.109c1.656-1.552,3.316-3.157,4.933-4.773l4.949,4.951C390.879,390.213,389.164,391.872,387.452,393.476
		z M85.97,388.551c-1.659-1.658-3.319-3.372-4.934-5.094l5.105-4.789c1.563,1.667,3.171,3.326,4.776,4.932L85.97,388.551z
		 M402.249,378.192l-5.258-4.621c1.5-1.707,2.996-3.468,4.446-5.232l5.408,4.445C405.347,374.607,403.8,376.427,402.249,378.192z
		 M71.675,372.799c-1.497-1.822-2.981-3.688-4.411-5.547l5.549-4.268c1.384,1.799,2.82,3.605,4.271,5.369L71.675,372.799z
		 M415.496,361.535l-5.686-4.084c1.332-1.854,2.65-3.754,3.917-5.646l5.816,3.895C418.234,357.656,416.872,359.619,415.496,361.535z
		 M58.991,355.735c-1.306-1.949-2.6-3.95-3.845-5.947l5.938-3.705c1.207,1.933,2.459,3.869,3.724,5.756L58.991,355.735z
		 M427.054,343.652l-6.059-3.506c1.147-1.983,2.273-4.004,3.347-6.007l6.17,3.305C429.403,339.515,428.24,341.604,427.054,343.652z
		 M48.039,337.521c-1.105-2.063-2.196-4.18-3.242-6.289l6.273-3.107c1.012,2.043,2.067,4.092,3.139,6.09L48.039,337.521z
		 M436.804,324.712l-6.373-2.895c0.939-2.068,1.861-4.191,2.739-6.311l6.467,2.682C438.729,320.379,437.775,322.573,436.804,324.712
		z M38.932,318.33c-0.896-2.157-1.772-4.368-2.605-6.573l6.549-2.473c0.806,2.133,1.654,4.273,2.521,6.36L38.932,318.33z
		 M444.645,304.89l-6.629-2.246c0.738-2.179,1.446-4.386,2.104-6.56l6.699,2.029C446.14,300.359,445.407,302.64,444.645,304.89z
		 M31.755,298.326c-0.682-2.243-1.338-4.537-1.95-6.819l6.76-1.816c0.594,2.21,1.229,4.431,1.888,6.601L31.755,298.326z
		 M450.481,284.407l-6.818-1.582c0.518-2.234,1.003-4.493,1.441-6.712l6.867,1.357C451.519,279.764,451.018,282.098,450.481,284.407
		z M26.582,277.688c-0.457-2.301-0.884-4.648-1.269-6.978l6.906-1.141c0.372,2.255,0.785,4.527,1.228,6.755L26.582,277.688z
		 M454.266,263.47l-6.941-0.904c0.293-2.251,0.555-4.545,0.775-6.82l6.967,0.678C454.838,258.773,454.568,261.145,454.266,263.47z
		 M23.465,256.646c-0.23-2.353-0.426-4.73-0.578-7.068l6.984-0.457c0.148,2.263,0.337,4.564,0.561,6.842L23.465,256.646z
		 M455.934,242.271l-7.02-0.225c0.072-2.269,0.086-4.578,0.086-6.865V235h7v0.157C456,237.542,456.009,239.928,455.934,242.271z
		 M29,235h-7v0.181c0-2.277,0.244-4.589,0.314-6.871l6.893,0.217c-0.068,2.21-0.207,4.449-0.207,6.654V235z M448.624,221.033
		c-0.15-2.271-0.341-4.571-0.566-6.84l6.965-0.693c0.233,2.345,0.431,4.724,0.586,7.07L448.624,221.033z M30.39,214.826l-6.967-0.67
		c0.225-2.343,0.492-4.714,0.794-7.049l6.942,0.896C30.867,210.264,30.608,212.559,30.39,214.826z M446.256,200.583
		c-0.37-2.236-0.785-4.508-1.233-6.75l6.863-1.373c0.464,2.318,0.894,4.667,1.276,6.98L446.256,200.583z M33.365,194.457
		l-6.869-1.352c0.456-2.316,0.955-4.65,1.483-6.938l6.82,1.576C34.289,189.956,33.806,192.215,33.365,194.457z M441.89,180.467
		c-0.589-2.188-1.226-4.407-1.894-6.596l6.695-2.043c0.69,2.263,1.35,4.558,1.958,6.82L441.89,180.467z M38.328,174.48l-6.701-2.021
		c0.685-2.269,1.414-4.55,2.168-6.78l6.631,2.242C39.696,170.078,38.991,172.286,38.328,174.48z M435.56,160.88
		c-0.796-2.104-1.646-4.243-2.526-6.357l6.461-2.691c0.911,2.185,1.79,4.396,2.612,6.572L435.56,160.88z M45.258,155.051
		l-6.469-2.676c0.906-2.191,1.857-4.387,2.826-6.526l6.377,2.889C47.055,150.807,46.135,152.931,45.258,155.051z M427.347,142.05
		c-1.014-2.042-2.072-4.09-3.145-6.087l6.166-3.312c1.108,2.062,2.201,4.178,3.248,6.286L427.347,142.05z M54.068,136.408
		l-6.174-3.299c1.106-2.071,2.269-4.161,3.452-6.211l6.062,3.5C56.263,132.383,55.139,134.405,54.068,136.408z M417.315,124.102
		c-1.212-1.937-2.467-3.872-3.729-5.754l5.812-3.9c1.305,1.943,2.6,3.942,3.851,5.941L417.315,124.102z M64.665,118.733l-5.82-3.891
		c1.305-1.951,2.664-3.915,4.042-5.838l5.689,4.078C67.243,114.943,65.927,116.845,64.665,118.733z M405.569,107.212
		c-1.39-1.803-2.829-3.607-4.276-5.365l5.402-4.451c1.496,1.816,2.982,3.681,4.417,5.543L405.569,107.212z M76.938,102.185
		l-5.412-4.439c1.488-1.814,3.032-3.635,4.589-5.412l5.266,4.613C79.872,98.666,78.378,100.429,76.938,102.185z M392.224,91.54
		c-1.569-1.67-3.178-3.327-4.78-4.926l4.942-4.957c1.656,1.652,3.318,3.364,4.939,5.09L392.224,91.54z M90.763,86.918l-4.955-4.945
		c1.663-1.666,3.376-3.327,5.092-4.937l4.791,5.104C94.029,83.698,92.371,85.306,90.763,86.918z M377.408,77.237
		c-1.709-1.498-3.472-2.991-5.239-4.439l4.438-5.414c1.826,1.496,3.647,3.04,5.415,4.588L377.408,77.237z M106,73.078l-4.447-5.406
		c1.812-1.49,3.677-2.976,5.544-4.413l4.271,5.545C109.561,70.196,107.755,71.635,106,73.078z M361.267,64.442
		c-1.855-1.329-3.757-2.645-5.651-3.908l3.887-5.822c1.957,1.307,3.922,2.666,5.841,4.039L361.267,64.442z M122.509,60.791
		l-3.898-5.812c1.952-1.311,3.952-2.605,5.944-3.85l3.709,5.938C126.335,58.271,124.399,59.523,122.509,60.791z M343.945,53.284
		c-1.98-1.144-4.004-2.267-6.012-3.338l3.297-6.176c2.075,1.108,4.165,2.269,6.213,3.449L343.945,53.284z M140.129,50.185
		l-3.311-6.168c2.055-1.103,4.17-2.194,6.287-3.245l3.111,6.271C144.166,48.06,142.118,49.117,140.129,50.185z M325.605,43.875
		c-2.086-0.942-4.211-1.861-6.316-2.73l2.672-6.471c2.176,0.898,4.372,1.849,6.527,2.822L325.605,43.875z M158.694,41.363
		l-2.689-6.463c2.163-0.9,4.375-1.778,6.573-2.609l2.475,6.548C162.926,39.644,160.787,40.492,158.694,41.363z M306.417,36.321
		c-2.161-0.729-4.369-1.435-6.562-2.095l2.02-6.703c2.266,0.683,4.547,1.411,6.78,2.165L306.417,36.321z M178.045,34.409
		l-2.039-6.695c2.266-0.69,4.561-1.349,6.82-1.955l1.816,6.76C182.457,33.105,180.237,33.742,178.045,34.409z M286.591,30.703
		c-2.224-0.512-4.483-0.994-6.715-1.432l1.348-6.869c2.306,0.452,4.64,0.95,6.938,1.479L286.591,30.703z M198.008,29.395
		l-1.367-6.865c2.302-0.458,4.649-0.886,6.979-1.271l1.143,6.906C202.507,28.537,200.234,28.951,198.008,29.395z M266.328,27.072
		c-2.271-0.291-4.566-0.549-6.824-0.765l0.668-6.969c2.332,0.224,4.703,0.489,7.047,0.79L266.328,27.072z M218.37,26.369
		l-0.688-6.967c2.354-0.231,4.732-0.428,7.069-0.581l0.459,6.984C222.95,25.955,220.648,26.145,218.37,26.369z M245.804,25.271
		c-2.176-0.066-4.38-0.271-6.552-0.271H239v-7h0.22c0.005,0,0.009,0,0.013,0c2.27,0,4.542,0.121,6.784,0.189L245.804,25.271z"/>
	<path fill="#999999" d="M140.211,287.84c-4.141-1.596-4.855-4.397-4.719-6.323c2.266-1.602,4.264-4.848,4.264-8.471
		c0-5.246-1.859-9.548-7.309-9.548c-5.271,0-7.307,4.229-7.307,9.475c0,3.395,1.502,6.352,3.57,8.033
		c0.227,1.967-0.34,5.17-4.695,6.85c-6.211,2.396-9.826,4.145-11.297,14.145h19.404H151.5
		C150.029,292,146.422,290.236,140.211,287.84z"/>
	<path fill="#999999" d="M358.211,287.84c-4.141-1.596-4.855-4.397-4.719-6.323c2.266-1.602,4.264-4.848,4.264-8.471
		c0-5.246-1.859-9.548-7.309-9.548c-5.271,0-7.307,4.229-7.307,9.475c0,3.395,1.502,6.352,3.57,8.033
		c0.227,1.967-0.34,5.17-4.695,6.85c-6.211,2.396-9.826,4.145-11.297,14.145h19.404H369.5
		C368.029,292,364.422,290.236,358.211,287.84z"/>
	<path fill="#33CCFF" d="M172.434,373.567c-61.116,0-110.838-49.722-110.838-110.838s49.722-110.838,110.838-110.838
		c61.117,0,110.84,49.722,110.84,110.838S233.551,373.567,172.434,373.567z M172.434,158.892
		c-57.257,0-103.838,46.581-103.838,103.838s46.581,103.838,103.838,103.838c57.258,0,103.84-46.581,103.84-103.838
		S229.691,158.892,172.434,158.892z"/>
	<path fill="#33CCFF" d="M306.076,373.567c-61.116,0-110.838-49.722-110.838-110.838s49.722-110.838,110.838-110.838
		s110.838,49.722,110.838,110.838S367.192,373.567,306.076,373.567z M306.076,158.892c-57.257,0-103.838,46.581-103.838,103.838
		s46.581,103.838,103.838,103.838s103.838-46.581,103.838-103.838S363.333,158.892,306.076,158.892z"/>
	<path fill="#33CCFF" d="M239.891,280.472c-61.115,0-110.836-49.722-110.836-110.838S178.775,58.796,239.891,58.796
		c61.117,0,110.84,49.722,110.84,110.838S301.008,280.472,239.891,280.472z M239.891,65.796
		c-57.255,0-103.836,46.581-103.836,103.838s46.581,103.838,103.836,103.838c57.258,0,103.84-46.581,103.84-103.838
		S297.148,65.796,239.891,65.796z"/>
	<path fill="#999999" d="M249.211,110.84c-4.141-1.596-4.855-4.397-4.719-6.323c2.266-1.602,4.264-4.848,4.264-8.471
		c0-5.246-1.859-9.548-7.309-9.548c-5.271,0-7.307,4.229-7.307,9.475c0,3.395,1.502,6.352,3.57,8.033
		c0.227,1.967-0.34,5.17-4.695,6.85c-6.211,2.396-9.826,4.145-11.297,14.145h19.404H260.5
		C259.029,115,255.422,113.236,249.211,110.84z"/>
</g>
<g id="integracion">
</g>
<g id="coordinacion">
</g>
<g id="colectividad">
</g>
</svg>
