<?xml version="1.0" encoding="utf-8"?>
<!-- Generator: Adobe Illustrator 16.0.0, SVG Export Plug-In . SVG Version: 6.00 Build 0)  -->
<!DOCTYPE svg PUBLIC "-//W3C//DTD SVG 1.1//EN" "http://www.w3.org/Graphics/SVG/1.1/DTD/svg11.dtd">
<svg version="1.1" xmlns="http://www.w3.org/2000/svg" xmlns:xlink="http://www.w3.org/1999/xlink" x="0px" y="0px"
	 width="521.557px" height="399.027px" viewBox="0 0 521.557 399.027" enable-background="new 0 0 521.557 399.027"
	 xml:space="preserve">
<g id="modelos_anteriores">
</g>
<g id="fondo">
</g>
<g id="exp-personal">
</g>
<g id="tema-territorio-personas">
	<g>
		<path fill="#999999" d="M30.024,88.971c1.628,0,2.911,0.418,3.853,1.255s1.411,1.933,1.411,3.286c0,1.361-0.47,2.455-1.411,3.281
			s-2.225,1.24-3.853,1.24h-2.402v3.154l1.523,0.293v1.709h-5.889v-1.709l1.514-0.293V90.982l-1.514-0.293v-1.719h1.514H30.024z
			 M27.622,95.836h2.402c0.794,0,1.396-0.217,1.802-0.649s0.61-0.985,0.61-1.655c0-0.684-0.204-1.248-0.61-1.694
			s-1.008-0.669-1.802-0.669h-2.402V95.836z"/>
		<path fill="#999999" d="M41.196,103.395c-1.523,0-2.741-0.488-3.652-1.465s-1.367-2.217-1.367-3.721v-0.391
			c0-1.568,0.431-2.861,1.294-3.877s2.02-1.52,3.472-1.514c1.426,0,2.532,0.43,3.32,1.289s1.182,2.021,1.182,3.486v1.553h-6.309
			l-0.02,0.059c0.052,0.697,0.284,1.27,0.698,1.719s0.975,0.674,1.685,0.674c0.632,0,1.155-0.063,1.572-0.19
			s0.872-0.327,1.367-0.601l0.771,1.758c-0.437,0.346-1.001,0.635-1.694,0.869S42.049,103.395,41.196,103.395z M40.942,94.625
			c-0.527,0-0.944,0.201-1.25,0.605s-0.495,0.934-0.566,1.592l0.029,0.049h3.496v-0.254c0-0.605-0.142-1.089-0.425-1.45
			S41.516,94.625,40.942,94.625z"/>
		<path fill="#999999" d="M47.007,101.48l1.367-0.293v-6.553l-1.514-0.293v-1.719h4.17l0.127,1.543
			c0.247-0.547,0.566-0.973,0.957-1.279s0.843-0.459,1.357-0.459c0.149,0,0.308,0.012,0.474,0.034s0.305,0.05,0.415,0.083
			l-0.303,2.598l-1.172-0.029c-0.417,0-0.762,0.082-1.035,0.244s-0.481,0.395-0.625,0.693v5.137l1.367,0.293v1.709h-5.586V101.48z"
			/>
		<path fill="#999999" d="M63.833,96.256h-1.914l-0.303-1.318c-0.195-0.156-0.44-0.287-0.737-0.391s-0.623-0.156-0.981-0.156
			c-0.501,0-0.898,0.112-1.191,0.337s-0.439,0.507-0.439,0.845c0,0.318,0.14,0.584,0.42,0.796s0.84,0.399,1.68,0.562
			c1.309,0.26,2.278,0.643,2.91,1.147s0.947,1.2,0.947,2.085c0,0.951-0.409,1.727-1.226,2.329s-1.893,0.903-3.228,0.903
			c-0.813,0-1.562-0.119-2.241-0.356s-1.284-0.577-1.812-1.021l-0.029-2.373h1.992l0.391,1.377c0.169,0.143,0.4,0.249,0.693,0.317
			s0.599,0.103,0.918,0.103c0.579,0,1.021-0.104,1.323-0.312s0.454-0.492,0.454-0.85c0-0.312-0.153-0.582-0.459-0.811
			s-0.869-0.43-1.689-0.605c-1.243-0.254-2.183-0.63-2.817-1.128s-0.952-1.177-0.952-2.036c0-0.885,0.364-1.648,1.094-2.29
			s1.768-0.962,3.115-0.962c0.82,0,1.597,0.111,2.329,0.332s1.307,0.504,1.724,0.85L63.833,96.256z"/>
		<path fill="#999999" d="M65.288,94.342v-1.719h4.141l0.137,1.23c0.312-0.455,0.687-0.807,1.123-1.055s0.944-0.371,1.523-0.371
			c1.309,0,2.324,0.512,3.047,1.533s1.084,2.367,1.084,4.033v0.205c0,1.562-0.361,2.818-1.084,3.77s-1.731,1.426-3.027,1.426
			c-0.554,0-1.045-0.103-1.475-0.308s-0.798-0.507-1.104-0.903v3.057l1.377,0.293v1.719h-5.596v-1.719l1.377-0.293V94.635
			L65.288,94.342z M73.491,97.994c0-0.996-0.166-1.803-0.498-2.422s-0.84-0.928-1.523-0.928c-0.43,0-0.796,0.088-1.099,0.264
			s-0.542,0.426-0.718,0.752v4.629c0.176,0.299,0.415,0.527,0.718,0.684s0.676,0.234,1.118,0.234c0.69,0,1.196-0.27,1.519-0.811
			s0.483-1.273,0.483-2.197V97.994z"/>
		<path fill="#999999" d="M82.671,103.395c-1.523,0-2.741-0.488-3.652-1.465s-1.367-2.217-1.367-3.721v-0.391
			c0-1.568,0.431-2.861,1.294-3.877s2.02-1.52,3.472-1.514c1.426,0,2.532,0.43,3.32,1.289s1.182,2.021,1.182,3.486v1.553H80.61
			l-0.02,0.059c0.052,0.697,0.284,1.27,0.698,1.719s0.975,0.674,1.685,0.674c0.632,0,1.155-0.063,1.572-0.19
			s0.872-0.327,1.367-0.601l0.771,1.758c-0.437,0.346-1.001,0.635-1.694,0.869S83.523,103.395,82.671,103.395z M82.417,94.625
			c-0.527,0-0.944,0.201-1.25,0.605s-0.495,0.934-0.566,1.592l0.029,0.049h3.496v-0.254c0-0.605-0.142-1.089-0.425-1.45
			S82.99,94.625,82.417,94.625z"/>
		<path fill="#999999" d="M93.228,101.207c0.508,0,0.915-0.148,1.221-0.444s0.459-0.692,0.459-1.187h2.578l0.029,0.059
			c0.026,1.068-0.374,1.961-1.201,2.681s-1.855,1.079-3.086,1.079c-1.575,0-2.79-0.498-3.643-1.494s-1.279-2.275-1.279-3.838V97.77
			c0-1.557,0.438-2.836,1.313-3.838s2.124-1.504,3.745-1.504c0.853,0,1.618,0.127,2.295,0.381s1.24,0.611,1.689,1.074l0.039,2.822
			h-2.314l-0.469-1.65c-0.144-0.123-0.319-0.227-0.527-0.308s-0.446-0.122-0.713-0.122c-0.808,0-1.377,0.293-1.709,0.879
			s-0.498,1.342-0.498,2.266v0.293c0,0.943,0.153,1.704,0.459,2.28S92.459,101.207,93.228,101.207z"/>
		<path fill="#999999" d="M103.013,90.035v2.588h1.855v2.002h-1.855v5.381c0,0.41,0.085,0.703,0.254,0.879s0.397,0.264,0.684,0.264
			c0.195,0,0.366-0.008,0.513-0.024s0.311-0.044,0.493-0.083l0.244,2.061c-0.319,0.098-0.635,0.171-0.947,0.22
			s-0.651,0.073-1.016,0.073c-0.983,0-1.739-0.27-2.271-0.811s-0.796-1.396-0.796-2.568v-5.391h-1.553v-2.002h1.553v-2.588H103.013z
			"/>
		<path fill="#999999" d="M106.177,101.48l1.377-0.293v-6.553l-1.523-0.293v-1.719h4.375v8.564l1.367,0.293v1.709h-5.596V101.48z
			 M110.405,90.094h-2.852v-2.139h2.852V90.094z"/>
		<path fill="#999999" d="M117.192,94.342l-0.996,0.186l1.396,4.727l0.186,0.996h0.059l0.205-0.996l1.377-4.717l-1.016-0.195v-1.719
			h4.795v1.719l-0.918,0.146l-3.115,8.701h-2.725l-3.125-8.701l-0.918-0.146v-1.719h4.795V94.342z"/>
		<path fill="#999999" d="M130.688,103.189c-0.078-0.176-0.146-0.356-0.205-0.542s-0.104-0.372-0.137-0.562
			c-0.339,0.391-0.751,0.707-1.235,0.947s-1.04,0.361-1.665,0.361c-1.035,0-1.856-0.281-2.466-0.845s-0.913-1.329-0.913-2.3
			c0-0.99,0.397-1.754,1.191-2.295s1.96-0.811,3.496-0.811h1.455v-1.035c0-0.508-0.146-0.902-0.439-1.182s-0.726-0.42-1.299-0.42
			c-0.325,0-0.615,0.037-0.869,0.112s-0.459,0.165-0.615,0.269l-0.186,1.133h-2.148l0.01-2.344c0.521-0.352,1.118-0.648,1.792-0.889
			s1.408-0.361,2.202-0.361c1.309,0,2.372,0.32,3.188,0.962s1.226,1.554,1.226,2.739v4.365c0,0.162,0.001,0.316,0.005,0.459
			s0.015,0.279,0.034,0.41l0.869,0.117v1.709H130.688z M128.218,101.285c0.43,0,0.82-0.093,1.172-0.278s0.625-0.419,0.82-0.698
			v-1.611h-1.455c-0.605,0-1.064,0.142-1.377,0.425s-0.469,0.624-0.469,1.021c0,0.357,0.116,0.639,0.347,0.84
			S127.808,101.285,128.218,101.285z"/>
	</g>
	<g>
		<path fill="#999999" d="M396.004,88.971c1.615,0,2.881,0.369,3.799,1.108s1.377,1.759,1.377,3.062
			c0,0.717-0.191,1.338-0.576,1.865s-0.947,0.953-1.689,1.279c0.84,0.248,1.443,0.659,1.812,1.235s0.552,1.29,0.552,2.144v0.723
			c0,0.312,0.062,0.555,0.186,0.728s0.328,0.274,0.615,0.308l0.352,0.049v1.719h-1.475c-0.932,0-1.586-0.25-1.963-0.752
			s-0.566-1.148-0.566-1.943v-0.811c0-0.689-0.184-1.232-0.552-1.626s-0.888-0.601-1.558-0.62h-2.334v3.75l1.523,0.293v1.709h-5.889
			v-1.709l1.514-0.293V90.982l-1.514-0.293v-1.719h1.514H396.004z M393.982,95.24h1.973c0.795,0,1.391-0.17,1.787-0.508
			s0.596-0.826,0.596-1.465s-0.197-1.147-0.591-1.528s-0.976-0.571-1.743-0.571h-2.021V95.24z"/>
		<path fill="#999999" d="M408.494,103.395c-1.523,0-2.74-0.488-3.652-1.465s-1.367-2.217-1.367-3.721v-0.391
			c0-1.568,0.432-2.861,1.294-3.877s2.021-1.52,3.472-1.514c1.426,0,2.533,0.43,3.32,1.289s1.182,2.021,1.182,3.486v1.553h-6.309
			l-0.02,0.059c0.053,0.697,0.285,1.27,0.698,1.719s0.976,0.674,1.685,0.674c0.631,0,1.156-0.063,1.572-0.19
			s0.873-0.327,1.367-0.601l0.771,1.758c-0.436,0.346-1.001,0.635-1.694,0.869S409.348,103.395,408.494,103.395z M408.24,94.625
			c-0.527,0-0.943,0.201-1.25,0.605s-0.494,0.934-0.566,1.592l0.029,0.049h3.496v-0.254c0-0.605-0.142-1.089-0.425-1.45
			S408.812,94.625,408.24,94.625z"/>
		<path fill="#999999" d="M413.787,89.674v-1.719h4.375v13.232l1.377,0.293v1.709h-5.605v-1.709l1.377-0.293V89.967L413.787,89.674z
			"/>
		<path fill="#999999" d="M425.525,103.395c-1.523,0-2.74-0.488-3.652-1.465s-1.367-2.217-1.367-3.721v-0.391
			c0-1.568,0.432-2.861,1.294-3.877s2.021-1.52,3.472-1.514c1.426,0,2.533,0.43,3.32,1.289s1.182,2.021,1.182,3.486v1.553h-6.309
			l-0.02,0.059c0.053,0.697,0.285,1.27,0.698,1.719s0.976,0.674,1.685,0.674c0.631,0,1.156-0.063,1.572-0.19
			s0.873-0.327,1.367-0.601l0.771,1.758c-0.436,0.346-1.001,0.635-1.694,0.869S426.379,103.395,425.525,103.395z M425.271,94.625
			c-0.527,0-0.943,0.201-1.25,0.605s-0.494,0.934-0.566,1.592l0.029,0.049h3.496v-0.254c0-0.605-0.142-1.089-0.425-1.45
			S425.844,94.625,425.271,94.625z"/>
		<path fill="#999999" d="M435.477,94.342l-0.996,0.186l1.396,4.727l0.186,0.996h0.059l0.205-0.996l1.377-4.717l-1.016-0.195v-1.719
			h4.795v1.719l-0.918,0.146l-3.115,8.701h-2.725l-3.125-8.701l-0.918-0.146v-1.719h4.795V94.342z"/>
		<path fill="#999999" d="M448.973,103.189c-0.078-0.176-0.146-0.356-0.205-0.542s-0.104-0.372-0.137-0.562
			c-0.338,0.391-0.75,0.707-1.235,0.947s-1.04,0.361-1.665,0.361c-1.035,0-1.857-0.281-2.466-0.845s-0.913-1.329-0.913-2.3
			c0-0.99,0.396-1.754,1.191-2.295s1.959-0.811,3.496-0.811h1.455v-1.035c0-0.508-0.146-0.902-0.439-1.182s-0.727-0.42-1.299-0.42
			c-0.326,0-0.615,0.037-0.869,0.112s-0.459,0.165-0.615,0.269l-0.186,1.133h-2.148l0.01-2.344c0.521-0.352,1.118-0.648,1.792-0.889
			s1.407-0.361,2.202-0.361c1.309,0,2.371,0.32,3.188,0.962s1.226,1.554,1.226,2.739v4.365c0,0.162,0.002,0.316,0.005,0.459
			s0.015,0.279,0.034,0.41l0.869,0.117v1.709H448.973z M446.502,101.285c0.43,0,0.82-0.093,1.172-0.278s0.625-0.419,0.82-0.698
			v-1.611h-1.455c-0.605,0-1.064,0.142-1.377,0.425s-0.469,0.624-0.469,1.021c0,0.357,0.115,0.639,0.347,0.84
			S446.092,101.285,446.502,101.285z"/>
		<path fill="#999999" d="M453.074,101.48l1.367-0.293v-6.553l-1.514-0.293v-1.719h4.17l0.127,1.514
			c0.352-0.541,0.785-0.961,1.299-1.26s1.09-0.449,1.729-0.449c1.068,0,1.9,0.336,2.5,1.006s0.898,1.723,0.898,3.154v4.6
			l1.367,0.293v1.709h-5.449v-1.709l1.221-0.293v-4.59c0-0.709-0.143-1.213-0.43-1.509s-0.719-0.444-1.299-0.444
			c-0.377,0-0.717,0.076-1.016,0.229s-0.551,0.37-0.752,0.649v5.664l1.152,0.293v1.709h-5.371V101.48z"/>
		<path fill="#999999" d="M470.789,101.207c0.508,0,0.914-0.148,1.221-0.444s0.459-0.692,0.459-1.187h2.578l0.029,0.059
			c0.025,1.068-0.375,1.961-1.201,2.681s-1.855,1.079-3.086,1.079c-1.576,0-2.789-0.498-3.643-1.494s-1.279-2.275-1.279-3.838V97.77
			c0-1.557,0.438-2.836,1.313-3.838s2.124-1.504,3.745-1.504c0.854,0,1.617,0.127,2.295,0.381s1.24,0.611,1.689,1.074l0.039,2.822
			h-2.314l-0.469-1.65c-0.143-0.123-0.318-0.227-0.527-0.308s-0.445-0.122-0.713-0.122c-0.807,0-1.377,0.293-1.709,0.879
			s-0.498,1.342-0.498,2.266v0.293c0,0.943,0.152,1.704,0.459,2.28S470.021,101.207,470.789,101.207z"/>
		<path fill="#999999" d="M476.277,101.48l1.377-0.293v-6.553l-1.523-0.293v-1.719h4.375v8.564l1.367,0.293v1.709h-5.596V101.48z
			 M480.506,90.094h-2.852v-2.139h2.852V90.094z"/>
		<path fill="#999999" d="M489.539,103.189c-0.078-0.176-0.146-0.356-0.205-0.542s-0.104-0.372-0.137-0.562
			c-0.338,0.391-0.75,0.707-1.235,0.947s-1.04,0.361-1.665,0.361c-1.035,0-1.857-0.281-2.466-0.845s-0.913-1.329-0.913-2.3
			c0-0.99,0.396-1.754,1.191-2.295s1.959-0.811,3.496-0.811h1.455v-1.035c0-0.508-0.146-0.902-0.439-1.182s-0.727-0.42-1.299-0.42
			c-0.326,0-0.615,0.037-0.869,0.112s-0.459,0.165-0.615,0.269l-0.186,1.133h-2.148l0.01-2.344c0.521-0.352,1.118-0.648,1.792-0.889
			s1.407-0.361,2.202-0.361c1.309,0,2.371,0.32,3.188,0.962s1.226,1.554,1.226,2.739v4.365c0,0.162,0.002,0.316,0.005,0.459
			s0.015,0.279,0.034,0.41l0.869,0.117v1.709H489.539z M487.068,101.285c0.43,0,0.82-0.093,1.172-0.278s0.625-0.419,0.82-0.698
			v-1.611h-1.455c-0.605,0-1.064,0.142-1.377,0.425s-0.469,0.624-0.469,1.021c0,0.357,0.115,0.639,0.347,0.84
			S486.658,101.285,487.068,101.285z"/>
	</g>
	<g>
		<path fill="#999999" d="M210.647,352.016c1.628,0,2.911,0.418,3.853,1.255s1.411,1.933,1.411,3.286
			c0,1.361-0.47,2.455-1.411,3.281s-2.225,1.24-3.853,1.24h-2.402v3.154l1.523,0.293v1.709h-5.889v-1.709l1.514-0.293v-10.205
			l-1.514-0.293v-1.719h1.514H210.647z M208.245,358.881h2.402c0.794,0,1.396-0.217,1.802-0.649s0.61-0.985,0.61-1.655
			c0-0.684-0.204-1.248-0.61-1.694s-1.008-0.669-1.802-0.669h-2.402V358.881z"/>
		<path fill="#999999" d="M221.819,366.439c-1.523,0-2.741-0.488-3.652-1.465s-1.367-2.217-1.367-3.721v-0.391
			c0-1.568,0.431-2.861,1.294-3.877s2.02-1.52,3.472-1.514c1.426,0,2.532,0.43,3.32,1.289s1.182,2.021,1.182,3.486v1.553h-6.309
			l-0.02,0.059c0.052,0.697,0.284,1.27,0.698,1.719s0.975,0.674,1.685,0.674c0.632,0,1.155-0.063,1.572-0.19
			s0.872-0.327,1.367-0.601l0.771,1.758c-0.437,0.346-1.001,0.635-1.694,0.869S222.672,366.439,221.819,366.439z M221.565,357.67
			c-0.527,0-0.944,0.201-1.25,0.605s-0.495,0.934-0.566,1.592l0.029,0.049h3.496v-0.254c0-0.605-0.142-1.089-0.425-1.45
			S222.139,357.67,221.565,357.67z"/>
		<path fill="#999999" d="M227.63,364.525l1.367-0.293v-6.553l-1.514-0.293v-1.719h4.17l0.127,1.543
			c0.247-0.547,0.566-0.973,0.957-1.279s0.843-0.459,1.357-0.459c0.149,0,0.308,0.012,0.474,0.034s0.305,0.05,0.415,0.083
			l-0.303,2.598l-1.172-0.029c-0.417,0-0.762,0.082-1.035,0.244s-0.481,0.395-0.625,0.693v5.137l1.367,0.293v1.709h-5.586V364.525z"
			/>
		<path fill="#999999" d="M240.276,353.08v2.588h1.855v2.002h-1.855v5.381c0,0.41,0.085,0.703,0.254,0.879s0.397,0.264,0.684,0.264
			c0.195,0,0.366-0.008,0.513-0.024s0.311-0.044,0.493-0.083l0.244,2.061c-0.319,0.098-0.635,0.171-0.947,0.22
			s-0.651,0.073-1.016,0.073c-0.983,0-1.739-0.27-2.271-0.811s-0.796-1.396-0.796-2.568v-5.391h-1.553v-2.002h1.553v-2.588H240.276z
			"/>
		<path fill="#999999" d="M248.587,366.439c-1.523,0-2.741-0.488-3.652-1.465s-1.367-2.217-1.367-3.721v-0.391
			c0-1.568,0.431-2.861,1.294-3.877s2.02-1.52,3.472-1.514c1.426,0,2.532,0.43,3.32,1.289s1.182,2.021,1.182,3.486v1.553h-6.309
			l-0.02,0.059c0.052,0.697,0.284,1.27,0.698,1.719s0.975,0.674,1.685,0.674c0.632,0,1.155-0.063,1.572-0.19
			s0.872-0.327,1.367-0.601l0.771,1.758c-0.437,0.346-1.001,0.635-1.694,0.869S249.439,366.439,248.587,366.439z M248.333,357.67
			c-0.527,0-0.944,0.201-1.25,0.605s-0.495,0.934-0.566,1.592l0.029,0.049h3.496v-0.254c0-0.605-0.142-1.089-0.425-1.45
			S248.906,357.67,248.333,357.67z"/>
		<path fill="#999999" d="M254.026,364.525l1.367-0.293v-6.553l-1.514-0.293v-1.719h4.17l0.127,1.514
			c0.352-0.541,0.784-0.961,1.299-1.26s1.091-0.449,1.729-0.449c1.067,0,1.901,0.336,2.5,1.006s0.898,1.723,0.898,3.154v4.6
			l1.367,0.293v1.709h-5.449v-1.709l1.221-0.293v-4.59c0-0.709-0.144-1.213-0.43-1.509s-0.72-0.444-1.299-0.444
			c-0.378,0-0.716,0.076-1.016,0.229s-0.55,0.37-0.752,0.649v5.664l1.152,0.293v1.709h-5.371V364.525z"/>
		<path fill="#999999" d="M271.839,366.439c-1.523,0-2.741-0.488-3.652-1.465s-1.367-2.217-1.367-3.721v-0.391
			c0-1.568,0.431-2.861,1.294-3.877s2.02-1.52,3.472-1.514c1.426,0,2.532,0.43,3.32,1.289s1.182,2.021,1.182,3.486v1.553h-6.309
			l-0.02,0.059c0.052,0.697,0.284,1.27,0.698,1.719s0.975,0.674,1.685,0.674c0.632,0,1.155-0.063,1.572-0.19
			s0.872-0.327,1.367-0.601l0.771,1.758c-0.437,0.346-1.001,0.635-1.694,0.869S272.691,366.439,271.839,366.439z M271.585,357.67
			c-0.527,0-0.944,0.201-1.25,0.605s-0.495,0.934-0.566,1.592l0.029,0.049h3.496v-0.254c0-0.605-0.142-1.089-0.425-1.45
			S272.158,357.67,271.585,357.67z"/>
		<path fill="#999999" d="M277.278,364.525l1.367-0.293v-6.553l-1.514-0.293v-1.719h4.17l0.127,1.514
			c0.352-0.541,0.784-0.961,1.299-1.26s1.091-0.449,1.729-0.449c1.067,0,1.901,0.336,2.5,1.006s0.898,1.723,0.898,3.154v4.6
			l1.367,0.293v1.709h-5.449v-1.709l1.221-0.293v-4.59c0-0.709-0.144-1.213-0.43-1.509s-0.72-0.444-1.299-0.444
			c-0.378,0-0.716,0.076-1.016,0.229s-0.55,0.37-0.752,0.649v5.664l1.152,0.293v1.709h-5.371V364.525z"/>
		<path fill="#999999" d="M294.993,364.252c0.508,0,0.915-0.148,1.221-0.444s0.459-0.692,0.459-1.187h2.578l0.029,0.059
			c0.026,1.068-0.374,1.961-1.201,2.681s-1.855,1.079-3.086,1.079c-1.575,0-2.79-0.498-3.643-1.494s-1.279-2.275-1.279-3.838v-0.293
			c0-1.557,0.438-2.836,1.313-3.838s2.124-1.504,3.745-1.504c0.853,0,1.618,0.127,2.295,0.381s1.24,0.611,1.689,1.074l0.039,2.822
			h-2.314l-0.469-1.65c-0.144-0.123-0.319-0.227-0.527-0.308s-0.446-0.122-0.713-0.122c-0.808,0-1.377,0.293-1.709,0.879
			s-0.498,1.342-0.498,2.266v0.293c0,0.943,0.153,1.704,0.459,2.28S294.225,364.252,294.993,364.252z"/>
		<path fill="#999999" d="M300.481,364.525l1.377-0.293v-6.553l-1.523-0.293v-1.719h4.375v8.564l1.367,0.293v1.709h-5.596V364.525z
			 M304.71,353.139h-2.852V351h2.852V353.139z"/>
		<path fill="#999999" d="M313.743,366.234c-0.078-0.176-0.146-0.356-0.205-0.542s-0.104-0.372-0.137-0.562
			c-0.339,0.391-0.751,0.707-1.235,0.947s-1.04,0.361-1.665,0.361c-1.035,0-1.856-0.281-2.466-0.845s-0.913-1.329-0.913-2.3
			c0-0.99,0.397-1.754,1.191-2.295s1.96-0.811,3.496-0.811h1.455v-1.035c0-0.508-0.146-0.902-0.439-1.182s-0.726-0.42-1.299-0.42
			c-0.325,0-0.615,0.037-0.869,0.112s-0.459,0.165-0.615,0.269l-0.186,1.133h-2.148l0.01-2.344c0.521-0.352,1.118-0.648,1.792-0.889
			s1.408-0.361,2.202-0.361c1.309,0,2.372,0.32,3.188,0.962s1.226,1.554,1.226,2.739v4.365c0,0.162,0.001,0.316,0.005,0.459
			s0.015,0.279,0.034,0.41l0.869,0.117v1.709H313.743z M311.272,364.33c0.43,0,0.82-0.093,1.172-0.278s0.625-0.419,0.82-0.698
			v-1.611h-1.455c-0.605,0-1.064,0.142-1.377,0.425s-0.469,0.624-0.469,1.021c0,0.357,0.116,0.639,0.347,0.84
			S310.862,364.33,311.272,364.33z"/>
	</g>
	<path fill="#999999" d="M160.678,251.002c-4.14-1.596-4.854-4.33-4.719-6.256c2.267-1.602,4.264-4.812,4.264-8.438
		c0-5.246-1.859-9.53-7.309-9.53c-5.271,0-7.307,4.238-7.307,9.484c0,3.394,1.503,6.354,3.57,8.036
		c0.228,1.967-0.339,5.037-4.695,6.716c-6.211,2.396-9.825,4.013-11.297,14.013h19.405h19.376
		C170.496,255.027,166.889,253.398,160.678,251.002z"/>
	<path fill="#33CCFF" d="M192.9,336.864c-61.115,0-110.837-49.722-110.837-110.838S131.785,115.188,192.9,115.188
		c61.117,0,110.84,49.722,110.84,110.838S254.018,336.864,192.9,336.864z M192.9,122.188c-57.256,0-103.837,46.581-103.837,103.838
		S135.645,329.864,192.9,329.864c57.258,0,103.84-46.581,103.84-103.838S250.158,122.188,192.9,122.188z"/>
	<path fill="#33CCFF" d="M326.544,336.864c-61.117,0-110.839-49.722-110.839-110.838s49.722-110.838,110.839-110.838
		c61.116,0,110.838,49.722,110.838,110.838S387.66,336.864,326.544,336.864z M326.544,122.188
		c-57.257,0-103.839,46.581-103.839,103.838s46.582,103.838,103.839,103.838s103.838-46.581,103.838-103.838
		S383.801,122.188,326.544,122.188z"/>
	<path fill="#33CCFF" d="M260.358,233.769c-61.115,0-110.837-49.722-110.837-110.838S199.243,12.093,260.358,12.093
		c61.117,0,110.839,49.722,110.839,110.838S321.476,233.769,260.358,233.769z M260.358,19.093
		c-57.256,0-103.837,46.581-103.837,103.838s46.581,103.838,103.837,103.838c57.257,0,103.839-46.581,103.839-103.838
		S317.615,19.093,260.358,19.093z"/>
	<path fill="#999999" d="M380.521,246.293c-2.781,0-5.033-2.259-5.033-5.042s2.252-5.042,5.033-5.042
		c2.777,0,5.031,2.259,5.031,5.042S383.299,246.293,380.521,246.293 M393.347,240.544c-0.094-7.016-5.801-12.674-12.825-12.674
		c-7.025,0-12.73,5.658-12.824,12.674v0.176c0,3.469,1.183,7.625,4.223,11.191c6.664,7.816,8.602,11.723,8.602,11.723
		s1.938-3.906,8.603-11.723c3.044-3.566,4.223-7.723,4.223-11.191V240.544z"/>
	<path fill="#999999" d="M268.482,66.031c1.292,0,2.341,1.051,2.341,2.348s-1.049,2.346-2.341,2.346
		c-1.293,0-2.342-1.049-2.342-2.346S267.189,66.031,268.482,66.031 M258.159,96.706l17.345-24.74l-1.714-11.341l-11.231,2.228
		l-17.343,24.744L258.159,96.706z"/>
</g>
<g id="similitud">
</g>
<g id="integracion">
</g>
<g id="coordinacion">
</g>
<g id="colectividad">
</g>
</svg>
