<?xml version="1.0" encoding="utf-8"?>
<!-- Generator: Adobe Illustrator 16.0.0, SVG Export Plug-In . SVG Version: 6.00 Build 0)  -->
<!DOCTYPE svg PUBLIC "-//W3C//DTD SVG 1.1//EN" "http://www.w3.org/Graphics/SVG/1.1/DTD/svg11.dtd">
<svg version="1.1" xmlns="http://www.w3.org/2000/svg" xmlns:xlink="http://www.w3.org/1999/xlink" x="0px" y="0px" width="760px"
	 height="500px" viewBox="0 0 760 500" enable-background="new 0 0 760 500" xml:space="preserve">
<g id="modelo_completo">
</g>
<g id="publicacion">
</g>
<g id="publicacion_y_conversacion">
</g>
<g id="conversacion">
</g>
<g id="mediafranca">
	<g>
		<path fill="#FFFFFF" d="M208.806,408.483c-54.021,0-104.512-26.649-135.062-71.287l5.776-3.953
			c29.245,42.729,77.575,68.24,129.285,68.24c67.108,0,126.691-42.663,148.264-106.162l6.629,2.252
			C341.16,363.912,278.913,408.483,208.806,408.483z"/>
		<g>
			<polygon fill="#FFFFFF" points="71.848,352.911 75.321,353.36 77.515,336.243 94.428,339.682 95.123,336.248 74.523,332.064 			
				"/>
		</g>
	</g>
	<g>
		<path fill="#FFFFFF" d="M354.633,187.869c-23.667-60.441-80.907-99.496-145.827-99.496c-53.49,0-102.737,26.889-131.733,71.928
			l-5.887-3.789c30.293-47.049,81.738-75.139,137.62-75.139c33.543,0,65.779,10.082,93.225,29.156
			c26.816,18.637,47.26,44.498,59.12,74.788L354.633,187.869z"/>
		<g>
			<polygon fill="#FFFFFF" points="366.615,170.463 363.336,169.23 357.281,185.391 341.604,178.171 340.143,181.354 
				359.236,190.143 			"/>
		</g>
	</g>
	<g>
		<path fill="#FFFFFF" d="M529.299,408.483c-70.111,0-132.36-44.571-154.897-110.91l6.627-2.252
			c21.573,63.499,81.158,106.162,148.271,106.162c51.708,0,100.038-25.511,129.282-68.241l5.777,3.953
			C633.809,381.834,583.318,408.483,529.299,408.483z"/>
		<g>
			<polygon fill="#FFFFFF" points="642.977,336.246 643.672,339.68 660.582,336.239 662.778,353.358 666.253,352.909 
				663.573,332.061 			"/>
		</g>
	</g>
	<g>
		<path fill="#FFFFFF" d="M383.466,187.87l-6.518-2.553c11.861-30.291,32.305-56.152,59.12-74.788
			c27.446-19.074,59.685-29.156,93.23-29.156c55.882,0,107.328,28.09,137.618,75.139l-5.887,3.789
			c-28.995-45.039-78.24-71.928-131.731-71.928C464.377,88.373,407.135,127.428,383.466,187.87z"/>
		<g>
			<polygon fill="#FFFFFF" points="397.96,181.355 396.498,178.173 380.823,185.394 374.767,169.232 371.487,170.465 
				378.868,190.146 			"/>
		</g>
	</g>
	<g>
		<path fill="#FFFFFF" d="M72.085,227.35c0,8.742-6.966,15.832-12.18,15.832c-6.209,0-12.178-7.09-12.178-15.832
			s3.393-15.832,12.178-15.832C68.985,211.518,72.085,218.607,72.085,227.35z"/>
		<path fill="#FFFFFF" d="M72.843,251.531c-11.966-4.611-6.769-14.32-6.769-14.32l-6.709-8.578l-6.732,8.477
			c0,0,5.187,9.824-6.78,14.439c-10.352,3.99-16.376,6.447-18.828,22.947h32.341h32.294
			C89.207,257.996,83.194,255.523,72.843,251.531z"/>
	</g>
	<g>
		<path fill="#FFFFFF" d="M713.773,249.361c-6.867-2.646-7.773-7.011-7.773-10.011v0.059c4-3,7.016-7.895,7.016-13.937
			c0-8.742-3.145-15.819-12.225-15.819c-8.785,0-11.96,7.095-11.96,15.837c0,5.656,2.169,10.61,6.169,13.41v0.003
			c0,3.277-0.816,7.989-8.066,10.785c-3.52,1.356-6.647,2.507-9.196,4.12c0.499,1.139,1.668,2.208,4.625,3.349
			c8.704,3.357,14.904,5.843,18.651,14.843h31.485C730.047,256,724.125,253.354,713.773,249.361z"/>
		<path fill="#FFFFFF" d="M649.183,249.655c-6.892-2.656-8.087-6.989-7.864-10.198l0,0c3.778-2.669,7.106-7.919,7.106-13.96
			c0-8.742-3.1-15.832-12.18-15.832c-8.785,0-12.178,7.09-12.178,15.832c0,5.655,2.504,10.606,5.951,13.406l0,0
			c0.378,3.278-0.568,7.671-7.826,10.47c-10.352,3.99-16.376,6.627-18.828,22.627h29.991c3.747-9,10.011-11.469,18.718-14.826
			c3.553-1.369,4.631-2.914,4.922-4.239C654.729,251.681,652.14,250.796,649.183,249.655z"/>
		<path fill="#FFFFFF" d="M696.038,272.234c-3.271-6-8.305-8.043-15.355-10.762c-3.459-1.333-5.482-2.99-6.613-4.817
			c-0.004,0.005-0.009,0.04-0.014,0.045c-1.108-1.808-1.349-3.666-1.236-5.258c3.777-2.668,7.105-7.911,7.105-13.952
			c0-8.742-3.1-15.829-12.18-15.829c-8.785,0-12.178,7.092-12.178,15.834c0,5.655,2.504,10.607,5.951,13.408
			c0.166,1.435,0.072,3.146-0.688,4.851c-0.005-0.004-0.009-0.007-0.012-0.011c-0.984,2.178-3.067,4.277-7.126,5.842
			c-7.049,2.719-12.087,4.649-15.362,10.649c-1.534,3-2.684,7.766-3.466,11.766h32.341h32.294
			C698.717,280,697.568,275.234,696.038,272.234z M667.97,272.468c-0.014-0.071-0.026-0.143-0.038-0.219
			c-0.012,0.076-0.024,0.147-0.038,0.219h-0.029c0.018,0,0.041-0.137,0.061-0.262c0.001,0.014,0.004,0.028,0.007,0.043
			c0.003-0.019,0.006-0.034,0.009-0.052c0.021,0.128,0.041,0.271,0.059,0.271H667.97z"/>
	</g>
	<g>
		<path fill="#FFFFFF" d="M166.624,34.262c2.441,0,4.368,0.628,5.778,1.883c1.412,1.255,2.117,2.898,2.117,4.93
			c0,2.041-0.705,3.682-2.117,4.922c-1.41,1.24-3.337,1.859-5.778,1.859h-3.604v4.732l2.285,0.439v2.562h-8.833v-2.562l2.271-0.439
			V37.279l-2.271-0.439v-2.578h2.271H166.624z M163.021,44.561h3.604c1.191,0,2.093-0.325,2.702-0.975
			c0.611-0.649,0.916-1.477,0.916-2.482c0-1.025-0.305-1.873-0.916-2.542c-0.609-0.669-1.511-1.003-2.702-1.003h-3.604V44.561z"/>
		<path fill="#FFFFFF" d="M187.073,53.584c-0.508,0.742-1.136,1.312-1.882,1.713c-0.748,0.4-1.6,0.602-2.557,0.602
			c-1.67,0-2.979-0.535-3.926-1.604s-1.421-2.731-1.421-4.987v-6.549l-1.743-0.439V39.74h1.743h4.277v9.596
			c0,1.152,0.192,1.979,0.579,2.482c0.385,0.503,0.959,0.754,1.721,0.754c0.674,0,1.258-0.109,1.75-0.329
			c0.494-0.22,0.896-0.534,1.209-0.944v-8.541l-1.875-0.439V39.74h1.875h4.277v12.848l1.919,0.439v2.562h-5.669L187.073,53.584z"/>
		<path fill="#FFFFFF" d="M210.027,48.105c0,2.363-0.527,4.252-1.582,5.668s-2.578,2.125-4.57,2.125
			c-0.928,0-1.733-0.193-2.417-0.579s-1.26-0.944-1.729-1.677l-0.308,1.947h-3.691V35.756l-2.271-0.439v-2.578h6.533v8.688
			c0.459-0.635,1.009-1.123,1.647-1.465c0.641-0.342,1.375-0.514,2.205-0.514c2.012,0,3.545,0.76,4.6,2.278s1.582,3.542,1.582,6.071
			V48.105z M205.765,47.797c0-1.543-0.228-2.766-0.681-3.669c-0.455-0.903-1.229-1.354-2.322-1.354
			c-0.664,0-1.226,0.139-1.685,0.417s-0.82,0.677-1.084,1.194v6.693c0.264,0.488,0.628,0.859,1.091,1.113
			c0.465,0.254,1.033,0.381,1.707,0.381c1.104,0,1.875-0.388,2.314-1.164s0.659-1.877,0.659-3.303V47.797z"/>
		<path fill="#FFFFFF" d="M211.258,35.316v-2.578h6.562v19.85l2.065,0.439v2.562h-8.408v-2.562l2.065-0.439V35.756L211.258,35.316z"
			/>
		<path fill="#FFFFFF" d="M221.146,53.027l2.065-0.439v-9.83l-2.285-0.439V39.74h6.562v12.848l2.051,0.439v2.562h-8.394V53.027z
			 M227.488,35.947h-4.277v-3.209h4.277V35.947z"/>
		<path fill="#FFFFFF" d="M238.387,52.617c0.762,0,1.372-0.223,1.831-0.667s0.688-1.038,0.688-1.78h3.867l0.044,0.088
			c0.039,1.602-0.562,2.942-1.802,4.021s-2.783,1.619-4.629,1.619c-2.363,0-4.185-0.748-5.464-2.242s-1.919-3.412-1.919-5.756
			v-0.439c0-2.334,0.656-4.254,1.971-5.758c1.312-1.504,3.186-2.256,5.617-2.256c1.279,0,2.427,0.191,3.442,0.572
			s1.86,0.918,2.534,1.611l0.059,4.232h-3.472l-0.703-2.475c-0.215-0.186-0.479-0.34-0.791-0.462s-0.669-0.183-1.069-0.183
			c-1.211,0-2.065,0.439-2.563,1.318s-0.747,2.012-0.747,3.398V47.9c0,1.416,0.229,2.556,0.688,3.42S237.234,52.617,238.387,52.617z
			"/>
		<path fill="#FFFFFF" d="M256.844,55.59c-0.117-0.264-0.22-0.534-0.308-0.812s-0.156-0.559-0.205-0.842
			c-0.508,0.586-1.126,1.059-1.853,1.42c-0.729,0.361-1.561,0.543-2.498,0.543c-1.553,0-2.785-0.423-3.699-1.268
			c-0.912-0.845-1.369-1.994-1.369-3.449c0-1.484,0.596-2.633,1.787-3.443s2.939-1.215,5.244-1.215h2.183v-1.553
			c0-0.762-0.22-1.354-0.659-1.773s-1.089-0.629-1.948-0.629c-0.488,0-0.923,0.056-1.304,0.168s-0.688,0.246-0.923,0.402
			l-0.278,1.699h-3.223l0.015-3.516c0.781-0.527,1.677-0.971,2.688-1.332c1.01-0.361,2.111-0.543,3.303-0.543
			c1.963,0,3.557,0.481,4.783,1.443c1.225,0.962,1.838,2.332,1.838,4.109v6.547c0,0.244,0.002,0.475,0.008,0.689
			c0.004,0.215,0.021,0.42,0.051,0.615l1.304,0.176v2.562H256.844z M253.138,52.734c0.645,0,1.23-0.14,1.758-0.418
			s0.938-0.627,1.23-1.047v-2.418h-2.183c-0.908,0-1.597,0.213-2.065,0.638s-0.703,0.935-0.703,1.53c0,0.537,0.173,0.957,0.521,1.26
			C252.041,52.582,252.522,52.734,253.138,52.734z"/>
		<path fill="#FFFFFF" d="M263.553,53.027l2.051-0.439v-9.83l-2.271-0.439V39.74h6.255l0.19,2.314
			c0.371-0.82,0.85-1.459,1.436-1.918s1.265-0.689,2.036-0.689c0.225,0,0.461,0.018,0.711,0.052
			c0.248,0.034,0.456,0.075,0.622,0.124l-0.454,3.896l-1.758-0.043c-0.625,0-1.143,0.121-1.553,0.365s-0.723,0.592-0.938,1.041
			v7.705l2.051,0.439v2.562h-8.379V53.027z"/>
	</g>
	<g>
		<path fill="#FFFFFF" d="M165.262,453.217c-0.693,0.684-1.704,1.302-3.032,1.854s-3.008,0.828-5.039,0.828
			c-2.881,0-5.225-0.965-7.031-2.894s-2.71-4.437-2.71-7.522v-0.732c0-3.193,0.891-5.791,2.674-7.793
			c1.781-2.002,4.108-3.002,6.979-3.002c1.67,0,3.196,0.266,4.577,0.798c1.383,0.532,2.532,1.253,3.45,2.161v4.291h-3.164
			l-0.601-2.855c-0.391-0.332-0.906-0.599-1.545-0.799c-0.641-0.2-1.375-0.301-2.205-0.301c-1.865,0-3.315,0.689-4.351,2.066
			s-1.553,3.178-1.553,5.404v0.762c0,2.168,0.508,3.899,1.523,5.193s2.48,1.941,4.395,1.941c0.859,0,1.556-0.074,2.087-0.221
			c0.533-0.146,0.95-0.316,1.253-0.512v-3.619l-3.047-0.234v-3.002h7.339V453.217z"/>
		<path fill="#FFFFFF" d="M175.091,455.898c-2.285,0-4.111-0.732-5.479-2.197s-2.051-3.326-2.051-5.582v-0.586
			c0-2.354,0.647-4.291,1.94-5.814c1.295-1.523,3.03-2.281,5.208-2.271c2.139,0,3.799,0.645,4.98,1.934s1.772,3.033,1.772,5.23
			v2.328H172l-0.029,0.088c0.078,1.045,0.428,1.904,1.047,2.578c0.621,0.674,1.463,1.012,2.527,1.012
			c0.947,0,1.733-0.096,2.358-0.286s1.309-0.491,2.051-0.901l1.157,2.637c-0.654,0.518-1.502,0.953-2.541,1.305
			C177.529,455.723,176.37,455.898,175.091,455.898z M174.71,442.744c-0.791,0-1.416,0.303-1.875,0.908s-0.742,1.4-0.85,2.387
			l0.044,0.074h5.244v-0.381c0-0.908-0.213-1.634-0.637-2.176C176.211,443.015,175.569,442.744,174.71,442.744z"/>
		<path fill="#FFFFFF" d="M196.419,445.189h-2.871l-0.454-1.977c-0.293-0.234-0.662-0.43-1.105-0.586
			c-0.445-0.156-0.936-0.234-1.473-0.234c-0.752,0-1.348,0.168-1.787,0.505s-0.659,0.759-0.659,1.267c0,0.479,0.21,0.877,0.63,1.194
			s1.26,0.599,2.52,0.843c1.963,0.391,3.418,0.964,4.365,1.721s1.421,1.799,1.421,3.127c0,1.426-0.612,2.591-1.839,3.494
			c-1.225,0.903-2.839,1.355-4.841,1.355c-1.221,0-2.341-0.179-3.362-0.535c-1.02-0.356-1.926-0.867-2.717-1.531l-0.044-3.559h2.988
			l0.586,2.064c0.254,0.215,0.601,0.374,1.04,0.477s0.898,0.154,1.377,0.154c0.869,0,1.531-0.156,1.984-0.469
			c0.455-0.312,0.682-0.738,0.682-1.275c0-0.469-0.229-0.873-0.688-1.215s-1.304-0.645-2.534-0.908
			c-1.865-0.381-3.273-0.945-4.227-1.692c-0.951-0.747-1.428-1.765-1.428-3.054c0-1.328,0.547-2.474,1.641-3.436
			s2.651-1.443,4.673-1.443c1.23,0,2.396,0.166,3.493,0.498c1.1,0.332,1.961,0.758,2.586,1.275L196.419,445.189z"/>
		<path fill="#FFFFFF" d="M205.237,435.859v3.881h2.783v3.004h-2.783v8.07c0,0.615,0.127,1.055,0.381,1.318s0.596,0.396,1.025,0.396
			c0.293,0,0.55-0.013,0.769-0.037c0.221-0.024,0.467-0.066,0.74-0.125l0.366,3.092c-0.479,0.146-0.952,0.256-1.421,0.329
			s-0.977,0.11-1.523,0.11c-1.475,0-2.609-0.406-3.406-1.217c-0.795-0.811-1.193-2.094-1.193-3.852v-8.086h-2.329v-3.004h2.329
			v-3.881H205.237z"/>
		<path fill="#FFFFFF" d="M209.983,453.027l2.065-0.439v-9.83l-2.285-0.439v-2.578h6.562v12.848l2.051,0.439v2.562h-8.394V453.027z
			 M216.326,435.947h-4.277v-3.209h4.277V435.947z"/>
		<path fill="#FFFFFF" d="M219.783,447.52c0-2.363,0.662-4.3,1.984-5.809c1.324-1.509,3.152-2.264,5.486-2.264
			c2.344,0,4.178,0.752,5.5,2.256c1.324,1.504,1.985,3.443,1.985,5.816v0.307c0,2.383-0.661,4.324-1.985,5.823
			c-1.322,1.499-3.146,2.249-5.471,2.249c-2.354,0-4.191-0.75-5.516-2.249c-1.322-1.499-1.984-3.44-1.984-5.823V447.52z
			 M224.061,447.826c0,1.445,0.254,2.605,0.762,3.479s1.328,1.312,2.461,1.312c1.104,0,1.912-0.439,2.424-1.318
			c0.514-0.879,0.77-2.037,0.77-3.473v-0.307c0-1.406-0.259-2.555-0.776-3.443s-1.333-1.332-2.446-1.332s-1.924,0.443-2.432,1.332
			s-0.762,2.037-0.762,3.443V447.826z"/>
		<path fill="#FFFFFF" d="M236.365,453.027l2.051-0.439v-9.83l-2.271-0.439v-2.578h6.255l0.19,2.271
			c0.527-0.811,1.177-1.441,1.948-1.891s1.636-0.674,2.593-0.674c1.602,0,2.852,0.504,3.75,1.51s1.348,2.582,1.348,4.73v6.9
			l2.051,0.439v2.562h-8.174v-2.562l1.831-0.439v-6.885c0-1.064-0.215-1.819-0.645-2.264s-1.079-0.666-1.948-0.666
			c-0.566,0-1.074,0.114-1.523,0.344s-0.825,0.555-1.128,0.975v8.496l1.729,0.439v2.562h-8.057V453.027z"/>
		<path fill="#FFFFFF" d="M265.735,455.59c-0.117-0.264-0.22-0.534-0.308-0.812s-0.156-0.559-0.205-0.842
			c-0.508,0.586-1.125,1.059-1.854,1.42c-0.727,0.361-1.56,0.543-2.497,0.543c-1.553,0-2.786-0.423-3.698-1.268
			c-0.914-0.845-1.37-1.994-1.37-3.449c0-1.484,0.596-2.633,1.787-3.443s2.939-1.215,5.244-1.215h2.183v-1.553
			c0-0.762-0.22-1.354-0.659-1.773s-1.089-0.629-1.948-0.629c-0.488,0-0.923,0.056-1.304,0.168s-0.688,0.246-0.923,0.402
			l-0.278,1.699h-3.223l0.015-3.516c0.781-0.527,1.678-0.971,2.688-1.332c1.012-0.361,2.112-0.543,3.304-0.543
			c1.963,0,3.558,0.481,4.782,1.443c1.227,0.962,1.839,2.332,1.839,4.109v6.547c0,0.244,0.003,0.475,0.007,0.689
			c0.006,0.215,0.022,0.42,0.052,0.615l1.304,0.176v2.562H265.735z M262.029,452.734c0.645,0,1.23-0.14,1.758-0.418
			s0.938-0.627,1.23-1.047v-2.418h-2.183c-0.908,0-1.597,0.213-2.065,0.638s-0.703,0.935-0.703,1.53c0,0.537,0.174,0.957,0.52,1.26
			C260.934,452.582,261.414,452.734,262.029,452.734z"/>
		<path fill="#FFFFFF" d="M272.444,453.027l2.051-0.439v-9.83l-2.271-0.439v-2.578h6.255l0.19,2.314
			c0.371-0.82,0.85-1.459,1.436-1.918s1.265-0.689,2.036-0.689c0.225,0,0.462,0.018,0.71,0.052c0.25,0.034,0.457,0.075,0.623,0.124
			l-0.454,3.896l-1.758-0.043c-0.625,0-1.143,0.121-1.553,0.365s-0.723,0.592-0.938,1.041v7.705l2.051,0.439v2.562h-8.379V453.027z"
			/>
	</g>
	<g>
		<path fill="#FFFFFF" d="M472.309,34.262c2.607,0,4.756,0.833,6.445,2.498s2.535,3.801,2.535,6.408v3.531
			c0,2.617-0.846,4.753-2.535,6.408s-3.838,2.482-6.445,2.482h-9.594v-2.562l2.27-0.439V37.279l-2.27-0.439v-2.578h2.27H472.309z
			 M469.262,37.559v14.75h2.828c1.533,0,2.734-0.518,3.604-1.553s1.303-2.387,1.303-4.057v-3.561c0-1.65-0.434-2.992-1.303-4.027
			s-2.07-1.553-3.604-1.553H469.262z"/>
		<path fill="#FFFFFF" d="M491.074,55.898c-2.285,0-4.111-0.732-5.479-2.197s-2.051-3.326-2.051-5.582v-0.586
			c0-2.354,0.646-4.291,1.94-5.814s3.03-2.281,5.208-2.271c2.139,0,3.799,0.645,4.98,1.934s1.771,3.033,1.771,5.23v2.328h-9.463
			l-0.029,0.088c0.078,1.045,0.428,1.904,1.048,2.578s1.462,1.012,2.526,1.012c0.947,0,1.734-0.096,2.359-0.286
			s1.309-0.491,2.051-0.901l1.156,2.637c-0.654,0.518-1.501,0.953-2.541,1.305S492.354,55.898,491.074,55.898z M490.693,42.744
			c-0.791,0-1.416,0.303-1.875,0.908s-0.742,1.4-0.85,2.387l0.043,0.074h5.244v-0.381c0-0.908-0.212-1.634-0.637-2.176
			S491.553,42.744,490.693,42.744z"/>
		<path fill="#FFFFFF" d="M499.014,35.316v-2.578h6.562v19.85l2.064,0.439v2.562h-8.408v-2.562l2.066-0.439V35.756L499.014,35.316z"
			/>
		<path fill="#FFFFFF" d="M508.9,53.027l2.066-0.439v-9.83l-2.285-0.439V39.74h6.562v12.848l2.051,0.439v2.562H508.9V53.027z
			 M515.244,35.947h-4.277v-3.209h4.277V35.947z"/>
		<path fill="#FFFFFF" d="M534.023,48.105c0,2.363-0.527,4.252-1.582,5.668s-2.578,2.125-4.57,2.125
			c-0.928,0-1.734-0.193-2.418-0.579s-1.26-0.944-1.729-1.677l-0.307,1.947h-3.691V35.756l-2.271-0.439v-2.578h6.533v8.688
			c0.459-0.635,1.009-1.123,1.648-1.465s1.375-0.514,2.205-0.514c2.012,0,3.545,0.76,4.6,2.278s1.582,3.542,1.582,6.071V48.105z
			 M529.76,47.797c0-1.543-0.227-2.766-0.681-3.669s-1.228-1.354-2.321-1.354c-0.664,0-1.227,0.139-1.686,0.417
			s-0.82,0.677-1.084,1.194v6.693c0.264,0.488,0.628,0.859,1.092,1.113s1.033,0.381,1.707,0.381c1.104,0,1.875-0.388,2.314-1.164
			s0.658-1.877,0.658-3.303V47.797z"/>
		<path fill="#FFFFFF" d="M543.588,55.898c-2.285,0-4.111-0.732-5.479-2.197s-2.051-3.326-2.051-5.582v-0.586
			c0-2.354,0.647-4.291,1.941-5.814s3.029-2.281,5.207-2.271c2.139,0,3.799,0.645,4.98,1.934s1.773,3.033,1.773,5.23v2.328h-9.463
			l-0.029,0.088c0.078,1.045,0.427,1.904,1.047,2.578s1.463,1.012,2.527,1.012c0.947,0,1.732-0.096,2.357-0.286
			s1.309-0.491,2.051-0.901l1.158,2.637c-0.654,0.518-1.502,0.953-2.542,1.305S544.867,55.898,543.588,55.898z M543.207,42.744
			c-0.791,0-1.416,0.303-1.875,0.908s-0.742,1.4-0.85,2.387l0.045,0.074h5.244v-0.381c0-0.908-0.213-1.634-0.638-2.176
			S544.066,42.744,543.207,42.744z"/>
		<path fill="#FFFFFF" d="M552.305,53.027l2.051-0.439v-9.83l-2.271-0.439V39.74h6.256l0.189,2.314
			c0.371-0.82,0.85-1.459,1.436-1.918s1.266-0.689,2.037-0.689c0.225,0,0.461,0.018,0.71,0.052s0.456,0.075,0.622,0.124
			l-0.453,3.896l-1.758-0.043c-0.625,0-1.143,0.121-1.553,0.365s-0.723,0.592-0.938,1.041v7.705l2.051,0.439v2.562h-8.379V53.027z"
			/>
		<path fill="#FFFFFF" d="M574.408,55.59c-0.117-0.264-0.219-0.534-0.307-0.812s-0.156-0.559-0.205-0.842
			c-0.508,0.586-1.126,1.059-1.854,1.42s-1.561,0.543-2.498,0.543c-1.553,0-2.785-0.423-3.698-1.268s-1.37-1.994-1.37-3.449
			c0-1.484,0.596-2.633,1.787-3.443s2.939-1.215,5.244-1.215h2.184v-1.553c0-0.762-0.221-1.354-0.66-1.773s-1.088-0.629-1.947-0.629
			c-0.488,0-0.924,0.056-1.305,0.168s-0.688,0.246-0.922,0.402l-0.279,1.699h-3.223l0.016-3.516
			c0.781-0.527,1.677-0.971,2.688-1.332s2.111-0.543,3.303-0.543c1.963,0,3.558,0.481,4.783,1.443s1.838,2.332,1.838,4.109v6.547
			c0,0.244,0.003,0.475,0.008,0.689s0.021,0.42,0.051,0.615l1.305,0.176v2.562H574.408z M570.703,52.734
			c0.645,0,1.23-0.14,1.758-0.418s0.938-0.627,1.23-1.047v-2.418h-2.184c-0.908,0-1.596,0.213-2.064,0.638s-0.703,0.935-0.703,1.53
			c0,0.537,0.173,0.957,0.52,1.26S570.088,52.734,570.703,52.734z"/>
		<path fill="#FFFFFF" d="M581.117,53.027l2.051-0.439v-9.83l-2.27-0.439V39.74h6.254l0.191,2.314
			c0.371-0.82,0.85-1.459,1.436-1.918s1.264-0.689,2.035-0.689c0.225,0,0.462,0.018,0.711,0.052s0.457,0.075,0.623,0.124
			l-0.455,3.896l-1.758-0.043c-0.625,0-1.143,0.121-1.553,0.365s-0.723,0.592-0.938,1.041v7.705l2.051,0.439v2.562h-8.379V53.027z"
			/>
	</g>
	<g>
		<path fill="#FFFFFF" d="M472.814,441.455h-3.179l-0.439-2.842c-0.42-0.42-0.95-0.752-1.589-0.996
			c-0.641-0.244-1.395-0.367-2.264-0.367c-1.855,0-3.283,0.674-4.285,2.021c-1,1.348-1.501,3.105-1.501,5.273v0.748
			c0,2.168,0.498,3.93,1.494,5.287s2.402,2.037,4.219,2.037c0.84,0,1.608-0.123,2.308-0.367c0.697-0.244,1.237-0.576,1.618-0.996
			l0.439-2.842h3.179v4.219c-0.859,0.996-1.955,1.79-3.289,2.381c-1.332,0.591-2.824,0.887-4.475,0.887
			c-2.861,0-5.205-0.992-7.031-2.975s-2.739-4.525-2.739-7.631v-0.719c0-3.096,0.908-5.639,2.725-7.631s4.165-2.988,7.046-2.988
			c1.65,0,3.14,0.3,4.468,0.9s2.427,1.395,3.296,2.381V441.455z"/>
		<path fill="#FFFFFF" d="M474.88,447.52c0-2.363,0.661-4.3,1.985-5.809c1.322-1.509,3.151-2.264,5.485-2.264
			c2.344,0,4.177,0.752,5.501,2.256c1.322,1.504,1.984,3.443,1.984,5.816v0.307c0,2.383-0.662,4.324-1.984,5.823
			c-1.324,1.499-3.147,2.249-5.472,2.249c-2.354,0-4.192-0.75-5.515-2.249c-1.324-1.499-1.985-3.44-1.985-5.823V447.52z
			 M479.157,447.826c0,1.445,0.254,2.605,0.762,3.479s1.328,1.312,2.461,1.312c1.104,0,1.911-0.439,2.425-1.318
			c0.512-0.879,0.769-2.037,0.769-3.473v-0.307c0-1.406-0.259-2.555-0.776-3.443s-1.333-1.332-2.446-1.332s-1.924,0.443-2.432,1.332
			s-0.762,2.037-0.762,3.443V447.826z"/>
		<path fill="#FFFFFF" d="M491.462,453.027l2.051-0.439v-9.83l-2.271-0.439v-2.578h6.255l0.19,2.271
			c0.527-0.811,1.177-1.441,1.948-1.891s1.636-0.674,2.593-0.674c1.602,0,2.852,0.504,3.75,1.51s1.348,2.582,1.348,4.73v6.9
			l2.051,0.439v2.562h-8.174v-2.562l1.831-0.439v-6.885c0-1.064-0.215-1.819-0.645-2.264s-1.079-0.666-1.948-0.666
			c-0.566,0-1.074,0.114-1.523,0.344s-0.825,0.555-1.128,0.975v8.496l1.729,0.439v2.562h-8.057V453.027z"/>
		<path fill="#FFFFFF" d="M517.463,442.318l-1.494,0.279l2.095,7.09l0.278,1.494h0.088l0.308-1.494l2.065-7.076l-1.523-0.293v-2.578
			h7.192v2.578l-1.377,0.221l-4.673,13.051h-4.087l-4.688-13.051l-1.377-0.221v-2.578h7.192V442.318z"/>
		<path fill="#FFFFFF" d="M535.231,455.898c-2.285,0-4.111-0.732-5.479-2.197s-2.051-3.326-2.051-5.582v-0.586
			c0-2.354,0.647-4.291,1.94-5.814c1.295-1.523,3.03-2.281,5.208-2.271c2.139,0,3.799,0.645,4.98,1.934s1.772,3.033,1.772,5.23
			v2.328h-9.463l-0.029,0.088c0.078,1.045,0.428,1.904,1.047,2.578c0.621,0.674,1.463,1.012,2.527,1.012
			c0.947,0,1.733-0.096,2.358-0.286s1.309-0.491,2.051-0.901l1.157,2.637c-0.654,0.518-1.502,0.953-2.541,1.305
			C537.67,455.723,536.511,455.898,535.231,455.898z M534.851,442.744c-0.791,0-1.416,0.303-1.875,0.908s-0.742,1.4-0.85,2.387
			l0.044,0.074h5.244v-0.381c0-0.908-0.213-1.634-0.637-2.176C536.352,443.015,535.71,442.744,534.851,442.744z"/>
		<path fill="#FFFFFF" d="M543.947,453.027l2.051-0.439v-9.83l-2.271-0.439v-2.578h6.255l0.19,2.314
			c0.371-0.82,0.85-1.459,1.436-1.918s1.265-0.689,2.036-0.689c0.225,0,0.461,0.018,0.711,0.052
			c0.248,0.034,0.456,0.075,0.622,0.124l-0.454,3.896l-1.758-0.043c-0.625,0-1.143,0.121-1.553,0.365s-0.723,0.592-0.938,1.041
			v7.705l2.051,0.439v2.562h-8.379V453.027z"/>
		<path fill="#FFFFFF" d="M569.187,445.189h-2.871l-0.454-1.977c-0.293-0.234-0.662-0.43-1.105-0.586
			c-0.445-0.156-0.936-0.234-1.473-0.234c-0.752,0-1.348,0.168-1.787,0.505s-0.659,0.759-0.659,1.267c0,0.479,0.21,0.877,0.63,1.194
			s1.26,0.599,2.52,0.843c1.963,0.391,3.418,0.964,4.365,1.721s1.421,1.799,1.421,3.127c0,1.426-0.612,2.591-1.839,3.494
			c-1.225,0.903-2.839,1.355-4.841,1.355c-1.221,0-2.341-0.179-3.362-0.535c-1.02-0.356-1.926-0.867-2.717-1.531l-0.044-3.559h2.988
			l0.586,2.064c0.254,0.215,0.601,0.374,1.04,0.477s0.898,0.154,1.377,0.154c0.869,0,1.531-0.156,1.984-0.469
			c0.455-0.312,0.682-0.738,0.682-1.275c0-0.469-0.229-0.873-0.688-1.215s-1.304-0.645-2.534-0.908
			c-1.865-0.381-3.273-0.945-4.227-1.692c-0.951-0.747-1.428-1.765-1.428-3.054c0-1.328,0.547-2.474,1.641-3.436
			s2.651-1.443,4.673-1.443c1.23,0,2.396,0.166,3.493,0.498c1.1,0.332,1.961,0.758,2.586,1.275L569.187,445.189z"/>
		<path fill="#FFFFFF" d="M581.784,455.59c-0.117-0.264-0.22-0.534-0.308-0.812s-0.156-0.559-0.205-0.842
			c-0.508,0.586-1.125,1.059-1.854,1.42c-0.727,0.361-1.56,0.543-2.497,0.543c-1.553,0-2.786-0.423-3.698-1.268
			c-0.914-0.845-1.37-1.994-1.37-3.449c0-1.484,0.596-2.633,1.787-3.443s2.939-1.215,5.244-1.215h2.183v-1.553
			c0-0.762-0.22-1.354-0.659-1.773s-1.089-0.629-1.948-0.629c-0.488,0-0.923,0.056-1.304,0.168s-0.688,0.246-0.923,0.402
			l-0.278,1.699h-3.223l0.015-3.516c0.781-0.527,1.678-0.971,2.688-1.332c1.012-0.361,2.112-0.543,3.304-0.543
			c1.963,0,3.558,0.481,4.782,1.443c1.227,0.962,1.839,2.332,1.839,4.109v6.547c0,0.244,0.003,0.475,0.007,0.689
			c0.006,0.215,0.022,0.42,0.052,0.615l1.304,0.176v2.562H581.784z M578.078,452.734c0.645,0,1.23-0.14,1.758-0.418
			s0.938-0.627,1.23-1.047v-2.418h-2.183c-0.908,0-1.597,0.213-2.065,0.638s-0.703,0.935-0.703,1.53c0,0.537,0.174,0.957,0.52,1.26
			C576.982,452.582,577.463,452.734,578.078,452.734z"/>
		<path fill="#FFFFFF" d="M588.493,453.027l2.051-0.439v-9.83l-2.271-0.439v-2.578h6.255l0.19,2.314
			c0.371-0.82,0.85-1.459,1.436-1.918s1.265-0.689,2.036-0.689c0.225,0,0.462,0.018,0.71,0.052c0.25,0.034,0.457,0.075,0.623,0.124
			l-0.454,3.896l-1.758-0.043c-0.625,0-1.143,0.121-1.553,0.365s-0.723,0.592-0.938,1.041v7.705l2.051,0.439v2.562h-8.379V453.027z"
			/>
	</g>
	<g>
		<path fill="#FFFFFF" d="M427.131,244.691c0,0,0.209,8.266-5.823,14.297c-6.036,6.039-9.953,7.626-15.675,7.626
			c-5.713,0-11.322-1.477-21.705-10.264c-10.379-8.796-13.711-12.134-13.711-12.134s8.095-8.312,13.711-12.652
			c5.613-4.344,13.025-10.164,21.705-10.164c8.684,0,13.506,5.135,15.675,7.303C423.475,230.875,427.131,236.963,427.131,244.691z"
			/>
		<path fill="#FFFFFF" d="M313.358,244.691c0,0-0.206,8.266,5.83,14.297c6.024,6.039,9.953,7.626,15.671,7.626
			c5.717,0,11.328-1.477,21.704-10.264c10.379-8.796,13.714-12.134,13.714-12.134s-8.098-8.312-13.714-12.652
			c-5.609-4.344-13.021-10.164-21.704-10.164s-13.502,5.135-15.671,7.303C317.006,230.875,313.358,236.963,313.358,244.691z"/>
	</g>
</g>
</svg>
