<?xml version="1.0" encoding="utf-8"?>
<!-- Generator: Adobe Illustrator 16.0.0, SVG Export Plug-In . SVG Version: 6.00 Build 0)  -->
<!DOCTYPE svg PUBLIC "-//W3C//DTD SVG 1.1//EN" "http://www.w3.org/Graphics/SVG/1.1/DTD/svg11.dtd">
<svg version="1.1" xmlns="http://www.w3.org/2000/svg" xmlns:xlink="http://www.w3.org/1999/xlink" x="0px" y="0px" width="760px"
	 height="500px" viewBox="0 0 760 500" enable-background="new 0 0 760 500" xml:space="preserve">
<g id="modelo_completo">
</g>
<g id="publicacion">
	<g>
		<path fill="#FFFFFF" d="M357.633,186.869c-23.667-60.441-80.907-99.496-145.827-99.496c-53.49,0-102.737,26.889-131.734,71.928
			l-5.886-3.789c30.292-47.049,81.738-75.139,137.62-75.139c33.543,0,65.779,10.082,93.225,29.156
			c26.816,18.637,47.26,44.498,59.12,74.788L357.633,186.869z"/>
		<g>
			<polygon fill="#FFFFFF" points="369.615,169.463 366.336,168.23 360.281,184.391 344.604,177.171 343.143,180.354 
				362.236,189.143 			"/>
		</g>
	</g>
	<g>
		<path fill="#FFFFFF" d="M75.085,226.35c0,8.742-6.966,15.832-12.18,15.832c-6.209,0-12.178-7.09-12.178-15.832
			s3.393-15.832,12.178-15.832C71.985,210.518,75.085,217.607,75.085,226.35z"/>
		<path fill="#FFFFFF" d="M75.843,250.531c-11.966-4.611-6.769-14.32-6.769-14.32l-6.709-8.578l-6.732,8.477
			c0,0,5.187,9.824-6.78,14.439c-10.352,3.99-16.376,6.447-18.828,22.947h32.341h32.294
			C92.207,256.996,86.194,254.523,75.843,250.531z"/>
	</g>
	<g>
		<path fill="#FFFFFF" d="M716.773,248.361c-6.867-2.646-7.773-7.011-7.773-10.011v0.059c4-3,7.016-7.895,7.016-13.937
			c0-8.742-3.145-15.819-12.225-15.819c-8.785,0-11.96,7.095-11.96,15.837c0,5.656,2.169,10.61,6.169,13.41v0.003
			c0,3.277-0.816,7.989-8.066,10.785c-3.52,1.356-6.647,2.507-9.196,4.12c0.499,1.139,1.668,2.208,4.625,3.349
			c8.704,3.357,14.904,5.843,18.651,14.843h31.485C733.047,255,727.125,252.354,716.773,248.361z"/>
		<path fill="#FFFFFF" d="M652.183,248.655c-6.892-2.656-8.087-6.989-7.864-10.198l0,0c3.778-2.669,7.106-7.919,7.106-13.96
			c0-8.742-3.1-15.832-12.18-15.832c-8.785,0-12.178,7.09-12.178,15.832c0,5.655,2.504,10.606,5.951,13.406l0,0
			c0.378,3.278-0.568,7.671-7.826,10.47c-10.352,3.99-16.376,6.627-18.828,22.627h29.991c3.747-9,10.011-11.469,18.718-14.826
			c3.553-1.369,4.631-2.914,4.922-4.239C657.729,250.681,655.14,249.796,652.183,248.655z"/>
		<path fill="#FFFFFF" d="M699.038,271.234c-3.271-6-8.305-8.043-15.355-10.762c-3.459-1.333-5.482-2.99-6.613-4.817
			c-0.004,0.005-0.009,0.04-0.014,0.045c-1.108-1.808-1.349-3.666-1.236-5.258c3.777-2.668,7.105-7.911,7.105-13.952
			c0-8.742-3.1-15.829-12.18-15.829c-8.785,0-12.178,7.092-12.178,15.834c0,5.655,2.504,10.607,5.951,13.408
			c0.166,1.435,0.072,3.146-0.688,4.851c-0.005-0.004-0.009-0.007-0.012-0.011c-0.984,2.178-3.067,4.277-7.126,5.842
			c-7.049,2.719-12.087,4.649-15.362,10.649c-1.534,3-2.684,7.766-3.466,11.766h32.341h32.294
			C701.717,279,700.568,274.234,699.038,271.234z M670.97,271.468c-0.014-0.071-0.026-0.143-0.038-0.219
			c-0.012,0.076-0.024,0.147-0.038,0.219h-0.029c0.018,0,0.041-0.137,0.061-0.262c0.001,0.014,0.004,0.028,0.007,0.043
			c0.003-0.019,0.006-0.034,0.009-0.052c0.021,0.128,0.041,0.271,0.059,0.271H670.97z"/>
	</g>
	<g>
		<path fill="#FFFFFF" d="M169.624,33.262c2.441,0,4.368,0.628,5.779,1.883s2.117,2.898,2.117,4.93c0,2.041-0.706,3.682-2.117,4.922
			s-3.337,1.859-5.779,1.859h-3.604v4.732l2.285,0.439v2.562h-8.833v-2.562l2.271-0.439V36.279l-2.271-0.439v-2.578h2.271H169.624z
			 M166.021,43.561h3.604c1.191,0,2.092-0.325,2.703-0.975s0.916-1.477,0.916-2.482c0-1.025-0.305-1.873-0.916-2.542
			s-1.511-1.003-2.703-1.003h-3.604V43.561z"/>
		<path fill="#FFFFFF" d="M190.073,52.584c-0.508,0.742-1.135,1.312-1.882,1.713s-1.599,0.602-2.556,0.602
			c-1.67,0-2.979-0.535-3.926-1.604s-1.421-2.731-1.421-4.987v-6.549l-1.743-0.439V38.74h1.743h4.277v9.596
			c0,1.152,0.193,1.979,0.579,2.482s0.959,0.754,1.721,0.754c0.674,0,1.257-0.109,1.75-0.329s0.896-0.534,1.208-0.944v-8.541
			l-1.875-0.439V38.74h1.875h4.277v12.848l1.919,0.439v2.562h-5.669L190.073,52.584z"/>
		<path fill="#FFFFFF" d="M213.027,47.105c0,2.363-0.527,4.252-1.582,5.668s-2.578,2.125-4.57,2.125
			c-0.928,0-1.733-0.193-2.417-0.579s-1.26-0.944-1.729-1.677l-0.308,1.947h-3.691V34.756l-2.271-0.439v-2.578h6.533v8.688
			c0.459-0.635,1.008-1.123,1.648-1.465s1.375-0.514,2.205-0.514c2.012,0,3.545,0.76,4.6,2.278s1.582,3.542,1.582,6.071V47.105z
			 M208.765,46.797c0-1.543-0.227-2.766-0.681-3.669s-1.228-1.354-2.322-1.354c-0.664,0-1.226,0.139-1.685,0.417
			s-0.82,0.677-1.084,1.194v6.693c0.264,0.488,0.627,0.859,1.091,1.113s1.033,0.381,1.707,0.381c1.104,0,1.875-0.388,2.314-1.164
			s0.659-1.877,0.659-3.303V46.797z"/>
		<path fill="#FFFFFF" d="M214.258,34.316v-2.578h6.562v19.85l2.065,0.439v2.562h-8.408v-2.562l2.065-0.439V34.756L214.258,34.316z"
			/>
		<path fill="#FFFFFF" d="M224.146,52.027l2.065-0.439v-9.83l-2.285-0.439V38.74h6.562v12.848l2.051,0.439v2.562h-8.394V52.027z
			 M230.488,34.947h-4.277v-3.209h4.277V34.947z"/>
		<path fill="#FFFFFF" d="M241.387,51.617c0.762,0,1.372-0.223,1.831-0.667s0.688-1.038,0.688-1.78h3.867l0.044,0.088
			c0.039,1.602-0.562,2.942-1.802,4.021s-2.783,1.619-4.629,1.619c-2.363,0-4.185-0.748-5.464-2.242s-1.919-3.412-1.919-5.756
			v-0.439c0-2.334,0.657-4.254,1.97-5.758s3.186-2.256,5.618-2.256c1.279,0,2.427,0.191,3.442,0.572s1.86,0.918,2.534,1.611
			l0.059,4.232h-3.472l-0.703-2.475c-0.215-0.186-0.479-0.34-0.791-0.462s-0.669-0.183-1.069-0.183
			c-1.211,0-2.065,0.439-2.563,1.318s-0.747,2.012-0.747,3.398V46.9c0,1.416,0.229,2.556,0.688,3.42S240.234,51.617,241.387,51.617z
			"/>
		<path fill="#FFFFFF" d="M259.844,54.59c-0.117-0.264-0.22-0.534-0.308-0.812s-0.156-0.559-0.205-0.842
			c-0.508,0.586-1.125,1.059-1.853,1.42s-1.56,0.543-2.498,0.543c-1.553,0-2.786-0.423-3.699-1.268s-1.37-1.994-1.37-3.449
			c0-1.484,0.596-2.633,1.787-3.443s2.939-1.215,5.244-1.215h2.183v-1.553c0-0.762-0.22-1.354-0.659-1.773s-1.089-0.629-1.948-0.629
			c-0.488,0-0.923,0.056-1.304,0.168s-0.688,0.246-0.923,0.402l-0.278,1.699h-3.223l0.015-3.516
			c0.781-0.527,1.677-0.971,2.688-1.332s2.112-0.543,3.303-0.543c1.963,0,3.557,0.481,4.783,1.443s1.838,2.332,1.838,4.109v6.547
			c0,0.244,0.002,0.475,0.007,0.689s0.022,0.42,0.051,0.615l1.304,0.176v2.562H259.844z M256.138,51.734
			c0.645,0,1.23-0.14,1.758-0.418s0.938-0.627,1.23-1.047v-2.418h-2.183c-0.908,0-1.597,0.213-2.065,0.638s-0.703,0.935-0.703,1.53
			c0,0.537,0.173,0.957,0.52,1.26S255.522,51.734,256.138,51.734z"/>
		<path fill="#FFFFFF" d="M266.553,52.027l2.051-0.439v-9.83l-2.271-0.439V38.74h6.255l0.19,2.314
			c0.371-0.82,0.85-1.459,1.436-1.918s1.265-0.689,2.036-0.689c0.225,0,0.461,0.018,0.71,0.052s0.457,0.075,0.623,0.124
			l-0.454,3.896l-1.758-0.043c-0.625,0-1.143,0.121-1.553,0.365s-0.723,0.592-0.938,1.041v7.705l2.051,0.439v2.562h-8.379V52.027z"
			/>
	</g>
	<g>
		<path fill="#FFFFFF" d="M430.131,243.691c0,0,0.209,8.266-5.823,14.297c-6.036,6.039-9.953,7.626-15.675,7.626
			c-5.713,0-11.322-1.477-21.705-10.264c-10.379-8.796-13.711-12.134-13.711-12.134s8.095-8.312,13.711-12.652
			c5.613-4.344,13.025-10.164,21.705-10.164c8.684,0,13.506,5.135,15.675,7.303C426.475,229.875,430.131,235.963,430.131,243.691z"
			/>
		<path fill="#FFFFFF" d="M316.358,243.691c0,0-0.206,8.266,5.83,14.297c6.024,6.039,9.953,7.626,15.671,7.626
			c5.717,0,11.328-1.477,21.704-10.264c10.379-8.796,13.714-12.134,13.714-12.134s-8.098-8.312-13.714-12.652
			c-5.609-4.344-13.021-10.164-21.704-10.164s-13.502,5.135-15.671,7.303C320.006,229.875,316.358,235.963,316.358,243.691z"/>
	</g>
</g>
<g id="publicacion_y_conversacion">
</g>
<g id="conversacion">
</g>
<g id="mediafranca">
</g>
</svg>
